<?xml version="1.0" encoding="UTF-8"?>
<svg version="1.1" xmlns="http://www.w3.org/2000/svg" width="2000" height="2000">
<path d="M0 0 C3.25933117 1.24989236 5.630539 2.25399064 8.0859375 4.7578125 C8.62065674 5.29712402 9.15537598 5.83643555 9.70629883 6.39208984 C10.25697021 6.9639502 10.8076416 7.53581055 11.375 8.125 C11.95080811 8.71104004 12.52661621 9.29708008 13.11987305 9.90087891 C16.69189945 13.56224382 20.08385415 17.33903933 23.39453125 21.23828125 C25.74608321 23.81869471 28.37261045 26.02819137 31.02734375 28.2890625 C35.5309261 32.19513987 39.57565082 36.46538523 43.4375 41 C45.67256142 43.59444354 47.93151892 45.87374765 50.5625 48.0625 C54.71818824 51.57012769 58.32766251 55.50230842 62 59.5 C67.2517125 65.25416941 67.2517125 65.25416941 73 70.5 C77.72565993 74.41089097 81.72263899 79.02230038 85.86499023 83.52905273 C89.36085685 87.31025791 92.91020386 90.78049137 96.87890625 94.06640625 C100.5736077 97.43450426 103.85612124 101.19978292 107.22509766 104.88916016 C110.00802145 107.91723285 112.76371264 110.80974058 115.9375 113.4375 C119.98310914 116.79595684 123.44867969 120.63627136 127 124.5 C132.25176752 130.25411047 132.25176752 130.25411047 138 135.5 C142.72646164 139.41155446 146.72392386 144.02393391 150.8671875 148.53125 C153.79115892 151.69365686 156.6758919 154.74901398 160 157.5 C164.72646164 161.41155446 168.72392386 166.02393391 172.8671875 170.53125 C175.79115892 173.69365686 178.6758919 176.74901398 182 179.5 C186.72646164 183.41155446 190.72392386 188.02393391 194.8671875 192.53125 C197.79115892 195.69365686 200.6758919 198.74901398 204 201.5 C208.72565993 205.41089097 212.72263899 210.02230038 216.86499023 214.52905273 C220.36085685 218.31025791 223.91020386 221.78049137 227.87890625 225.06640625 C231.52602936 228.39113174 234.78878337 232.09234067 238.08227539 235.76391602 C240.89028447 238.86113217 243.75897636 241.71833622 246.9375 244.4375 C251.80899944 248.61440287 256.04272518 253.29958431 260.35546875 258.0390625 C264.09441779 262.09938871 267.94904508 265.8223253 272.18408203 269.36547852 C274.66509486 271.59865691 276.71347384 274.09673351 278.7734375 276.71484375 C279.17820312 277.13894531 279.58296875 277.56304688 280 278 C280.66 278 281.32 278 282 278 C283.53457367 276.48280017 283.53457367 276.48280017 285.125 274.5 C289.72991826 269.09089644 294.55346165 263.99717416 300.0625 259.5 C303.08304534 256.92932312 305.50947714 254.18982101 308.078125 251.18359375 C312.39879199 246.27454325 316.99898335 241.51097456 322.125 237.4375 C325.12582319 234.89332382 327.52988216 232.1659399 330.078125 229.18359375 C334.39879199 224.27454325 338.99898335 219.51097456 344.125 215.4375 C347.12582319 212.89332382 349.52988216 210.1659399 352.078125 207.18359375 C356.39879199 202.27454325 360.99898335 197.51097456 366.125 193.4375 C369.12446966 190.89447138 371.52761139 188.16889398 374.07421875 185.1875 C378.24409656 180.4509248 382.65875282 175.83955136 387.625 171.9375 C390.46178131 169.62328367 392.6664765 166.99391306 395.04296875 164.21875 C399.38032946 159.30134305 403.98518944 154.52193612 409.125 150.4375 C412.12582319 147.89332382 414.52988216 145.1659399 417.078125 142.18359375 C421.39879199 137.27454325 425.99898335 132.51097456 431.125 128.4375 C434.12582319 125.89332382 436.52988216 123.1659399 439.078125 120.18359375 C443.39879199 115.27454325 447.99898335 110.51097456 453.125 106.4375 C456.12446966 103.89447138 458.52761139 101.16889398 461.07421875 98.1875 C465.24409656 93.4509248 469.65875282 88.83955136 474.625 84.9375 C477.43816987 82.64254563 479.61685419 80.041794 481.97265625 77.2890625 C486.49100371 72.18742163 491.26517615 67.17309841 496.60546875 62.9296875 C498.76431575 61.18993152 500.42735382 59.50165477 502.1875 57.375 C507.20781196 51.5088149 512.54696525 45.7427258 518.6015625 40.93359375 C520.78116558 39.17642189 522.46872785 37.45812327 524.25 35.3125 C529.11187038 29.63502173 534.26172392 24.09685006 540.125 19.4375 C542.4732082 17.44662783 544.322654 15.56769248 546.3125 13.25 C549.03927877 10.08087712 551.80972894 6.97095376 554.6875 3.9375 C555.41324219 3.16277344 556.13898437 2.38804687 556.88671875 1.58984375 C559 0 559 0 560.81728745 0.10838985 C563.90643066 1.37026532 565.68240344 3.31425199 568.03668213 5.67591858 C568.53012611 6.16679929 569.02357009 6.65768 569.53196692 7.16343588 C571.18510153 8.81162547 572.82727931 10.4703155 574.46972656 12.12915039 C575.65192318 13.31219312 576.83478059 14.49457585 578.01824951 15.67634583 C581.23127433 18.88850866 584.43495504 22.10984815 587.63706684 25.33288503 C590.98427424 28.69882533 594.3399591 32.05629186 597.69476318 35.41465759 C604.0471994 41.77642422 610.39194853 48.14580068 616.73398757 54.51793045 C623.95414716 61.771603 631.18281044 69.01677554 638.41220903 76.26123822 C653.2843036 91.16470437 668.14565921 106.07883991 683 121 C681.91264449 124.26206653 681.39083685 124.70492259 678.8125 126.75 C674.52304147 130.36705692 670.78504155 134.37269138 667 138.5 C662.91026775 142.95022863 658.84825681 147.14282195 654.1875 151 C650.25366304 154.59665093 646.73985132 158.6070946 643.13500977 162.52905273 C639.63914315 166.31025791 636.08979614 169.78049137 632.12109375 173.06640625 C629.05150851 175.86464694 626.29932782 178.93444683 623.5 182 C616.77821956 189.36104402 616.77821956 189.36104402 613.0625 192.4375 C609.01689086 195.79595684 605.55132031 199.63627136 602 203.5 C597.90969532 207.94975084 593.84833658 212.14275594 589.1875 216 C585.92659073 218.98140276 582.98869378 222.24870133 580 225.5 C575.90967147 229.94972978 571.84833969 234.14275336 567.1875 238 C563.92659073 240.98140276 560.98869378 244.24870133 558 247.5 C553.90967147 251.94972978 549.84833969 256.14275336 545.1875 260 C541.25366304 263.59665093 537.73985132 267.6070946 534.13500977 271.52905273 C530.63914315 275.31025791 527.08979614 278.78049137 523.12109375 282.06640625 C520.05150851 284.86464694 517.29932782 287.93444683 514.5 291 C507.77821956 298.36104402 507.77821956 298.36104402 504.0625 301.4375 C500.01689086 304.79595684 496.55132031 308.63627136 493 312.5 C488.90969532 316.94975084 484.84833658 321.14275594 480.1875 325 C476.92659073 327.98140276 473.98869378 331.24870133 471 334.5 C466.90967147 338.94972978 462.84833969 343.14275336 458.1875 347 C454.92659073 349.98140276 451.98869378 353.24870133 449 356.5 C444.90967147 360.94972978 440.84833969 365.14275336 436.1875 369 C432.25825047 372.59245671 428.74771589 376.59744363 425.14819336 380.51586914 C421.53637771 384.42415892 417.85405437 388.03694518 413.75390625 391.4375 C410.51112995 394.32638757 407.78676021 397.68019348 405 401 C409.1534855 406.98925285 413.79412945 411.87034148 419.1875 416.75 C424.36155242 421.51435876 429.38346733 426.30850861 434.0625 431.5625 C436.85588153 434.69041824 439.58912892 437.63087196 442.8125 440.3125 C446.89457735 443.721245 450.40819973 447.59148411 454 451.5 C459.25174919 457.25413011 459.25174919 457.25413011 465 462.5 C469.72646164 466.41155446 473.72392386 471.02393391 477.8671875 475.53125 C480.79115892 478.69365686 483.6758919 481.74901398 487 484.5 C491.72565993 488.41089097 495.72263899 493.02230038 499.86499023 497.52905273 C503.36085685 501.31025791 506.91020386 504.78049137 510.87890625 508.06640625 C514.5736077 511.43450426 517.85612124 515.19978292 521.22509766 518.88916016 C524.00802145 521.91723285 526.76371264 524.80974058 529.9375 527.4375 C533.98310914 530.79595684 537.44867969 534.63627136 541 538.5 C546.25176752 544.25411047 546.25176752 544.25411047 552 549.5 C556.72646164 553.41155446 560.72392386 558.02393391 564.8671875 562.53125 C567.79115892 565.69365686 570.6758919 568.74901398 574 571.5 C578.72646164 575.41155446 582.72392386 580.02393391 586.8671875 584.53125 C589.79115892 587.69365686 592.6758919 590.74901398 596 593.5 C600.72646164 597.41155446 604.72392386 602.02393391 608.8671875 606.53125 C611.79115892 609.69365686 614.6758919 612.74901398 618 615.5 C622.72565993 619.41089097 626.72263899 624.02230038 630.86499023 628.52905273 C634.36085685 632.31025791 637.91020386 635.78049137 641.87890625 639.06640625 C645.5736077 642.43450426 648.85612124 646.19978292 652.22509766 649.88916016 C655.00802145 652.91723285 657.76371264 655.80974058 660.9375 658.4375 C665.75964371 662.43358055 669.87191158 667.13559559 674.07788086 671.75952148 C676.87793353 674.81891786 679.51892009 677.69076877 683 680 C681.43542724 683.74798463 679.11726873 686.14166809 676.26870728 689.00544739 C675.5414633 689.74054638 675.5414633 689.74054638 674.79952753 690.49049586 C673.17529635 692.12971726 671.54400588 693.76172243 669.91259766 695.39379883 C668.74599959 696.56801868 667.57980565 697.74264016 666.41398621 698.91763306 C663.24744697 702.10611402 660.07436144 705.28800057 656.89937639 708.46806931 C654.91734905 710.45373866 652.93662656 712.44070021 650.95634079 714.42810631 C644.05180711 721.35712714 637.14157811 728.28041514 630.2265625 735.19897461 C623.77312373 741.65605466 617.33295266 748.12616556 610.89864123 754.60230047 C605.37790877 760.15766101 599.8476589 765.7034253 594.30993497 771.24184817 C591.00067313 774.55190497 587.69555455 777.86586343 584.40010452 781.18967628 C581.30350895 784.3123263 578.19530932 787.42292807 575.07761574 790.52450943 C573.93321685 791.66708412 572.79311119 792.81397688 571.65757942 793.96536446 C570.11137701 795.53183906 568.55070355 797.08226036 566.98526001 798.62947083 C566.1139979 799.50274426 565.24273579 800.3760177 564.34507179 801.27575397 C562 803 562 803 559.86151695 802.92574596 C556.76651257 801.3865777 554.55239712 798.90037569 552.1875 796.4375 C551.65415039 795.89391846 551.12080078 795.35033691 550.57128906 794.7902832 C547.11643005 791.24248953 543.85034101 787.56751225 540.640625 783.796875 C538.27483153 781.20576786 535.64075431 778.98319057 532.97265625 776.7109375 C528.4690739 772.80486013 524.42434918 768.53461477 520.5625 764 C517.60648985 760.56785398 514.41661843 757.64394575 510.97265625 754.7109375 C506.4690739 750.80486013 502.42434918 746.53461477 498.5625 742 C496.32743858 739.40555646 494.06848108 737.12625235 491.4375 734.9375 C487.28181561 731.42987555 483.67231434 727.49770928 480 723.5 C475.8895974 719.02767515 471.80475006 714.81145973 467.12109375 710.93359375 C464.05150095 708.13534617 461.29939978 705.0654994 458.5 702 C454.4448737 697.56095984 450.3758868 693.36932331 445.76171875 689.5 C441.30330718 685.70392452 437.35375315 681.45172033 433.5625 677 C430.60648985 673.56785398 427.41661843 670.64394575 423.97265625 667.7109375 C419.4690739 663.80486013 415.42434918 659.53461477 411.5625 655 C409.32743858 652.40555646 407.06848108 650.12625235 404.4375 647.9375 C400.28181176 644.42987231 396.67233749 640.49769158 393 636.5 C387.7482875 630.74583059 387.7482875 630.74583059 382 625.5 C377.27434007 621.58910903 373.27736101 616.97769962 369.13500977 612.47094727 C365.63914315 608.68974209 362.08979614 605.21950863 358.12109375 601.93359375 C355.05150095 599.13534617 352.29939978 596.0654994 349.5 593 C345.4448737 588.56095984 341.3758868 584.36932331 336.76171875 580.5 C332.30330718 576.70392452 328.35375315 572.45172033 324.5625 568 C322.32743858 565.40555646 320.06848108 563.12625235 317.4375 560.9375 C313.28183101 557.42988855 309.67222166 553.4977801 306 549.5 C301.818423 544.94848886 297.65243201 540.64434171 292.88671875 536.6953125 C288.92158752 533.13244096 285.49280599 529.01834393 282 525 C278.34851085 526.49825676 276.40958256 528.57431133 273.875 531.5625 C270.80912567 535.06349842 267.69861581 538.25935581 264.1875 541.3125 C260.17524484 544.82711111 256.56886975 548.54905594 253 552.5 C248.75480734 557.19794135 244.34015998 561.45986053 239.5625 565.625 C236.52908378 568.43645893 233.77121052 571.43338125 231 574.5 C226.75469889 579.1978459 222.34017258 583.45984955 217.5625 587.625 C214.52908378 590.43645893 211.77121052 593.43338125 209 596.5 C204.75469889 601.1978459 200.34017258 605.45984955 195.5625 609.625 C191.97211828 612.95267086 188.74283419 616.57111583 185.46313477 620.20092773 C181.70445249 624.32625189 177.70367827 628.02239255 173.49609375 631.69140625 C170.65908787 634.3153037 168.07418581 637.12349806 165.5 640 C162.19112107 643.69747848 158.80616041 647.17302813 155.0625 650.4375 C151.08900305 653.90722554 147.53015471 657.59299636 144 661.5 C139.75473503 666.19787771 135.34016838 670.45985321 130.5625 674.625 C127.52908378 677.43645893 124.77121052 680.43338125 122 683.5 C117.75469889 688.1978459 113.34017258 692.45984955 108.5625 696.625 C104.97211828 699.95267086 101.74283419 703.57111583 98.46313477 707.20092773 C94.7019752 711.32897082 90.69774804 715.02684501 86.48828125 718.69921875 C83.6962727 721.28084047 81.15532621 724.04227663 78.625 726.875 C74.44022611 731.55918217 70.02282932 735.81368695 65.34033203 739.99560547 C62.18224347 742.84208776 59.29649906 745.79967436 56.5 749 C53.25042015 752.71883325 49.80452488 756.0888319 46.125 759.375 C41.43998302 763.56044043 37.18520267 767.97895237 33.00219727 772.66186523 C29.44365067 776.60947788 25.61677476 780.0818546 21.6171875 783.5703125 C17.91784751 787.00462514 14.55463772 790.71774464 11.19750977 794.48413086 C8.33882687 797.66557611 5.4349881 800.41593791 2 803 C-1.75845791 801.4351929 -4.13924172 799.10729996 -6.99871826 796.24179077 C-7.48807869 795.75413919 -7.97743912 795.26648761 -8.48162866 794.76405871 C-10.11851832 793.13046064 -11.74816182 791.48982203 -13.37792969 789.84912109 C-14.55048896 788.67599764 -15.72348889 787.50331448 -16.89689636 786.33103943 C-20.08080405 783.14770597 -23.25850411 779.95824013 -26.43513775 776.76765013 C-29.75610139 773.4341909 -33.08272299 770.10638795 -36.40875244 766.77798462 C-42.70605234 760.47446652 -48.99823627 754.16586713 -55.28860497 747.85543311 C-62.45027562 740.67141408 -69.61762059 733.49306772 -76.78545141 726.3151958 C-91.52996363 711.54977386 -106.26732378 696.77723108 -121 682 C-119.3929796 678.56039685 -117.74409412 676.69215414 -114.8125 674.25 C-111.10952665 671.05574184 -107.9059106 667.72953673 -104.74609375 664.0078125 C-100.66238565 659.31200498 -96.23021086 654.96712084 -91.4375 651 C-88.20865614 648.29712165 -85.54818576 645.28086021 -82.8203125 642.08203125 C-78.85123387 637.5422911 -74.60844845 633.31301914 -69.9375 629.5 C-66.91695466 626.92932312 -64.49052286 624.18982101 -61.921875 621.18359375 C-57.60120801 616.27454325 -53.00101665 611.51097456 -47.875 607.4375 C-44.87417681 604.89332382 -42.47011784 602.1659399 -39.921875 599.18359375 C-35.60120801 594.27454325 -31.00101665 589.51097456 -25.875 585.4375 C-22.87553034 582.89447138 -20.47238861 580.16889398 -17.92578125 577.1875 C-13.75590344 572.4509248 -9.34124718 567.83955136 -4.375 563.9375 C-1.53821869 561.62328367 0.6664765 558.99391306 3.04296875 556.21875 C7.38032946 551.30134305 11.98518944 546.52193612 17.125 542.4375 C20.12582319 539.89332382 22.52988216 537.1659399 25.078125 534.18359375 C29.39879199 529.27454325 33.99898335 524.51097456 39.125 520.4375 C42.12582319 517.89332382 44.52988216 515.1659399 47.078125 512.18359375 C51.39879199 507.27454325 55.99898335 502.51097456 61.125 498.4375 C64.12446966 495.89447138 66.52761139 493.16889398 69.07421875 490.1875 C73.24409656 485.4509248 77.65875282 480.83955136 82.625 476.9375 C85.43816987 474.64254563 87.61685419 472.041794 89.97265625 469.2890625 C94.48961057 464.18899461 99.26207409 459.17471892 104.6015625 454.93359375 C106.78116558 453.17642189 108.46872785 451.45812327 110.25 449.3125 C115.11187038 443.63502173 120.26172392 438.09685006 126.125 433.4375 C129.12582319 430.89332382 131.52988216 428.1659399 134.078125 425.18359375 C138.41008548 420.26171182 143.01091229 415.47578047 148.1875 411.4375 C151.74281863 408.35622386 154.31343435 404.83931191 157 401 C149.93638666 392.93625806 149.93638666 392.93625806 142.125 385.625 C138.24244146 382.38154574 134.90410939 378.72909327 131.5 375 C126.52302402 369.53471084 126.52302402 369.53471084 121.0625 364.5625 C117.01689086 361.20404316 113.55132031 357.36372864 110 353.5 C104.74823248 347.74588953 104.74823248 347.74588953 99 342.5 C94.27353836 338.58844554 90.27607614 333.97606609 86.1328125 329.46875 C83.20884108 326.30634314 80.3241081 323.25098602 77 320.5 C72.27353836 316.58844554 68.27607614 311.97606609 64.1328125 307.46875 C61.20884108 304.30634314 58.3241081 301.25098602 55 298.5 C50.27434007 294.58910903 46.27736101 289.97769962 42.13500977 285.47094727 C38.63914315 281.68974209 35.08979614 278.21950863 31.12109375 274.93359375 C27.4263923 271.56549574 24.14387876 267.80021708 20.77490234 264.11083984 C17.99197855 261.08276715 15.23628736 258.19025942 12.0625 255.5625 C8.01689086 252.20404316 4.55132031 248.36372864 1 244.5 C-4.25176752 238.74588953 -4.25176752 238.74588953 -10 233.5 C-14.72646164 229.58844554 -18.72392386 224.97606609 -22.8671875 220.46875 C-25.79115892 217.30634314 -28.6758919 214.25098602 -32 211.5 C-36.72646164 207.58844554 -40.72392386 202.97606609 -44.8671875 198.46875 C-47.79115892 195.30634314 -50.6758919 192.25098602 -54 189.5 C-58.72565993 185.58910903 -62.72263899 180.97769962 -66.86499023 176.47094727 C-70.36085685 172.68974209 -73.91020386 169.21950863 -77.87890625 165.93359375 C-81.5736077 162.56549574 -84.85612124 158.80021708 -88.22509766 155.11083984 C-91.00802145 152.08276715 -93.76371264 149.19025942 -96.9375 146.5625 C-101.69559693 142.61601875 -105.75623884 137.98587661 -109.90209961 133.41625977 C-113.39076271 129.6008267 -116.94818264 126.21435967 -121 123 C-119.4351929 119.24154209 -117.10729996 116.86075828 -114.24179077 114.00128174 C-113.75413919 113.51192131 -113.26648761 113.02256088 -112.76405871 112.51837134 C-111.13046064 110.88148168 -109.48982203 109.25183818 -107.84912109 107.62207031 C-106.67599764 106.44951104 -105.50331448 105.27651111 -104.33103943 104.10310364 C-101.14770597 100.91919595 -97.95824013 97.74149589 -94.76765013 94.56486225 C-91.4341909 91.24389861 -88.10638795 87.91727701 -84.77798462 84.59124756 C-78.47446652 78.29394766 -72.16586713 72.00176373 -65.85543311 65.71139503 C-58.67141408 58.54972438 -51.49306772 51.38237941 -44.3151958 44.21454859 C-29.54977386 29.47003637 -14.77723108 14.73267622 0 0 Z " fill="#DFDFDF" transform="translate(721,600)"/>
</svg>
