<?xml version="1.0" encoding="UTF-8"?>
<svg version="1.1" xmlns="http://www.w3.org/2000/svg" width="256" height="256">
<path d="M0 0 C5.17316309 2.70682263 10.24432745 5.59789534 15.3203125 8.48144531 C19.17705249 10.66702501 23.04730111 12.82823099 26.91674805 14.99121094 C30.10852987 16.77573529 33.29858721 18.5633094 36.48828125 20.3515625 C40.79637198 22.76626383 45.10630557 25.17762113 49.41796875 27.5859375 C59.99084931 33.49380987 70.54189961 39.43530194 81.04785156 45.46142578 C87.84062486 49.3520195 94.66584344 53.18264359 101.5 57 C114.79405655 64.42924007 128.02597937 71.96191082 141.20703125 79.58984375 C143.38800148 80.85159595 145.56899135 82.11331421 147.75 83.375 C148.83563232 84.00349854 149.92126465 84.63199707 151.03979492 85.27954102 C157.6667249 89.1064425 164.32626741 92.86746341 171.01757812 96.58056641 C203.41835821 114.56740429 203.41835821 114.56740429 205.62890625 122.16015625 C205.45322164 127.19300352 204.38665699 129.38681077 201 133 C198.34765625 134.89453125 198.34765625 134.89453125 195.0625 136.8125 C194.43335693 137.18084961 193.80421387 137.54919922 193.15600586 137.92871094 C176.21371928 147.74795643 158.91726633 156.98683354 141.68017578 166.27416992 C134.88106804 169.94900973 128.1503205 173.73269878 121.4375 177.5625 C112.92946013 182.41398242 104.31485227 187.00368127 95.609375 191.48950195 C88.9642402 194.93065219 82.43288272 198.53470241 75.9375 202.25 C65.75275948 208.07249871 55.43557426 213.61557807 45.07324219 219.11254883 C43.80400923 219.78591873 42.53480325 220.45933949 41.265625 221.1328125 C40.6455658 221.46180038 40.02550659 221.79078827 39.38665771 222.12974548 C33.62959314 225.18852516 27.90462 228.30473394 22.1875 231.4375 C15.5800845 235.05425457 8.96298292 238.65043469 2.3125 242.1875 C1.61084717 242.56253662 0.90919434 242.93757324 0.1862793 243.32397461 C-5.78137562 246.48393726 -10.2956398 247.67279671 -17 247 C-20.23300086 245.52406483 -22.72160787 243.73407055 -25 241 C-26.34872132 236.95383604 -26.14452956 233.04686454 -26.14044189 228.82730103 C-26.14489858 227.40154631 -26.14489858 227.40154631 -26.1494453 225.94698846 C-26.15814737 222.74801605 -26.15964181 219.54908099 -26.16113281 216.35009766 C-26.16575987 214.06222961 -26.17078438 211.77436234 -26.17617798 209.48649597 C-26.18931364 203.26133011 -26.19574906 197.03617504 -26.20018864 190.81099749 C-26.2031171 186.92454793 -26.20722144 183.03810135 -26.21169281 179.15165329 C-26.22380239 168.39256434 -26.23418454 157.63347927 -26.2375679 146.87438393 C-26.23778747 146.18579368 -26.23800703 145.49720343 -26.23823325 144.78774681 C-26.23845153 144.09750552 -26.23866981 143.40726424 -26.2388947 142.69610655 C-26.23933817 141.29740437 -26.23978473 139.89870218 -26.24023438 138.5 C-26.2404558 137.80619481 -26.24067723 137.11238963 -26.24090537 136.39756005 C-26.24485436 125.1525759 -26.26231177 113.90765651 -26.2855939 102.66269739 C-26.30930078 91.11949623 -26.32151137 79.5763368 -26.32293582 68.03311002 C-26.32398565 61.55123688 -26.32993132 55.0694551 -26.34775543 48.58760452 C-26.36419006 42.49241912 -26.36641404 36.3973942 -26.35761642 30.3021946 C-26.35684361 28.06283324 -26.36122073 25.82346342 -26.37107468 23.58412361 C-26.38372183 20.53144477 -26.37795667 17.47934055 -26.36749268 14.42666626 C-26.37554908 13.53668587 -26.38360548 12.64670549 -26.39190602 11.729756 C-26.34552993 5.96085395 -25.31944208 2.70601576 -21.5 -1.75 C-15.05573608 -7.12021994 -6.4646915 -3.15030652 0 0 Z " fill="#20941F" transform="translate(46,6)"/>
<path d="M0 0 C4.63664989 -0.58818611 7.50390778 0.41537303 11.53515625 2.640625 C13.10317993 3.49515259 13.10317993 3.49515259 14.70288086 4.36694336 C15.81155518 4.98835205 16.92022949 5.60976074 18.0625 6.25 C19.23329865 6.89488234 20.40461132 7.5388323 21.57641602 8.18188477 C29.41855271 12.50006041 37.20469712 16.91997778 44.95996094 21.39208984 C52.0323838 25.46924388 59.16651719 29.42846973 66.3125 33.375 C76.02743545 38.74765889 85.65350885 44.25129972 95.22631836 49.87280273 C101.90716621 53.79228502 108.62429506 57.63968481 115.375 61.4375 C124.59172927 66.62383349 133.76290832 71.88485409 142.91699219 77.1809082 C148.79841386 80.58162585 154.68703359 83.96860679 160.58984375 87.33203125 C161.22119736 87.69192642 161.85255096 88.05182159 162.5030365 88.42262268 C165.55504319 90.16199054 168.60813762 91.89940734 171.6628418 93.6340332 C177.52376388 96.97194832 183.31402496 100.3715416 189 104 C188.01 104.495 188.01 104.495 187 105 C184.6171875 104.00390625 184.6171875 104.00390625 181.875 102.5625 C180.96492187 102.08941406 180.05484375 101.61632812 179.1171875 101.12890625 C178.41851562 100.75636719 177.71984375 100.38382812 177 100 C177.763125 100.598125 178.52625 101.19625 179.3125 101.8125 C181.3483575 103.46959332 183.1978279 105.10297674 185 107 C181.52929685 105.98418444 178.97315942 104.98098792 176 102.875 C170.63337128 99.66460603 164.01277542 100.42288093 158 101 C155.66282602 101.65307478 153.32988196 102.32136982 151 103 C147.53404894 103.64593061 144.04743002 104.15490189 140.5625 104.6875 C127.2761221 106.81075185 114.18326849 109.70838598 101.06170654 112.65205383 C92.82263008 114.49630244 84.56040044 116.23206471 76.29589844 117.95849609 C70.29445778 119.22918609 64.37515308 120.65023647 58.47290039 122.32446289 C51.95544581 124.10487525 45.76294752 125.2940412 39 125 C39 125.66 39 126.32 39 127 C37.329375 127.2165625 37.329375 127.2165625 35.625 127.4375 C32.17857953 127.78372035 32.17857953 127.78372035 30 129 C29.34 128.67 28.68 128.34 28 128 C27.67 128.66 27.34 129.32 27 130 C25.25 130.4921875 25.25 130.4921875 23 130.875 C18.68018133 131.73620787 14.9999444 133.18764068 11.04296875 135.09765625 C9.03729374 135.983528 7.12786046 136.49585051 5 137 C4.8676575 144.49485134 4.73716192 151.98973306 4.60884857 159.48465443 C4.54917501 162.96708023 4.48892995 166.44949394 4.42724609 169.93188477 C4.35592541 173.96107028 4.28713786 177.99029483 4.21875 182.01953125 C4.19578857 183.32366974 4.17282715 184.62780823 4.14916992 185.97146606 C4.05539883 191.67697509 3.98365446 197.37730433 4.0390625 203.08349609 C4.04715942 203.97292404 4.05525635 204.86235199 4.06359863 205.7787323 C4.08298829 207.37548441 4.11115629 208.97216697 4.15026855 210.56855774 C4.1996268 214.30407227 4.13538332 215.79692503 2 219 C1.83300768 222.12521833 1.83300768 222.12521833 2 225 C2.66 225 3.32 225 4 225 C3.67 225.99 3.34 226.98 3 228 C1.35 227.67 -0.3 227.34 -2 227 C-2.0455989 198.5147974 -2.08100576 170.02959938 -2.10213066 141.54436744 C-2.10463215 138.18346821 -2.10722079 134.82256905 -2.10986328 131.46166992 C-2.1103879 130.79255914 -2.11091252 130.12344837 -2.11145304 129.4340615 C-2.120162 118.5917121 -2.13593467 107.74938384 -2.15430559 96.907047 C-2.17299099 85.78658335 -2.18396408 74.66612696 -2.18817699 63.54564744 C-2.1907899 57.29743614 -2.19695339 51.04927284 -2.21146011 44.80107689 C-2.22499261 38.92511543 -2.22923145 33.04922195 -2.22621536 27.17324638 C-2.22676747 25.01206341 -2.2307706 22.85087825 -2.23841095 20.68970871 C-2.24830441 17.7479444 -2.24598942 14.80643963 -2.24050903 11.8646698 C-2.24633472 11.00183591 -2.2521604 10.13900201 -2.25816262 9.25002164 C-2.22824242 3.34236363 -2.22824242 3.34236363 0 0 Z " fill="#6ECF5D" transform="translate(33,12)"/>
<path d="M0 0 C5.17316309 2.70682263 10.24432745 5.59789534 15.3203125 8.48144531 C19.17705249 10.66702501 23.04730111 12.82823099 26.91674805 14.99121094 C30.10852987 16.77573529 33.29858721 18.5633094 36.48828125 20.3515625 C40.79637198 22.76626383 45.10630557 25.17762113 49.41796875 27.5859375 C59.99084931 33.49380987 70.54189961 39.43530194 81.04785156 45.46142578 C87.84062486 49.3520195 94.66584344 53.18264359 101.5 57 C114.79405655 64.42924007 128.02597937 71.96191082 141.20703125 79.58984375 C143.38800148 80.85159595 145.56899135 82.11331421 147.75 83.375 C148.83563232 84.00349854 149.92126465 84.63199707 151.03979492 85.27954102 C157.6667249 89.1064425 164.32626741 92.86746341 171.01757812 96.58056641 C203.41835821 114.56740429 203.41835821 114.56740429 205.62890625 122.16015625 C205.45322164 127.19300352 204.38665699 129.38681077 201 133 C198.34765625 134.89453125 198.34765625 134.89453125 195.0625 136.8125 C194.43335693 137.18084961 193.80421387 137.54919922 193.15600586 137.92871094 C176.21371928 147.74795643 158.91726633 156.98683354 141.68017578 166.27416992 C134.88106804 169.94900973 128.1503205 173.73269878 121.4375 177.5625 C112.92946013 182.41398242 104.31485227 187.00368127 95.609375 191.48950195 C88.9642402 194.93065219 82.43288272 198.53470241 75.9375 202.25 C65.75275948 208.07249871 55.43557426 213.61557807 45.07324219 219.11254883 C43.80400923 219.78591873 42.53480325 220.45933949 41.265625 221.1328125 C40.6455658 221.46180038 40.02550659 221.79078827 39.38665771 222.12974548 C33.62959314 225.18852516 27.90462 228.30473394 22.1875 231.4375 C15.5800845 235.05425457 8.96298292 238.65043469 2.3125 242.1875 C1.61084717 242.56253662 0.90919434 242.93757324 0.1862793 243.32397461 C-5.78137562 246.48393726 -10.2956398 247.67279671 -17 247 C-20.23300086 245.52406483 -22.72160787 243.73407055 -25 241 C-26.34872132 236.95383604 -26.14452956 233.04686454 -26.14044189 228.82730103 C-26.14489858 227.40154631 -26.14489858 227.40154631 -26.1494453 225.94698846 C-26.15814737 222.74801605 -26.15964181 219.54908099 -26.16113281 216.35009766 C-26.16575987 214.06222961 -26.17078438 211.77436234 -26.17617798 209.48649597 C-26.18931364 203.26133011 -26.19574906 197.03617504 -26.20018864 190.81099749 C-26.2031171 186.92454793 -26.20722144 183.03810135 -26.21169281 179.15165329 C-26.22380239 168.39256434 -26.23418454 157.63347927 -26.2375679 146.87438393 C-26.23778747 146.18579368 -26.23800703 145.49720343 -26.23823325 144.78774681 C-26.23845153 144.09750552 -26.23866981 143.40726424 -26.2388947 142.69610655 C-26.23933817 141.29740437 -26.23978473 139.89870218 -26.24023438 138.5 C-26.2404558 137.80619481 -26.24067723 137.11238963 -26.24090537 136.39756005 C-26.24485436 125.1525759 -26.26231177 113.90765651 -26.2855939 102.66269739 C-26.30930078 91.11949623 -26.32151137 79.5763368 -26.32293582 68.03311002 C-26.32398565 61.55123688 -26.32993132 55.0694551 -26.34775543 48.58760452 C-26.36419006 42.49241912 -26.36641404 36.3973942 -26.35761642 30.3021946 C-26.35684361 28.06283324 -26.36122073 25.82346342 -26.37107468 23.58412361 C-26.38372183 20.53144477 -26.37795667 17.47934055 -26.36749268 14.42666626 C-26.37554908 13.53668587 -26.38360548 12.64670549 -26.39190602 11.729756 C-26.34552993 5.96085395 -25.31944208 2.70601576 -21.5 -1.75 C-15.05573608 -7.12021994 -6.4646915 -3.15030652 0 0 Z M-20 7 C-20.57465305 10.05004063 -20.5229206 13.047037 -20.48101807 16.1431427 C-20.48443577 17.06621411 -20.48785347 17.98928551 -20.49137473 18.94032878 C-20.49796526 22.03450934 -20.47595779 25.12782314 -20.45410156 28.22192383 C-20.45297334 30.43938171 -20.45360645 32.65684108 -20.45587158 34.8742981 C-20.45702063 40.8966678 -20.43348002 46.91871972 -20.40557575 52.94101548 C-20.38059416 59.23374721 -20.37822265 65.52648598 -20.37347412 71.81925964 C-20.36244872 82.38208419 -20.33745298 92.94480442 -20.30175781 103.50756836 C-20.26503258 114.38646868 -20.23672335 125.2653373 -20.21972656 136.14428711 C-20.21867567 136.8150475 -20.21762477 137.48580788 -20.21654204 138.17689434 C-20.21132182 141.54195701 -20.20626701 144.90701989 -20.20129442 148.27208292 C-20.15946853 176.1814699 -20.08909784 204.09072674 -20 232 C-19.030625 232.309375 -18.06125 232.61875 -17.0625 232.9375 C-14 234 -14 234 -13 235 C-5.9732104 235.98488695 -1.34721972 232.92286054 4.625 229.5 C6.18250977 228.63181641 6.18250977 228.63181641 7.77148438 227.74609375 C10.01399003 226.495389 12.253139 225.2386507 14.48925781 223.9765625 C19.85670321 220.94782994 25.26095752 217.98565389 30.66003418 215.01382446 C32.50906779 213.99500363 34.35678404 212.97383305 36.20410156 211.9519043 C43.90369247 207.69375281 51.62900231 203.48572145 59.375 199.3125 C68.05410255 194.63433603 76.64860578 189.8232677 85.21630859 184.94458008 C93.51094715 180.23835713 101.90318318 175.72571512 110.3125 171.22851562 C118.33640573 166.92591059 126.26699956 162.47855643 134.17358398 157.96484375 C141.14051339 154.00594005 148.18606319 150.20791386 155.26473999 146.45370483 C164.80200331 141.39422299 174.25822867 136.22886242 183.5625 130.75 C184.93643921 129.9446582 184.93643921 129.9446582 186.33813477 129.12304688 C187.17658936 128.62353516 188.01504395 128.12402344 188.87890625 127.609375 C189.6066626 127.17592773 190.33441895 126.74248047 191.08422852 126.29589844 C192.98908592 125.00738269 194.50800677 123.7493445 196 122 C196.17822772 119.95902286 196.17822772 119.95902286 195 118 C192.6792813 116.02702258 192.6792813 116.02702258 189.5625 114.1875 C188.95905762 113.81133545 188.35561523 113.4351709 187.73388672 113.04760742 C179.20756396 107.79881551 170.48126856 102.87200426 161.79296875 97.8984375 C155.48353858 94.28562823 149.20836463 90.61669089 142.9375 86.9375 C133.80586523 81.59004474 124.59746946 76.39310301 115.35083008 71.24755859 C108.22345979 67.27183707 101.16062021 63.19812714 94.125 59.0625 C83.37820215 52.75080422 72.50473124 46.68565602 61.59765625 40.65625 C54.56796958 36.76848849 47.57469526 32.81825878 40.58642578 28.85668945 C32.33414542 24.18106852 24.05840649 19.5479601 15.77294922 14.93139648 C9.63201979 11.50203966 3.54805944 7.99146331 -2.49731445 4.39599609 C-9.55803578 0.45753111 -15.56629649 -0.08028431 -20 7 Z " fill="#035607" transform="translate(46,6)"/>
<path d="M0 0 C11.56502741 0.84570584 24.07571421 10.79363109 33.87890625 16.44921875 C39.85051253 19.8899084 45.85889671 23.26286682 51.875 26.625 C52.92010742 27.20967041 53.96521484 27.79434082 55.04199219 28.39672852 C60.33363113 31.35575142 65.62840978 34.30906587 70.92578125 37.2578125 C82.21867114 43.55177746 93.44176175 49.94489089 104.59033203 56.49121094 C111.86468001 60.75198572 119.19746625 64.89822389 126.5625 69 C134.0595261 73.17586238 141.51506278 77.40081151 148.89111328 81.78662109 C155.08487526 85.45913327 161.34129409 89.01958431 167.60015869 92.57952881 C176.79771268 97.8130571 185.97573415 103.07544767 195.0625 108.5 C195.86598877 108.97679199 196.66947754 109.45358398 197.49731445 109.94482422 C201.44053599 112.31563747 205.10909445 114.75833484 208.625 117.75 C208.27455171 120.50916857 207.83017545 121.5649211 205.7331543 123.45654297 C199.48388727 127.65564544 193.09946334 131.37175474 186.4375 134.875 C184.3050119 136.01249191 182.17352531 137.15186309 180.04296875 138.29296875 C178.97095215 138.86708496 177.89893555 139.44120117 176.79443359 140.03271484 C171.90635258 142.68120983 167.07818992 145.43177791 162.25 148.1875 C153.01629915 153.44687105 143.68705012 158.5078098 134.31689453 163.51928711 C127.19806976 167.33683491 120.14258627 171.24968383 113.125 175.25 C103.92892321 180.49214641 94.63762513 185.53510599 85.30322266 190.52612305 C78.31099826 194.27502866 71.38703604 198.12416201 64.5 202.0625 C53.81306156 208.16837311 42.95952791 213.94103163 32.06396484 219.66333008 C30.77048049 220.34451193 29.47702311 221.02574499 28.18359375 221.70703125 C27.55384644 222.03677444 26.92409912 222.36651764 26.27526855 222.70625305 C23.06059554 224.40332655 19.90430346 226.15912318 16.79345703 228.04052734 C16.17205338 228.41247726 15.55064972 228.78442719 14.91041565 229.16764832 C13.20853799 230.19479733 11.51801473 231.24069306 9.82836914 232.2878418 C6.17596971 233.95495712 3.59487106 234.02960366 -0.375 233.75 C1.605 231.77 1.605 231.77 3.625 229.75 C2.965 229.75 2.305 229.75 1.625 229.75 C0.9375 226.9375 0.9375 226.9375 0.625 223.75 C2.0625 221.875 2.0625 221.875 3.625 220.75 C3.625 223.06 3.625 225.37 3.625 227.75 C10.4116034 225.33264791 16.42734145 222.21937008 22.59765625 218.515625 C25.33588066 216.91862186 28.08340096 215.50026979 30.9375 214.125 C36.80183228 211.2497323 42.45378793 208.05003136 48.125 204.8125 C56.88423272 199.81526858 65.72107402 194.98327588 74.625 190.25 C84.22468027 185.14443028 93.73815375 179.90957158 103.18359375 174.5234375 C109.949237 170.67353172 116.77007863 166.93834787 123.625 163.25 C132.51603617 158.46478877 141.32835269 153.55769147 150.10351562 148.56347656 C156.73562926 144.79616253 163.41636103 141.12898793 170.125 137.5 C176.61041059 133.97748782 183.07343566 130.42576631 189.4375 126.6875 C190.06011719 126.32946289 190.68273437 125.97142578 191.32421875 125.60253906 C194.90857293 123.49596387 194.90857293 123.49596387 196.625 119.75 C195.965 119.523125 195.305 119.29625 194.625 119.0625 C190.73841372 117.3621185 186.98820183 115.35376916 183.625 112.75 C183.625 112.09 183.625 111.43 183.625 110.75 C181.83534453 109.38722914 181.83534453 109.38722914 179.625 108.125 C178.8825 107.67898437 178.14 107.23296875 177.375 106.7734375 C176.7975 106.43570313 176.22 106.09796875 175.625 105.75 C176.285 105.09 176.945 104.43 177.625 103.75 C179.605 104.74 181.585 105.73 183.625 106.75 C170.32812683 98.92534994 156.97435115 91.22741418 143.49438477 83.72216797 C136.99233086 80.09536602 130.55183624 76.38493016 124.15454102 72.57714844 C117.87336966 68.85665189 111.50208568 65.30294773 105.125 61.75 C98.07897061 57.82435505 91.05631946 53.87513116 84.125 49.75 C74.16203736 43.82806203 64.0247383 38.21843925 53.90087891 32.57763672 C49.58757965 30.17121562 45.28058922 27.75363375 40.97387695 25.33544922 C37.85743175 23.58769842 34.73758441 21.84615225 31.6171875 20.10546875 C27.67087377 17.9026525 23.74056735 15.67461479 19.8203125 13.42578125 C18.02611933 12.40871715 16.23185247 11.39178304 14.4375 10.375 C13.63014404 9.90425049 12.82278809 9.43350098 11.9909668 8.94848633 C7.69237137 6.53107205 4.70938887 5.14992859 -0.375 5.75 C-2.03111833 9.06223665 -1.52523086 12.76316584 -1.52648926 16.4050293 C-1.53072167 17.31187564 -1.53495408 18.21872198 -1.53931475 19.15304852 C-1.55239374 22.21010684 -1.55837762 25.26713906 -1.56445312 28.32421875 C-1.57239129 30.50843466 -1.5807789 32.69264898 -1.58958435 34.87686157 C-1.60767185 39.58917786 -1.62267649 44.30149056 -1.63536072 49.01382446 C-1.6555347 56.4580511 -1.68319299 63.90223814 -1.71203613 71.34643555 C-1.75174948 81.77749788 -1.78870884 92.20856607 -1.82275391 102.63964844 C-1.82491671 103.30190929 -1.82707951 103.96417015 -1.82930785 104.64649951 C-1.84463671 109.34766603 -1.85983368 114.04883296 -1.875 118.75 C-1.8923244 124.12011749 -1.90970844 129.49023477 -1.92724609 134.86035156 C-1.9304844 135.85253671 -1.9304844 135.85253671 -1.93378812 136.864766 C-1.96986818 147.88247363 -2.00985998 158.9001637 -2.05254889 169.91784763 C-2.08096242 177.32513244 -2.10453525 184.73241248 -2.12447357 192.13972473 C-2.13782619 196.73958023 -2.15524043 201.33941372 -2.17378426 205.93925095 C-2.18156402 208.07988302 -2.18762315 210.22052211 -2.19187737 212.36116409 C-2.19789126 215.27247079 -2.20992329 218.183691 -2.22351074 221.0949707 C-2.22395472 222.3798716 -2.22395472 222.3798716 -2.22440767 223.69073009 C-2.26090721 229.52181442 -2.26090721 229.52181442 -3.375 231.75 C-4.695 231.42 -6.015 231.09 -7.375 230.75 C-7.46623437 202.17147154 -7.53703039 173.59296138 -7.57926132 145.01431583 C-7.58426419 141.64097268 -7.58944148 138.26762983 -7.59472656 134.89428711 C-7.5957758 134.22271034 -7.59682505 133.55113357 -7.59790608 132.85920598 C-7.6153152 121.98260817 -7.64685564 111.10609485 -7.68361118 100.22954718 C-7.72100657 89.07066206 -7.74293343 77.91180588 -7.75135398 66.75285739 C-7.75657559 60.48439822 -7.76887565 54.21613075 -7.79792023 47.94773293 C-7.8250248 42.05037144 -7.83345494 36.15328104 -7.82743073 30.25586319 C-7.82853317 28.08905884 -7.83651632 25.92224564 -7.8518219 23.75549507 C-7.87167187 20.80104239 -7.8669571 17.84761831 -7.85601807 14.8931427 C-7.86766943 14.03224354 -7.8793208 13.17134438 -7.89132524 12.28435737 C-7.85125431 8.29085051 -7.65801662 6.2205578 -5.55587387 2.72542858 C-3.375 0.75 -3.375 0.75 0 0 Z " fill="#4CBB3A" transform="translate(33.375,7.25)"/>
<path d="M0 0 C5.17316309 2.70682263 10.24432745 5.59789534 15.3203125 8.48144531 C19.17705249 10.66702501 23.04730111 12.82823099 26.91674805 14.99121094 C30.10852987 16.77573529 33.29858721 18.5633094 36.48828125 20.3515625 C40.79637198 22.76626383 45.10630557 25.17762113 49.41796875 27.5859375 C59.99084931 33.49380987 70.54189961 39.43530194 81.04785156 45.46142578 C87.84062486 49.3520195 94.66584344 53.18264359 101.5 57 C114.79405655 64.42924007 128.02597937 71.96191082 141.20703125 79.58984375 C143.38797508 80.85164159 145.56896528 82.11335928 147.75 83.375 C148.82983154 83.99987305 149.90966309 84.62474609 151.0222168 85.26855469 C159.93407451 90.41319022 168.90118788 95.45173656 177.90527344 100.43310547 C182.74085248 103.11944946 187.46474811 105.82995148 192 109 C191.34 109.66 190.68 110.32 190 111 C189.67 111.99 189.34 112.98 189 114 C182.08926438 110.77385806 175.54538771 107.02572409 168.99609375 103.13598633 C163.38306828 99.80476198 157.73477086 96.54173649 152.0625 93.3125 C144.17232961 88.81766595 136.29982095 84.29337099 128.4375 79.75 C101.84731603 64.39323972 75.15078726 49.22610692 48.35058594 34.23876953 C41.24325317 30.26233748 34.14934703 26.26281208 27.0625 22.25 C20.03212175 18.27131242 12.99516802 14.30511222 5.9375 10.375 C5.21763916 9.97313477 4.49777832 9.57126953 3.75610352 9.15722656 C-5.53769132 3.74033054 -5.53769132 3.74033054 -16 3 C-18.04525403 4.74447359 -18.88166918 6.17591952 -19.26536214 8.84803724 C-19.38063671 11.24509344 -19.38504006 13.6231309 -19.36076355 16.02288818 C-19.36332682 16.94510516 -19.3658901 17.86732214 -19.36853105 18.81748509 C-19.37348132 21.9146328 -19.35695533 25.01129547 -19.34057617 28.10839844 C-19.33973017 30.32570891 -19.34020452 32.54302022 -19.34190369 34.7603302 C-19.34276611 40.78683393 -19.32510026 46.81315934 -19.30418181 52.83962154 C-19.28545622 59.13503559 -19.28366782 65.43045351 -19.28010559 71.72589111 C-19.27183404 82.29466793 -19.25308227 92.86338614 -19.22631836 103.43212891 C-19.19878036 114.31786776 -19.17754552 125.20358881 -19.16479492 136.08935547 C-19.16400675 136.76037858 -19.16321858 137.43140169 -19.16240653 138.12275884 C-19.15849141 141.48909222 -19.15470029 144.85542573 -19.15097082 148.22175932 C-19.11959434 176.14788521 -19.06681025 204.073938 -19 232 C-18.01 232.33 -17.02 232.66 -16 233 C-15.505 232.01 -15.505 232.01 -15 231 C-14.34 231.99 -13.68 232.98 -13 234 C-10.43717258 234.72965366 -10.43717258 234.72965366 -8 235 C-9.32 235.33 -10.64 235.66 -12 236 C-12 237.65 -12 239.3 -12 241 C-11.01 241 -10.02 241 -9 241 C-8.01 241.33 -7.02 241.66 -6 242 C-6 242.66 -6 243.32 -6 244 C-9.7314828 245.2438276 -13.13091732 245.6643142 -17 245 C-20.52680379 243.03982364 -22.70233114 240.89300657 -24 237 C-24.1041813 233.9811524 -24.15047402 230.98493385 -24.15148926 227.96569824 C-24.15783787 226.56232814 -24.15783787 226.56232814 -24.16431475 225.13060713 C-24.17737531 221.98225215 -24.18337342 218.83392251 -24.18945312 215.68554688 C-24.19739275 213.43384139 -24.20578048 211.18213745 -24.21458435 208.93043518 C-24.23266189 204.07517441 -24.24767013 199.21991709 -24.26036072 194.36463928 C-24.28054809 186.69322529 -24.30820466 179.02184957 -24.33703613 171.35046387 C-24.37673968 160.60002405 -24.41370027 149.84958005 -24.44775391 139.09912109 C-24.44991671 138.41675375 -24.45207951 137.7343864 -24.45430785 137.03134125 C-24.47182986 131.49444248 -24.48917398 125.95754316 -24.50651073 120.42064381 C-24.5216727 115.58072191 -24.53690568 110.74080024 -24.55224609 105.90087891 C-24.55440496 105.2193413 -24.55656383 104.53780369 -24.55878812 103.83561343 C-24.59487872 92.47999592 -24.634871 81.12439614 -24.67754889 69.76880121 C-24.70594681 62.13683193 -24.72952527 54.50486724 -24.74947357 46.8728714 C-24.76283441 42.13202577 -24.78024822 37.39120141 -24.79878426 32.65037346 C-24.80655819 30.4456581 -24.8126199 28.24093597 -24.81687737 26.03621101 C-24.82289985 23.03553812 -24.83493631 20.03494856 -24.84851074 17.03430176 C-24.84880673 16.15405948 -24.84910272 15.27381721 -24.84940767 14.36690092 C-24.86982057 10.99754291 -24.9271453 8.21856411 -26 5 C-20.08950576 -6.82098847 -10.4874671 -5.11064387 0 0 Z M146 157 C146 157.99 146 158.98 146 160 C137.81444476 164.70234024 129.58972715 169.31895575 121.1875 173.625 C120.17526367 174.15673828 120.17526367 174.15673828 119.14257812 174.69921875 C117.46599734 175.54521559 115.7353954 176.28233951 114 177 C113.01 176.67 112.02 176.34 111 176 C119.05558279 171.26734511 127.18130365 166.80088137 135.58007812 162.703125 C139.15983512 160.95140635 142.61797945 159.10970572 146 157 Z M111 177 C111 177.66 111 178.32 111 179 C109.86046875 179.56589844 108.7209375 180.13179687 107.546875 180.71484375 C94.57553826 187.20335921 81.83987432 194.14399066 69.1484375 201.16015625 C64.78798069 203.56996994 60.41414213 205.9543271 56.03637695 208.33251953 C46.10371417 213.72929302 36.2270769 219.21949831 26.37255859 224.75756836 C15.96563716 230.59812103 5.49216455 236.31431071 -5 242 C-5.66 241.34 -6.32 240.68 -7 240 C-6.35264893 239.6690332 -5.70529785 239.33806641 -5.03833008 238.99707031 C7.10266126 232.77509327 19.14694327 226.45427641 30.94726562 219.60595703 C39.17916034 214.84679509 47.54797906 210.35480476 55.94506836 205.89477539 C61.66843215 202.84353526 67.27190607 199.6705135 72.81274414 196.29980469 C75.59663356 194.6454429 78.45563849 193.21214247 81.375 191.8125 C88.53076209 188.30570268 95.48171006 184.4679445 102.42333984 180.5559082 C103.24785645 180.09531006 104.07237305 179.63471191 104.921875 179.16015625 C105.66018555 178.74386963 106.39849609 178.32758301 107.15917969 177.89868164 C109 177 109 177 111 177 Z " fill="#086813" transform="translate(46,6)"/>
<path d="M0 0 C4.63664989 -0.58818611 7.50390778 0.41537303 11.53515625 2.640625 C13.10317993 3.49515259 13.10317993 3.49515259 14.70288086 4.36694336 C15.81155518 4.98835205 16.92022949 5.60976074 18.0625 6.25 C19.23329865 6.89488234 20.40461132 7.5388323 21.57641602 8.18188477 C29.41855271 12.50006041 37.20469712 16.91997778 44.95996094 21.39208984 C52.0323838 25.46924388 59.16651719 29.42846973 66.3125 33.375 C76.02743545 38.74765889 85.65350885 44.25129972 95.22631836 49.87280273 C101.90716621 53.79228502 108.62429506 57.63968481 115.375 61.4375 C124.59172927 66.62383349 133.76290832 71.88485409 142.91699219 77.1809082 C148.79841386 80.58162585 154.68703359 83.96860679 160.58984375 87.33203125 C161.22119736 87.69192642 161.85255096 88.05182159 162.5030365 88.42262268 C165.55504319 90.16199054 168.60813762 91.89940734 171.6628418 93.6340332 C177.52376388 96.97194832 183.31402496 100.3715416 189 104 C188.01 104.495 188.01 104.495 187 105 C184.6171875 104.00390625 184.6171875 104.00390625 181.875 102.5625 C180.96492187 102.08941406 180.05484375 101.61632812 179.1171875 101.12890625 C178.41851562 100.75636719 177.71984375 100.38382812 177 100 C177.763125 100.598125 178.52625 101.19625 179.3125 101.8125 C181.3483575 103.46959332 183.1978279 105.10297674 185 107 C178.85878301 105.37740421 173.77778178 102.10237226 168.375 98.875 C166.21162603 97.59779136 164.04753455 96.32179746 161.8828125 95.046875 C160.75391602 94.38107422 159.62501953 93.71527344 158.46191406 93.02929688 C152.75495685 89.6751974 147.001299 86.40225575 141.25 83.125 C140.07093578 82.45244124 138.89189949 81.77983353 137.71289062 81.10717773 C135.33329092 79.74982831 132.9533863 78.39301564 130.57324219 77.03662109 C125.2575844 74.00721506 119.94378268 70.97455992 114.63088989 67.94030762 C113.46042808 67.27184428 112.28991621 66.60346861 111.11935425 65.93518066 C102.66769593 61.10936221 94.2360248 56.24974551 85.8125 51.375 C76.27712073 45.85957199 66.69314043 40.43784278 57.07080078 35.07568359 C51.15486675 31.77672022 45.2634711 28.43983779 39.39404297 25.05883789 C24.71448873 16.4224136 24.71448873 16.4224136 9 10 C6.53686261 11.82748903 5.16571382 13.22976216 4.51171875 16.26953125 C4.27481707 18.51479346 4.09638651 20.74455578 4 23 C4.66 23 5.32 23 6 23 C6.02965964 27.18748445 6.0470151 31.37494105 6.0625 35.5625 C6.07087891 36.72458984 6.07925781 37.88667969 6.08789062 39.08398438 C6.10441112 45.0809251 5.9666619 51.01066634 5.50474548 56.99090576 C4.96297159 64.83611391 4.84119699 72.65320111 4.82641602 80.51660156 C4.82008883 82.00161423 4.81332077 83.48662507 4.80615234 84.97163391 C4.79164589 88.13403176 4.77985797 91.29642309 4.77020454 94.45883942 C4.75458945 99.45963354 4.73065047 104.46036755 4.70530701 109.46112061 C4.63450461 123.66854048 4.57407951 137.87599116 4.52319336 152.08349609 C4.4949211 159.95697851 4.45957919 167.83039745 4.41653961 175.70381331 C4.38977768 180.67640282 4.37186872 185.64892087 4.36050236 190.6215682 C4.35139567 193.7039118 4.33404668 196.78616747 4.31432343 199.8684597 C4.30683565 201.29914918 4.30276613 202.72986114 4.30232811 204.16057014 C4.3012492 206.10961626 4.2868604 208.0586416 4.27174377 210.00762939 C4.26751184 211.09890766 4.2632799 212.19018593 4.25891972 213.31453323 C4 216 4 216 2 219 C1.83300768 222.12521833 1.83300768 222.12521833 2 225 C2.66 225 3.32 225 4 225 C3.67 225.99 3.34 226.98 3 228 C1.35 227.67 -0.3 227.34 -2 227 C-2.0455989 198.5147974 -2.08100576 170.02959938 -2.10213066 141.54436744 C-2.10463215 138.18346821 -2.10722079 134.82256905 -2.10986328 131.46166992 C-2.1103879 130.79255914 -2.11091252 130.12344837 -2.11145304 129.4340615 C-2.120162 118.5917121 -2.13593467 107.74938384 -2.15430559 96.907047 C-2.17299099 85.78658335 -2.18396408 74.66612696 -2.18817699 63.54564744 C-2.1907899 57.29743614 -2.19695339 51.04927284 -2.21146011 44.80107689 C-2.22499261 38.92511543 -2.22923145 33.04922195 -2.22621536 27.17324638 C-2.22676747 25.01206341 -2.2307706 22.85087825 -2.23841095 20.68970871 C-2.24830441 17.7479444 -2.24598942 14.80643963 -2.24050903 11.8646698 C-2.24633472 11.00183591 -2.2521604 10.13900201 -2.25816262 9.25002164 C-2.22824242 3.34236363 -2.22824242 3.34236363 0 0 Z " fill="#83D66D" transform="translate(33,12)"/>
<path d="M0 0 C5.17316309 2.70682263 10.24432745 5.59789534 15.3203125 8.48144531 C19.17705249 10.66702501 23.04730111 12.82823099 26.91674805 14.99121094 C30.10852987 16.77573529 33.29858721 18.5633094 36.48828125 20.3515625 C40.79637198 22.76626383 45.10630557 25.17762113 49.41796875 27.5859375 C59.99084931 33.49380987 70.54189961 39.43530194 81.04785156 45.46142578 C87.84062486 49.3520195 94.66584344 53.18264359 101.5 57 C114.79405655 64.42924007 128.02597937 71.96191082 141.20703125 79.58984375 C143.38797508 80.85164159 145.56896528 82.11335928 147.75 83.375 C148.82983154 83.99987305 149.90966309 84.62474609 151.0222168 85.26855469 C159.93407451 90.41319022 168.90118788 95.45173656 177.90527344 100.43310547 C182.74085248 103.11944946 187.46474811 105.82995148 192 109 C191.34 109.66 190.68 110.32 190 111 C189.67 111.99 189.34 112.98 189 114 C182.08926438 110.77385806 175.54538771 107.02572409 168.99609375 103.13598633 C163.38306828 99.80476198 157.73477086 96.54173649 152.0625 93.3125 C144.17232961 88.81766595 136.29982095 84.29337099 128.4375 79.75 C101.84731603 64.39323972 75.15078726 49.22610692 48.35058594 34.23876953 C41.24325317 30.26233748 34.14934703 26.26281208 27.0625 22.25 C20.03212175 18.27131242 12.99516802 14.30511222 5.9375 10.375 C5.21763916 9.97313477 4.49777832 9.57126953 3.75610352 9.15722656 C-5.1223017 4.20866084 -5.1223017 4.20866084 -15 2 C-15.33 1.01 -15.66 0.02 -16 -1 C-16.99 -1.33 -17.98 -1.66 -19 -2 C-19 -1.34 -19 -0.68 -19 0 C-20.32 0.33 -21.64 0.66 -23 1 C-17.16303678 -7.61646951 -7.84975405 -3.82526086 0 0 Z " fill="#13711C" transform="translate(46,6)"/>
<path d="M0 0 C4.63664989 -0.58818611 7.50390778 0.41537303 11.53515625 2.640625 C13.10317993 3.49515259 13.10317993 3.49515259 14.70288086 4.36694336 C15.81155518 4.98835205 16.92022949 5.60976074 18.0625 6.25 C19.23329865 6.89488234 20.40461132 7.5388323 21.57641602 8.18188477 C29.41855271 12.50006041 37.20469712 16.91997778 44.95996094 21.39208984 C52.0323838 25.46924388 59.16651719 29.42846973 66.3125 33.375 C76.02743545 38.74765889 85.65350885 44.25129972 95.22631836 49.87280273 C101.90716621 53.79228502 108.62429506 57.63968481 115.375 61.4375 C124.59172927 66.62383349 133.76290832 71.88485409 142.91699219 77.1809082 C148.79841386 80.58162585 154.68703359 83.96860679 160.58984375 87.33203125 C161.22119736 87.69192642 161.85255096 88.05182159 162.5030365 88.42262268 C165.55504319 90.16199054 168.60813762 91.89940734 171.6628418 93.6340332 C177.52376388 96.97194832 183.31402496 100.3715416 189 104 C188.01 104.495 188.01 104.495 187 105 C184.6171875 104.00390625 184.6171875 104.00390625 181.875 102.5625 C180.96492187 102.08941406 180.05484375 101.61632812 179.1171875 101.12890625 C178.41851562 100.75636719 177.71984375 100.38382812 177 100 C177.763125 100.598125 178.52625 101.19625 179.3125 101.8125 C181.3483575 103.46959332 183.1978279 105.10297674 185 107 C178.85878301 105.37740421 173.77778178 102.10237226 168.375 98.875 C166.21162603 97.59779136 164.04753455 96.32179746 161.8828125 95.046875 C160.75391602 94.38107422 159.62501953 93.71527344 158.46191406 93.02929688 C152.75495685 89.6751974 147.001299 86.40225575 141.25 83.125 C140.07093578 82.45244124 138.89189949 81.77983353 137.71289062 81.10717773 C135.33329092 79.74982831 132.9533863 78.39301564 130.57324219 77.03662109 C125.2575844 74.00721506 119.94378268 70.97455992 114.63088989 67.94030762 C113.46042808 67.27184428 112.28991621 66.60346861 111.11935425 65.93518066 C102.66769593 61.10936221 94.2360248 56.24974551 85.8125 51.375 C76.27712073 45.85957199 66.69314043 40.43784278 57.07080078 35.07568359 C51.15486675 31.77672022 45.2634711 28.43983779 39.39404297 25.05883789 C24.80635797 16.15212058 24.80635797 16.15212058 9 10 C6.1099784 11.74409751 6.1099784 11.74409751 4 14 C4 11.69 4 9.38 4 7 C7.05263664 6.01879536 8.94736336 6.01879536 12 7 C9.87878343 4.66666177 7.98405635 3.0851114 5 2 C2.82676431 2.14681461 2.82676431 2.14681461 1 3 C-0.20217521 5.40435043 -0.11447334 6.86716692 -0.09765625 9.55151367 C-0.09439331 10.51146744 -0.09113037 11.4714212 -0.08776855 12.46046448 C-0.07942993 13.51894089 -0.07109131 14.5774173 -0.0625 15.66796875 C-0.05389096 17.98128202 -0.04543489 20.29459585 -0.03710938 22.60791016 C-0.03090576 23.84212708 -0.02470215 25.07634399 -0.01831055 26.34796143 C0.01288571 32.88950364 0.02631583 39.43104556 0.03125 45.97265625 C0.03179886 46.65476921 0.03234772 47.33688217 0.03291321 48.03966522 C0.04011446 64.73735628 -0.21277124 81.43015924 -0.5 98.125 C-0.51202454 98.82882687 -0.52404907 99.53265373 -0.53643799 100.25780869 C-0.68326274 108.83868235 -0.8372406 117.41941319 -1 126 C-1.33 126 -1.66 126 -2 126 C-2.0466937 110.01461349 -2.08197591 94.02924905 -2.10362434 78.04381084 C-2.11394267 70.62171335 -2.12801359 63.19965821 -2.15087891 55.77758789 C-2.1707958 49.30949797 -2.18371239 42.84143871 -2.18817699 36.37331897 C-2.19078726 32.94760361 -2.19693401 29.52197597 -2.21146011 26.09628868 C-2.22753393 22.27470616 -2.22798078 18.45320994 -2.22705078 14.6315918 C-2.23424133 13.49223679 -2.24143188 12.35288177 -2.24884033 11.17900085 C-2.246091 10.13993591 -2.24334167 9.10087097 -2.24050903 8.03031921 C-2.24235262 7.1260403 -2.24419621 6.22176138 -2.24609566 5.29008007 C-2 3 -2 3 0 0 Z " fill="#BFF4A4" transform="translate(33,12)"/>
<path d="M0 0 C0.02333008 29.04104602 0.04097971 58.08209065 0.05181217 87.12314415 C0.05283206 89.80410132 0.05387338 92.48505847 0.05493164 95.16601562 C0.05519395 95.8323981 0.05545626 96.49878057 0.05572652 97.18535645 C0.06008211 107.98634058 0.06796905 118.78731941 0.0771528 129.58830039 C0.08649242 140.66469104 0.09198138 151.74107952 0.09408849 162.81747401 C0.09539548 169.04160433 0.09848057 175.26572261 0.10573006 181.48984909 C0.11249138 187.34199148 0.11461673 193.19411681 0.11310768 199.04626274 C0.11338396 201.19980016 0.11538841 203.35333812 0.11920547 205.50687218 C0.12414445 208.43578564 0.1229975 211.36463377 0.12025452 214.29354858 C0.12316736 215.15540437 0.1260802 216.01726016 0.12908131 216.90523279 C0.11412121 222.77175758 0.11412121 222.77175758 -1 225 C-2.32 224.67 -3.64 224.34 -5 224 C-5.0700052 195.23700871 -5.12294649 166.47403013 -5.15543652 137.71097088 C-5.17092152 124.35651771 -5.1920422 111.00212373 -5.22631836 97.64770508 C-5.25617075 86.01131923 -5.27556311 74.37497165 -5.28226548 62.73854858 C-5.2861848 56.57414725 -5.29542958 50.40985543 -5.31719017 44.24548912 C-5.33748961 38.44829914 -5.34384708 32.6512642 -5.33932304 26.85404205 C-5.34015118 24.7218803 -5.34615558 22.58971358 -5.35761642 20.45758247 C-5.37245813 17.55512131 -5.36898411 14.65325196 -5.36076355 11.7507782 C-5.36950207 10.89961715 -5.3782406 10.0484561 -5.38724393 9.17150229 C-5.34301224 3.42660552 -5.34301224 3.42660552 -3.60192853 1.2612136 C-2 0 -2 0 0 0 Z " fill="#32A22C" transform="translate(31,14)"/>
<path d="M0 0 C0.33 0 0.66 0 1 0 C1.00238835 1.1859032 1.00477671 2.37180639 1.00723743 3.59364605 C1.06458581 31.73874357 1.13730817 59.88377087 1.22898628 88.02877779 C1.24025457 91.49224798 1.251393 94.95571858 1.26245117 98.41918945 C1.26465486 99.10870991 1.26685854 99.79823037 1.269129 100.50864539 C1.30451031 111.67618028 1.32936973 122.8437151 1.35034702 134.01128527 C1.37210246 145.46855363 1.40537332 156.92573511 1.44870156 168.38294488 C1.47267518 174.81900611 1.49137684 181.25498665 1.49761391 187.69109154 C1.503646 193.74606471 1.52357797 199.80083132 1.55427551 205.85572815 C1.56308585 208.08055502 1.56677216 210.30540884 1.56500816 212.53025246 C1.56336225 215.56343356 1.57999669 218.59597987 1.60127258 221.6290741 C1.59642501 222.51331895 1.59157743 223.39756379 1.58658296 224.30860394 C1.6412377 229.01675536 1.90421831 232.20271964 5 236 C8.78139421 238.52092948 11.62980137 238.57264672 16 238 C26.17972426 235.3211252 35.79917954 228.97276719 45 224 C45.84079102 223.54592773 46.68158203 223.09185547 47.54785156 222.62402344 C56.36675368 217.85203625 65.15433988 213.02341826 73.9296875 208.171875 C74.52564224 207.84241882 75.12159698 207.51296265 75.73561096 207.17352295 C76.33759811 206.84072327 76.93958527 206.50792358 77.55981445 206.16503906 C78.47085434 205.66139832 78.47085434 205.66139832 79.40029907 205.14758301 C80.63388251 204.46561251 81.86742334 203.78356492 83.10092163 203.10144043 C93.01788221 197.61940303 102.97813233 192.22366084 112.96386719 186.86767578 C119.71250654 183.24409888 126.42391034 179.56212249 133.10742188 175.82006836 C139.59356008 172.19981304 146.13957131 168.69444845 152.6875 165.1875 C162.21377642 160.08242322 171.65658318 154.85001664 181.04467773 149.49536133 C187.70002995 145.70649594 194.42191317 142.08381589 201.234375 138.5859375 C203.60688693 137.22542925 205.23218398 136.05415242 207 134 C207.66 134.33 208.32 134.66 209 135 C209.165 134.360625 209.33 133.72125 209.5 133.0625 C211 131 211 131 212.9140625 130.51171875 C214.93575155 130.2724022 216.96841939 130.13106972 219 130 C216.11416947 133.14053755 213.32160794 135.11914027 209.5546875 137.1015625 C208.48718262 137.66883057 207.41967773 138.23609863 206.31982422 138.82055664 C204.61463623 139.7137561 204.61463623 139.7137561 202.875 140.625 C201.09260706 141.5692574 199.31166358 142.51620972 197.53079224 143.46333313 C195.76607099 144.40161152 194.00022772 145.33777858 192.234375 146.27392578 C188.08638298 148.48756584 183.97548754 150.76239026 179.875 153.0625 C172.00961589 157.46101312 164.09131088 161.75827185 156.16357422 166.04321289 C149.4341591 169.68054749 142.71316212 173.33275923 136 177 C128.26049998 181.22790475 120.5082521 185.43161564 112.75 189.625 C105.81081186 193.37710555 98.88775977 197.1542818 92 201 C84.09641385 205.41289564 76.1431965 209.73095425 68.17944336 214.03417969 C62.22562445 217.25154002 56.27936449 220.48203522 50.34204102 223.72973633 C42.68451395 227.91800344 35.01794342 232.08792103 27.3125 236.1875 C26.61133057 236.56229492 25.91016113 236.93708984 25.18774414 237.32324219 C19.21946617 240.4834024 14.7050739 241.67286833 8 241 C4.76699914 239.52406483 2.27839213 237.73407055 0 235 C-1.34011502 230.97965495 -1.13755173 227.11283386 -1.12698364 222.92100525 C-1.12854363 221.98063606 -1.13010362 221.04026688 -1.13171089 220.07140166 C-1.13571319 216.90687898 -1.1325342 213.74240392 -1.12939453 210.57788086 C-1.1307489 208.31470206 -1.13252904 206.05152349 -1.13470459 203.78834534 C-1.13927438 197.63155478 -1.13749128 191.47478093 -1.1343255 185.31799006 C-1.13179988 178.88602957 -1.13413998 172.45407054 -1.13571167 166.02210999 C-1.13764939 154.52783874 -1.13453526 143.03357607 -1.12945233 131.53930617 C-1.12498339 121.11042885 -1.12576133 110.68156266 -1.13037109 100.25268555 C-1.13571831 88.14970314 -1.13771699 76.04672948 -1.13475883 63.94374567 C-1.13319646 57.53410326 -1.13300122 51.12446851 -1.13629532 44.71482658 C-1.13917468 38.691099 -1.13719713 32.66739252 -1.13140106 26.64366722 C-1.13007387 24.42723882 -1.13046689 22.21080866 -1.13266373 19.99438095 C-1.13537679 16.98023333 -1.13199215 13.96615431 -1.12698364 10.95201111 C-1.12921436 10.06496504 -1.13144509 9.17791898 -1.13374341 8.26399273 C-1.11415009 2.22830019 -1.11415009 2.22830019 0 0 Z " fill="#0A450A" transform="translate(21,12)"/>
<path d="M0 0 C0 0.99 0 1.98 0 3 C-0.52956299 3.28721924 -1.05912598 3.57443848 -1.60473633 3.87036133 C-4.01030431 5.17901352 -6.41140832 6.49565414 -8.8125 7.8125 C-10.06256836 8.49022461 -10.06256836 8.49022461 -11.33789062 9.18164062 C-12.14033203 9.62314453 -12.94277344 10.06464844 -13.76953125 10.51953125 C-14.50792236 10.92276611 -15.24631348 11.32600098 -16.00708008 11.74145508 C-18.01410906 12.90039803 -18.01410906 12.90039803 -19.42578125 14.46508789 C-21.53017429 16.51693638 -23.82090674 17.66656658 -26.41796875 19.0390625 C-27.49860596 19.61446777 -28.57924316 20.18987305 -29.69262695 20.78271484 C-30.84593506 21.39066895 -31.99924316 21.99862305 -33.1875 22.625 C-35.58212249 23.89843286 -37.97460389 25.1758665 -40.3671875 26.453125 C-41.52186523 27.06865234 -42.67654297 27.68417969 -43.86621094 28.31835938 C-47.54226528 30.2909881 -51.18664161 32.31193279 -54.8125 34.375 C-74.11003072 45.32644707 -93.61992763 55.9056199 -113.14013672 66.453125 C-117.93093429 69.04442544 -122.71621189 71.64578803 -127.5 74.25 C-128.40492188 74.74048828 -129.30984375 75.23097656 -130.2421875 75.73632812 C-134.42798426 78.01308288 -138.58314747 80.32243786 -142.68359375 82.75 C-143.76833984 83.38566895 -143.76833984 83.38566895 -144.875 84.03417969 C-146.19667566 84.81329247 -147.51128782 85.60459133 -148.81640625 86.41113281 C-153.02893264 88.88622404 -156.15332797 89.37139249 -161 89 C-159.68 87.68 -158.36 86.36 -157 85 C-157.66 85 -158.32 85 -159 85 C-159.6875 82.1875 -159.6875 82.1875 -160 79 C-158.5625 77.125 -158.5625 77.125 -157 76 C-157 78.31 -157 80.62 -157 83 C-150.2133966 80.58264791 -144.19765855 77.46937008 -138.02734375 73.765625 C-135.28911934 72.16862186 -132.54159904 70.75026979 -129.6875 69.375 C-123.82316772 66.4997323 -118.17121207 63.30003136 -112.5 60.0625 C-103.74076728 55.06526858 -94.90392598 50.23327588 -86 45.5 C-76.40177299 40.39520319 -66.88937359 35.16174355 -57.44580078 29.77563477 C-49.65470462 25.34155045 -41.78265485 21.06951822 -33.8828125 16.83276367 C-28.86521974 14.13126862 -23.88773257 11.37985468 -18.9609375 8.515625 C-17.99945801 7.95689697 -17.03797852 7.39816895 -16.04736328 6.82250977 C-14.22600498 5.75795779 -12.40901003 4.68589352 -10.59716797 3.60522461 C-9.78650879 3.13093018 -8.97584961 2.65663574 -8.140625 2.16796875 C-7.43454102 1.74797607 -6.72845703 1.3279834 -6.00097656 0.89526367 C-4 0 -4 0 0 0 Z " fill="#4CB63A" transform="translate(194,152)"/>
<path d="M0 0 C4.63664989 -0.58818611 7.50390778 0.41537303 11.53515625 2.640625 C12.58098877 3.21055176 13.62682129 3.78047852 14.7043457 4.36767578 C15.81253662 4.98884277 16.92072754 5.61000977 18.0625 6.25 C19.2177417 6.88534668 20.3729834 7.52069336 21.56323242 8.17529297 C25.05316593 10.09755726 28.52785314 12.04578122 32 14 C32.96615234 14.54366211 33.93230469 15.08732422 34.92773438 15.64746094 C40.08957019 18.56283905 45.23054235 21.51324657 50.36328125 24.47949219 C55.17080947 27.25183346 59.99273905 29.99900049 64.8125 32.75 C66.58990117 33.76552451 68.36725054 34.7811397 70.14453125 35.796875 C70.89065674 36.22323242 71.63678223 36.64958984 72.40551758 37.08886719 C72.93169678 37.38954102 73.45787598 37.69021484 74 38 C73.01 38.495 73.01 38.495 72 39 C70.0546875 38.22265625 70.0546875 38.22265625 67.875 37.0625 C66.78832031 36.49208984 66.78832031 36.49208984 65.6796875 35.91015625 C65.12539062 35.60980469 64.57109375 35.30945312 64 35 C64.46019531 35.46019531 64.92039062 35.92039063 65.39453125 36.39453125 C66.9296875 37.9296875 68.46484375 39.46484375 70 41 C63.76062492 39.37188024 58.6017443 35.97134088 53.125 32.6875 C44.46799441 27.57257399 35.76278413 22.56945712 26.9375 17.75 C25.94572754 17.20174561 24.95395508 16.65349121 23.93212891 16.08862305 C16.77715469 12.20139723 16.77715469 12.20139723 9 10 C6.05099476 11.72376805 6.05099476 11.72376805 4 14 C4 11.69 4 9.38 4 7 C7.05263664 6.01879536 8.94736336 6.01879536 12 7 C9.87878343 4.66666177 7.98405635 3.0851114 5 2 C2.82676431 2.14681461 2.82676431 2.14681461 1 3 C-0.20217521 5.40435043 -0.11447334 6.86716692 -0.09765625 9.55151367 C-0.09439331 10.51146744 -0.09113037 11.4714212 -0.08776855 12.46046448 C-0.07942993 13.51894089 -0.07109131 14.5774173 -0.0625 15.66796875 C-0.05389096 17.98128202 -0.04543489 20.29459585 -0.03710938 22.60791016 C-0.03090576 23.84212708 -0.02470215 25.07634399 -0.01831055 26.34796143 C0.01288571 32.88950364 0.02631583 39.43104556 0.03125 45.97265625 C0.03179886 46.65476921 0.03234772 47.33688217 0.03291321 48.03966522 C0.04011446 64.73735628 -0.21277124 81.43015924 -0.5 98.125 C-0.51202454 98.82882687 -0.52404907 99.53265373 -0.53643799 100.25780869 C-0.68326274 108.83868235 -0.8372406 117.41941319 -1 126 C-1.33 126 -1.66 126 -2 126 C-2.0466937 110.01461349 -2.08197591 94.02924905 -2.10362434 78.04381084 C-2.11394267 70.62171335 -2.12801359 63.19965821 -2.15087891 55.77758789 C-2.1707958 49.30949797 -2.18371239 42.84143871 -2.18817699 36.37331897 C-2.19078726 32.94760361 -2.19693401 29.52197597 -2.21146011 26.09628868 C-2.22753393 22.27470616 -2.22798078 18.45320994 -2.22705078 14.6315918 C-2.23424133 13.49223679 -2.24143188 12.35288177 -2.24884033 11.17900085 C-2.246091 10.13993591 -2.24334167 9.10087097 -2.24050903 8.03031921 C-2.24235262 7.1260403 -2.24419621 6.22176138 -2.24609566 5.29008007 C-2 3 -2 3 0 0 Z " fill="#CDF5B5" transform="translate(33,12)"/>
<path d="M0 0 C0 0.99 0 1.98 0 3 C-1.03640625 3.53109375 -2.0728125 4.0621875 -3.140625 4.609375 C-4.51062127 5.32252374 -5.88040164 6.03608736 -7.25 6.75 C-8.27287109 7.27207031 -8.27287109 7.27207031 -9.31640625 7.8046875 C-9.98027344 8.15273437 -10.64414063 8.50078125 -11.328125 8.859375 C-11.9355957 9.17358398 -12.54306641 9.48779297 -13.16894531 9.81152344 C-15.12118398 10.98091232 -15.12118398 10.98091232 -16.85742188 12.92407227 C-19.36396771 15.35264556 -21.86289888 16.73663213 -24.953125 18.35546875 C-25.8126754 18.81049774 -25.8126754 18.81049774 -26.68959045 19.27471924 C-28.53952488 20.2525357 -30.39449979 21.22029312 -32.25 22.1875 C-34.79208888 23.52278091 -37.33188897 24.86236906 -39.87109375 26.203125 C-40.4926384 26.53054184 -41.11418304 26.85795868 -41.75456238 27.19529724 C-45.26763696 29.05392975 -48.73450406 30.96936768 -52.16015625 32.984375 C-52.87977539 33.4069458 -53.59939453 33.8295166 -54.34082031 34.26489258 C-55.60682481 35.01781724 -56.86602693 35.78236796 -58.11621094 36.5612793 C-62.20266075 38.98057603 -65.29585427 39.33984323 -70 39 C-68.68 37.68 -67.36 36.36 -66 35 C-66.66 35 -67.32 35 -68 35 C-68.6875 32.1875 -68.6875 32.1875 -69 29 C-67.5625 27.125 -67.5625 27.125 -66 26 C-66 28.31 -66 30.62 -66 33 C-59.2133966 30.58264791 -53.19765855 27.46937008 -47.02734375 23.765625 C-44.28911934 22.16862186 -41.54159904 20.75026979 -38.6875 19.375 C-34.51166811 17.34246644 -30.47434659 15.15146341 -26.4453125 12.83984375 C-25.43895752 12.26250488 -24.43260254 11.68516602 -23.39575195 11.09033203 C-21.37973528 9.92787789 -19.36766178 8.75855119 -17.36010742 7.58154297 C-11.67230932 4.3022225 -6.30781611 1.83842632 0 0 Z " fill="#46AF37" transform="translate(103,202)"/>
<path d="M0 0 C0.7734375 0.39832031 1.546875 0.79664062 2.34375 1.20703125 C3.3853125 1.73683594 4.426875 2.26664062 5.5 2.8125 C7.03140625 3.59560547 7.03140625 3.59560547 8.59375 4.39453125 C12.00104815 6.07226975 12.00104815 6.07226975 15.71484375 7.30078125 C21.20225361 9.30934331 26.0664263 12.38118982 31.0625 15.375 C33.17874606 16.62919405 35.29596115 17.88175423 37.4140625 19.1328125 C38.49461914 19.7712207 39.57517578 20.40962891 40.68847656 21.06738281 C47.05268162 24.78155616 53.49857028 28.35406191 59.95141602 31.91162109 C60.86334717 32.42031738 61.77527832 32.92901367 62.71484375 33.453125 C63.52042725 33.89817383 64.32601074 34.34322266 65.15600586 34.80175781 C67 36 67 36 68 38 C63.76570244 36.68938409 59.92592596 35.05643741 56 33 C56.763125 33.598125 57.52625 34.19625 58.3125 34.8125 C60.3483575 36.46959332 62.1978279 38.10297674 64 40 C57.85899088 38.37745913 52.77738369 35.1028115 47.375 31.875 C45.24559788 30.6158231 43.115352 29.3580723 40.984375 28.1015625 C39.85966797 27.43801758 38.73496094 26.77447266 37.57617188 26.09082031 C33.82483314 23.88924137 30.04793582 21.73376131 26.265625 19.5859375 C25.6266629 19.22285492 24.98770081 18.85977234 24.32937622 18.48568726 C21.80389357 17.05158292 19.27784589 15.61852525 16.74871826 14.19085693 C14.98978167 13.19768877 13.23312016 12.2004946 11.4765625 11.203125 C10.46674316 10.63239258 9.45692383 10.06166016 8.41650391 9.47363281 C4.7603034 7.24400802 2.02130028 4.02130028 -1 1 C-0.67 0.67 -0.34 0.34 0 0 Z " fill="#A6ED88" transform="translate(154,79)"/>
<path d="M0 0 C0.66 0 1.32 0 2 0 C2.02317604 10.3443463 2.04094196 20.68868642 2.05181217 31.0330534 C2.05702947 35.83641668 2.06410621 40.63976218 2.07543945 45.44311523 C2.08630926 50.07909635 2.09228554 54.71506037 2.09487724 59.35105324 C2.0967241 61.11926352 2.10033053 62.88747288 2.10573006 64.65567589 C2.11299478 67.13334546 2.11398864 69.61094453 2.11352539 72.08862305 C2.11712067 72.81870575 2.12071594 73.54878845 2.12442017 74.30099487 C2.11695275 77.99490507 1.88277081 81.408167 1 85 C3.03296612 83.93333021 5.06561164 82.86605568 7.09790039 81.7980957 C8.82969634 80.88819669 10.56195878 79.97918501 12.29467773 79.07104492 C16.24514597 76.99621143 20.18683136 74.91227825 24.0859375 72.7421875 C25.23320313 72.10539062 26.38046875 71.46859375 27.5625 70.8125 C28.57441406 70.24144531 29.58632812 69.67039062 30.62890625 69.08203125 C31.41136719 68.72496094 32.19382813 68.36789063 33 68 C33.99 68.495 33.99 68.495 35 69 C28.78981001 72.87449907 22.48073508 76.33420387 15.90234375 79.54296875 C12.48963871 81.25621099 9.20775066 83.14760472 5.9375 85.1171875 C4 86 4 86 0 86 C-0.93059916 66.37443886 -0.99886809 46.89278011 -0.5625 27.25 C-0.5081787 24.58336258 -0.45631939 21.91668406 -0.40429688 19.25 C-0.27762234 12.83314715 -0.1424262 6.41652161 0 0 Z " fill="#148117" transform="translate(37,149)"/>
<path d="M0 0 C3.45868703 0.562587 6.07818799 1.3912658 9.09765625 3.16015625 C9.8863208 3.61680664 10.67498535 4.07345703 11.48754883 4.54394531 C12.33728271 5.04506836 13.1870166 5.54619141 14.0625 6.0625 C15.9216379 7.1423354 17.78102729 8.22173788 19.640625 9.30078125 C20.64802734 9.88811035 21.65542969 10.47543945 22.69335938 11.08056641 C28.24550545 14.3034675 33.82443815 17.47939487 39.40109253 20.65963745 C42.47284837 22.41192083 45.54301651 24.16698075 48.61328125 25.921875 C49.65266846 26.51581055 50.69205566 27.10974609 51.76293945 27.72167969 C52.50116943 28.14352539 53.23939941 28.56537109 54 29 C54 29.99 54 30.98 54 32 C53 33 52 34 51 35 C47.01587289 32.71687592 43.03858616 30.42209444 39.0625 28.125 C37.92619141 27.47402344 36.78988281 26.82304688 35.61914062 26.15234375 C33.99975586 25.21455078 33.99975586 25.21455078 32.34765625 24.2578125 C31.34742432 23.6817627 30.34719238 23.10571289 29.31665039 22.51220703 C27 21 27 21 26 19 C30.03520597 20.58962659 34.01811282 22.28232318 38 24 C38 23.34 38 22.68 38 22 C36.93809448 21.60035034 36.93809448 21.60035034 35.85473633 21.19262695 C32.87574811 19.94809112 30.13965093 18.49716366 27.32421875 16.91796875 C26.24849609 16.31533203 25.17277344 15.71269531 24.06445312 15.09179688 C22.95005859 14.46337891 21.83566406 13.83496094 20.6875 13.1875 C19.58470703 12.57068359 18.48191406 11.95386719 17.34570312 11.31835938 C11.47143846 8.01825009 5.62769284 4.70838225 0 1 C0 0.67 0 0.34 0 0 Z " fill="#0C6815" transform="translate(183,85)"/>
<path d="M0 0 C12.07340746 3.78946366 22.34738286 10.31797633 33 17 C32.01 17.495 32.01 17.495 31 18 C28.6171875 17.00390625 28.6171875 17.00390625 25.875 15.5625 C24.96492188 15.08941406 24.05484375 14.61632812 23.1171875 14.12890625 C22.06917969 13.57009766 22.06917969 13.57009766 21 13 C21.763125 13.598125 22.52625 14.19625 23.3125 14.8125 C25.3483575 16.46959332 27.1978279 18.10297674 29 20 C22.99779051 18.40271781 18.0672566 15.26253643 12.8125 12.0625 C11.91080078 11.52431641 11.00910156 10.98613281 10.08007812 10.43164062 C2.12752058 5.62931437 2.12752058 5.62931437 0 3 C0 2.01 0 1.02 0 0 Z " fill="#94E674" transform="translate(189,99)"/>
<path d="M0 0 C8.47187144 1.99978771 15.54906849 5.75093948 23.0625 10.0625 C24.20138672 10.69994141 25.34027344 11.33738281 26.51367188 11.99414062 C34.86202038 16.72404076 34.86202038 16.72404076 36 19 C31.0276578 17.50829734 26.58154261 15.39542583 22 13 C23.65 14.65 25.3 16.3 27 18 C20.80326641 16.36928063 14.04799626 13.07958172 9.4921875 8.4765625 C7.62190408 6.6258632 5.62711149 5.55366848 3.3125 4.3125 C2.50425781 3.87550781 1.69601563 3.43851562 0.86328125 2.98828125 C0.24839844 2.66214844 -0.36648437 2.33601563 -1 2 C-0.67 1.34 -0.34 0.68 0 0 Z " fill="#B3F196" transform="translate(132,67)"/>
<path d="M0 0 C2.54887422 1.03668963 4.97755288 2.09892193 7.4375 3.3125 C8.06503174 3.6204248 8.69256348 3.92834961 9.33911133 4.24560547 C13.87027479 6.61082437 13.87027479 6.61082437 15 10 C17.49759982 11.69882448 17.49759982 11.69882448 20 13 C19.01 13.495 19.01 13.495 18 14 C16.30761719 13.28735352 16.30761719 13.28735352 14.296875 12.12890625 C13.56339844 11.71962891 12.82992187 11.31035156 12.07421875 10.88867188 C10.53820374 10.01223978 9.00430184 9.13209274 7.47265625 8.24804688 C3.19802757 5.87200981 0.04090479 4.19803787 -5 5 C-5.66 5.66 -6.32 6.32 -7 7 C-8.64991582 7.70710678 -10.31562256 8.37943989 -12 9 C-11.67815583 6.10340247 -11.38591512 3.68102669 -9.9375 1.125 C-6.55386962 -0.83968861 -3.70422199 -0.79535097 0 0 Z " fill="#42B337" transform="translate(38,8)"/>
<path d="M0 0 C0.6290625 0.32613281 1.258125 0.65226562 1.90625 0.98828125 C5.96467093 3.06027627 9.92440232 5.04975116 14.25 6.5 C18.27447274 7.91510932 20.88263814 10.11644028 24 13 C23.34 14.65 22.68 16.3 22 18 C20.24870343 16.89789095 18.49901536 15.79322568 16.75 14.6875 C15.77546875 14.07261719 14.8009375 13.45773438 13.796875 12.82421875 C8.51754052 9.38085394 3.35149217 5.58051807 -1 1 C-0.67 0.67 -0.34 0.34 0 0 Z " fill="#64CC4B" transform="translate(210,111)"/>
<path d="M0 0 C7.53585275 2.6995814 14.38567901 5.46076011 21 10 C20.01 10.495 20.01 10.495 19 11 C16.875 10.0625 16.875 10.0625 15 9 C14.67 9.66 14.34 10.32 14 11 C14.99 11.33 15.98 11.66 17 12 C16.01 12.495 16.01 12.495 15 13 C12.3203125 11.7421875 12.3203125 11.7421875 9.125 9.875 C8.07570312 9.27429688 7.02640625 8.67359375 5.9453125 8.0546875 C2.97253426 5.98083955 1.09981825 3.93163031 -1 1 C-0.67 0.67 -0.34 0.34 0 0 Z " fill="#9EEA7F" transform="translate(175,91)"/>
<path d="M0 0 C0.33 0 0.66 0 1 0 C1.1306555 8.42313125 1.26106255 16.8462663 1.39115143 25.26940632 C1.45156309 29.1805013 1.5120607 33.09159492 1.57275391 37.00268555 C1.63131057 40.77629987 1.68964255 44.54991761 1.74781799 48.32353783 C1.77006509 49.76405143 1.79239349 51.20456378 1.81480408 52.64507484 C1.84615158 54.66092222 1.87718461 56.67677449 1.90820312 58.69262695 C1.92596802 59.84068314 1.94373291 60.98873932 1.96203613 62.17158508 C1.98811127 64.11425628 2 66.05715381 2 68 C1.34 67.67 0.68 67.34 0 67 C0 44.89 0 22.78 0 0 Z " fill="#5DC646" transform="translate(31,172)"/>
<path d="M0 0 C4.41134682 1.3317662 8.17928447 3.07155988 12.16796875 5.37109375 C13.30814453 6.02787109 14.44832031 6.68464844 15.62304688 7.36132812 C16.20820068 7.70236572 16.79335449 8.04340332 17.39624023 8.39477539 C19.18882637 9.4382721 20.98749912 10.47062765 22.78710938 11.50195312 C32.38560489 17.06069613 32.38560489 17.06069613 35 20 C30.90087399 19.50313624 28.17137182 18.00940617 24.71484375 15.921875 C22.53498296 14.75001362 20.44579493 14.29645999 18 14 C18 13.34 18 12.68 18 12 C16.68 11.34 15.36 10.68 14 10 C14 9.34 14 8.68 14 8 C12.91138672 7.8453125 12.91138672 7.8453125 11.80078125 7.6875 C8.72141176 6.93161572 6.78729785 5.79355872 4.1875 4 C3.39730469 3.46375 2.60710937 2.9275 1.79296875 2.375 C1.20128906 1.92125 0.60960937 1.4675 0 1 C0 0.67 0 0.34 0 0 Z " fill="#56C443" transform="translate(157,76)"/>
<path d="M0 0 C3.73230192 0.58078239 6.47170625 1.61695026 9.73046875 3.51171875 C10.61669922 4.02283203 11.50292969 4.53394531 12.41601562 5.06054688 C13.33060547 5.59744141 14.24519531 6.13433594 15.1875 6.6875 C16.08275391 7.20505859 16.97800781 7.72261719 17.90039062 8.25585938 C19.70001113 9.29924946 21.49546809 10.34985486 23.28662109 11.40771484 C25.14821288 12.50014796 27.0217295 13.57243645 28.90478516 14.62744141 C29.81921387 15.14870605 30.73364258 15.6699707 31.67578125 16.20703125 C32.50634033 16.67214111 33.33689941 17.13725098 34.19262695 17.61645508 C34.78906006 18.0730249 35.38549316 18.52959473 36 19 C36 19.99 36 20.98 36 22 C34.48986328 21.10861328 34.48986328 21.10861328 32.94921875 20.19921875 C31.528711 19.36186861 30.10813227 18.52463886 28.6875 17.6875 C27.93799072 17.24543213 27.18848145 16.80336426 26.41625977 16.34790039 C22.17102412 13.84887605 17.91488741 11.37096217 13.640625 8.921875 C12.77219971 8.42341064 11.90377441 7.92494629 11.0090332 7.41137695 C9.30623885 6.43541858 7.60166764 5.46255329 5.89526367 4.49291992 C5.1241626 4.05052979 4.35306152 3.60813965 3.55859375 3.15234375 C2.52690063 2.5644104 2.52690063 2.5644104 1.47436523 1.96459961 C0.98782471 1.64628174 0.50128418 1.32796387 0 1 C0 0.67 0 0.34 0 0 Z " fill="#155F17" transform="translate(183,85)"/>
<path d="M0 0 C7.13419658 1.45926748 12.84925925 5.2226978 19 9 C18.01 9.495 18.01 9.495 17 10 C14.6171875 9.00390625 14.6171875 9.00390625 11.875 7.5625 C10.96492187 7.08941406 10.05484375 6.61632812 9.1171875 6.12890625 C8.41851562 5.75636719 7.71984375 5.38382812 7 5 C7.763125 5.598125 8.52625 6.19625 9.3125 6.8125 C11.3483575 8.46959332 13.1978279 10.10297674 15 12 C7.98921415 10.04350162 3.99332802 6.13599453 -1 1 C-0.67 0.67 -0.34 0.34 0 0 Z " fill="#80DD61" transform="translate(203,107)"/>
<path d="M0 0 C4.27121584 1.29574435 7.91788483 2.93277328 11.765625 5.1875 C12.82007813 5.80367188 13.87453125 6.41984375 14.9609375 7.0546875 C16.58902344 8.01761719 16.58902344 8.01761719 18.25 9 C19.35085937 9.64195313 20.45171875 10.28390625 21.5859375 10.9453125 C29.72442336 15.72442336 29.72442336 15.72442336 32 18 C31 19 31 19 27.9375 19.0625 C26.968125 19.041875 25.99875 19.02125 25 19 C25.66 18.34 26.32 17.68 27 17 C25.06453884 15.85072616 23.12655872 14.70569358 21.1875 13.5625 C20.10855469 12.92441406 19.02960938 12.28632812 17.91796875 11.62890625 C15.06819358 9.919233 15.06819358 9.919233 12 9 C12 8.34 12 7.68 12 7 C11.13375 6.7525 10.2675 6.505 9.375 6.25 C5.80481983 4.92771105 3.05577189 3.25545068 0 1 C0 0.67 0 0.34 0 0 Z " fill="#51BF42" transform="translate(172,94)"/>
<path d="M0 0 C0.66 0.33 1.32 0.66 2 1 C1.01 1.99 0.02 2.98 -1 4 C0.32 3.67 1.64 3.34 3 3 C-0.64926911 6.99972237 -5.36516949 9.17584972 -10.0625 11.75 C-10.98611328 12.26949219 -11.90972656 12.78898438 -12.86132812 13.32421875 C-13.74369141 13.81019531 -14.62605469 14.29617187 -15.53515625 14.796875 C-16.343479 15.24385742 -17.15180176 15.69083984 -17.98461914 16.15136719 C-18.64969482 16.43141602 -19.31477051 16.71146484 -20 17 C-20.66 16.67 -21.32 16.34 -22 16 C-16.72 13.03 -11.44 10.06 -6 7 C-6 5.68 -6 4.36 -6 3 C-4.03533587 1.93224776 -2.03144641 0.93446535 0 0 Z " fill="#51BC3D" transform="translate(169,164)"/>
<path d="M0 0 C5.80257114 1.59546964 10.66105762 4.48166813 15.8125 7.5 C16.68326172 7.99886719 17.55402344 8.49773438 18.45117188 9.01171875 C24.87278073 12.74556147 24.87278073 12.74556147 26 15 C21.28858861 13.67114038 17.41074104 11.62285157 13.24609375 9.12109375 C10.82962369 7.91496 8.6582044 7.41578241 6 7 C6 6.34 6 5.68 6 5 C4.01924973 3.63823419 2.01920337 2.30406884 0 1 C0 0.67 0 0.34 0 0 Z " fill="#5EC64A" transform="translate(51,16)"/>
<path d="M0 0 C7.73175548 0.25350018 13.67574456 2.46008806 20 7 C20.33 7.99 20.66 8.98 21 10 C23.49759982 11.69882448 23.49759982 11.69882448 26 13 C25.01 13.495 25.01 13.495 24 14 C22.0546875 13.22265625 22.0546875 13.22265625 19.875 12.0625 C19.15054688 11.68222656 18.42609375 11.30195313 17.6796875 10.91015625 C17.12539063 10.60980469 16.57109375 10.30945312 16 10 C16 9.34 16 8.68 16 8 C8.22592086 3.96799654 8.22592086 3.96799654 0 1 C0 0.67 0 0.34 0 0 Z " fill="#4FBC3F" transform="translate(32,8)"/>
<path d="M0 0 C4.71141139 1.32885962 8.58925896 3.37714843 12.75390625 5.87890625 C15.17385835 7.08677799 17.35473868 7.50237658 20 8 C22.3125 9.5625 22.3125 9.5625 24 11 C23.67 11.66 23.34 12.32 23 13 C17.50434318 11.46367421 12.97905386 8.84581871 8.125 5.9375 C7.34125 5.47794922 6.5575 5.01839844 5.75 4.54492188 C1.50437107 2.02639112 1.50437107 2.02639112 0 1 C0 0.67 0 0.34 0 0 Z " fill="#49BB3B" transform="translate(60,23)"/>
<path d="M0 0 C2.64 0.33 5.28 0.66 8 1 C8.33 1.99 8.66 2.98 9 4 C11.77713308 5.69281093 11.77713308 5.69281093 15.0625 7.1875 C16.16722656 7.71730469 17.27195313 8.24710938 18.41015625 8.79296875 C19.26480469 9.19128906 20.11945313 9.58960937 21 10 C21 10.66 21 11.32 21 12 C22.65 12.66 24.3 13.32 26 14 C25.01 14.495 25.01 14.495 24 15 C21.67749023 13.9519043 21.67749023 13.9519043 18.80859375 12.32421875 C17.78185547 11.74349609 16.75511719 11.16277344 15.69726562 10.56445312 C14.62154297 9.94505859 13.54582031 9.32566406 12.4375 8.6875 C11.35791016 8.07970703 10.27832031 7.47191406 9.16601562 6.84570312 C1.13315934 2.26631868 1.13315934 2.26631868 0 0 Z " fill="#3EB234" transform="translate(150,74)"/>
<path d="M0 0 C0 0.99 0 1.98 0 3 C-5.28 5.97 -10.56 8.94 -16 12 C-16 11.01 -16 10.02 -16 9 C-13.75 7 -13.75 7 -11 5 C-10.01 4.1646875 -10.01 4.1646875 -9 3.3125 C-6.6676578 1.78190043 -4.73481345 1.43181265 -2 1 C-1.34 0.67 -0.68 0.34 0 0 Z " fill="#44AD35" transform="translate(103,202)"/>
<path d="M0 0 C6.47713607 3.46479154 12.81642857 7.03318059 19 11 C17.02 11.99 17.02 11.99 15 13 C14.34 12.34 13.68 11.68 13 11 C8.72527573 7.24342413 3.99641981 4.65604888 -1 2 C-0.67 1.34 -0.34 0.68 0 0 Z " fill="#5AC547" transform="translate(113,50)"/>
<path d="M0 0 C0 0.99 0 1.98 0 3 C-7.92 6.96 -7.92 6.96 -16 11 C-15 8 -15 8 -11.9375 6.3125 C-10.968125 5.879375 -9.99875 5.44625 -9 5 C-9 4.34 -9 3.68 -9 3 C-6.02588876 1.76078698 -3.14737182 0.69941596 0 0 Z " fill="#3FA832" transform="translate(81,214)"/>
<path d="M0 0 C2.375 1.25 2.375 1.25 3.375 4.25 C5.69160564 5.93133258 5.69160564 5.93133258 8.4375 7.4375 C9.81615234 8.23220703 9.81615234 8.23220703 11.22265625 9.04296875 C11.93292969 9.44128906 12.64320313 9.83960937 13.375 10.25 C12.385 10.745 12.385 10.745 11.375 11.25 C9.69506836 10.5690918 9.69506836 10.5690918 7.71484375 9.44921875 C7.00392578 9.04896484 6.29300781 8.64871094 5.56054688 8.23632812 C4.81869141 7.80771484 4.07683594 7.37910156 3.3125 6.9375 C2.56677734 6.52048828 1.82105469 6.10347656 1.05273438 5.67382812 C-4.49186012 2.51627976 -4.49186012 2.51627976 -5.625 0.25 C-2.625 -0.75 -2.625 -0.75 0 0 Z " fill="#47B83A" transform="translate(134.625,61.75)"/>
<path d="M0 0 C3.09738905 1.12632329 5.82634522 2.4702787 8.625 4.1875 C9.73875 4.785625 10.8525 5.38375 12 6 C12.99 5.67 13.98 5.34 15 5 C15.66 5.66 16.32 6.32 17 7 C16.67 7.66 16.34 8.32 16 9 C17.65 9.66 19.3 10.32 21 11 C20.01 11.495 20.01 11.495 19 12 C17.13647461 11.22729492 17.13647461 11.22729492 14.90234375 9.98046875 C14.10119141 9.53509766 13.30003906 9.08972656 12.47460938 8.63085938 C11.63736328 8.15455078 10.80011719 7.67824219 9.9375 7.1875 C9.09638672 6.72279297 8.25527344 6.25808594 7.38867188 5.77929688 C1.1328869 2.26577381 1.1328869 2.26577381 0 0 Z " fill="#0E761C" transform="translate(65,22)"/>
<path d="M0 0 C2.625 0.9375 2.625 0.9375 5 2 C3.47764564 5.04470873 0.81575514 6.20270948 -2 8 C-2 5.69 -2 3.38 -2 1 C-1.34 0.67 -0.68 0.34 0 0 Z " fill="#B7F1A1" transform="translate(39,18)"/>
<path d="M0 0 C0.391875 0.474375 0.78375 0.94875 1.1875 1.4375 C3.40808374 3.35179633 5.13375709 3.61266988 8 4 C8 4.33 8 4.66 8 5 C6.72125 5.144375 5.4425 5.28875 4.125 5.4375 C1.74307106 5.70642746 0.15547309 5.92226346 -2 7 C-2.66 5.02 -3.32 3.04 -4 1 C-2.68 1.33 -1.36 1.66 0 2 C0 1.34 0 0.68 0 0 Z " fill="#127413" transform="translate(30,237)"/>
<path d="M0 0 C4.95 0.99 4.95 0.99 10 2 C9.01 2.495 9.01 2.495 8 3 C7.34786708 5.02463255 7.34786708 5.02463255 7 7 C2.07142857 3.71428571 2.07142857 3.71428571 0 2 C0 1.34 0 0.68 0 0 Z " fill="#1B7E23" transform="translate(81,29)"/>
<path d="M0 0 C0.66 0 1.32 0 2 0 C2.61538462 7.26153846 2.61538462 7.26153846 -0.5 11 C-1.325 11.66 -2.15 12.32 -3 13 C-3 12.01 -3 11.02 -3 10 C-2.34 10 -1.68 10 -1 10 C-0.67 6.7 -0.34 3.4 0 0 Z " fill="#145415" transform="translate(249,126)"/>
<path d="M0 0 C4.8274799 1.41292095 8.7162359 3.42974154 13 6 C12.67 6.66 12.34 7.32 12 8 C10.02 8 8.04 8 6 8 C6.66 7.34 7.32 6.68 8 6 C7.4225 5.65066406 6.845 5.30132812 6.25 4.94140625 C5.13625 4.25884766 5.13625 4.25884766 4 3.5625 C3.2575 3.11003906 2.515 2.65757813 1.75 2.19140625 C1.1725 1.79824219 0.595 1.40507813 0 1 C0 0.67 0 0.34 0 0 Z " fill="#45B836" transform="translate(191,105)"/>
<path d="M0 0 C4.85272378 1.32347012 6.23312136 2.23312136 10 6 C6.37 5.01 2.74 4.02 -1 3 C-0.67 2.01 -0.34 1.02 0 0 Z " fill="#62CB4E" transform="translate(83,34)"/>
<path d="M0 0 C4.30764815 1.56641751 8.06171464 3.68336156 12 6 C11.01 6.495 11.01 6.495 10 7 C7.6429774 6.05719096 5.30965848 5.05352843 3 4 C2.01 3.67 1.02 3.34 0 3 C0 2.01 0 1.02 0 0 Z " fill="#CDF6B7" transform="translate(45,20)"/>
<path d="M0 0 C0.99 0.33 1.98 0.66 3 1 C2.67 1.99 2.34 2.98 2 4 C-1.5625 5.6875 -1.5625 5.6875 -5 7 C-3.85911058 3.57733173 -2.84118611 3.01632563 0 1 C0 0.67 0 0.34 0 0 Z " fill="#44AE34" transform="translate(161,168)"/>
<path d="M0 0 C2.59616917 1.29808458 4.14944202 2.76656796 6 5 C5.75 7.25 5.75 7.25 5 9 C2.5 6.75 2.5 6.75 0 4 C0 2.68 0 1.36 0 0 Z " fill="#167B21" transform="translate(119,48)"/>
<path d="M0 0 C0.33 0 0.66 0 1 0 C1 2.31 1 4.62 1 7 C1.66 7.33 2.32 7.66 3 8 C1.35 7.67 -0.3 7.34 -2 7 C-1.125 2.25 -1.125 2.25 0 0 Z " fill="#309E28" transform="translate(36,228)"/>
<path d="M0 0 C1.32 1.32 2.64 2.64 4 4 C3.67 4.99 3.34 5.98 3 7 C0.5 5.625 0.5 5.625 -2 4 C-2 3.34 -2 2.68 -2 2 C-1.34 2 -0.68 2 0 2 C0 1.34 0 0.68 0 0 Z " fill="#1A7D23" transform="translate(74,22)"/>
<path d="M0 0 C0.66 0.33 1.32 0.66 2 1 C1.01 1.66 0.02 2.32 -1 3 C-1.33 3.99 -1.66 4.98 -2 6 C-3.32 5.67 -4.64 5.34 -6 5 C-6 4.34 -6 3.68 -6 3 C-4.03533587 1.93224776 -2.03144641 0.93446535 0 0 Z " fill="#4DB639" transform="translate(140,180)"/>
<path d="M0 0 C2.64 0.33 5.28 0.66 8 1 C7.67 2.32 7.34 3.64 7 5 C3.535 3.02 3.535 3.02 0 1 C0 0.67 0 0.34 0 0 Z " fill="#46B63A" transform="translate(150,74)"/>
<path d="M0 0 C1.98 0.495 1.98 0.495 4 1 C4 1.66 4 2.32 4 3 C1.5 4.625 1.5 4.625 -1 6 C-0.67 4.02 -0.34 2.04 0 0 Z " fill="#45B23A" transform="translate(27,11)"/>
</svg>
