<?xml version="1.0" encoding="UTF-8"?>
<svg version="1.1" xmlns="http://www.w3.org/2000/svg" width="2000" height="2000">
<path d="M0 0 C1.42818327 -0.00596738 2.8563575 -0.01456166 4.28451121 -0.02551833 C8.19431202 -0.04795506 12.10320983 -0.03329475 16.01298604 -0.01235043 C20.27199625 0.00381966 24.53087985 -0.01492061 28.7898773 -0.02914459 C36.24939672 -0.04925231 43.70865098 -0.04710474 51.16817474 -0.03027058 C62.26063336 -0.00530633 73.35287876 -0.01469644 84.44534417 -0.0308541 C104.25645219 -0.05857345 124.06743848 -0.05212642 143.87854843 -0.03133909 C161.21428153 -0.01325844 178.54997163 -0.00674623 195.88571358 -0.01170254 C197.03549163 -0.01201572 198.18526968 -0.01232891 199.36988949 -0.01265159 C204.03715454 -0.01393784 208.70441956 -0.01527705 213.37168457 -0.01669645 C257.15476099 -0.02983883 300.93776199 -0.00879893 344.72082166 0.0281208 C383.6261117 0.06073148 422.53130737 0.06526383 461.43660545 0.04546642 C471.40004343 0.04042363 481.36348141 0.03541907 491.32691956 0.03072357 C492.55350774 0.03014539 493.78009593 0.02956721 495.04385346 0.02897151 C527.54727079 0.01411052 560.0506817 0.02238987 592.55409753 0.03778905 C596.05101615 0.03941839 599.54793476 0.04103663 603.04485339 0.04263906 C605.36464238 0.04370258 607.68443137 0.04478227 610.00422035 0.04587827 C627.33115545 0.0538146 644.65806146 0.04981803 661.98499489 0.04021168 C681.68322399 0.0293929 701.38135579 0.03664528 721.0795653 0.06766746 C732.10653036 0.08454219 743.13329669 0.08768515 754.16026331 0.07108658 C761.52288862 0.06139416 768.88534799 0.06984477 776.24794246 0.09314947 C780.44482288 0.10593041 784.64130396 0.11082531 788.83817823 0.09376494 C792.65805369 0.07840585 796.47716759 0.08613925 800.29697931 0.11210569 C802.31411141 0.11992792 804.33129342 0.10331994 806.34836328 0.08564851 C815.94558637 0.18691765 823.9226465 2.45781481 830.9483242 9.31475353 C838.54216386 17.76420421 839.17315971 28.41210251 839.06941795 39.29522228 C839.07087318 40.54426846 839.07232841 41.79331463 839.07382774 43.08021069 C839.07217857 45.70130292 839.06072863 48.32240583 839.03987694 50.94341564 C839.02046298 53.61389557 839.01018397 56.28192561 839.01936913 58.9522047 C839.03200807 62.83760716 839.02326121 66.7223435 839.00691795 70.60772228 C839.00985359 71.79230526 839.01278923 72.97688824 839.01581383 74.19736767 C838.90327472 84.15035491 836.99947123 93.86931352 830.0420742 101.41240978 C822.7944592 108.11645366 814.28634634 109.87597884 804.58703727 109.87875336 C803.40189084 109.88151311 802.21674442 109.88427285 800.99568447 109.88711622 C799.05224816 109.88403325 799.05224816 109.88403325 797.06955051 109.88088799 C795.66853515 109.88223488 794.26752015 109.88401891 792.86650583 109.88620022 C789.00443931 109.89093506 785.14239634 109.88942698 781.28032865 109.88692245 C777.08322528 109.88529138 772.88612699 109.88942853 768.68902522 109.89283162 C761.3289329 109.89799024 753.96884716 109.89940202 746.6087532 109.89837551 C735.66403742 109.89685276 724.71932894 109.90100749 713.77461458 109.90625014 C693.09168556 109.91593045 672.40875902 109.91873463 651.72582801 109.91930719 C635.7563662 109.91976639 619.78690535 109.92182293 603.81744385 109.92500782 C599.22390789 109.92590534 594.63037193 109.92679515 590.03683597 109.9276827 C588.3239838 109.92801427 588.3239838 109.92801427 586.57652856 109.92835254 C554.44896104 109.93450832 522.32139386 109.93845294 490.19382572 109.93800926 C488.98208623 109.93799368 487.77034674 109.9379781 486.52188787 109.93796205 C480.38001063 109.93787894 474.2381334 109.9377799 468.09625616 109.93767735 C466.87641339 109.9376574 465.65657062 109.93763746 464.39976291 109.93761691 C461.93294302 109.93757647 459.46612313 109.93753467 456.99930324 109.93749151 C418.61194511 109.93687864 380.22459582 109.94438696 341.83724022 109.95806408 C298.72952216 109.97341662 255.6218099 109.98203081 212.51408893 109.98110086 C207.9196099 109.98102622 203.32513088 109.98097752 198.73065186 109.98094654 C197.0336802 109.98092906 197.0336802 109.98092906 195.3024263 109.98091122 C177.07794115 109.98088042 158.85346366 109.98727271 140.62898079 109.99587881 C122.32088321 110.00434572 104.01279686 110.00535278 85.70469841 109.99876948 C74.82202301 109.99506746 63.93938165 109.99692562 53.05670984 110.00671182 C45.79134917 110.01269432 38.52601326 110.0114357 31.26065374 110.00424133 C27.11847955 110.00034516 22.97637141 109.99962619 18.83420178 110.00769868 C15.06519381 110.01497975 11.29630688 110.0130384 7.52730429 110.00377481 C5.53479039 110.00124432 3.54227138 110.00851554 1.54977068 110.01619759 C-8.76727713 109.97510082 -19.41847643 109.27883371 -27.37589455 101.95928478 C-33.91503534 94.87178837 -36.50717692 87.68764275 -36.60367775 78.05083752 C-36.61651299 76.92874386 -36.62934822 75.8066502 -36.6425724 74.6505537 C-36.64995934 73.44532558 -36.65734627 72.24009747 -36.66495705 70.99834728 C-36.67302879 69.7465115 -36.68110054 68.49467571 -36.68941689 67.20490551 C-36.70323964 64.55455376 -36.71426005 61.90432555 -36.72184181 59.25396252 C-36.73067172 56.5567905 -36.75147966 53.86013871 -36.78336525 51.1631422 C-36.82625563 47.25388743 -36.84224296 43.34530883 -36.85245705 39.43584728 C-36.86996513 38.24478878 -36.88747322 37.05373028 -36.90551186 35.82657909 C-36.88212186 26.67899641 -35.53213106 17.41525343 -29.9266758 9.87725353 C-21.40901651 1.49106702 -11.48577401 -0.12674793 0 0 Z " fill="#DEDEDE" transform="translate(607.4266757965088,943.2477464675903)"/>
</svg>
