<?xml version="1.0" encoding="UTF-8"?>
<svg version="1.1" xmlns="http://www.w3.org/2000/svg" width="256" height="256">
<path d="M0 0 C1.58396089 -1.89531198 3.1671836 -3.7912326 4.75 -5.6875 C5.1934375 -6.21794922 5.636875 -6.74839844 6.09375 -7.29492188 C8.16504075 -9.77742477 10.21074169 -12.26770896 12.2109375 -14.80859375 C14.10268348 -17.12577605 15.14044943 -18.15895572 18 -19 C21.44392187 -18.85650326 23.3556489 -18.52846505 26.0402832 -16.32666016 C28.33862923 -13.59796479 29.23294073 -11.28181769 30.35546875 -7.8984375 C30.77747559 -6.6515918 31.19948242 -5.40474609 31.63427734 -4.12011719 C31.85533142 -3.45137573 32.0763855 -2.78263428 32.30413818 -2.09362793 C33.01608134 0.04838367 33.74825114 2.1824594 34.48681641 4.31542969 C37.55742306 13.18351014 40.57486107 22.06993294 43.59687805 30.95466614 C45.25654497 35.83107387 46.93399168 40.70078161 48.625 45.56640625 C49.35448531 47.68999473 50.08367944 49.81368328 50.8125 51.9375 C51.30907104 53.34491455 51.30907104 53.34491455 51.81567383 54.78076172 C53.45603234 59.60523988 54.82680088 63.85616245 54 69 C51.23516875 72.65865302 49.7494265 73.87562713 45.17420959 74.63491821 C43.66077529 74.66447974 42.14665114 74.66669472 40.63305664 74.64697266 C39.8031572 74.65573425 38.97325775 74.66449585 38.11820984 74.67352295 C35.38165614 74.69548465 32.64672567 74.68097497 29.91015625 74.6640625 C28.00353181 74.6674319 26.09690946 74.67228555 24.19029236 74.67855835 C20.19639617 74.68592556 16.20305958 74.67523028 12.20922852 74.65185547 C7.09661517 74.6233871 1.9853153 74.63976027 -3.12724972 74.66971779 C-7.06419212 74.6878114 -11.00082468 74.68202294 -14.93777657 74.66907883 C-16.82238484 74.66574951 -18.70702147 74.66981518 -20.5915966 74.68147659 C-23.22970605 74.69421734 -25.86570904 74.67476395 -28.50366211 74.64697266 C-29.27839874 74.65709381 -30.05313538 74.66721497 -30.85134888 74.67764282 C-34.81697662 74.60048463 -37.31808009 74.14671902 -40.49000549 71.66928101 C-43 69 -43 69 -43.65625 65.64453125 C-42.84425798 61.13507555 -41.12989006 58.36381779 -38.5 54.6875 C-35.3039009 50.68300351 -35.3039009 50.68300351 -34 46 C-50.96412842 37.36451344 -72.28084267 35.82615483 -90.453125 41.62109375 C-108.97266518 48.82087094 -124.33349725 59.78012608 -132.93359375 78.37109375 C-139.29320969 94.04882828 -139.0267905 112.24856525 -133 128 C-124.73402665 146.54089213 -111.6688822 159.25954754 -92.87890625 166.59375 C-72.74422605 174.01359803 -50.4210807 173.17509237 -30.86132812 164.41723633 C-13.36140345 156.04888579 -0.62478503 142.39119427 6 124 C7.03978079 120.36852678 8.020073 116.73748694 8.91015625 113.06640625 C10.09877741 109.7220779 11.24869968 108.20000007 14 106 C19.17998786 104.27333738 24.71837943 104.73499241 30.14135742 104.70483398 C31.58351457 104.69332008 33.02562929 104.67287709 34.4675293 104.64331055 C36.55807261 104.60046075 38.64735234 104.58444254 40.73828125 104.57421875 C42.61060425 104.55234497 42.61060425 104.55234497 44.52075195 104.5300293 C48.66140821 105.08934186 50.7739949 106.39024119 54 109 C57.31221723 113.96832585 56.36888596 119.53265296 55.3359375 125.25390625 C55.02965322 126.69316109 54.70885849 128.12939042 54.375 129.5625 C54.19606201 130.33770996 54.01712402 131.11291992 53.83276367 131.91162109 C46.33788748 162.94692033 27.17069232 190.10280329 0 207 C-0.97453125 207.62390625 -1.9490625 208.2478125 -2.953125 208.890625 C-31.1876458 226.25410036 -66.83871815 231.27414303 -99 224 C-122.52583837 217.93900339 -141.37256609 206.57781438 -159 190 C-159.60199219 189.46246094 -160.20398438 188.92492187 -160.82421875 188.37109375 C-179.88893738 170.63957223 -193.7056335 140.79870369 -195.17700195 114.88232422 C-195.81403314 80.28975426 -189.36761705 51.1282923 -167 24 C-166.443125 23.30132812 -165.88625 22.60265625 -165.3125 21.8828125 C-145.35361569 -2.52343191 -112.83565241 -16.30323327 -82.05859375 -19.55029297 C-54.0631288 -21.93681113 -23.55614642 -15.70409761 0 0 Z " fill="#0380DB" transform="translate(197,25)"/>
<path d="M0 0 C1.34446017 1.00613385 2.68287808 2.02083387 4 3.0625 C3.34 3.3925 2.68 3.7225 2 4.0625 C0.05975275 2.94904551 -1.82722839 1.74246923 -3.6875 0.5 C-21.48912262 -10.8728444 -42.97745932 -16.16913751 -63.9375 -16 C-65.00291016 -15.99548828 -66.06832031 -15.99097656 -67.16601562 -15.98632812 C-69.77740291 -15.97461787 -72.38867124 -15.95821724 -75 -15.9375 C-73.82566406 -15.90011719 -72.65132813 -15.86273438 -71.44140625 -15.82421875 C-60.41055355 -15.40395181 -49.77481221 -14.37150767 -39 -11.9375 C-38.33355469 -11.78861328 -37.66710937 -11.63972656 -36.98046875 -11.48632812 C-26.189064 -8.96134895 -16.57770842 -4.60485353 -6.75341797 0.4921875 C-5.81900879 0.9665625 -4.88459961 1.4409375 -3.921875 1.9296875 C-2.67809082 2.58106689 -2.67809082 2.58106689 -1.40917969 3.24560547 C1.57275878 4.25670864 3.05244238 4.1463243 6 3.0625 C7.81662998 1.34539309 7.81662998 1.34539309 9.26171875 -0.90234375 C9.82310547 -1.70220703 10.38449219 -2.50207031 10.96289062 -3.32617188 C11.81657227 -4.5878418 11.81657227 -4.5878418 12.6875 -5.875 C13.83599058 -7.53081494 14.98567599 -9.18580195 16.13671875 -10.83984375 C16.63905029 -11.57710693 17.14138184 -12.31437012 17.65893555 -13.07397461 C19 -14.9375 19 -14.9375 21 -16.9375 C21.99 -16.9375 22.98 -16.9375 24 -16.9375 C28.30682138 -5.71895573 32.25046704 5.58418562 36 17 C36.99777791 20.03068546 37.99830242 23.06045185 39 26.08984375 C39.24314941 26.82923187 39.48629883 27.56862 39.73681641 28.33041382 C41.0055195 32.16441991 42.31964104 35.97473217 43.7109375 39.76611328 C44.12859375 40.91171471 44.12859375 40.91171471 44.5546875 42.08045959 C45.08526404 43.52666556 45.62380941 44.96998356 46.171875 46.40965271 C47.64206218 50.42256345 48.46787169 53.78803371 48 58.0625 C45.57833022 60.48416978 44.31858109 60.30401629 41.01377869 60.33355713 C40.32280594 60.32950867 39.63183319 60.32546021 38.91992188 60.32128906 C38.19132462 60.3247937 37.46272736 60.32829834 36.71205139 60.33190918 C34.2975214 60.34073008 31.8832831 60.3348762 29.46875 60.328125 C27.79488061 60.32947155 26.1210116 60.331412 24.44714355 60.33392334 C20.93656699 60.33687508 17.4260921 60.33257538 13.91552734 60.32324219 C9.40926776 60.31184759 4.90324639 60.31840679 0.39699554 60.33038712 C-3.06017867 60.33760438 -6.51729615 60.33531841 -9.97447205 60.33013153 C-11.63630705 60.32879466 -13.29814715 60.33044405 -14.9599762 60.33509064 C-17.28009747 60.34015373 -19.59982967 60.33244898 -21.91992188 60.32128906 C-22.61089462 60.32533752 -23.30186737 60.32938599 -24.01377869 60.33355713 C-28.77147075 60.29102925 -28.77147075 60.29102925 -31 58.0625 C-30.73764631 53.66994963 -28.82486569 51.10286411 -26.1875 47.6875 C-23.10454229 43.59718447 -20.40802459 39.57754611 -18 35.0625 C-18.69480469 34.79179688 -19.38960937 34.52109375 -20.10546875 34.2421875 C-22.08425913 33.43571693 -24.04517114 32.58431713 -25.98828125 31.6953125 C-47.18548194 22.08060102 -69.66778229 19.28926776 -92 27.0625 C-95.80656158 28.51054314 -99.40648642 30.14819837 -103 32.0625 C-103.82757813 32.50335938 -104.65515625 32.94421875 -105.5078125 33.3984375 C-123.32099042 43.50560115 -134.96317487 58.37087598 -141.45703125 77.734375 C-145.6709745 95.80279352 -143.49739232 116.41596009 -134.25 132.625 C-121.48564762 152.96669265 -104.04568179 165.22593059 -81 171.0625 C-55.76461302 175.85500895 -31.5854848 170.96579661 -10.4140625 156.7890625 C4.11001926 146.40128882 15.03498306 131.03630337 18.25 113.25 C18.33765625 112.50105469 18.4253125 111.75210938 18.515625 110.98046875 C19.15598962 108.44483141 19.91121628 107.64401947 22 106.0625 C24.78735352 105.69018555 24.78735352 105.69018555 28.12890625 105.69921875 C29.32837891 105.69986328 30.52785156 105.70050781 31.76367188 105.70117188 C33.01728516 105.71728516 34.27089844 105.73339844 35.5625 105.75 C36.81998047 105.74677734 38.07746094 105.74355469 39.37304688 105.74023438 C48.73311942 105.79561942 48.73311942 105.79561942 51 108.0625 C51.53504511 113.97092666 50.18320188 119.11683759 48.625 124.75 C48.40328125 125.59111328 48.1815625 126.43222656 47.953125 127.29882812 C46.92347573 131.11761557 45.86205372 134.55643975 44 138.0625 C43 136.0625 43 136.0625 43.55859375 134.13671875 C43.84863281 133.34910156 44.13867188 132.56148437 44.4375 131.75 C46.4443098 125.51976777 46.2743462 119.54519904 46 113.0625 C43.10315842 112.95420686 40.21038981 112.87506046 37.3125 112.8125 C36.08756836 112.76222656 36.08756836 112.76222656 34.83789062 112.7109375 C30.88755659 112.64696448 28.56754946 112.74476287 25.0625 114.70703125 C22.6946656 117.41120576 21.78103817 119.58427653 20.6875 123 C16.44192364 134.79767637 9.67001421 144.12303379 1 153.0625 C0.44957031 153.68640625 -0.10085937 154.3103125 -0.66796875 154.953125 C-8.73213625 163.79384196 -19.95071043 168.97381346 -31 173.0625 C-31.94182129 173.41795898 -32.88364258 173.77341797 -33.85400391 174.13964844 C-42.05366513 176.963249 -49.67937695 177.68693384 -58.25585938 177.58398438 C-60.36706238 177.56258047 -62.47483823 177.583881 -64.5859375 177.609375 C-89.15318782 177.65884813 -109.76892656 167.04600054 -127 150.0625 C-127.6703125 149.40507812 -128.340625 148.74765625 -129.03125 148.0703125 C-139.48774769 136.99593085 -143.9678461 123.38886501 -148 109.0625 C-148.0928125 109.84367188 -148.185625 110.62484375 -148.28125 111.4296875 C-149 114.0625 -149 114.0625 -150.53125 115.3203125 C-151.1809375 115.60648438 -151.830625 115.89265625 -152.5 116.1875 C-153.21542969 116.50460938 -153.93085938 116.82171875 -154.66796875 117.1484375 C-164.65384615 121.0625 -164.65384615 121.0625 -169 121.0625 C-169.66 117.4325 -170.32 113.8025 -171 110.0625 C-168.46831 136.64524502 -153.1403939 160.46313485 -133.1015625 177.53125 C-111.89068338 194.77467453 -88.29057647 203.23500989 -61.0625 203.375 C-60.02037354 203.38063965 -58.97824707 203.3862793 -57.90454102 203.39208984 C-52.10231191 203.33740867 -46.78760277 202.80840696 -41.15405273 201.39135742 C-38.79396429 201.0310447 -37.25314632 201.33193147 -35 202.0625 C-46.34667597 205.59257697 -57.4347407 206.48216047 -69.25 206.5 C-69.92369629 206.50572021 -70.59739258 206.51144043 -71.29150391 206.51733398 C-100.74772019 206.69271121 -126.46966602 193.59785702 -147.52392578 173.61621094 C-162.89966918 158.37586507 -172.29781916 139.67807687 -178 119.0625 C-175.41747039 132.79935962 -172.52592101 145.03916114 -165 157.0625 C-164.34 157.3925 -163.68 157.7225 -163 158.0625 C-162.67 159.0525 -162.34 160.0425 -162 161.0625 C-161.360625 161.51625 -160.72125 161.97 -160.0625 162.4375 C-157.53796197 164.42652996 -156.91422213 166.01509288 -156 169.0625 C-156 170.0525 -156 171.0425 -156 172.0625 C-179.96770742 144.87690593 -185.52040418 113.267045 -184 78.0625 C-183.45812187 72.11565897 -182.10106637 66.65657189 -180 61.0625 C-179.71560059 60.28922363 -179.43120117 59.51594727 -179.13818359 58.71923828 C-173.79623803 44.51571895 -166.75433146 32.70539464 -157 21.0625 C-156.44699219 20.37414063 -155.89398438 19.68578125 -155.32421875 18.9765625 C-119.29882954 -24.5290388 -45.73581452 -31.88623688 0 0 Z " fill="#4ED7FE" transform="translate(194,30.9375)"/>
<path d="M0 0 C0.33 0 0.66 0 1 0 C1.33745354 2.39531756 1.6700829 4.79114268 2 7.1875 C2.14308594 8.19780273 2.14308594 8.19780273 2.2890625 9.22851562 C2.78324613 12.84664577 3.11346131 16.34796401 3 20 C4.10859375 19.57847656 5.2171875 19.15695313 6.359375 18.72265625 C7.82287248 18.169154 9.2864166 17.61577504 10.75 17.0625 C11.47960938 16.78470703 12.20921875 16.50691406 12.9609375 16.22070312 C14.02441406 15.81948242 14.02441406 15.81948242 15.109375 15.41015625 C15.75874023 15.16402588 16.40810547 14.91789551 17.07714844 14.66430664 C19.032576 13.98874565 20.98665757 13.47199954 23 13 C23 10.36 23 7.72 23 5 C24.73405953 7.60108929 25.46699451 9.15461986 26.296875 12.0625 C26.53003418 12.85406494 26.76319336 13.64562988 27.00341797 14.46118164 C27.24979004 15.2989917 27.49616211 16.13680176 27.75 17 C34.13165135 37.80387078 47.28965925 54.2780522 66.3984375 64.88671875 C73.04689421 68.38342209 79.68372159 71.21131995 87 73 C88.09183594 73.34289062 89.18367188 73.68578125 90.30859375 74.0390625 C96.96031732 75.68032654 103.87358278 75.53273032 110.6875 75.5625 C111.78573593 75.56793823 111.78573593 75.56793823 112.90615845 75.57348633 C125.94563856 75.56636667 137.12571253 73.67267097 149 68 C149.680625 67.6793457 150.36125 67.35869141 151.0625 67.02832031 C159.44547343 62.94910556 166.46541485 57.63426526 173 51 C173.78117188 50.21753906 174.56234375 49.43507812 175.3671875 48.62890625 C183.67068195 39.89206445 188.91820044 30.36580641 192.56640625 18.91015625 C194.35833945 15.27258068 196.38949576 12.82326861 200 11 C203.13841815 10.41068074 206.13203575 10.47707143 209.3125 10.625 C210.54709961 10.64626953 210.54709961 10.64626953 211.80664062 10.66796875 C217.81660767 10.81660767 217.81660767 10.81660767 219 12 C219.70701542 20.76971048 218.58657247 28.63516701 216 37 C215.71125 37.95519531 215.4225 38.91039062 215.125 39.89453125 C211.34179942 50.33774117 205.34232703 59.72791834 198 68 C197.17371094 68.93457031 196.34742188 69.86914062 195.49609375 70.83203125 C193.3469133 73.23682627 191.18252797 75.6254904 189 78 C188.01 77.67 187.02 77.34 186 77 C186.763125 76.13375 187.52625 75.2675 188.3125 74.375 C191.49912142 70.64840216 194.57465503 66.83823631 197.625 63 C198.09204346 62.41911621 198.55908691 61.83823242 199.0402832 61.23974609 C203.20018102 55.97167574 206.73461451 50.59662673 208.75 44.125 C209.11351562 42.98417969 209.11351562 42.98417969 209.484375 41.8203125 C210.04542314 40.15496454 210.04542314 40.15496454 210 39 C209.45472656 40.02738281 208.90945312 41.05476563 208.34765625 42.11328125 C203.64370402 50.82133711 198.71430728 58.65658386 192 66 C191.25363281 66.82757813 190.50726563 67.65515625 189.73828125 68.5078125 C178.37218963 80.49387275 164.77112482 88.86134727 150 96 C149.10925781 96.44214844 148.21851563 96.88429688 147.30078125 97.33984375 C125.34236138 107.21926865 95.64908841 105.56677401 73.46655273 97.38574219 C57.47719279 91.14966586 44.56955549 82.59986943 32 71 C31.15566406 70.23816406 30.31132813 69.47632813 29.44140625 68.69140625 C14.29378871 54.38386456 0.54753761 30.00303662 -0.09765625 8.7890625 C-0.08605469 7.74492187 -0.07445313 6.70078125 -0.0625 5.625 C-0.05347656 4.56539062 -0.04445313 3.50578125 -0.03515625 2.4140625 C-0.01775391 1.21910156 -0.01775391 1.21910156 0 0 Z " fill="#06ADFD" transform="translate(22,132)"/>
<path d="M0 0 C-1.25166146 5.02798099 -2.68297327 6.99784763 -7 9.8125 C-23.97331983 21.58360752 -35.84500574 37.11946962 -44 56 C-44.49113281 57.12148437 -44.98226562 58.24296875 -45.48828125 59.3984375 C-50.68207385 72.05351917 -52.50936022 84.27268633 -52.39111328 97.81347656 C-52.37500972 99.99868131 -52.39107411 102.18203769 -52.41015625 104.3671875 C-52.42922054 116.51849389 -50.46967146 127.9776609 -46.3125 139.4375 C-46.05758789 140.14358398 -45.80267578 140.84966797 -45.54003906 141.57714844 C-40.6990417 154.51539349 -33.74629797 165.37181415 -25 176 C-25.59393382 174.70359622 -26.20057989 173.41301161 -26.8125 172.125 C-27.14894531 171.40570313 -27.48539063 170.68640625 -27.83203125 169.9453125 C-28.99467097 167.69457194 -28.99467097 167.69457194 -32 166 C-32 165.01 -32 164.02 -32 163 C-32.99 162.67 -33.98 162.34 -35 162 C-43.08742974 150.56254706 -48.32223051 135.057306 -48 121 C-46.05909328 123.91136008 -45.12417236 126.53341 -44.09863281 129.85083008 C-39.27046682 145.44137553 -32.543139 158.54138995 -22 171 C-21.20722656 171.95648438 -20.41445313 172.91296875 -19.59765625 173.8984375 C-2.6275278 193.53647918 23.77926796 208.25220664 49.83642578 210.30175781 C53.810622 210.43617257 57.77450576 210.47491349 61.75 210.4375 C62.44932648 210.43412628 63.14865295 210.43075256 63.86917114 210.42727661 C74.95721787 210.34998541 85.45081639 209.6365762 96 206 C96.70044434 205.75862305 97.40088867 205.51724609 98.12255859 205.26855469 C128.90245517 194.25842295 153.51568348 174.27691213 167.78515625 144.60546875 C168.18605469 143.74566406 168.58695313 142.88585937 169 142 C169.66 142.33 170.32 142.66 171 143 C170.54625 144.03125 170.0925 145.0625 169.625 146.125 C168.65633617 148.36140821 167.8663648 150.46258337 167.1875 152.8125 C163.65828227 162.28566337 157.20806759 169.53175716 150.609375 176.99609375 C147.97377634 179.90187923 147.97377634 179.90187923 146 183 C159.40945916 177.33488018 168.9450095 156.99141849 174.22558594 144.08154297 C176.65623949 137.54820368 178.31953987 130.75656078 180 124 C180.17934082 123.33637451 180.35868164 122.67274902 180.54345703 121.98901367 C181.24811187 118.91905485 181.23190023 116.1306531 181 113 C177.66196309 110.77464206 176.37180289 110.71021596 172.45703125 110.5859375 C171.38388672 110.54726562 170.31074219 110.50859375 169.20507812 110.46875 C168.08552734 110.4378125 166.96597656 110.406875 165.8125 110.375 C164.68134766 110.33632812 163.55019531 110.29765625 162.38476562 110.2578125 C159.5900075 110.16347467 156.79525722 110.07788348 154 110 C154 109.67 154 109.34 154 109 C157.63 109 161.26 109 165 109 C165 108.34 165 107.68 165 107 C162.5622037 106.94602665 160.12560315 106.90634384 157.6875 106.875 C156.99720703 106.85824219 156.30691406 106.84148437 155.59570312 106.82421875 C151.82864604 106.78782206 150.21568296 106.85621136 147 109 C146.13911365 110.82364762 146.13911365 110.82364762 145.60546875 112.96484375 C145.37553223 113.75963135 145.1455957 114.55441895 144.90869141 115.37329102 C144.67069824 116.21947998 144.43270508 117.06566895 144.1875 117.9375 C138.24791723 137.74166025 126.46608568 153.21236314 108.24365234 163.3215332 C93.15249325 171.35774919 77.85538754 173.55096303 61 173 C64.65349997 170.56433336 67.46276598 170.71859035 71.6875 170.625 C92.24563907 169.71495971 111.73375589 162.22614244 126 147 C134.78630677 136.67346415 139.74054872 125.13921152 142.91015625 112.06640625 C144.09877741 108.7220779 145.24869968 107.20000007 148 105 C153.17998786 103.27333738 158.71837943 103.73499241 164.14135742 103.70483398 C165.58351457 103.69332008 167.02562929 103.67287709 168.4675293 103.64331055 C170.55807261 103.60046075 172.64735234 103.58444254 174.73828125 103.57421875 C176.61060425 103.55234497 176.61060425 103.55234497 178.52075195 103.5300293 C182.66140821 104.08934186 184.7739949 105.39024119 188 108 C191.31221723 112.96832585 190.36888596 118.53265296 189.3359375 124.25390625 C189.02965322 125.69316109 188.70885849 127.12939042 188.375 128.5625 C188.19606201 129.33770996 188.01712402 130.11291992 187.83276367 130.91162109 C180.33788748 161.94692033 161.17069232 189.10280329 134 206 C133.02546875 206.62390625 132.0509375 207.2478125 131.046875 207.890625 C102.8123542 225.25410036 67.16128185 230.27414303 35 223 C11.47416163 216.93900339 -7.37256609 205.57781438 -25 189 C-25.60199219 188.46246094 -26.20398437 187.92492187 -26.82421875 187.37109375 C-45.88893738 169.63957223 -59.7056335 139.79870369 -61.17700195 113.88232422 C-61.546517 93.81662656 -61.08707222 74.75512493 -53 56 C-52.34 56.66 -51.68 57.32 -51 58 C-50.53851563 56.93523437 -50.07703125 55.87046875 -49.6015625 54.7734375 C-42.42427977 38.6118988 -20.42559436 0 0 0 Z " fill="#0071CA" transform="translate(63,26)"/>
<path d="M0 0 C1.34446017 1.00613385 2.68287808 2.02083387 4 3.0625 C3.34 3.3925 2.68 3.7225 2 4.0625 C0.05975275 2.94904551 -1.82722839 1.74246923 -3.6875 0.5 C-21.48912262 -10.8728444 -42.97745932 -16.16913751 -63.9375 -16 C-65.00291016 -15.99548828 -66.06832031 -15.99097656 -67.16601562 -15.98632812 C-69.77740291 -15.97461787 -72.38867124 -15.95821724 -75 -15.9375 C-73.82566406 -15.90011719 -72.65132813 -15.86273438 -71.44140625 -15.82421875 C-60.41055355 -15.40395181 -49.77481221 -14.37150767 -39 -11.9375 C-38.33355469 -11.78861328 -37.66710937 -11.63972656 -36.98046875 -11.48632812 C-26.189064 -8.96134895 -16.57770842 -4.60485353 -6.75341797 0.4921875 C-5.81900879 0.9665625 -4.88459961 1.4409375 -3.921875 1.9296875 C-2.67809082 2.58106689 -2.67809082 2.58106689 -1.40917969 3.24560547 C1.57275878 4.25670864 3.05244238 4.1463243 6 3.0625 C7.81662998 1.34539309 7.81662998 1.34539309 9.26171875 -0.90234375 C9.82310547 -1.70220703 10.38449219 -2.50207031 10.96289062 -3.32617188 C11.81657227 -4.5878418 11.81657227 -4.5878418 12.6875 -5.875 C13.83599058 -7.53081494 14.98567599 -9.18580195 16.13671875 -10.83984375 C16.63905029 -11.57710693 17.14138184 -12.31437012 17.65893555 -13.07397461 C19 -14.9375 19 -14.9375 21 -16.9375 C21.99 -16.9375 22.98 -16.9375 24 -16.9375 C30.76595745 0.21143617 30.76595745 0.21143617 32 9.0625 C30.171875 8.5703125 30.171875 8.5703125 28 7.0625 C26.89750292 4.31786252 26.02778022 1.76979402 25.25 -1.0625 C25.02957031 -1.81660156 24.80914062 -2.57070313 24.58203125 -3.34765625 C24.04072401 -5.20692894 23.51850298 -7.07173927 23 -8.9375 C22.34 -8.9375 21.68 -8.9375 21 -8.9375 C19.62880755 -7.27548112 19.62880755 -7.27548112 18.28515625 -5.10546875 C17.50301758 -3.90760742 17.50301758 -3.90760742 16.70507812 -2.68554688 C15.89200195 -1.41807617 15.89200195 -1.41807617 15.0625 -0.125 C13.9940984 1.52942307 12.92259487 3.18184804 11.84765625 4.83203125 C11.37336182 5.57042236 10.89906738 6.30881348 10.41040039 7.06958008 C9.07800354 8.95227967 7.68152858 10.49089961 6 12.0625 C1.95037475 10.60398306 -1.71666991 8.63824924 -5.48388672 6.58422852 C-14.0971522 1.90049758 -22.5281228 -2.26154322 -32 -4.9375 C-32.87914062 -5.19426514 -33.75828125 -5.45103027 -34.6640625 -5.71557617 C-43.45210149 -8.04299887 -51.82803342 -8.43241399 -60.85498047 -8.38354492 C-63.23363684 -8.37505838 -65.60986148 -8.40387063 -67.98828125 -8.43554688 C-85.35991314 -8.51488374 -102.7761034 -4.59595349 -118 4.0625 C-118.495 5.5475 -118.495 5.5475 -119 7.0625 C-120.70435254 8.07855632 -122.41425652 9.08782696 -124.1640625 10.0234375 C-126.66428459 11.43845681 -128.77756355 13.24945974 -131 15.0625 C-131.72445312 15.45695312 -132.44890625 15.85140625 -133.1953125 16.2578125 C-137.0000063 18.7059581 -140.0522729 21.69019954 -143.25 24.875 C-143.9109668 25.53209961 -144.57193359 26.18919922 -145.25292969 26.86621094 C-150.47826973 32.21419955 -154.48021516 37.80798156 -158.265625 44.234375 C-160 47.0625 -160 47.0625 -161.54296875 48.47265625 C-163.95195324 51.10122646 -164.87582257 54.44490608 -166.0625 57.75 C-166.31837891 58.43255859 -166.57425781 59.11511719 -166.83789062 59.81835938 C-170.67577834 70.26649073 -171.54664463 79.99146255 -172.12304688 91.06445312 C-172.54866447 97.92418178 -173.48501708 103.65511844 -176 110.0625 C-176.99 110.0625 -177.98 110.0625 -179 110.0625 C-183.25372188 97.30133437 -180.66674247 78.79260188 -177 66.0625 C-176.6596875 64.83917969 -176.319375 63.61585937 -175.96875 62.35546875 C-171.54681403 47.84972609 -164.32531914 35.90294671 -155 24.0625 C-154.34 23.0725 -153.68 22.0825 -153 21.0625 C-153.45375 21.5575 -153.9075 22.0525 -154.375 22.5625 C-156 24.0625 -156 24.0625 -158 24.0625 C-158.103125 24.701875 -158.20625 25.34125 -158.3125 26 C-158.539375 26.680625 -158.76625 27.36125 -159 28.0625 C-160.485 28.5575 -160.485 28.5575 -162 29.0625 C-162.0825 29.805 -162.165 30.5475 -162.25 31.3125 C-163 34.0625 -163 34.0625 -164.8125 35.75 C-168.14600447 39.27399044 -169.33286834 43.56985413 -171 48.0625 C-171.495 49.0525 -171.495 49.0525 -172 50.0625 C-172.66 50.0625 -173.32 50.0625 -174 50.0625 C-174.66 51.3825 -175.32 52.7025 -176 54.0625 C-175.46997553 48.72084714 -173.62972247 44.93830965 -171 40.375 C-170.59990723 39.67310547 -170.19981445 38.97121094 -169.78759766 38.24804688 C-166.12321358 31.98262366 -161.80888664 26.49476083 -157 21.0625 C-156.42765625 20.35867187 -155.8553125 19.65484375 -155.265625 18.9296875 C-119.38162431 -24.64374191 -45.61131906 -31.79944075 0 0 Z " fill="#AFF3FE" transform="translate(194,30.9375)"/>
<path d="M0 0 C1.58396089 -1.89531198 3.1671836 -3.7912326 4.75 -5.6875 C5.1934375 -6.21794922 5.636875 -6.74839844 6.09375 -7.29492188 C6.53203125 -7.82021484 6.9703125 -8.34550781 7.421875 -8.88671875 C7.85790039 -9.40838623 8.29392578 -9.93005371 8.74316406 -10.4675293 C9.91108798 -11.89158882 11.03567968 -13.35088653 12.15625 -14.8125 C14.25328479 -17.30050737 15.92253489 -18.05966344 19 -19 C19 -18.34 19 -17.68 19 -17 C20.3921875 -16.9071875 20.3921875 -16.9071875 21.8125 -16.8125 C25 -16 25 -16 26.49389648 -14.05444336 C28.52750696 -9.93019297 29.89541854 -5.69333591 31.28515625 -1.31640625 C31.58691269 -0.3832811 31.88866913 0.54984406 32.1995697 1.51124573 C33.15974702 4.48481084 34.11128102 7.46105854 35.0625 10.4375 C35.70580128 12.43573335 36.34967549 14.43378234 36.99414062 16.43164062 C38.43489397 20.899808 39.86975535 25.36982389 41.29998779 29.84136963 C41.90431247 31.70492798 42.53526186 33.55981353 43.17114258 35.4128418 C44.13793515 38.43054455 44.41449729 41.21745928 44.625 44.375 C44.73714844 45.96441406 44.73714844 45.96441406 44.8515625 47.5859375 C44.90054688 48.38257812 44.94953125 49.17921875 45 50 C44.01 49.67 43.02 49.34 42 49 C40.98319684 46.51249091 40.16565595 44.13715424 39.40625 41.5703125 C39.17345337 40.82417694 38.94065674 40.07804138 38.70080566 39.30929565 C37.95560403 36.9179355 37.22639026 34.52213588 36.5 32.125 C35.7726717 29.73534436 35.0417634 27.34709396 34.29919434 24.96212769 C33.83699327 23.47692986 33.38360542 21.98895397 32.94006348 20.49807739 C31.80979504 16.85847664 30.80662024 14.55177327 28 12 C27.0168457 9.76342773 27.0168457 9.76342773 26.17578125 7.18359375 C25.86962891 6.25482422 25.56347656 5.32605469 25.24804688 4.36914062 C24.93931641 3.40169922 24.63058594 2.43425781 24.3125 1.4375 C23.99216797 0.46619141 23.67183594 -0.50511719 23.34179688 -1.50585938 C21 -8.69103145 21 -8.69103145 21 -11 C16.15420483 -8.62478019 13.86278267 -5.47449293 10.9375 -1.125 C10.09377292 0.10247432 9.2487405 1.32905251 8.40234375 2.5546875 C8.00128418 3.13831055 7.60022461 3.72193359 7.18701172 4.32324219 C5.55490705 6.6287327 3.79470939 8.81982185 2 11 C-3.90147049 10.49141799 -8.38535025 7.96056029 -13.5625 5.3125 C-24.0663988 0.13087269 -34.6096448 -3.34683494 -46 -6 C-47.08667969 -6.25394531 -48.17335937 -6.50789063 -49.29296875 -6.76953125 C-60.95647576 -8.95742258 -73.17005511 -8.67414999 -85 -9 C-85 -9.33 -85 -9.66 -85 -10 C-58.22933139 -14.5417824 -29.20305612 -8.92409521 -6.25 5.6171875 C-3.9685486 7.13677176 -3.9685486 7.13677176 -1 8 C-29.93429907 -9.31440769 -63.91291508 -17.70743068 -97.47631836 -9.83837891 C-109.22010102 -6.8025012 -120.01300768 -2.3449013 -130.5234375 3.6796875 C-133 5 -133 5 -135 5 C-134.67 3.68 -134.34 2.36 -134 1 C-141.81022466 5.61783245 -148.4641056 10.72285801 -155 17 C-156.0543733 17.96779033 -157.10907698 18.93522083 -158.1640625 19.90234375 C-169.34397062 30.36632959 -176.79622405 42.41450746 -182.84375 56.42578125 C-184 59 -184 59 -186 62 C-186.4552895 55.44236249 -185.32748511 51.49567171 -182.125 45.8125 C-181.5230481 44.71156006 -181.5230481 44.71156006 -180.90893555 43.58837891 C-176.92957161 36.51173441 -172.18473559 30.22523999 -167 24 C-166.44441406 23.30390625 -165.88882813 22.6078125 -165.31640625 21.890625 C-145.38210199 -2.52754715 -112.82327145 -16.30453949 -82.05859375 -19.55029297 C-54.0631288 -21.93681113 -23.55614642 -15.70409761 0 0 Z " fill="#0399F2" transform="translate(197,25)"/>
<path d="M0 0 C1.94090672 2.91136008 2.87582764 5.53341 3.90136719 8.85083008 C8.72953318 24.44137553 15.456861 37.54138995 26 50 C26.79277344 50.95648438 27.58554687 51.91296875 28.40234375 52.8984375 C45.3724722 72.53647918 71.77926796 87.25220664 97.83642578 89.30175781 C101.810622 89.43617257 105.77450576 89.47491349 109.75 89.4375 C110.79898972 89.43243942 110.79898972 89.43243942 111.86917114 89.42727661 C122.95721787 89.34998541 133.45081639 88.6365762 144 85 C145.0506665 84.63793457 145.0506665 84.63793457 146.12255859 84.26855469 C176.90245517 73.25842295 201.51568348 53.27691213 215.78515625 23.60546875 C216.18605469 22.74566406 216.58695313 21.88585937 217 21 C217.66 21.33 218.32 21.66 219 22 C218.54625 23.03125 218.0925 24.0625 217.625 25.125 C216.65633617 27.36140821 215.8663648 29.46258337 215.1875 31.8125 C211.65828227 41.28566337 205.20806759 48.53175716 198.609375 55.99609375 C194.93027979 59.95106452 194.93027979 59.95106452 194 65 C192.20582522 66.70200827 190.47199444 68.15326043 188.5 69.625 C187.91976074 70.06231445 187.33952148 70.49962891 186.74169922 70.95019531 C170.7920918 82.6705161 153.25126328 89.81162448 134 94 C133.25975586 94.17877686 132.51951172 94.35755371 131.75683594 94.54174805 C124.77989824 96.123892 118.01246554 96.34677354 110.875 96.3125 C109.68447021 96.30831055 108.49394043 96.30412109 107.26733398 96.29980469 C98.16270698 96.18345163 89.80017263 95.37204186 81 93 C79.98808594 92.73316406 78.97617188 92.46632813 77.93359375 92.19140625 C57.48337543 86.06450995 38.58401608 73.44343132 24 58 C22.875 55.5625 22.875 55.5625 22 53 C19.90828315 48.26360939 19.90828315 48.26360939 16 45 C16 44.01 16 43.02 16 42 C15.01 41.67 14.02 41.34 13 41 C4.91257026 29.56254706 -0.32223051 14.057306 0 0 Z " fill="#0099EF" transform="translate(15,147)"/>
<path d="M0 0 C1.19947266 0.00064453 2.39894531 0.00128906 3.63476562 0.00195312 C4.88837891 0.01806641 6.14199219 0.03417969 7.43359375 0.05078125 C8.69107422 0.04755859 9.94855469 0.04433594 11.24414062 0.04101562 C20.60421317 0.09640067 20.60421317 0.09640067 22.87109375 2.36328125 C23.40613886 8.27170791 22.05429563 13.41761884 20.49609375 19.05078125 C20.274375 19.89189453 20.05265625 20.73300781 19.82421875 21.59960938 C18.79456948 25.41839682 17.73314747 28.857221 15.87109375 32.36328125 C14.87109375 30.36328125 14.87109375 30.36328125 15.4296875 28.4375 C15.71972656 27.64988281 16.00976562 26.86226562 16.30859375 26.05078125 C18.31540355 19.82054902 18.14543995 13.84598029 17.87109375 7.36328125 C14.97425217 7.25498811 12.08148356 7.17584171 9.18359375 7.11328125 C8.36697266 7.07976562 7.55035156 7.04625 6.70898438 7.01171875 C2.75865034 6.94774573 0.43864321 7.04554412 -3.06640625 9.0078125 C-5.43424065 11.71198701 -6.34786808 13.88505778 -7.44140625 17.30078125 C-11.68698261 29.09845762 -18.45889204 38.42381504 -27.12890625 47.36328125 C-27.67933594 47.9871875 -28.22976562 48.61109375 -28.796875 49.25390625 C-36.8610425 58.09462321 -48.07961668 63.27459471 -59.12890625 67.36328125 C-60.07072754 67.71874023 -61.01254883 68.07419922 -61.98291016 68.44042969 C-70.18257138 71.26403025 -77.8082832 71.98771509 -86.38476562 71.88476562 C-88.49596863 71.86336172 -90.60374448 71.88466225 -92.71484375 71.91015625 C-110.69929081 71.94637304 -128.74367177 66.39278351 -143.12890625 55.36328125 C-146.12890625 51.89675857 -146.12890625 51.89675857 -146.12890625 49.36328125 C-147.11890625 48.70328125 -148.10890625 48.04328125 -149.12890625 47.36328125 C-148.79890625 46.70328125 -148.46890625 46.04328125 -148.12890625 45.36328125 C-147.39027344 45.94335938 -146.65164062 46.5234375 -145.890625 47.12109375 C-123.83382062 64.10511339 -100.31327459 69.13015181 -72.61328125 65.9375 C-51.99203411 62.361688 -32.75982071 49.85271033 -20.53125 33.03515625 C-14.94586387 24.86488987 -10.76622698 15.132154 -9.61328125 5.28125 C-8.30570012 0.10365051 -4.78094955 -0.01292432 0 0 Z " fill="#8CE6FC" transform="translate(222.12890625,136.63671875)"/>
<path d="M0 0 C1.43085938 0.36738281 1.43085938 0.36738281 2.890625 0.7421875 C8.87008673 2.51098115 14.21578912 5.0106864 19.625 8.0625 C20.22940918 8.40297363 20.83381836 8.74344727 21.45654297 9.09423828 C24.45458326 10.85602633 26.03616088 12.05424132 28 15 C23.14639148 14.44509049 19.30616847 12.87127762 15 10.6875 C-5.73758146 0.59266037 -29.80484018 -1.39105372 -51.87109375 5.50390625 C-58.69879026 7.86080902 -64.60339744 11.35969994 -70.5625 15.375 C-73 17 -73 17 -75 17 C-75.020625 17.5775 -75.04125 18.155 -75.0625 18.75 C-76.37243928 21.89385428 -78.4155521 22.54472057 -81.40625 23.97265625 C-83.34304975 24.98574144 -83.34304975 24.98574144 -84 28 C-84.99 28.33 -85.98 28.66 -87 29 C-96.07852355 39.0044927 -104.50419541 53.23546532 -104 67 C-103.98227539 67.77520996 -103.96455078 68.55041992 -103.94628906 69.34912109 C-103.83951798 73.77519318 -103.68566642 78.19999267 -103.44921875 82.62109375 C-103.41143311 83.3680249 -103.37364746 84.11495605 -103.3347168 84.88452148 C-102.9602842 87.25101196 -102.11131799 88.89027583 -101 91 C-100.58832747 92.77304505 -100.18003707 94.54718459 -99.80981445 96.3293457 C-96.99523399 109.57099069 -90.64839885 119.69682089 -81.6875 129.79296875 C-80 132 -80 132 -80 135 C-79.360625 135.28875 -78.72125 135.5775 -78.0625 135.875 C-76 137 -76 137 -75 139 C-75.99 139.33 -76.98 139.66 -78 140 C-93.4283809 125.74636892 -101.07135525 111.11954975 -107 91 C-107.99 91.99 -107.99 91.99 -109 93 C-111.41046207 80.90881123 -111.02350009 67.65205627 -107 56 C-106.63648438 54.92234375 -106.27296875 53.8446875 -105.8984375 52.734375 C-101.61658532 40.85568831 -95.69245397 32.09316994 -87 23 C-86.45859375 22.38382813 -85.9171875 21.76765625 -85.359375 21.1328125 C-65.20603667 -0.95443203 -28.04854098 -7.21959487 0 0 Z " fill="#34CFFF" transform="translate(153,49)"/>
<path d="M0 0 C2 1 2 1 2.85375977 2.93017578 C3.13018311 3.7601709 3.40660645 4.59016602 3.69140625 5.4453125 C3.99626953 6.35796875 4.30113281 7.270625 4.61523438 8.2109375 C5.08413086 9.65339844 5.08413086 9.65339844 5.5625 11.125 C6.03719727 12.53265625 6.03719727 12.53265625 6.52148438 13.96875 C8.22037174 19.11951678 9.21822288 23.52756019 10 29 C-12.77 29 -35.54 29 -59 29 C-57.55930318 26.11860636 -56.20914108 23.72015691 -54.3984375 21.109375 C-53.90859375 20.40039062 -53.41875 19.69140625 -52.9140625 18.9609375 C-52.40617188 18.23132813 -51.89828125 17.50171875 -51.375 16.75 C-50.859375 16.00492188 -50.34375 15.25984375 -49.8125 14.4921875 C-48.54395914 12.6598507 -47.27306421 10.82919561 -46 9 C-45.34 9.66 -44.68 10.32 -44 11 C-46.97 15.29 -49.94 19.58 -53 24 C-50.69 23.34 -48.38 22.68 -46 22 C-45.34 22.33 -44.68 22.66 -44 23 C-44 22.34 -44 21.68 -44 21 C-43.24976563 20.81824219 -42.49953125 20.63648437 -41.7265625 20.44921875 C-33.02089659 18.31117737 -24.50112397 15.83725012 -16 13 C-13.79467578 12.28235293 -11.5862695 11.57411331 -9.375 10.875 C-8.26898438 10.52179688 -7.16296875 10.16859375 -6.0234375 9.8046875 C-3 9 -3 9 1 9 C0.505 4.545 0.505 4.545 0 0 Z " fill="#03A7FD" transform="translate(228,58)"/>
<path d="M0 0 C0.99 0 1.98 0 3 0 C3.3403125 0.99257812 3.680625 1.98515625 4.03125 3.0078125 C14.54143916 32.81685162 35.62862998 55.21419813 64 69 C78.91319874 75.89142925 93.58133896 78.22840663 109.9375 78.3125 C110.97962646 78.31813965 112.02175293 78.3237793 113.09545898 78.32958984 C118.89768809 78.27490867 124.21239723 77.74590696 129.84594727 76.32885742 C132.20603571 75.9685447 133.74685368 76.26943147 136 77 C124.65332403 80.53007697 113.5652593 81.41966047 101.75 81.4375 C101.07630371 81.44322021 100.40260742 81.44894043 99.70849609 81.45483398 C70.25227981 81.63021121 44.53033398 68.53535702 23.47607422 48.55371094 C12.22834313 37.40502644 0.63086952 21.97313634 -2 6 C-1.3785124 1.3785124 -1.3785124 1.3785124 0 0 Z " fill="#43CEFC" transform="translate(23,156)"/>
<path d="M0 0 C0.33 0 0.66 0 1 0 C1.02916504 0.67240723 1.05833008 1.34481445 1.08837891 2.03759766 C2.82651302 38.21903953 14.09110582 71.63069578 41.0234375 96.90234375 C65.72486728 119.09933906 97.73440734 130.48860256 130.88623047 129.140625 C161.30534113 127.11690038 189.23430299 116.39427024 212 96 C212.7425 95.35160156 213.485 94.70320313 214.25 94.03515625 C232.02065661 77.50209894 246.50942937 50.55594455 248.203125 26.0625 C248.21859375 25.051875 248.2340625 24.04125 248.25 23 C248.27578125 21.989375 248.3015625 20.97875 248.328125 19.9375 C247.95515405 16.59852194 246.90673727 14.72964493 245 12 C248.16115776 13.36983503 248.9927092 13.9890638 251 17 C251.7629044 22.92542096 250.71740947 28.80011882 249.375 34.5625 C249.19606201 35.33770996 249.01712402 36.11291992 248.83276367 36.91162109 C241.33788748 67.94692033 222.17069232 95.10280329 195 112 C194.02546875 112.62390625 193.0509375 113.2478125 192.046875 113.890625 C163.8123542 131.25410036 128.16128185 136.27414303 96 129 C72.47416163 122.93900339 53.62743391 111.57781438 36 95 C35.39800781 94.46246094 34.79601563 93.92492187 34.17578125 93.37109375 C16.32824493 76.77163689 6.00181449 52.36745128 1 29 C0.80148438 28.10152344 0.60296875 27.20304687 0.3984375 26.27734375 C-0.21508844 21.23079217 -0.10314834 16.20291544 -0.0625 11.125 C-0.05798828 10.05507812 -0.05347656 8.98515625 -0.04882812 7.8828125 C-0.03709749 5.25515014 -0.02068228 2.62760462 0 0 Z " fill="#064993" transform="translate(2,120)"/>
<path d="M0 0 C-0.80352569 5.24204855 -4.39089065 9.3151188 -7.28515625 13.61328125 C-9.22303057 17.44047267 -9.48982688 19.76686452 -9 24 C-5.16636362 27.83363638 -0.35655047 27.16488768 4.79785156 27.20532227 C5.57872131 27.21522186 6.35959106 27.22512146 7.16412354 27.23532104 C9.73959341 27.26685373 12.31508171 27.29166086 14.890625 27.31640625 C16.67853265 27.33698289 18.46643551 27.35797955 20.2543335 27.37937927 C24.95605589 27.43452663 29.65782166 27.48396823 34.35961914 27.53222656 C39.15905611 27.58249518 43.95843023 27.63815325 48.7578125 27.69335938 C58.17182129 27.80085121 67.58588469 27.90231607 77 28 C77 28.33 77 28.66 77 29 C66.28188487 29.11593091 55.56391928 29.2047343 44.84530449 29.25906086 C39.86799829 29.28513714 34.89112155 29.32049931 29.9140625 29.37719727 C25.1094555 29.43158717 20.30526116 29.46143535 15.50037003 29.47438622 C13.66872793 29.48361357 11.83710801 29.50163282 10.00564194 29.52865028 C7.43669874 29.56503428 4.86945303 29.56994158 2.30029297 29.56762695 C1.54575333 29.58560333 0.79121368 29.60357971 0.0138092 29.62210083 C-3.87658241 29.58425898 -6.44702719 29.04176534 -9.47775269 26.67424011 C-12 24 -12 24 -12.65625 20.64453125 C-11.84425798 16.13507555 -10.12989006 13.36381779 -7.5 9.6875 C-4.3039009 5.68300351 -4.3039009 5.68300351 -3 1 C-19.96412842 -7.63548656 -41.28084267 -9.17384517 -59.453125 -3.37890625 C-77.97266518 3.82087094 -93.33349725 14.78012608 -101.93359375 33.37109375 C-108.29617108 49.05612872 -108.01882783 67.24064312 -102 83 C-97.97282855 92.14981701 -92.58570079 99.54815262 -86 107 C-86.33 107.66 -86.66 108.32 -87 109 C-101.87566663 94.05546455 -109.28027498 76.60457655 -109.31689453 55.46289062 C-109.05189438 38.33275752 -101.74122754 25.09450341 -90 13 C-89.44699219 12.37351562 -88.89398438 11.74703125 -88.32421875 11.1015625 C-67.78281154 -11.42772283 -25.44024825 -17.24283492 0 0 Z " fill="#075FAF" transform="translate(166,70)"/>
<path d="M0 0 C0.99 0.495 0.99 0.495 2 1 C1.54625 2.03125 1.0925 3.0625 0.625 4.125 C-0.34366383 6.36140821 -1.1336352 8.46258337 -1.8125 10.8125 C-5.34171773 20.28566337 -11.79193241 27.53175716 -18.390625 34.99609375 C-22.06972021 38.95106452 -22.06972021 38.95106452 -23 44 C-23.99 44.495 -23.99 44.495 -25 45 C-25 44.01 -25 43.02 -25 42 C-26.051875 42.77923828 -26.051875 42.77923828 -27.125 43.57421875 C-32.62392464 47.61622722 -38.11416556 51.54192423 -44 55 C-44.67160156 55.39703125 -45.34320313 55.7940625 -46.03515625 56.203125 C-64.33388114 66.69749354 -81.34124789 71.8932669 -102.40991211 71.70678711 C-105.30039965 71.6875804 -108.18604255 71.7270963 -111.07617188 71.77148438 C-124.29958952 71.82669961 -135.57859337 69.47333398 -148 65 C-148 64.01 -148 63.02 -148 62 C-146.60301364 62.28609307 -145.2074567 62.57916905 -143.8125 62.875 C-143.03519531 63.03742188 -142.25789063 63.19984375 -141.45703125 63.3671875 C-139 64 -139 64 -136.64892578 64.97070312 C-127.36424063 68.5784665 -117.25679045 68.40475063 -107.4375 68.375 C-106.73068085 68.37412384 -106.02386169 68.37324768 -105.29562378 68.37234497 C-94.13691552 68.32676446 -83.6189432 67.66062414 -73 64 C-72.29955566 63.75862305 -71.59911133 63.51724609 -70.87744141 63.26855469 C-40.09754483 52.25842295 -15.48431652 32.27691213 -1.21484375 2.60546875 C-0.81394531 1.74566406 -0.41304687 0.88585937 0 0 Z " fill="#0183E1" transform="translate(232,168)"/>
<path d="M0 0 C0 3.62805967 -0.55444233 3.87485399 -3 6.375 C-19.91392876 25.06574551 -27.20870018 50.18344675 -27.125 74.875 C-27.12886719 76.00808594 -27.13273437 77.14117187 -27.13671875 78.30859375 C-27.129395 84.62898813 -26.81600911 90.73354837 -26 97 C-25.8913403 98.3329747 -25.78666922 99.66628566 -25.6875 101 C-24.08123776 114.55874306 -20.45391206 126.51258575 -13 138 C-12.34 138.33 -11.68 138.66 -11 139 C-10.67 139.99 -10.34 140.98 -10 142 C-9.360625 142.45375 -8.72125 142.9075 -8.0625 143.375 C-5.53796197 145.36402996 -4.91422213 146.95259288 -4 150 C-4 150.99 -4 151.98 -4 153 C-23.16615048 131.26061636 -32.21496361 105.48574905 -32.3125 76.625 C-32.31545074 75.86221741 -32.31840149 75.09943481 -32.32144165 74.3135376 C-32.33134949 63.08633244 -31.77502087 52.68116272 -28 42 C-27.76877441 41.30938477 -27.53754883 40.61876953 -27.29931641 39.90722656 C-27.0522998 39.19791992 -26.8052832 38.48861328 -26.55078125 37.7578125 C-26.21494019 36.78932373 -26.21494019 36.78932373 -25.87231445 35.80126953 C-24.86620959 33.72373198 -23.77403056 32.46876919 -22 31 C-21.34 31 -20.68 31 -20 31 C-19.62875 29.7934375 -19.62875 29.7934375 -19.25 28.5625 C-15.27212827 17.22556556 -15.27212827 17.22556556 -11 13 C-10.67 12.01 -10.34 11.02 -10 10 C-9.01 9.34 -8.02 8.68 -7 8 C-6.67 7.01 -6.34 6.02 -6 5 C-4.12382302 3.15500602 -2.07262391 1.6316401 0 0 Z " fill="#04ACF9" transform="translate(42,50)"/>
<path d="M0 0 C1.19947266 0.00064453 2.39894531 0.00128906 3.63476562 0.00195312 C4.88837891 0.01806641 6.14199219 0.03417969 7.43359375 0.05078125 C8.69107422 0.04755859 9.94855469 0.04433594 11.24414062 0.04101562 C20.60421317 0.09640067 20.60421317 0.09640067 22.87109375 2.36328125 C23.40613886 8.27170791 22.05429563 13.41761884 20.49609375 19.05078125 C20.16351563 20.31245117 20.16351563 20.31245117 19.82421875 21.59960938 C18.79456948 25.41839682 17.73314747 28.857221 15.87109375 32.36328125 C14.87109375 30.36328125 14.87109375 30.36328125 15.4296875 28.4375 C15.71972656 27.64988281 16.00976562 26.86226562 16.30859375 26.05078125 C18.31540355 19.82054902 18.14543995 13.84598029 17.87109375 7.36328125 C14.97425217 7.25498811 12.08148356 7.17584171 9.18359375 7.11328125 C8.36697266 7.07976562 7.55035156 7.04625 6.70898438 7.01171875 C2.75865034 6.94774573 0.43864321 7.04554412 -3.06640625 9.0078125 C-5.43424065 11.71198701 -6.34786808 13.88505778 -7.44140625 17.30078125 C-12.07717708 30.18273632 -20.56483092 44.78209893 -33.12890625 51.36328125 C-34.11890625 51.36328125 -35.10890625 51.36328125 -36.12890625 51.36328125 C-34.83925449 49.98765271 -33.50201332 48.65561732 -32.12890625 47.36328125 C-31.46890625 47.36328125 -30.80890625 47.36328125 -30.12890625 47.36328125 C-30.06960937 46.8321875 -30.0103125 46.30109375 -29.94921875 45.75390625 C-28.75576139 42.27583053 -26.35637831 39.86811411 -24.00390625 37.11328125 C-16.47850826 27.91788355 -11.01118876 17.22513622 -9.61328125 5.28125 C-8.30570012 0.10365051 -4.78094955 -0.01292432 0 0 Z " fill="#6DDFFD" transform="translate(222.12890625,136.63671875)"/>
<path d="M0 0 C1.34446017 1.00613385 2.68287808 2.02083387 4 3.0625 C3.34 3.3925 2.68 3.7225 2 4.0625 C0.05975275 2.94904551 -1.82722839 1.74246923 -3.6875 0.5 C-21.3950473 -10.81274292 -42.83163043 -16.1118251 -63.6875 -16.125 C-64.71939453 -16.13724609 -65.75128906 -16.14949219 -66.81445312 -16.16210938 C-67.80767578 -16.16404297 -68.80089844 -16.16597656 -69.82421875 -16.16796875 C-71.17132935 -16.17413208 -71.17132935 -16.17413208 -72.5456543 -16.18041992 C-75.17095151 -15.92058 -76.70293152 -15.18153567 -79 -13.9375 C-81.54365823 -13.46878096 -84.06805094 -13.06184386 -86.625 -12.6875 C-106.24125562 -9.45623855 -124.65124581 -1.82503316 -139.97973633 10.96386719 C-143.7186793 14.0625 -143.7186793 14.0625 -147 14.0625 C-140.39301587 4.48326826 -133.22526734 -0.74878176 -123 -5.9375 C-122.36143066 -6.26234375 -121.72286133 -6.5871875 -121.06494141 -6.921875 C-84.07977063 -25.27810519 -34.50028119 -24.05301294 0 0 Z " fill="#75E5FE" transform="translate(194,30.9375)"/>
<path d="M0 0 C0 0.33 0 0.66 0 1 C-0.64324219 1.0093457 -1.28648437 1.01869141 -1.94921875 1.02832031 C-19.53672042 1.34820711 -35.18770985 2.57663048 -51 11 C-51.82757813 11.44085938 -52.65515625 11.88171875 -53.5078125 12.3359375 C-71.06533682 22.29804378 -83.09756644 37.13058328 -89.34863281 56.34838867 C-90.65489666 61.66597923 -90.85876774 67.11278261 -91.1875 72.5625 C-91.26935547 73.76197266 -91.35121094 74.96144531 -91.43554688 76.19726562 C-91.63424475 79.13098131 -91.8221285 82.06496055 -92 85 C-92.33 85 -92.66 85 -93 85 C-93.25731684 80.68870363 -93.47571364 76.37625371 -93.6875 72.0625 C-93.79674805 70.24395508 -93.79674805 70.24395508 -93.90820312 68.38867188 C-94.23811244 61.22769901 -93.95729063 55.5601231 -91 49 C-90.49082031 47.81535156 -89.98164062 46.63070312 -89.45703125 45.41015625 C-85.83943676 38.04607435 -82.04403484 30.70241548 -76 25 C-75.01 25 -74.02 25 -73 25 C-72.9071875 24.1028125 -72.9071875 24.1028125 -72.8125 23.1875 C-71.47049717 19.57441547 -68.28966325 18.64483163 -65 17 C-64.67 16.01 -64.34 15.02 -64 14 C-60.52575923 11.36836947 -56.7512602 9.21319276 -53 7 C-52.34644531 6.60296875 -51.69289062 6.2059375 -51.01953125 5.796875 C-35.54310983 -2.81252499 -17.04287351 -2.4517818 0 0 Z " fill="#6EE2FB" transform="translate(142,52)"/>
<path d="M0 0 C1.40958984 0.13921875 1.40958984 0.13921875 2.84765625 0.28125 C3.53730469 0.3534375 4.22695312 0.425625 4.9375 0.5 C4.9375 1.16 4.9375 1.82 4.9375 2.5 C4.20861572 2.48428955 3.47973145 2.4685791 2.72875977 2.45239258 C-11.55576211 2.18576017 -25.1265214 2.202173 -39.0625 5.5 C-40.13113281 5.72816406 -41.19976562 5.95632812 -42.30078125 6.19140625 C-52.32221942 8.46605175 -66.51790381 11.86260722 -73.9296875 19.3984375 C-76.3138435 21.74766081 -78.78653294 23.28984586 -81.625 25.0625 C-100.51822943 37.66074966 -114.00244134 55.29689897 -122.90625 75.92578125 C-124.0625 78.5 -124.0625 78.5 -126.0625 81.5 C-126.5177895 74.94236249 -125.38998511 70.99567171 -122.1875 65.3125 C-121.5855481 64.21156006 -121.5855481 64.21156006 -120.97143555 63.08837891 C-116.99207161 56.01173441 -112.24723559 49.72523999 -107.0625 43.5 C-106.50691406 42.80390625 -105.95132813 42.1078125 -105.37890625 41.390625 C-85.04108181 16.47816796 -52.61441877 3.47608504 -21.43994141 0.00683594 C-14.26783026 -0.70229439 -7.17386875 -0.72646772 0 0 Z " fill="#108AE1" transform="translate(137.0625,5.5)"/>
<path d="M0 0 C1.94090672 2.91136008 2.87582764 5.53341 3.90136719 8.85083008 C8.72953318 24.44137553 15.456861 37.54138995 26 50 C26.79277344 50.95648438 27.58554687 51.91296875 28.40234375 52.8984375 C37.89934464 63.88848391 48.88775284 71.28782729 61.56640625 78.08984375 C64.2557478 79.58596209 66.62004076 81.06817558 69 83 C64.14036821 82.39254603 60.2594482 80.27241033 56 78 C56 78.66 56 79.32 56 80 C51.21473328 78.6683856 47.91613644 76.72148592 44 73.6875 C42.95972656 72.88183594 41.91945312 72.07617188 40.84765625 71.24609375 C39.43806641 70.13427734 39.43806641 70.13427734 38 69 C37.33871094 68.49597656 36.67742188 67.99195313 35.99609375 67.47265625 C31.78172059 64.16664422 29.7564891 60.71929342 27.625 55.875 C25.75099698 52.55945619 24.28679902 51.79991375 21 50 C18.1875 47.5 18.1875 47.5 16 45 C16 44.01 16 43.02 16 42 C15.01 41.67 14.02 41.34 13 41 C4.91257026 29.56254706 -0.32223051 14.057306 0 0 Z " fill="#027AD8" transform="translate(15,147)"/>
<path d="M0 0 C0.99 0.495 0.99 0.495 2 1 C2.01981934 1.58491211 2.03963867 2.16982422 2.06005859 2.77246094 C2.15553481 5.43208025 2.26512142 8.09093838 2.375 10.75 C2.4059375 11.67039062 2.436875 12.59078125 2.46875 13.5390625 C2.50742187 14.42851562 2.54609375 15.31796875 2.5859375 16.234375 C2.6173584 17.05131836 2.6487793 17.86826172 2.68115234 18.70996094 C3.02652664 21.19052056 3.82702746 22.80571311 5 25 C5.41167253 26.77304505 5.81996293 28.54718459 6.19018555 30.3293457 C9.00476601 43.57099069 15.35160115 53.69682089 24.3125 63.79296875 C26 66 26 66 26 69 C26.639375 69.28875 27.27875 69.5775 27.9375 69.875 C30 71 30 71 31 73 C29.515 73.495 29.515 73.495 28 74 C16.78216725 63.63631696 7.86995736 52.71656473 3 38 C2.73324463 37.21544434 2.46648926 36.43088867 2.19165039 35.62255859 C-0.17363973 27.94515641 -0.35546143 20.80143485 -0.1875 12.8125 C-0.17396484 11.57435547 -0.16042969 10.33621094 -0.14648438 9.06054688 C-0.11149611 6.0398929 -0.06240724 3.0201906 0 0 Z " fill="#3DCDFC" transform="translate(47,115)"/>
<path d="M0 0 C0.95390625 0.24492188 1.9078125 0.48984375 2.890625 0.7421875 C8.87008673 2.51098115 14.21578912 5.0106864 19.625 8.0625 C20.22940918 8.40297363 20.83381836 8.74344727 21.45654297 9.09423828 C24.45458326 10.85602633 26.03616088 12.05424132 28 15 C23.14639148 14.44509049 19.30616847 12.87127762 15 10.6875 C-4.48507144 1.20236926 -28.1912478 -1.90196463 -48.94140625 5.22265625 C-52.35019537 6.0890024 -54.60807212 5.81100231 -58 5 C-57.67 4.34 -57.34 3.68 -57 3 C-54.45426425 2.21372963 -51.96370884 1.54430073 -49.375 0.9375 C-48.32505859 0.67743164 -48.32505859 0.67743164 -47.25390625 0.41210938 C-32.31892219 -3.20387471 -14.96088922 -3.85087977 0 0 Z " fill="#24C7FF" transform="translate(153,49)"/>
<path d="M0 0 C3 1 3 1 3.99902344 2.87011719 C4.92887359 5.49290678 5.85566161 8.11483009 6.75 10.75 C7.07871094 11.6575 7.40742188 12.565 7.74609375 13.5 C8.20435547 14.82257813 8.20435547 14.82257813 8.671875 16.171875 C8.9512793 16.9772168 9.23068359 17.78255859 9.51855469 18.61230469 C10.07976177 21.39557308 9.77500387 23.28572776 9 26 C8 27 8 27 5.10838318 27.12025452 C3.81376663 27.11803391 2.51915009 27.11581329 1.18530273 27.11352539 C0.11706772 27.11374443 0.11706772 27.11374443 -0.9727478 27.1139679 C-3.33733112 27.1132687 -5.70183661 27.10547606 -8.06640625 27.09765625 C-9.70165463 27.09579209 -11.33690357 27.09436818 -12.97215271 27.09336853 C-17.28434785 27.08954318 -21.59650952 27.07971275 -25.90869141 27.06866455 C-30.30565946 27.0584508 -34.70263289 27.05387099 -39.09960938 27.04882812 C-47.73308831 27.03809049 -56.36654 27.02101387 -65 27 C-64.01 25.515 -64.01 25.515 -63 24 C-60.13998413 23.67720032 -60.13998413 23.67720032 -56.43896484 23.7512207 C-55.76567642 23.76053619 -55.092388 23.76985168 -54.3986969 23.77944946 C-52.16893717 23.81387838 -49.94025072 23.86975907 -47.7109375 23.92578125 C-46.16682228 23.95380783 -44.62268229 23.98049894 -43.07852173 24.00590515 C-39.01096623 24.07642988 -34.94400088 24.16513633 -30.87689209 24.25756836 C-26.7280273 24.348661 -22.57886186 24.42264486 -18.4296875 24.49804688 C-10.28606494 24.64857272 -2.14298629 24.81829779 6 25 C5.823479 24.45061768 5.64695801 23.90123535 5.46508789 23.33520508 C4.66141803 20.8285268 3.86192478 18.32053518 3.0625 15.8125 C2.78470703 14.94818359 2.50691406 14.08386719 2.22070312 13.19335938 C1.95322266 12.35224609 1.68574219 11.51113281 1.41015625 10.64453125 C1.16402588 9.87471924 0.91789551 9.10490723 0.66430664 8.31176758 C-0.03425962 5.88077752 -0.6154858 3.50082015 -1 1 C-0.67 0.67 -0.34 0.34 0 0 Z " fill="#44CCFE" transform="translate(232,62)"/>
<path d="M0 0 C0 3.62805967 -0.55444233 3.87485399 -3 6.375 C-13.65702433 18.15155012 -20.27230293 32.9464927 -24.140625 48.19921875 C-25 51 -25 51 -27 53 C-27.62866126 55.47253378 -28.13390042 57.86640697 -28.5625 60.375 C-28.69180908 61.11290771 -28.82111816 61.85081543 -28.9543457 62.61108398 C-30.4302527 71.68465423 -30.72484432 80.82498125 -31 90 C-31.33 90 -31.66 90 -32 90 C-32.8349575 56.11678227 -32.8349575 56.11678227 -28 42 C-27.76877441 41.30503418 -27.53754883 40.61006836 -27.29931641 39.89404297 C-27.0522998 39.18521973 -26.8052832 38.47639648 -26.55078125 37.74609375 C-26.32688721 37.10212646 -26.10299316 36.45815918 -25.87231445 35.79467773 C-24.8650474 33.72235193 -23.7704541 32.46665673 -22 31 C-21.34 31 -20.68 31 -20 31 C-19.62875 29.7934375 -19.62875 29.7934375 -19.25 28.5625 C-15.27212827 17.22556556 -15.27212827 17.22556556 -11 13 C-10.67 12.01 -10.34 11.02 -10 10 C-9.01 9.34 -8.02 8.68 -7 8 C-6.67 7.01 -6.34 6.02 -6 5 C-4.12382302 3.15500602 -2.07262391 1.6316401 0 0 Z " fill="#3DCEFD" transform="translate(42,50)"/>
<path d="M0 0 C1.32382529 0.68535306 2.65380647 1.35969913 4 2 C4.99 1.34 5.98 0.68 7 0 C7 0.99 7 1.98 7 3 C2.9012442 4.17516457 0.95939134 3.8937778 -2.78125 1.90234375 C-4.15240967 1.19839478 -4.15240967 1.19839478 -5.55126953 0.48022461 C-6.52435059 -0.02887451 -7.49743164 -0.53797363 -8.5 -1.0625 C-19.3923655 -6.51561284 -30.1417567 -10.28441209 -42 -13 C-43.08410156 -13.25265625 -44.16820312 -13.5053125 -45.28515625 -13.765625 C-56.9482798 -15.96325259 -69.16891649 -15.67411863 -81 -16 C-81 -16.33 -81 -16.66 -81 -17 C-52.85966536 -21.77415332 -23.96335412 -15.11166591 0 0 Z " fill="#1EC5FE" transform="translate(193,32)"/>
<path d="M0 0 C1.80658081 0.00833862 1.80658081 0.00833862 3.6496582 0.0168457 C5.4900769 0.02421753 5.4900769 0.02421753 7.36767578 0.03173828 C31.54653631 0.3418664 57.83356546 7.10234567 77.0871582 22.3293457 C76.4271582 22.6593457 75.7671582 22.9893457 75.0871582 23.3293457 C73.14691095 22.21589122 71.25992982 21.00931494 69.3996582 19.7668457 C51.6921109 8.45410279 30.25552777 3.1550206 9.3996582 3.1418457 C8.36776367 3.12959961 7.33586914 3.11735352 6.27270508 3.10473633 C5.27948242 3.10280273 4.28625977 3.10086914 3.26293945 3.09887695 C1.91582886 3.09271362 1.91582886 3.09271362 0.54150391 3.08642578 C-2.08590036 3.34647425 -3.61301809 4.08569584 -5.9128418 5.3293457 C-8.56150105 5.8449136 -11.18544998 6.29854864 -13.8503418 6.7043457 C-20.62608751 7.79744299 -26.88455766 9.39035023 -33.3737793 11.6574707 C-35.9128418 12.3293457 -35.9128418 12.3293457 -38.9128418 11.3293457 C-30.5675448 8.23473709 -22.28926848 5.49241775 -13.6784668 3.22387695 C-3.80989678 0.03192422 -3.80989678 0.03192422 0 0 Z " fill="#53DBFE" transform="translate(120.912841796875,11.670654296875)"/>
<path d="M0 0 C3.03601243 1.33486874 5.60818223 2.65545482 8.375 4.5 C7.57147431 9.74204855 3.98410935 13.8151188 1.08984375 18.11328125 C-0.84803057 21.94047267 -1.11482688 24.26686452 -0.625 28.5 C3.20863638 32.33363638 8.01844953 31.66488768 13.17285156 31.70532227 C13.95372131 31.71522186 14.73459106 31.72512146 15.53912354 31.73532104 C18.11459341 31.76685373 20.69008171 31.79166086 23.265625 31.81640625 C25.05353265 31.83698289 26.84143551 31.85797955 28.6293335 31.87937927 C33.33105589 31.93452663 38.03282166 31.98396823 42.73461914 32.03222656 C47.53405611 32.08249518 52.33343023 32.13815325 57.1328125 32.19335938 C66.54682129 32.30085121 75.96088469 32.40231607 85.375 32.5 C85.375 32.83 85.375 33.16 85.375 33.5 C74.65688487 33.61593091 63.93891928 33.7047343 53.22030449 33.75906086 C48.24299829 33.78513714 43.26612155 33.82049931 38.2890625 33.87719727 C33.4844555 33.93158717 28.68026116 33.96143535 23.87537003 33.97438622 C22.04372793 33.98361357 20.21210801 34.00163282 18.38064194 34.02865028 C15.81169874 34.06503428 13.24445303 34.06994158 10.67529297 34.06762695 C9.92075333 34.08560333 9.16621368 34.10357971 8.3888092 34.12210083 C4.49841759 34.08425898 1.92797281 33.54176534 -1.10275269 31.17424011 C-3.625 28.5 -3.625 28.5 -4.28125 25.14453125 C-3.46925798 20.63507555 -1.75489006 17.86381779 0.875 14.1875 C4.0710991 10.18300351 4.0710991 10.18300351 5.375 5.5 C-3.73471251 0.86275616 -13.51043809 -1.32388815 -23.625 -2.5 C-16.71996677 -6.89863896 -6.93070486 -2.84142036 0 0 Z " fill="#054693" transform="translate(157.625,65.5)"/>
<path d="M0 0 C0.99 0 1.98 0 3 0 C9.76595745 17.14893617 9.76595745 17.14893617 11 26 C9.171875 25.5078125 9.171875 25.5078125 7 24 C5.89750292 21.25536252 5.02778022 18.70729402 4.25 15.875 C4.02957031 15.12089844 3.80914062 14.36679687 3.58203125 13.58984375 C3.04072401 11.73057106 2.51850298 9.86576073 2 8 C1.34 8 0.68 8 0 8 C-1.84463905 10.46254769 -3.47783741 13.03401292 -5.1484375 15.6171875 C-7.04469145 18.05751431 -8.20016526 18.85106383 -11 20 C-14.16666667 21.83333333 -14.16666667 21.83333333 -16 25 C-16.99 24.34 -17.98 23.68 -19 23 C-18.01 23 -17.02 23 -16 23 C-15.77054688 22.3090625 -15.54109375 21.618125 -15.3046875 20.90625 C-13.71592864 17.3672183 -11.52315694 14.51342753 -9.125 11.5 C-8.69058594 10.94441406 -8.25617188 10.38882812 -7.80859375 9.81640625 C-6.95235068 8.72360354 -6.09081497 7.6349238 -5.22363281 6.55078125 C-4.07158469 5.09072346 -2.96755007 3.59314516 -1.8671875 2.09375 C-1.25101563 1.4028125 -0.63484375 0.711875 0 0 Z " fill="#A2F0FE" transform="translate(215,14)"/>
<path d="M0 0 C1 2 1 2 0.125 4.75 C-0.24625 5.8225 -0.6175 6.895 -1 8 C-1.144375 8.928125 -1.28875 9.85625 -1.4375 10.8125 C-2.05156286 14.29218953 -3.09727098 17.43284511 -4.28125 20.75390625 C-5.68608524 25.14401636 -6.13083882 29.28765811 -6.2109375 33.88671875 C-6.23929688 34.98951172 -6.26765625 36.09230469 -6.296875 37.22851562 C-6.34921921 39.54605568 -6.39341041 41.86379339 -6.4296875 44.18164062 C-6.460625 45.28056641 -6.4915625 46.37949219 -6.5234375 47.51171875 C-6.54325684 48.51678467 -6.56307617 49.52185059 -6.58349609 50.55737305 C-6.72094238 51.36343994 -6.85838867 52.16950684 -7 53 C-7.99 53.66 -8.98 54.32 -10 55 C-13.72930887 36.29330551 -10.22876422 16.14598538 0 0 Z " fill="#27C7FF" transform="translate(54,87)"/>
<path d="M0 0 C2.29343691 4.22054039 2.92593129 8.30303435 3.6875 13 C3.82994141 13.80695313 3.97238281 14.61390625 4.11914062 15.4453125 C4.24869141 16.22648437 4.37824219 17.00765625 4.51171875 17.8125 C4.62990967 18.52019531 4.74810059 19.22789062 4.86987305 19.95703125 C5.01171175 22.18387233 4.64816789 23.87622854 4 26 C3.34 26 2.68 26 2 26 C2.55312735 30.02992782 3.1558062 34.02022924 4 38 C0.94170121 34.52140868 -0.31382068 30.67061514 -1.625 26.3125 C-1.9487561 25.24273926 -1.9487561 25.24273926 -2.27905273 24.15136719 C-3.77339774 19.06654758 -5.0889929 14.33957372 -5 9 C-3.125 6.75 -3.125 6.75 -1 5 C-0.20318682 2.35815459 -0.20318682 2.35815459 0 0 Z " fill="#81E5FD" transform="translate(20,132)"/>
<path d="M0 0 C0.99 0 1.98 0 3 0 C3.98188561 2.58232914 4.96059589 5.16578683 5.9375 7.75 C6.21529297 8.47960937 6.49308594 9.20921875 6.77929688 9.9609375 C7.18051758 11.02441406 7.18051758 11.02441406 7.58984375 12.109375 C7.95903931 13.08342285 7.95903931 13.08342285 8.33569336 14.07714844 C9.01965514 16.05689228 9.63413642 17.93550297 10 20 C9.608125 20.78375 9.21625 21.5675 8.8125 22.375 C8.544375 23.24125 8.27625 24.1075 8 25 C9.7628112 28.31180732 9.7628112 28.31180732 12 31 C11.67 31.66 11.34 32.32 11 33 C5.08775872 24.94963311 -3.02928991 13.85392952 -1.640625 3.2578125 C-1 1 -1 1 0 0 Z " fill="#51D4FD" transform="translate(23,156)"/>
<path d="M0 0 C3.21814046 3.21814046 4.1400625 7.44697725 5.625 11.6875 C6.11226562 13.0168457 6.11226562 13.0168457 6.609375 14.37304688 C8.35114552 19.31660144 9.87403695 23.71011963 9 29 C6.24933148 32.63154036 4.80746429 33.87877971 0.24772644 34.56330872 C-1.23072229 34.56007859 -2.70927483 34.52908659 -4.18676758 34.47583008 C-4.99704407 34.46680664 -5.80732056 34.4577832 -6.64215088 34.44848633 C-9.31060629 34.41282104 -11.97682556 34.34138278 -14.64453125 34.26953125 C-16.49822904 34.23775608 -18.35196646 34.20822049 -20.20573425 34.18083191 C-25.07743874 34.10284451 -29.94801017 33.99447718 -34.81896973 33.87976074 C-39.79239782 33.76801426 -44.76629671 33.68502429 -49.74023438 33.59960938 C-59.49416497 33.4278724 -69.2471403 33.22403522 -79 33 C-79 32.67 -79 32.34 -79 32 C-77.9646109 31.99413376 -76.9292218 31.98826752 -75.86245728 31.98222351 C-66.12083855 31.92509371 -56.37944516 31.85238371 -46.6380558 31.76428509 C-41.62948835 31.7194933 -36.6210039 31.68025687 -31.61230469 31.65356445 C-26.78165214 31.62761901 -21.95131752 31.58727956 -17.12086105 31.53681374 C-15.27485473 31.52008549 -13.42879334 31.50860846 -11.58272171 31.50238609 C-9.00353648 31.49280938 -6.42517566 31.46482904 -3.84619141 31.43237305 C-3.07727066 31.43380814 -2.30834991 31.43524323 -1.51612854 31.4367218 C0.82580646 31.42990353 0.82580646 31.42990353 4 31 C6.30115539 27.54826692 6.15389944 25.89193078 5.625 21.87890625 C4.68449975 17.54672697 3.23596956 13.39188068 1.72827148 9.22949219 C0.53643558 5.89426347 0 3.60213815 0 0 Z " fill="#006CC7" transform="translate(242,65)"/>
<path d="M0 0 C1.39698636 0.28609307 2.7925433 0.57916905 4.1875 0.875 C5.35345703 1.11863281 5.35345703 1.11863281 6.54296875 1.3671875 C9 2 9 2 11.37109375 2.96972656 C22.23454556 7.22713431 34.23663852 6.2320646 45.6875 6.125 C47.56444835 6.11494984 49.44140191 6.10582759 51.31835938 6.09765625 C55.87903673 6.07580469 60.4394598 6.0413871 65 6 C61.30721881 9.71688067 57.27737688 9.48217598 52.34375 9.50390625 C51.49219833 9.51606674 50.64064667 9.52822723 49.76329041 9.54075623 C47.00851621 9.56909298 44.25489992 9.56895687 41.5 9.5625 C40.57148224 9.56467529 39.64296448 9.56685059 38.68630981 9.5690918 C25.00406057 9.56552689 12.65574821 8.66222556 0 3 C0 2.01 0 1.02 0 0 Z " fill="#1080D2" transform="translate(84,230)"/>
<path d="M0 0 C0.33 0.99 0.66 1.98 1 3 C-0.33333333 4.66666667 -1.66666667 6.33333333 -3 8 C-3.84832132 9.93783203 -4.52974252 11.89881796 -5.21875 13.8984375 C-6.00540469 16.01453863 -6.94984582 17.94061591 -8 19.9375 C-12.42137213 28.66421531 -13.60059248 36.8327579 -14.1875 46.5625 C-14.26935547 47.76197266 -14.35121094 48.96144531 -14.43554688 50.19726562 C-14.63424475 53.13098131 -14.8221285 56.06496055 -15 59 C-15.33 59 -15.66 59 -16 59 C-16.25731684 54.68870363 -16.47571364 50.37625371 -16.6875 46.0625 C-16.76033203 44.85013672 -16.83316406 43.63777344 -16.90820312 42.38867188 C-17.23800037 35.23013172 -16.96365082 29.55620397 -14 23 C-13.47921875 21.80375 -12.9584375 20.6075 -12.421875 19.375 C-8.92788547 12.32171272 -5.19522703 5.96898425 0 0 Z " fill="#59E0FD" transform="translate(65,78)"/>
<path d="M0 0 C2.36080999 3.54121499 3.38172944 7.16631648 4.625 11.1875 C7.92352118 21.49786015 12.6650982 30.73488111 17.73828125 40.265625 C19 43 19 43 19 46 C17.515 45.505 17.515 45.505 16 45 C16 44.01 16 43.02 16 42 C15.01 41.67 14.02 41.34 13 41 C4.91257026 29.56254706 -0.32223051 14.057306 0 0 Z " fill="#0094EF" transform="translate(15,147)"/>
<path d="M0 0 C0.66 0.33 1.32 0.66 2 1 C-2.2899201 7.25102643 -6.82417975 12.49332035 -13 17 C-13.66 17 -14.32 17 -15 17 C-15.103125 17.639375 -15.20625 18.27875 -15.3125 18.9375 C-15.539375 19.618125 -15.76625 20.29875 -16 21 C-16.99 21.33 -17.98 21.66 -19 22 C-19.0825 22.7425 -19.165 23.485 -19.25 24.25 C-20 27 -20 27 -21.8125 28.6875 C-25.14600447 32.21149044 -26.33286834 36.50735413 -28 41 C-28.33 41.66 -28.66 42.32 -29 43 C-29.66 43 -30.32 43 -31 43 C-31.66 44.32 -32.32 45.64 -33 47 C-32.46997553 41.65834714 -30.62972247 37.87580965 -28 33.3125 C-27.59990723 32.61060547 -27.19981445 31.90871094 -26.78759766 31.18554688 C-23.124072 24.92159139 -18.81484177 19.42554781 -14 14 C-13.38125 13.26136719 -12.7625 12.52273437 -12.125 11.76171875 C-8.41031916 7.35882695 -4.46269234 3.64301416 0 0 Z " fill="#AEF2FD" transform="translate(51,38)"/>
<path d="M0 0 C0.91330078 0.00902344 1.82660156 0.01804688 2.76757812 0.02734375 C4.99117319 0.05062747 7.21418677 0.0833229 9.4375 0.125 C5.55422281 2.25759773 2.57284767 2.3856142 -1.875 2.5 C-22.40199997 3.47156763 -39.38691343 11.5198502 -53.5625 26.125 C-54.2225 25.795 -54.8825 25.465 -55.5625 25.125 C-40.92501941 9.00064215 -21.9029041 -0.41781035 0 0 Z " fill="#0555A6" transform="translate(128.5625,60.875)"/>
<path d="M0 0 C0.66 0.33 1.32 0.66 2 1 C1.54625 2.03125 1.0925 3.0625 0.625 4.125 C-0.34366383 6.36140821 -1.1336352 8.46258337 -1.8125 10.8125 C-5.34171773 20.28566337 -11.79193241 27.53175716 -18.390625 34.99609375 C-22.06972021 38.95106452 -22.06972021 38.95106452 -23 44 C-23.99 44.495 -23.99 44.495 -25 45 C-25 44.01 -25 43.02 -25 42 C-26.32 42.66 -27.64 43.32 -29 44 C-27.1782454 39.3913946 -23.52796275 36.45159708 -19.98828125 33.15429688 C-16.97503821 30.25819063 -15.37768469 27.91287616 -14 24 C-12.97797627 22.49258242 -11.91206358 21.01432651 -10.8125 19.5625 C-6.39795014 13.43221123 -3.22513869 6.8031801 0 0 Z " fill="#008DEA" transform="translate(232,168)"/>
<path d="M0 0 C-19.60062398 9.91962013 -41.96508979 16.02797607 -64 13 C-64 12.67 -64 12.34 -64 12 C-63.21052979 11.93006836 -62.42105957 11.86013672 -61.60766602 11.78808594 C-33.42342857 9.29393943 -33.42342857 9.29393943 -6.85546875 0.07421875 C-3.92647764 -1.02765889 -2.83860144 -1.17530471 0 0 Z " fill="#03448E" transform="translate(186,238)"/>
<path d="M0 0 C0.66 0.33 1.32 0.66 2 1 C0.66617336 5.72902173 -1.39644704 9.65274425 -3.87890625 13.8515625 C-5.06872782 15.91208326 -5.06872782 15.91208326 -5.46484375 18.015625 C-7.58110183 25.86277176 -16.64431503 33.18282744 -22 39 C-22.99 38.67 -23.98 38.34 -25 38 C-24.236875 37.13375 -23.47375 36.2675 -22.6875 35.375 C-19.50087858 31.64840216 -16.42534497 27.83823631 -13.375 24 C-12.67443481 23.12867432 -12.67443481 23.12867432 -11.9597168 22.23974609 C-7.80012752 16.97206648 -4.25745556 11.62317521 -2.3125 5.125 C-1.08759124 1.08759124 -1.08759124 1.08759124 0 0 Z " fill="#01A4F6" transform="translate(233,171)"/>
<path d="M0 0 C0.33 0 0.66 0 1 0 C1.02916504 0.67240723 1.05833008 1.34481445 1.08837891 2.03759766 C2.06128242 22.28980463 5.05091076 40.98156643 13.99609375 59.3203125 C15.09745658 62.26013703 14.88645231 63.11335748 14 66 C8.46982946 53.86336452 3.57362343 42.12854334 1 29 C0.80535156 28.10925781 0.61070312 27.21851563 0.41015625 26.30078125 C-0.21792341 21.24623542 -0.10322423 16.21239666 -0.0625 11.125 C-0.05798828 10.05507812 -0.05347656 8.98515625 -0.04882812 7.8828125 C-0.03709749 5.25515014 -0.02068228 2.62760462 0 0 Z " fill="#0A56A1" transform="translate(2,120)"/>
<path d="M0 0 C0 3.62805967 -0.55444233 3.87485399 -3 6.375 C-10.30202299 14.41609414 -15.40697413 24.21773818 -20 34 C-20.66 34 -21.32 34 -22 34 C-22.19335938 34.75925781 -22.38671875 35.51851562 -22.5859375 36.30078125 C-22.97652344 37.79158203 -22.97652344 37.79158203 -23.375 39.3125 C-23.63023438 40.29863281 -23.88546875 41.28476563 -24.1484375 42.30078125 C-25 45 -25 45 -27 48 C-27.33 47.67 -27.66 47.34 -28 47 C-27.5445015 41.53401805 -27.11347291 36.55377976 -23.5 32.1875 C-22 31 -22 31 -20 31 C-19.62875 29.7934375 -19.62875 29.7934375 -19.25 28.5625 C-15.27212827 17.22556556 -15.27212827 17.22556556 -11 13 C-10.67 12.01 -10.34 11.02 -10 10 C-9.01 9.34 -8.02 8.68 -7 8 C-6.67 7.01 -6.34 6.02 -6 5 C-4.12382302 3.15500602 -2.07262391 1.6316401 0 0 Z " fill="#4CDAFE" transform="translate(42,50)"/>
<path d="M0 0 C0.66 0 1.32 0 2 0 C0.73850075 4.07147389 -0.79646369 7.6873533 -2.8125 11.4375 C-10.14775086 25.87485194 -13.19403583 40.51771432 -13.625 56.625 C-13.66367188 57.81996094 -13.70234375 59.01492187 -13.7421875 60.24609375 C-13.83555786 63.16391736 -13.92133578 66.08174921 -14 69 C-14.33 69 -14.66 69 -15 69 C-15.89468037 58.77046176 -16.39340004 48.9272616 -14.75 38.75 C-14.62842529 37.98969482 -14.50685059 37.22938965 -14.3815918 36.44604492 C-13.47033391 31.37223718 -11.91853371 26.77272537 -10 22 C-9.60039062 20.90816406 -9.20078125 19.81632812 -8.7890625 18.69140625 C-6.34422673 12.11988459 -3.6415234 5.99689173 0 0 Z " fill="#0989E4" transform="translate(24,66)"/>
<path d="M0 0 C1.20849609 0.00322266 2.41699219 0.00644531 3.66210938 0.00976562 C4.92474609 0.01814453 6.18738281 0.02652344 7.48828125 0.03515625 C9.39963867 0.04192383 9.39963867 0.04192383 11.34960938 0.04882812 C14.50004689 0.06062752 17.65039074 0.07709028 20.80078125 0.09765625 C20.80078125 0.42765625 20.80078125 0.75765625 20.80078125 1.09765625 C14.13305047 2.46742777 7.37270445 2.4355206 0.59179688 2.61523438 C-0.36404297 2.64939453 -1.31988281 2.68355469 -2.3046875 2.71875 C-3.60635864 2.75633423 -3.60635864 2.75633423 -4.93432617 2.79467773 C-7.47795645 2.96607871 -7.47795645 2.96607871 -10.19921875 5.09765625 C-11.12544149 7.06876255 -11.12544149 7.06876255 -11.734375 9.37890625 C-11.98638672 10.22066406 -12.23839844 11.06242188 -12.49804688 11.9296875 C-12.75005859 12.81011719 -13.00207031 13.69054687 -13.26171875 14.59765625 C-13.76777436 16.33889546 -14.2792503 18.07857113 -14.796875 19.81640625 C-15.01867432 20.58919922 -15.24047363 21.36199219 -15.46899414 22.15820312 C-16.19921875 24.09765625 -16.19921875 24.09765625 -18.19921875 26.09765625 C-17.58452271 21.24838746 -16.67720669 16.6248074 -15.38671875 11.91015625 C-15.07089844 10.72035156 -14.75507813 9.53054687 -14.4296875 8.3046875 C-13.13793349 4.93792547 -11.99503815 3.3289864 -9.19921875 1.09765625 C-5.90187229 -0.00145924 -3.4696313 -0.01628935 0 0 Z " fill="#0867C2" transform="translate(220.19921875,129.90234375)"/>
<path d="M0 0 C0.73863281 0.11730469 1.47726563 0.23460938 2.23828125 0.35546875 C1.75642512 5.07765885 -0.45835308 8.05601247 -3.32421875 11.66796875 C-3.74896484 12.21775391 -4.17371094 12.76753906 -4.61132812 13.33398438 C-5.65353134 14.68065145 -6.70655718 16.01893076 -7.76171875 17.35546875 C-8.09171875 16.69546875 -8.42171875 16.03546875 -8.76171875 15.35546875 C-10.74171875 16.34546875 -10.74171875 16.34546875 -12.76171875 17.35546875 C-11.27581629 13.24828194 -9.29835474 9.72163486 -6.94921875 6.04296875 C-6.28277344 4.97433594 -5.61632812 3.90570313 -4.9296875 2.8046875 C-2.76171875 0.35546875 -2.76171875 0.35546875 0 0 Z " fill="#6EE2FE" transform="translate(179.76171875,64.64453125)"/>
<path d="M0 0 C0.66 0.66 1.32 1.32 2 2 C-0.97 6.29 -3.94 10.58 -7 15 C-4.69 14.34 -2.38 13.68 0 13 C0 13.66 0 14.32 0 15 C-0.99 15.99 -1.98 16.98 -3 18 C0.96 18.33 4.92 18.66 9 19 C9 19.33 9 19.66 9 20 C1.74 20 -5.52 20 -13 20 C-11.55930318 17.11860636 -10.20914108 14.72015691 -8.3984375 12.109375 C-7.90859375 11.40039062 -7.41875 10.69140625 -6.9140625 9.9609375 C-6.40617188 9.23132813 -5.89828125 8.50171875 -5.375 7.75 C-4.859375 7.00492187 -4.34375 6.25984375 -3.8125 5.4921875 C-2.54395914 3.6598507 -1.27306421 1.82919561 0 0 Z " fill="#11B6FE" transform="translate(182,67)"/>
<path d="M0 0 C0.99 0.66 1.98 1.32 3 2 C2.24976563 2.47308594 1.49953125 2.94617188 0.7265625 3.43359375 C-11.25626884 11.17564977 -21.02839639 20.87419633 -31 31 C-31 28 -31 28 -28.4453125 25.22265625 C-27.34577521 24.16172257 -26.2386463 23.10861397 -25.125 22.0625 C-21.02455906 18.39175411 -21.02455906 18.39175411 -17.98046875 13.90625 C-16.42912505 10.89009173 -13.89918574 9.41358665 -11.1875 7.4375 C-10.14980469 6.67308594 -9.11210938 5.90867187 -8.04296875 5.12109375 C-5.41591173 3.28991023 -2.77040414 1.60284011 0 0 Z " fill="#08A2F3" transform="translate(61,23)"/>
<path d="M0 0 C0 0.33 0 0.66 0 1 C-0.62753174 1.01458252 -1.25506348 1.02916504 -1.90161133 1.04418945 C-13.84980015 1.35217173 -25.53200734 1.85752687 -37.28442383 4.15942383 C-39.17699604 4.51500054 -41.08834558 4.76796177 -43 5 C-43.66 4.34 -44.32 3.68 -45 3 C-30.31243622 -2.12463285 -15.31002218 -2.20249442 0 0 Z " fill="#66E5FE" transform="translate(142,52)"/>
<path d="M0 0 C10.27647672 1.07046632 19.30286374 5.57968845 28 11 C28.99 12.485 28.99 12.485 30 14 C24.88786771 13.42231322 20.93149981 11.7908281 16.375 9.5625 C15.72015625 9.24990234 15.0653125 8.93730469 14.390625 8.61523438 C11.24441183 7.10900074 8.11356456 5.57258718 5 4 C5 3.34 5 2.68 5 2 C3.35 1.67 1.7 1.34 0 1 C0 0.67 0 0.34 0 0 Z " fill="#14BEFF" transform="translate(151,50)"/>
<path d="M0 0 C3 1 3 1 3.99902344 2.9777832 C4.28293945 3.82687256 4.56685547 4.67596191 4.859375 5.55078125 C5.17003906 6.47697266 5.48070312 7.40316406 5.80078125 8.35742188 C6.11402344 9.33259766 6.42726562 10.30777344 6.75 11.3125 C7.07871094 12.27607422 7.40742188 13.23964844 7.74609375 14.23242188 C10.33748524 22.12140482 10.33748524 22.12140482 9 26 C5.62966439 23.75310959 5.37338135 23.00802877 4.140625 19.31640625 C3.82996094 18.38892578 3.51929688 17.46144531 3.19921875 16.50585938 C2.88597656 15.53455078 2.57273438 14.56324219 2.25 13.5625 C1.92128906 12.59505859 1.59257812 11.62761719 1.25390625 10.63085938 C-1.12893763 3.38681289 -1.12893763 3.38681289 0 0 Z " fill="#64DEFD" transform="translate(224,38)"/>
<path d="M0 0 C3.69378943 2.14911385 7.16931026 4.4867711 10.625 7 C11.56601563 7.680625 12.50703125 8.36125 13.4765625 9.0625 C16 11 16 11 17.63671875 12.64453125 C19.74533305 14.7410618 22.33031496 15.75414698 25 17 C23.3671875 18.19140625 23.3671875 18.19140625 21 19 C14.48997745 16.30713552 7.99462543 11.99462543 3 7 C3 6.01 3 5.02 3 4 C2.01 3.34 1.02 2.68 0 2 C0 1.34 0 0.68 0 0 Z " fill="#78E4FC" transform="translate(73,182)"/>
<path d="M0 0 C1.66666667 1.66666667 3.33333333 3.33333333 5 5 C5.33 4.34 5.66 3.68 6 3 C7.67583166 4.93019897 9.34057455 6.86828127 11 8.8125 C11.71542969 9.63331055 11.71542969 9.63331055 12.4453125 10.47070312 C16 14.66015625 16 14.66015625 16 18 C16.639375 18.28875 17.27875 18.5775 17.9375 18.875 C20 20 20 20 21 22 C20.01 22.33 19.02 22.66 18 23 C3.78705281 9.40800681 3.78705281 9.40800681 0 2 C0 1.34 0 0.68 0 0 Z " fill="#4FD7FD" transform="translate(57,166)"/>
<path d="M0 0 C1.63786838 7.36229945 0.69312229 13.48965383 -1.3125 20.625 C-1.65027466 21.83422119 -1.65027466 21.83422119 -1.99487305 23.06787109 C-2.59127369 25.06813341 -3.28786692 27.03795782 -4 29 C-4.66 29.33 -5.32 29.66 -6 30 C-5.7834375 29.28457031 -5.566875 28.56914062 -5.34375 27.83203125 C-3.17529276 20.07176529 -2.65011135 13.03448002 -3 5 C-6.3 4.67 -9.6 4.34 -13 4 C-8.18862507 0.3914688 -5.88419715 0 0 0 Z " fill="#3CCFFC" transform="translate(243,139)"/>
<path d="M0 0 C-0.66 0 -1.32 0 -2 0 C-2 0.66 -2 1.32 -2 2 C-5.04111749 3.60520934 -8.08299233 5.20897836 -11.125 6.8125 C-11.9809375 7.26431641 -12.836875 7.71613281 -13.71875 8.18164062 C-15.38956929 9.06203387 -17.06173744 9.93987277 -18.73535156 10.81494141 C-20.63752032 11.8103195 -22.53426181 12.81605953 -24.4296875 13.82421875 C-27 15 -27 15 -30 15 C-23.72598057 9.55911594 -8.66709751 -2.8890325 0 0 Z " fill="#A0EDFE" transform="translate(83,22)"/>
<path d="M0 0 C-1.01578125 0.52207031 -2.0315625 1.04414062 -3.078125 1.58203125 C-16.44006288 8.64756328 -26.24566314 17.38086345 -36 29 C-36.33 28.01 -36.66 27.02 -37 26 C-36.34 26 -35.68 26 -35 26 C-35 25.01 -35 24.02 -35 23 C-34.34 23 -33.68 23 -33 23 C-33 22.34 -33 21.68 -33 21 C-31.28515625 19.34375 -31.28515625 19.34375 -29.0625 17.5 C-26.07954821 15.11073001 -26.07954821 15.11073001 -24 12 C-23.34 12 -22.68 12 -22 12 C-22 11.34 -22 10.68 -22 10 C-21.01 10 -20.02 10 -19 10 C-18.67 9.01 -18.34 8.02 -18 7 C-12.77777778 4 -12.77777778 4 -10 4 C-10 3.34 -10 2.68 -10 2 C-4.10714286 -1.34821429 -4.10714286 -1.34821429 0 0 Z " fill="#6FE5FF" transform="translate(93,54)"/>
<path d="M0 0 C3.21814046 3.21814046 4.1400625 7.44697725 5.625 11.6875 C5.94984375 12.57373047 6.2746875 13.45996094 6.609375 14.37304688 C8.36939028 19.36838435 9.62813363 23.62980262 9 29 C6.6875 31.9375 6.6875 31.9375 4 34 C3.01 34 2.02 34 1 34 C1 33.34 1 32.68 1 32 C1.639375 31.814375 2.27875 31.62875 2.9375 31.4375 C5.31284719 30.10952944 5.31284719 30.10952944 5.8125 27.015625 C6.38283781 22.09859309 4.68849885 17.89162587 3.0625 13.3125 C2.48576836 11.64368673 1.91395824 9.97316253 1.34765625 8.30078125 C1.08992432 7.57028564 0.83219238 6.83979004 0.56665039 6.0871582 C0 4 0 4 0 0 Z " fill="#0864B4" transform="translate(242,65)"/>
<path d="M0 0 C0.66 0 1.32 0 2 0 C3.89319387 3.78638775 3.52395799 8.32649268 3.75 12.5 C3.81832031 13.47582031 3.88664062 14.45164063 3.95703125 15.45703125 C4.00730469 16.38902344 4.05757812 17.32101563 4.109375 18.28125 C4.16061523 19.13783203 4.21185547 19.99441406 4.26464844 20.87695312 C4.17731445 21.57755859 4.08998047 22.27816406 4 23 C3.01 23.66 2.02 24.32 1 25 C-0.10941367 19.67132017 -0.11548069 14.53718145 -0.0625 9.125 C-0.05798828 8.24585937 -0.05347656 7.36671875 -0.04882812 6.4609375 C-0.03712337 4.30726197 -0.01919069 2.15362183 0 0 Z " fill="#18BDFF" transform="translate(43,117)"/>
<path d="M0 0 C0.66 0 1.32 0 2 0 C1.49067054 5.98462117 -0.33592691 10.64351261 -3 16 C-3.48339844 17.01900391 -3.48339844 17.01900391 -3.9765625 18.05859375 C-5.55898216 21.15267448 -6.6327973 22.80805314 -9.75 24.4375 C-10.4925 24.623125 -11.235 24.80875 -12 25 C-9.34951456 18.31067961 -9.34951456 18.31067961 -7.59375 16.75 C-5.12287566 14.03688308 -4.0922486 10.69672408 -2.8125 7.3125 C-2.40354492 6.2596582 -2.40354492 6.2596582 -1.98632812 5.18554688 C-1.31714455 3.45975765 -0.65761525 1.73023041 0 0 Z " fill="#55D5FE" transform="translate(213,148)"/>
<path d="M0 0 C0.66 0.33 1.32 0.66 2 1 C0.27716797 1.90878906 0.27716797 1.90878906 -1.48046875 2.8359375 C-10.45627865 7.65184759 -18.65143523 12.65189387 -26.49609375 19.1640625 C-29 21 -29 21 -32 21 C-24.71255061 12.13360324 -24.71255061 12.13360324 -18.859375 9.6875 C-14.10530133 7.67760762 -9.65653174 5.14315414 -5.16601562 2.609375 C-3.47485773 1.68103 -1.74001175 0.8331858 0 0 Z " fill="#48DCFE" transform="translate(79,24)"/>
<path d="M0 0 C0.33 0 0.66 0 1 0 C0.9292627 0.71325439 0.85852539 1.42650879 0.78564453 2.16137695 C0.07660231 9.8542981 -0.15217707 17.464683 -0.125 25.1875 C-0.12886719 26.29802734 -0.13273438 27.40855469 -0.13671875 28.55273438 C-0.12934615 34.78627188 0.17777161 40.82023586 1 47 C0.01 47 -0.98 47 -2 47 C-2.04977792 41.75302481 -2.0858971 36.5061899 -2.10986328 31.2590332 C-2.11986411 29.47743329 -2.13346916 27.69584956 -2.15087891 25.91430664 C-2.17538957 23.33996567 -2.18654248 20.76584343 -2.1953125 18.19140625 C-2.20563507 17.40665421 -2.21595764 16.62190216 -2.22659302 15.81336975 C-2.22768621 10.3127023 -1.39149868 5.3174459 0 0 Z " fill="#099BF7" transform="translate(15,100)"/>
<path d="M0 0 C-0.90621094 0.66644531 -1.81242187 1.33289063 -2.74609375 2.01953125 C-10.6962888 7.9914626 -17.09486641 13.92340194 -23 22 C-23 18.40239524 -22.10487704 17.7784377 -20 15 C-19.29485154 12.85266073 -19.29485154 12.85266073 -19 11 C-18.01 11 -17.02 11 -16 11 C-15.938125 10.401875 -15.87625 9.80375 -15.8125 9.1875 C-14.67020358 6.11208657 -12.82171939 5.54522728 -10 4 C-9.505 3.484375 -9.01 2.96875 -8.5 2.4375 C-5.9859007 0.02815484 -3.25377973 -1.62688986 0 0 Z " fill="#77E9FB" transform="translate(85,66)"/>
<path d="M0 0 C0.66 0.33 1.32 0.66 2 1 C-0.64 4.63 -3.28 8.26 -6 12 C-5.34 12 -4.68 12 -4 12 C-4.0625 13.75 -4.0625 13.75 -5 16 C-6.73857546 17.03026694 -8.48248763 18.05561988 -10.27734375 18.984375 C-12.47019804 20.27721426 -13.68836844 21.83966566 -15 24 C-15.99 23.34 -16.98 22.68 -18 22 C-17.01 22 -16.02 22 -15 22 C-14.77183594 21.31035156 -14.54367188 20.62070312 -14.30859375 19.91015625 C-12.70531017 16.34464501 -10.48230772 13.47186206 -8.0625 10.4375 C-7.17826573 9.31129187 -6.29414832 8.18499199 -5.41015625 7.05859375 C-4.61480469 6.04925781 -3.81945312 5.03992188 -3 4 C-1.99481954 2.67056778 -0.99212422 1.33920398 0 0 Z " fill="#BDF3FD" transform="translate(214,15)"/>
<path d="M0 0 C0.66 0 1.32 0 2 0 C1.86722656 0.97195312 1.73445312 1.94390625 1.59765625 2.9453125 C0.03622015 14.94239573 -0.58515277 26.91378006 -1 39 C-1.33 39 -1.66 39 -2 39 C-3.01328593 25.4989854 -3.38819821 13.18908795 0 0 Z " fill="#0A6DC2" transform="translate(5,97)"/>
<path d="M0 0 C2.91517292 1.07401108 4.77810176 1.77810176 7 4 C7.67441131 5.6635479 8.3400321 7.33066942 9 9 C10.7002418 12.10478937 12.3707287 14.62113549 15 17 C11.26319353 16.43026269 9.50171886 14.90668143 6.875 12.25 C6.19179688 11.57453125 5.50859375 10.8990625 4.8046875 10.203125 C2.23563038 7.06687346 1.26829865 3.80489594 0 0 Z " fill="#009AEE" transform="translate(36,197)"/>
<path d="M0 0 C0 3.05095172 -0.4030384 4.22407468 -1.6796875 6.90625 C-2.03160156 7.65003906 -2.38351563 8.39382812 -2.74609375 9.16015625 C-3.11863281 9.93230469 -3.49117187 10.70445313 -3.875 11.5 C-4.42220703 12.65822266 -4.42220703 12.65822266 -4.98046875 13.83984375 C-6.51526701 17.06012955 -8.01526864 20.02290296 -10 23 C-11.12463595 14.80622378 -7.45371464 8.7330247 -3 2 C-2.01 1.34 -1.02 0.68 0 0 Z " fill="#0791E8" transform="translate(21,64)"/>
<path d="M0 0 C9.57 0 19.14 0 29 0 C29 0.33 29 0.66 29 1 C23.72 1 18.44 1 13 1 C13 1.66 13 2.32 13 3 C7.06 3.495 7.06 3.495 1 4 C0.67 2.68 0.34 1.36 0 0 Z " fill="#0090E7" transform="translate(215,132)"/>
<path d="M0 0 C0.99 0.33 1.98 0.66 3 1 C4.203125 3.58203125 4.203125 3.58203125 5.25 6.8125 C5.60578125 7.87082031 5.9615625 8.92914063 6.328125 10.01953125 C6.9784667 12.90447728 7.02681757 14.28156631 6 17 C2.3582497 14.57216647 2.07754924 13.14917211 0.75 9.0625 C0.39421875 8.00160156 0.0384375 6.94070312 -0.328125 5.84765625 C-1 3 -1 3 0 0 Z " fill="#48D4FC" transform="translate(232,62)"/>
<path d="M0 0 C1.67519697 2.51279545 2.48478635 4.1243021 3.3671875 6.9140625 C3.61138428 7.67138672 3.85558105 8.42871094 4.10717773 9.20898438 C4.36055908 10.00626953 4.61394043 10.80355469 4.875 11.625 C6.5150908 16.70125518 8.16232658 21.66426555 10.4375 26.5 C10.953125 27.655 11.46875 28.81 12 30 C11.67 30.66 11.34 31.32 11 32 C9 28 7 24 5 20 C4.195625 18.45892578 4.195625 18.45892578 3.375 16.88671875 C0.85990874 11.60645614 -0.37827917 5.86332718 0 0 Z " fill="#0C77DB" transform="translate(15,147)"/>
<path d="M0 0 C6.48527257 0.14411717 10.27202222 2.92799355 15.44921875 6.69921875 C16.29097656 7.12847656 17.13273437 7.55773438 18 8 C20.32433234 7.33723333 20.32433234 7.33723333 22 6 C22 6.99 22 7.98 22 9 C19.40164459 10.03621789 17.62687565 10.23784355 14.99365234 9.23876953 C12.68533163 8.07462199 10.43431641 6.84128319 8.1875 5.5625 C7.39923828 5.12873047 6.61097656 4.69496094 5.79882812 4.24804688 C3.8584494 3.17789861 1.92636583 2.09511056 0 1 C0 0.67 0 0.34 0 0 Z " fill="#20C2FE" transform="translate(178,26)"/>
<path d="M0 0 C2.1464753 0.11344376 4.29220592 0.24106345 6.4375 0.375 C8.22994141 0.47941406 8.22994141 0.47941406 10.05859375 0.5859375 C11.02925781 0.72257812 11.99992188 0.85921875 13 1 C13.33 1.66 13.66 2.32 14 3 C16.31845195 4.22877954 18.62828688 5.38417434 21 6.5 C27.86486486 9.72972973 27.86486486 9.72972973 29 12 C25.05737829 10.45401888 21.18834606 8.76821949 17.3125 7.0625 C11.65094716 4.59932771 5.97309994 2.56897095 0 1 C0 0.67 0 0.34 0 0 Z " fill="#5DD9F6" transform="translate(147,54)"/>
<path d="M0 0 C0.64106689 0.13712402 1.28213379 0.27424805 1.94262695 0.41552734 C9.3747216 1.89862689 16.62195886 2.41226071 24.1875 2.625 C25.33025391 2.66367188 26.47300781 2.70234375 27.65039062 2.7421875 C30.43344445 2.83534411 33.21651022 2.92115849 36 3 C36 3.33 36 3.66 36 4 C32.06387577 4.25878261 28.1264488 4.47644521 24.1875 4.6875 C23.08728516 4.76033203 21.98707031 4.83316406 20.85351562 4.90820312 C13.34156323 5.2849087 7.11681819 4.44442178 0 2 C0 1.34 0 0.68 0 0 Z " fill="#37C6FE" transform="translate(106,205)"/>
<path d="M0 0 C-3.52550719 3.33691565 -6.1991426 3.35340073 -10.953125 3.29296875 C-11.94345734 3.28660149 -11.94345734 3.28660149 -12.95379639 3.28010559 C-15.05295391 3.26337435 -17.15113496 3.22573551 -19.25 3.1875 C-20.67706942 3.17244584 -22.10415396 3.15875871 -23.53125 3.14648438 C-27.02114817 3.11349001 -30.5104787 3.06174743 -34 3 C-34 2.67 -34 2.34 -34 2 C-29.83373537 1.6615135 -25.66693347 1.33014248 -21.5 1 C-19.74042969 0.85691406 -19.74042969 0.85691406 -17.9453125 0.7109375 C-11.94254224 0.2388095 -6.02127983 -0.11923326 0 0 Z " fill="#066CCD" transform="translate(149,236)"/>
<path d="M0 0 C0.66 0.66 1.32 1.32 2 2 C-0.97 6.29 -3.94 10.58 -7 15 C-6.01 15.33 -5.02 15.66 -4 16 C-8.625 18.125 -8.625 18.125 -12 17 C-8.04 11.39 -4.08 5.78 0 0 Z " fill="#27C3FE" transform="translate(182,67)"/>
<path d="M0 0 C0.33 0.66 0.66 1.32 1 2 C0.01 3.485 0.01 3.485 -1 5 C-1.34204167 6.98528892 -1.34204167 6.98528892 -1.4375 9.0625 C-1.623125 10.361875 -1.80875 11.66125 -2 13 C-2.99 13.66 -3.98 14.32 -5 15 C-5 14.34 -5 13.68 -5 13 C-6.98 13.99 -6.98 13.99 -9 15 C-7.61219205 11.10993227 -5.7847773 8.03441292 -3.375 4.6875 C-2.74335938 3.80449219 -2.11171875 2.92148438 -1.4609375 2.01171875 C-0.97882813 1.34785156 -0.49671875 0.68398437 0 0 Z " fill="#8EE8FC" transform="translate(176,67)"/>
<path d="M0 0 C-3.0469629 1.69433918 -5.82821466 2.49467112 -9.25 3.125 C-10.58804688 3.37636719 -10.58804688 3.37636719 -11.953125 3.6328125 C-12.96632813 3.81457031 -12.96632813 3.81457031 -14 4 C-14 4.66 -14 5.32 -14 6 C-16.66666667 7.33333333 -19.33333333 8.66666667 -22 10 C-21.67 8.35 -21.34 6.7 -21 5 C-18.62854106 4.15520547 -16.25365876 3.32406717 -13.875 2.5 C-13.20984375 2.26152344 -12.5446875 2.02304687 -11.859375 1.77734375 C-7.76645945 0.37291194 -4.38868208 -0.27343814 0 0 Z " fill="#8CE6FD" transform="translate(103,15)"/>
<path d="M0 0 C1.77155654 0.11429397 3.54226229 0.24183037 5.3125 0.375 C6.79169922 0.47941406 6.79169922 0.47941406 8.30078125 0.5859375 C11 1 11 1 14 3 C13.67 3.66 13.34 4.32 13 5 C7.78020872 5.1799928 3.92737019 4.97094808 -1 3 C-0.67 2.01 -0.34 1.02 0 0 Z " fill="#A1EDFD" transform="translate(108,202)"/>
<path d="M0 0 C0.33 0.99 0.66 1.98 1 3 C-1.1875 6.1875 -1.1875 6.1875 -4 9 C-5.32 9 -6.64 9 -8 9 C-7.70100785 5.41209425 -7.23013399 4.21833224 -4.5625 1.6875 C-2 0 -2 0 0 0 Z " fill="#60DBFE" transform="translate(171,80)"/>
<path d="M0 0 C4.1999786 0.612174 7.38769924 2.0814496 11.125 4.0625 C15.3398662 6.40122735 15.3398662 6.40122735 20 7 C19.01 6.01 18.02 5.02 17 4 C18.32 4.33 19.64 4.66 21 5 C21.33 6.32 21.66 7.64 22 9 C20.35 9 18.7 9 17 9 C16.67 9.66 16.34 10.32 16 11 C15.20335937 10.11054687 15.20335937 10.11054687 14.390625 9.203125 C11.68434219 6.70909966 9.06402672 5.3349693 5.75 3.75 C4.67234375 3.22921875 3.5946875 2.7084375 2.484375 2.171875 C1.25460938 1.59179688 1.25460938 1.59179688 0 1 C0 0.67 0 0.34 0 0 Z " fill="#3BCDFE" transform="translate(160,56)"/>
<path d="M0 0 C0.99 0.33 1.98 0.66 3 1 C3.984375 3.1796875 3.984375 3.1796875 4.75 5.875 C5.01296875 6.75929688 5.2759375 7.64359375 5.546875 8.5546875 C6 11 6 11 5 14 C1.3672609 11.57817393 1.31868053 10.49554883 0.3125 6.375 C0.06113281 5.37210938 -0.19023437 4.36921875 -0.44921875 3.3359375 C-0.63097656 2.56507812 -0.81273437 1.79421875 -1 1 C-0.67 0.67 -0.34 0.34 0 0 Z " fill="#90ECFE" transform="translate(220,26)"/>
<path d="M0 0 C8.02386726 0.40799325 14.62364642 2.91036813 22 6 C18.1414077 7.28619743 15.89343715 6.55068794 11.9375 5.6875 C10.06384766 5.29111328 10.06384766 5.29111328 8.15234375 4.88671875 C5 4 5 4 3 2 C2.01 1.34 1.02 0.68 0 0 Z " fill="#9BEEFE" transform="translate(154,20)"/>
<path d="M0 0 C1.3274855 3.98245651 -0.00092171 6.44789543 -1.4375 10.1875 C-1.68048828 10.84169922 -1.92347656 11.49589844 -2.17382812 12.16992188 C-2.7743293 13.78303286 -3.38609203 15.3919435 -4 17 C-4.66 16.67 -5.32 16.34 -6 16 C-4.79391892 4.1402027 -4.79391892 4.1402027 0 0 Z " fill="#6EE1FD" transform="translate(20,81)"/>
<path d="M0 0 C6.93 2.97 6.93 2.97 14 6 C14 6.66 14 7.32 14 8 C12.41439607 7.74279326 10.83154076 7.46861201 9.25 7.1875 C8.36828125 7.03667969 7.4865625 6.88585937 6.578125 6.73046875 C3.75602548 5.93087389 2.10725969 5.03340713 0 3 C0 2.01 0 1.02 0 0 Z " fill="#0086E1" transform="translate(70,224)"/>
<path d="M0 0 C0.66 0 1.32 0 2 0 C0.66900252 4.28094864 -0.97358845 8.19040322 -3 12.1875 C-3.7734375 13.72470703 -3.7734375 13.72470703 -4.5625 15.29296875 C-6 18 -6 18 -8 21 C-9 18 -9 18 -8.14453125 15.80078125 C-7.70496094 14.97964844 -7.26539062 14.15851563 -6.8125 13.3125 C-6.35101562 12.43464844 -5.88953125 11.55679688 -5.4140625 10.65234375 C-4.94742187 9.77707031 -4.48078125 8.90179688 -4 8 C-3.22422941 6.46081186 -2.4528225 4.91940979 -1.6875 3.375 C-1.130625 2.26125 -0.57375 1.1475 0 0 Z " fill="#0B96F5" transform="translate(24,66)"/>
<path d="M0 0 C0.33 0.99 0.66 1.98 1 3 C-0.4765625 5.7421875 -0.4765625 5.7421875 -2.625 8.875 C-3.31851563 9.90367187 -4.01203125 10.93234375 -4.7265625 11.9921875 C-6.98366324 14.97838607 -9.29575304 17.42859324 -12 20 C-11.40456577 17.0365821 -10.53912747 15.04539017 -8.75 12.6171875 C-8.3065625 12.00746094 -7.863125 11.39773437 -7.40625 10.76953125 C-6.9421875 10.14433594 -6.478125 9.51914063 -6 8.875 C-2.74371459 4.5985238 -2.74371459 4.5985238 0 0 Z " fill="#064791" transform="translate(236,188)"/>
<path d="M0 0 C0.66 0 1.32 0 2 0 C2.625 2.375 2.625 2.375 3 5 C2.34 5.66 1.68 6.32 1 7 C1.3828104 11.0577902 2.15472756 15.01514422 3 19 C-0.7087874 14.78546886 -1.83302554 10.21241164 -2.25 4.6875 C-2 2 -2 2 0 0 Z " fill="#6FDFFC" transform="translate(21,151)"/>
<path d="M0 0 C4.25209792 4.12324647 8.13635705 8.51282966 12 13 C11.67 13.66 11.34 14.32 11 15 C10.5875 14.54625 10.175 14.0925 9.75 13.625 C8.10333462 11.91474751 8.10333462 11.91474751 6.03125 11.1484375 C3.54824697 9.74458579 2.93675623 8.56188645 1.75 6 C1.41484375 5.29875 1.0796875 4.5975 0.734375 3.875 C0 2 0 2 0 0 Z " fill="#0A6CCC" transform="translate(32,187)"/>
<path d="M0 0 C3 1 3 1 4.1875 3.25 C4.99938294 5.99791147 5.16260121 8.15447889 5 11 C3.125 10.5 3.125 10.5 1 9 C-0.06438352 6.31953678 -0.4982544 3.8736339 -1 1 C-0.67 0.67 -0.34 0.34 0 0 Z " fill="#73E2FC" transform="translate(224,38)"/>
<path d="M0 0 C5.47932789 1.54545146 10.11429181 4.15543212 15 7 C14.01 7.66 13.02 8.32 12 9 C6.82620318 6.75216109 3.22302975 4.83454463 0 0 Z " fill="#7BE6FF" transform="translate(176,28)"/>
<path d="M0 0 C-0.33 1.98 -0.66 3.96 -1 6 C-1.66 5.67 -2.32 5.34 -3 5 C-4.70363822 4.77377919 -6.41328701 4.59111527 -8.125 4.4375 C-9.03507813 4.35371094 -9.94515625 4.26992187 -10.8828125 4.18359375 C-11.58148438 4.12300781 -12.28015625 4.06242188 -13 4 C-8.6101582 0.53090891 -5.59847498 0 0 0 Z " fill="#4DD2FE" transform="translate(243,139)"/>
<path d="M0 0 C0.66 0.66 1.32 1.32 2 2 C1.401875 3.155 0.80375 4.31 0.1875 5.5 C-1.85842827 9.57729478 -3.46638486 13.70587761 -5 18 C-5.66 18 -6.32 18 -7 18 C-5.26375242 11.5811453 -3.14819255 5.86215164 0 0 Z " fill="#70E3FF" transform="translate(32,78)"/>
<path d="M0 0 C0.33 0.66 0.66 1.32 1 2 C0.22265625 3.9453125 0.22265625 3.9453125 -0.9375 6.125 C-1.31777344 6.84945312 -1.69804687 7.57390625 -2.08984375 8.3203125 C-2.54037109 9.15175781 -2.54037109 9.15175781 -3 10 C-3.66 10 -4.32 10 -5 10 C-5.66 11.32 -6.32 12.64 -7 14 C-6.48378854 8.70883255 -4.84242888 5.39284463 -2 1 C-1.34 0.67 -0.68 0.34 0 0 Z " fill="#8BE9FD" transform="translate(25,71)"/>
<path d="M0 0 C0.66 0.33 1.32 0.66 2 1 C-1.05419844 5.45040344 -4.0747975 9.29909479 -8 13 C-7.48118887 8.8275894 -6.28848726 6.74583179 -3.4375 3.6875 C-2.79683594 2.99011719 -2.15617187 2.29273438 -1.49609375 1.57421875 C-1.00238281 1.05472656 -0.50867187 0.53523438 0 0 Z " fill="#9AEFFE" transform="translate(51,38)"/>
<path d="M0 0 C0.66 0.33 1.32 0.66 2 1 C2 1.66 2 2.32 2 3 C0.38542921 4.43581474 -1.29219075 5.80144783 -3 7.125 C-3.928125 7.84945312 -4.85625 8.57390625 -5.8125 9.3203125 C-6.534375 9.87460937 -7.25625 10.42890625 -8 11 C-8.66 10.67 -9.32 10.34 -10 10 C-3.84965831 2.51708428 -3.84965831 2.51708428 0 0 Z " fill="#6AE7FE" transform="translate(57,35)"/>
<path d="M0 0 C1.47906892 -0.02689216 2.95827483 -0.04634621 4.4375 -0.0625 C5.26121094 -0.07410156 6.08492188 -0.08570313 6.93359375 -0.09765625 C9 0 9 0 10 1 C11.51469448 1.23192865 13.03754562 1.41215238 14.5625 1.5625 C15.38878906 1.64628906 16.21507812 1.73007813 17.06640625 1.81640625 C17.70449219 1.87699219 18.34257812 1.93757812 19 2 C19 2.33 19 2.66 19 3 C16.95863605 3.05451714 14.91684144 3.09302485 12.875 3.125 C11.16957031 3.15980469 11.16957031 3.15980469 9.4296875 3.1953125 C5.94242233 2.99672109 3.2446138 2.2524801 0 1 C0 0.67 0 0.34 0 0 Z " fill="#03509A" transform="translate(112,249)"/>
<path d="M0 0 C0 3 0 3 -2.1875 5.48046875 C-3.115625 6.37378906 -4.04375 7.26710937 -5 8.1875 C-5.928125 9.08855469 -6.85625 9.98960937 -7.8125 10.91796875 C-8.534375 11.60503906 -9.25625 12.29210937 -10 13 C-10.66 12.34 -11.32 11.68 -12 11 C-8.04 7.37 -4.08 3.74 0 0 Z M-14 12 C-13.34 12.33 -12.68 12.66 -12 13 C-12.99 13 -13.98 13 -15 13 C-14.67 12.67 -14.34 12.34 -14 12 Z " fill="#0096F0" transform="translate(192,172)"/>
<path d="M0 0 C0.66 0.33 1.32 0.66 2 1 C-2.62 5.62 -7.24 10.24 -12 15 C-12 10.09687565 -8.29800369 7.38658643 -5 4 C-3.37458956 2.61667196 -1.72614587 1.25537882 0 0 Z " fill="#0E83DE" transform="translate(41,38)"/>
<path d="M0 0 C0.66 0.33 1.32 0.66 2 1 C2.43702768 5.45768233 2.51445113 7.34650802 -0.3125 10.9375 C-3 13 -3 13 -6 13 C-6 12.34 -6 11.68 -6 11 C-5.04867187 10.64808594 -5.04867187 10.64808594 -4.078125 10.2890625 C-1.81749261 9.17709092 -1.81749261 9.17709092 -1.171875 6.8359375 C-0.96304688 5.61777344 -0.96304688 5.61777344 -0.75 4.375 C-0.60046875 3.55773437 -0.4509375 2.74046875 -0.296875 1.8984375 C-0.19890625 1.27195312 -0.1009375 0.64546875 0 0 Z " fill="#0A57A1" transform="translate(249,86)"/>
<path d="M0 0 C2 2 2 2 2 5 C0.25 6.38671875 0.25 6.38671875 -2 7.6875 C-3.11375 8.34298828 -3.11375 8.34298828 -4.25 9.01171875 C-4.8275 9.33785156 -5.405 9.66398437 -6 10 C-4.6302836 6.00499382 -2.74277578 3.19990508 0 0 Z " fill="#5FDDFF" transform="translate(216,20)"/>
<path d="M0 0 C0.66 0.66 1.32 1.32 2 2 C-1.3 4.97 -4.6 7.94 -8 11 C-8.33 10.01 -8.66 9.02 -9 8 C-7.1875 6 -7.1875 6 -5 4 C-4.01 4 -3.02 4 -2 4 C-1.34 2.68 -0.68 1.36 0 0 Z " fill="#15A3FB" transform="translate(54,33)"/>
<path d="M0 0 C3.21852831 0.63065757 5.50801069 1.78020695 8.25 3.5625 C8.95640625 4.01753906 9.6628125 4.47257813 10.390625 4.94140625 C11.18726562 5.46541016 11.18726562 5.46541016 12 6 C10 7 10 7 7.125 6.25 C4.26721019 5.10688408 2.25083137 4.07769049 0 2 C0 1.34 0 0.68 0 0 Z " fill="#60DCFE" transform="translate(78,189)"/>
<path d="M0 0 C-1.62017842 1.33918806 -3.24629343 2.6711969 -4.875 4 C-6.23238281 5.11375 -6.23238281 5.11375 -7.6171875 6.25 C-10 8 -10 8 -12 8 C-11.6875 6.0625 -11.6875 6.0625 -11 4 C-10.01 3.67 -9.02 3.34 -8 3 C-7.67 2.34 -7.34 1.68 -7 1 C-2.44155844 -1.22077922 -2.44155844 -1.22077922 0 0 Z " fill="#82E4F7" transform="translate(85,66)"/>
<path d="M0 0 C4.00301032 1.76132454 7.6028977 4.26132483 11 7 C11 7.33 11 7.66 11 8 C8.75 8.3125 8.75 8.3125 6 8 C3.8125 5.5625 3.8125 5.5625 2 3 C1.34 2.67 0.68 2.34 0 2 C0 1.34 0 0.68 0 0 Z " fill="#0866C5" transform="translate(56,213)"/>
<path d="M0 0 C0.33 0 0.66 0 1 0 C1 2.31 1 4.62 1 7 C0.34 7 -0.32 7 -1 7 C-1.12375 7.94875 -1.2475 8.8975 -1.375 9.875 C-2 13 -2 13 -4 15 C-3.43179252 9.54520815 -2.05362055 5.08940744 0 0 Z " fill="#0F7ED1" transform="translate(10,82)"/>
<path d="M0 0 C4.83628305 0.99043705 9.47618873 1.95698846 14 4 C10.59598052 5.13732426 8.22543336 4.83989957 4.75 4.0625 C3.85796875 3.86785156 2.9659375 3.67320312 2.046875 3.47265625 C1.37140625 3.31667969 0.6959375 3.16070312 0 3 C0 2.01 0 1.02 0 0 Z " fill="#0766C4" transform="translate(84,230)"/>
<path d="M0 0 C0.66 0 1.32 0 2 0 C1.65120368 3.25543229 0.97866739 4.01873107 -1.5625 6.25 C-2.366875 6.8275 -3.17125 7.405 -4 8 C-4.66 7.67 -5.32 7.34 -6 7 C-5.04882866 5.8274869 -4.08882991 4.66212985 -3.125 3.5 C-2.59132812 2.8503125 -2.05765625 2.200625 -1.5078125 1.53125 C-0.76144531 0.77328125 -0.76144531 0.77328125 0 0 Z " fill="#00A2F5" transform="translate(205,210)"/>
<path d="M0 0 C3.53444738 2.23848334 4.66056925 4.07738136 6 8 C6.65404058 9.339572 7.31873476 10.67406641 8 12 C1.29540481 7.06345733 1.29540481 7.06345733 0.0625 2.625 C0.0315625 1.325625 0.0315625 1.325625 0 0 Z " fill="#008DE9" transform="translate(39,198)"/>
<path d="M0 0 C0.99 0.66 1.98 1.32 3 2 C-0.75467691 5.05936637 -4.08113061 7 -9 7 C-6.03 4.69 -3.06 2.38 0 0 Z " fill="#ADF0FD" transform="translate(62,30)"/>
<path d="M0 0 C0.66 0.33 1.32 0.66 2 1 C0.125 6.75 0.125 6.75 -1 9 C-1.66 9 -2.32 9 -3 9 C-2.5020163 5.26512223 -2.12508244 3.18762365 0 0 Z " fill="#009CF7" transform="translate(233,171)"/>
<path d="M0 0 C0.99 0.33 1.98 0.66 3 1 C0.69 3.64 -1.62 6.28 -4 9 C-4.33 8.01 -4.66 7.02 -5 6 C-3.59554165 3.7363436 -1.8032087 1.9791315 0 0 Z " fill="#119EFA" transform="translate(36,50)"/>
<path d="M0 0 C2.72426311 2.35277269 3.8141763 4.62496331 5 8 C4.01 8 3.02 8 2 8 C-0.1519437 4.77208445 -0.20086443 3.71599191 0 0 Z " fill="#0573D5" transform="translate(27,179)"/>
<path d="M0 0 C0.68707555 2.49064888 1 4.37886292 1 7 C-0.32 7 -1.64 7 -3 7 C-2.25 2.25 -2.25 2.25 0 0 Z " fill="#77E3FC" transform="translate(166,82)"/>
<path d="M0 0 C0.598125 0.165 1.19625 0.33 1.8125 0.5 C4.98442461 1.22501134 6.90083506 1.03305498 10 0 C10 0.99 10 1.98 10 3 C6.65155086 4.05236973 5.40920111 4.20005388 2.1875 2.625 C1.465625 2.08875 0.74375 1.5525 0 1 C0 0.67 0 0.34 0 0 Z " fill="#0BAEFD" transform="translate(190,32)"/>
<path d="M0 0 C0.66 0.33 1.32 0.66 2 1 C-0.475 4.465 -0.475 4.465 -3 8 C-3.66 7.01 -4.32 6.02 -5 5 C-3.35 3.35 -1.7 1.7 0 0 Z " fill="#A7E7FD" transform="translate(44,44)"/>
<path d="M0 0 C0.99 0.66 1.98 1.32 3 2 C1.02 3.32 -0.96 4.64 -3 6 C-3.66 5.67 -4.32 5.34 -5 5 C-3.35 3.35 -1.7 1.7 0 0 Z " fill="#09A2F3" transform="translate(61,23)"/>
<path d="M0 0 C0.33 0 0.66 0 1 0 C1.33 2.97 1.66 5.94 2 9 C1.01 9 0.02 9 -1 9 C-0.67 6.03 -0.34 3.06 0 0 Z " fill="#1392EC" transform="translate(14,138)"/>
<path d="M0 0 C0 0.66 0 1.32 0 2 C-2.31 3.32 -4.62 4.64 -7 6 C-7 5.01 -7 4.02 -7 3 C-2.77777778 0 -2.77777778 0 0 0 Z " fill="#8DEFFF" transform="translate(75,36)"/>
</svg>
