<?xml version="1.0" encoding="UTF-8"?>
<svg version="1.1" xmlns="http://www.w3.org/2000/svg" width="1495" height="1495">
<path d="M0 0 C8.55195153 7.20836413 16.54127224 14.86511116 24.44259644 22.77626038 C25.77466857 24.10443161 27.10695869 25.43238427 28.43945312 26.76013184 C31.20756204 29.52084716 33.97185496 32.2853145 36.73361206 35.05238342 C40.25176232 38.57635184 43.78121361 42.08875823 47.31381035 45.59823704 C50.05932339 48.32894665 52.79780222 51.0666283 55.53436661 53.80630302 C56.83243136 55.10385896 58.13282048 56.39909442 59.43569565 57.69182014 C78.3749428 76.50140276 90.21867957 97.27368111 90.38790894 124.58485413 C90.40816584 134.96464348 89.47744192 143.8842457 86.07540894 153.70985413 C85.54947144 155.28379944 85.54947144 155.28379944 85.01290894 156.88954163 C76.90918253 178.55575457 57.2780034 194.65238913 41.3140564 210.53987122 C38.91165984 212.93188336 36.51223021 215.32686798 34.11251831 217.72157288 C29.4361515 222.38701702 24.75693019 227.04958251 20.07540894 231.70985413 C20.66549051 231.71316427 21.25557209 231.71647442 21.86353493 231.71988487 C36.28068833 231.80142088 50.69774526 231.89361084 65.11475563 231.99738121 C72.08696975 232.04731381 79.05917325 232.09375733 86.03146362 232.13172913 C92.76833326 232.16842892 99.50506632 232.21519296 106.24183273 232.26791763 C108.80362165 232.28635656 111.36543659 232.30150263 113.92726517 232.31319809 C156.61009245 232.51491687 156.61009245 232.51491687 172.95822144 248.32704163 C180.98044704 257.35574572 186.19671188 269.27159765 186.20305943 281.38895375 C186.2060754 282.53094852 186.20909137 283.67294329 186.21219873 284.84954396 C186.21042926 286.10201596 186.20865979 287.35448797 186.2068367 288.64491367 C186.2084867 289.9961038 186.21057313 291.34729345 186.2130568 292.6984823 C186.21862862 296.42688877 186.21795009 300.1552723 186.21627921 303.8836816 C186.21554896 307.93420293 186.22056908 311.98471774 186.22485423 316.0352363 C186.23244043 324.07590835 186.23462761 332.11657376 186.23518329 340.15724902 C186.23609632 349.78557749 186.24276205 359.4138998 186.24953011 369.04222562 C186.26559882 392.31532469 186.27149437 415.5884231 186.27627886 438.86152671 C186.27861392 449.86899297 186.28221647 460.87645869 186.28597424 471.88392454 C186.29881048 509.55579732 186.30952963 547.2276698 186.31297684 584.89954472 C186.31319847 587.26488426 186.31342025 589.63022381 186.31364219 591.99556335 C186.31386283 594.36665209 186.31408331 596.73774082 186.31430364 599.10882956 C186.31474619 603.86573033 186.31519331 608.62263109 186.31564331 613.37953186 C186.3157527 614.55896889 186.31586209 615.73840592 186.3159748 616.95358347 C186.31960584 655.20123086 186.33552729 693.44885931 186.35883367 731.69649945 C186.38342339 772.12402612 186.39714928 812.55154196 186.39834476 852.97907633 C186.39851621 857.41606836 186.39873164 861.85306039 186.39897919 866.29005241 C186.39903496 867.38258287 186.39909072 868.47511332 186.39914818 869.60075075 C186.40029938 887.19148737 186.41132721 904.78220456 186.42586624 922.37293461 C186.44022454 940.05053279 186.443472 957.72810603 186.43542627 975.40570844 C186.43096687 985.91006224 186.43484304 996.41433562 186.45066477 1006.91867887 C186.46040667 1013.93572409 186.45924406 1020.95271289 186.44922854 1027.96975757 C186.44383083 1031.96768858 186.44314467 1035.96546504 186.45573726 1039.96338332 C186.46711195 1043.60505727 186.46451291 1047.24645152 186.45107019 1050.88811598 C186.44751028 1052.80528987 186.45858148 1054.7224742 186.47036147 1056.63961521 C186.38815212 1070.26092277 183.1688115 1083.83374656 173.71994019 1094.18251038 C158.70298783 1108.12937112 144.78689751 1110.46204562 124.99507141 1110.33905983 C122.86484336 1110.34428189 120.73461976 1110.35169288 118.604406 1110.36108166 C112.75479924 1110.38052485 106.90560594 1110.36891675 101.05600603 1110.3521919 C94.69051638 1110.33949957 88.32508974 1110.35581146 81.95960903 1110.36840856 C70.80459528 1110.38646717 59.64970507 1110.38608811 48.49468613 1110.37317276 C36.52890718 1110.35940321 24.56319915 1110.35652541 12.59741592 1110.36685944 C11.84087444 1110.3675053 11.08433295 1110.36815116 10.30486596 1110.3688166 C7.22345169 1110.37148303 4.14203749 1110.37422658 1.06062338 1110.37706798 C-27.62300941 1110.40349866 -56.30659469 1110.40531523 -84.99023438 1110.39133072 C-85.83975104 1110.39091674 -86.68926771 1110.39050276 -87.56452731 1110.39007624 C-88.41540618 1110.38966159 -89.26628505 1110.38924695 -90.14294812 1110.38881973 C-116.0678997 1110.3762027 -141.99283164 1110.37294738 -167.91778564 1110.37893295 C-169.65399635 1110.37932035 -171.39020706 1110.37970613 -173.12641776 1110.3800903 C-180.10357056 1110.38164264 -187.08072334 1110.38323598 -194.05787611 1110.38488912 C-213.56177217 1110.38947411 -233.06566829 1110.39232715 -252.56956482 1110.39381981 C-253.90179439 1110.39392215 -253.90179439 1110.39392215 -255.26093769 1110.39402656 C-283.56033943 1110.39607288 -311.85973432 1110.39043888 -340.15913391 1110.37957191 C-341.07696724 1110.37922067 -341.99480057 1110.37886942 -342.94044703 1110.37850754 C-357.8453621 1110.37278283 -372.75027702 1110.3666855 -387.65519193 1110.36055667 C-446.76942466 1110.33627508 -505.88360077 1110.3374021 -564.99783325 1110.36170959 C-579.89523818 1110.36781557 -594.79264313 1110.37387084 -609.69004822 1110.37957191 C-611.065989 1110.38010028 -611.065989 1110.38010028 -612.46972656 1110.38063931 C-640.73969104 1110.3914206 -669.00965083 1110.39599154 -697.27961731 1110.39381981 C-698.16711774 1110.39375189 -699.05461818 1110.39368397 -699.96901256 1110.39361399 C-719.45125879 1110.39205158 -738.93350452 1110.38888335 -758.41575025 1110.38426729 C-765.38665658 1110.38262159 -772.35756292 1110.38105619 -779.32846927 1110.37951374 C-781.06264104 1110.3791268 -782.79681282 1110.37873314 -784.53098459 1110.37833276 C-810.44888296 1110.37236531 -836.3667592 1110.377446 -862.28465481 1110.39007624 C-863.13417148 1110.39049022 -863.98368815 1110.3909042 -864.85894775 1110.39133072 C-865.70689653 1110.39174413 -866.5548453 1110.39215754 -867.42848949 1110.39258348 C-896.02956045 1110.40637525 -924.63057442 1110.40130022 -953.23163724 1110.374927 C-956.30329078 1110.37216524 -959.37494439 1110.36948172 -962.44659805 1110.36685944 C-963.20043139 1110.3662084 -963.95426472 1110.36555737 -964.73094148 1110.36488661 C-976.66415599 1110.35502718 -988.59729959 1110.36188812 -1000.53050769 1110.37570447 C-1012.26617893 1110.38893559 -1024.00170657 1110.38385855 -1035.73736561 1110.36063403 C-1042.01428167 1110.34871881 -1048.2909291 1110.34471735 -1054.56783688 1110.36266394 C-1060.27969765 1110.3788287 -1065.99105177 1110.37193513 -1071.70287569 1110.34676064 C-1073.75475106 1110.34173065 -1075.8066685 1110.34504025 -1077.85851042 1110.35779033 C-1094.9050179 1110.45618837 -1107.66284238 1108.23862076 -1120.54959106 1096.27235413 C-1121.33334106 1095.42672913 -1122.11709106 1094.58110413 -1122.92459106 1093.70985413 C-1123.64775513 1092.97702209 -1123.64775513 1092.97702209 -1124.38552856 1092.22938538 C-1134.3967823 1081.53208126 -1136.22819314 1068.43613264 -1136.18185997 1054.39282703 C-1136.18455563 1053.03673624 -1136.18812475 1051.68064696 -1136.19248444 1050.32456049 C-1136.20192913 1046.59650603 -1136.19894612 1042.86854946 -1136.1939289 1039.14049023 C-1136.19066029 1035.08514093 -1136.19894646 1031.02981248 -1136.20574725 1026.97446984 C-1136.21605409 1019.86625349 -1136.21888985 1012.75806439 -1136.21683502 1005.64984131 C-1136.21378682 995.0794774 -1136.22210502 984.50914367 -1136.23258427 973.93878563 C-1136.25193544 953.96186318 -1136.25755291 933.98495098 -1136.25869839 914.00802026 C-1136.25961716 898.58164091 -1136.26373219 883.1552656 -1136.27009964 867.72888756 C-1136.2718947 863.28984505 -1136.27367433 858.85080254 -1136.2754494 854.41176003 C-1136.27589149 853.30822743 -1136.27633359 852.20469482 -1136.27678908 851.06772183 C-1136.28909912 820.02329165 -1136.29699004 788.97886286 -1136.29610252 757.93443012 C-1136.29607137 756.76376076 -1136.29604021 755.59309141 -1136.29600811 754.38694722 C-1136.29584189 748.45339032 -1136.29564381 742.51983341 -1136.29543869 736.58627651 C-1136.2953988 735.40783258 -1136.29535891 734.22938865 -1136.29531781 733.01523429 C-1136.29523694 730.63213289 -1136.29515334 728.24903148 -1136.29506703 725.86593008 C-1136.29384147 688.78727775 -1136.30885493 651.708662 -1136.33621216 614.63002014 C-1136.36692906 572.98059022 -1136.38414489 531.33118433 -1136.38228571 489.68174237 C-1136.38213645 485.24112809 -1136.38203904 480.80051381 -1136.38197708 476.35989952 C-1136.38195377 475.26649284 -1136.38193046 474.17308616 -1136.38190645 473.04654595 C-1136.38184489 455.44593848 -1136.39462009 437.84536275 -1136.41184161 420.24476472 C-1136.42879013 402.55742614 -1136.43077805 384.87013401 -1136.41762297 367.18279181 C-1136.41022861 356.67416766 -1136.41390631 346.1656846 -1136.43350765 335.65707538 C-1136.44549759 328.6360114 -1136.44292753 321.61504972 -1136.42856665 314.59399045 C-1136.42079535 310.59460503 -1136.41927565 306.59549286 -1136.43548135 302.59612659 C-1136.45011823 298.95196012 -1136.44607481 295.30829252 -1136.42763362 291.66414767 C-1136.42261027 289.74811244 -1136.43705396 287.83205564 -1136.45247918 285.91607592 C-1136.33010604 270.94490982 -1131.42399067 257.81896477 -1121.21755981 246.84657288 C-1108.74147504 235.2206472 -1094.32333628 232.31792295 -1077.84561273 232.85522896 C-1076.71281941 232.8988429 -1075.58002609 232.94245685 -1074.41290569 232.98739243 C-1073.18141524 233.02919008 -1071.94992478 233.07098774 -1070.68111643 233.114052 C-1067.98317983 233.20624843 -1065.28544147 233.30079649 -1062.58773365 233.39915439 C-1058.1634182 233.56003136 -1053.7387674 233.70988725 -1049.31400472 233.8578856 C-1047.75058343 233.910288 -1046.18716269 233.96270674 -1044.62374248 234.01514114 C-1043.83378479 234.041631 -1043.04382711 234.06812086 -1042.22993131 234.09541345 C-1039.76926367 234.1782607 -1037.30862544 234.26193274 -1034.84799529 234.34588574 C-982.59923783 236.12831642 -930.34860941 237.67107175 -878.07798767 238.63960266 C-877.04340933 238.65883788 -876.00883099 238.67807311 -874.94290179 238.69789122 C-853.53893964 239.09492472 -832.13458179 239.46527569 -810.72957126 239.80110126 C-798.60216387 239.99137838 -786.47488228 240.18865318 -774.34768677 240.39198303 C-772.70169895 240.41938975 -772.70169895 240.41938975 -771.02245884 240.44735013 C-739.04881992 240.98285245 -707.10364637 241.87116894 -675.14845957 243.07685059 C-623.12556288 245.03969261 -571.12544763 246.39811544 -519.06229071 246.44151673 C-516.99806366 246.44332593 -514.93383717 246.44594503 -512.86961218 246.44937149 C-375.88457927 247.6028307 -375.88457927 247.6028307 -261.36561548 180.29356012 C-235.39052342 154.30497976 -212.73445184 124.16128011 -194.86711663 92.05735755 C-194.50259069 91.41929796 -194.13806474 90.78123837 -193.76249256 90.12384364 C-192.79720684 88.4290147 -191.85727283 86.71981551 -190.91950399 85.00960755 C-188.92459106 82.70985413 -188.92459106 82.70985413 -185.8675366 82.22596234 C-181.79063183 82.89630459 -179.7448861 85.07781433 -176.97991943 87.93972778 C-176.12927573 88.78374001 -176.12927573 88.78374001 -175.26144731 89.64480299 C-173.36328385 91.53542065 -171.48738095 93.44668221 -169.61062622 95.35853577 C-168.25457758 96.71791386 -166.89719815 98.07596553 -165.53858948 99.43278503 C-161.84944953 103.12447809 -158.17905541 106.83432119 -154.51153612 110.54747701 C-150.66794311 114.43230262 -146.80695024 118.29975277 -142.94763184 122.16894531 C-135.63209885 129.50831182 -128.33156295 136.86240453 -121.03663099 144.22224182 C-110.3470211 155.00564873 -99.63531106 165.76706601 -88.92337608 176.52828884 C-87.33990145 178.11911253 -85.75643391 179.70994327 -84.17297363 181.30078125 C-83.3994154 182.07788922 -82.62585717 182.8549972 -81.82885778 183.65565389 C-77.24235449 188.26420561 -72.66019211 192.87701922 -68.08191323 197.49374115 C-65.22582864 200.37330753 -62.36780135 203.25094099 -59.50949287 206.12829971 C-58.18960348 207.45800434 -56.87062958 208.78861847 -55.55266762 210.12023354 C-46.78146911 219.01700014 -46.78146911 219.01700014 -37.49039268 227.36215878 C-35.92459106 228.70985413 -35.92459106 228.70985413 -34.67316401 230.27577454 C-32.21455259 232.2921871 -30.52875335 232.05277734 -27.38162231 232.00282288 C-25.77190552 231.98832092 -25.77190552 231.98832092 -24.12966919 231.973526 C-23.01011841 231.94838928 -21.89056763 231.92325256 -20.73709106 231.89735413 C-19.60593872 231.88381897 -18.47478638 231.87028381 -17.30935669 231.8563385 C-14.51395789 231.82095371 -11.71951214 231.77158361 -8.92459106 231.70985413 C-10.1783307 230.46579331 -10.1783307 230.46579331 -11.45739841 229.19659996 C-31.28740741 209.51812212 -51.09937061 189.82162109 -70.88918418 170.10271832 C-73.32378657 167.67687111 -75.75854117 165.25117674 -78.19338989 162.82557678 C-78.6781318 162.34267105 -79.1628737 161.85976532 -79.66230475 161.36222608 C-87.51656575 153.53844303 -95.38309928 145.72711176 -103.25421996 137.92029481 C-111.32753829 129.91238531 -119.38728463 121.89103687 -127.43534082 113.85772383 C-131.95750057 109.34470769 -136.48566559 104.8381037 -141.02858162 100.34597397 C-145.30110171 96.1208342 -149.55705186 91.87970042 -153.8006649 87.62553406 C-155.36397085 86.06415979 -156.93332127 84.50881149 -158.5089798 82.95990372 C-160.65401535 80.84952486 -162.77655578 78.71884603 -164.8946991 76.58152771 C-165.52794556 75.96867113 -166.16119203 75.35581456 -166.81362778 74.72438657 C-170.92119042 70.51501608 -170.92119042 70.51501608 -170.93833351 66.45608997 C-169.613141 62.86613357 -167.48926725 60.58902103 -164.80081177 57.97084045 C-164.26720032 57.43167999 -163.73358887 56.89251953 -163.18380737 56.33702087 C-161.41804855 54.55946619 -159.63487973 52.80060213 -157.85037231 51.04188538 C-156.60650951 49.79973599 -155.36353769 48.55669383 -154.12141418 47.31280518 C-151.51039722 44.70344227 -148.89107531 42.1028132 -146.26516724 39.50843811 C-142.93588535 36.21846178 -139.62415021 32.91150973 -136.3182497 29.59805775 C-133.74748589 27.02418645 -131.16908149 24.45807868 -128.58830833 21.89424706 C-127.36709965 20.67997016 -126.14773239 19.46383788 -124.9304142 18.24566078 C-118.71226773 12.03416499 -112.40132007 6.07964715 -105.50344849 0.62269592 C-104.94813855 0.18223592 -104.39282862 -0.25822409 -103.82069111 -0.71203136 C-94.3604659 -8.00599021 -83.44801706 -12.36892069 -71.92459106 -15.29014587 C-71.0467395 -15.51573181 -70.16888794 -15.74131775 -69.26443481 -15.97373962 C-45.4534408 -21.18127225 -19.10147169 -14.95770028 0 0 Z M-1085.92459106 283.70985413 C-1085.92459106 539.78985413 -1085.92459106 795.86985413 -1085.92459106 1059.70985413 C-682.66459106 1059.70985413 -279.40459106 1059.70985413 136.07540894 1059.70985413 C136.07540894 803.62985413 136.07540894 547.54985413 136.07540894 283.70985413 C-25.36400732 265.62663757 -25.36400732 265.62663757 -97.48709106 337.77235413 C-119.31316292 363.47014574 -119.31316292 363.47014574 -139.70998478 390.14622593 C-141.5019263 392.2205774 -143.16948422 393.8363869 -145.24023628 395.59615517 C-152.13875066 401.50763242 -158.42591447 408.08088246 -164.83714294 414.50888062 C-166.35962056 416.03163843 -167.88232007 417.55417441 -169.40522164 419.07650822 C-173.57937954 423.25037114 -177.75041974 427.42733747 -181.92095912 431.6048156 C-186.42283826 436.11307677 -190.92762783 440.61842806 -195.43208313 445.12411499 C-203.23323703 452.92815372 -211.03262289 460.73395568 -218.83083534 468.54093361 C-230.10846123 479.83117516 -241.38937786 491.11812437 -252.6711705 502.40420213 C-257.92926623 507.66430384 -263.18720119 512.92456627 -268.44509411 518.18487072 C-268.9713762 518.71139383 -269.49765829 519.23791693 -270.03988833 519.78039528 C-282.55768841 532.30400275 -295.07391288 544.82918453 -307.58987427 557.35462952 C-308.13732101 557.90248991 -308.68476775 558.45035029 -309.24880379 559.01481251 C-317.57829312 567.35059952 -325.90770037 575.68646855 -334.23709106 584.02235413 C-343.12840053 592.92059541 -352.01974239 601.81880431 -360.91116333 610.7169342 C-361.45907451 611.26525997 -362.00698568 611.81358574 -362.57150023 612.37852743 C-375.07624911 624.8927213 -387.5814462 637.40646682 -400.0880537 649.91880322 C-400.61335686 650.44434737 -401.13866002 650.96989152 -401.67988146 651.51136125 C-406.92331852 656.75718334 -412.16683412 662.00292691 -417.41046711 667.24855315 C-428.68219007 678.52459568 -439.95252806 689.80201754 -451.22008708 701.08222097 C-459.42855115 709.29985509 -467.63875145 717.51575047 -475.85067568 725.72992692 C-480.30190051 730.18250109 -484.7522776 734.63591455 -489.20048904 739.09149933 C-493.26727783 743.16500403 -497.33633039 747.2362327 -501.4072422 751.30561688 C-502.88437289 752.78302046 -504.36064403 754.261284 -505.83599619 755.74046365 C-507.83191083 757.74131831 -509.83084417 759.73910649 -511.83060169 761.73611927 C-512.70094864 762.61083551 -512.70094864 762.61083551 -513.58887836 763.50322279 C-519.79940919 769.69051831 -519.79940919 769.69051831 -523.16639996 769.74837875 C-527.36483821 768.16756678 -529.9379188 765.2504345 -533.0556488 762.09346008 C-533.76229193 761.39376248 -534.46893506 760.69406488 -535.19699162 759.97316432 C-537.56804434 757.6204431 -539.9245101 755.25363363 -542.28128052 752.88661194 C-543.97575599 751.19919169 -545.67107394 749.51261707 -547.36717224 747.826828 C-551.49658842 743.71761494 -555.61647815 739.59903302 -559.73173342 735.47564128 C-563.07589582 732.12518144 -566.42375285 728.77845653 -569.77428246 725.43436432 C-570.25096714 724.95858129 -570.72765182 724.48279826 -571.2187815 723.99259757 C-572.18713216 723.02609808 -573.15548851 722.05960429 -574.12385049 721.09311613 C-583.20513327 712.02841463 -592.27372391 702.95109873 -601.33829292 693.86968812 C-609.63534963 685.55792961 -617.94698654 677.26093212 -626.26579878 668.97095242 C-634.80485238 660.46127507 -643.33467385 651.94244911 -651.85427445 643.41329455 C-652.81749509 642.44905134 -653.78072972 641.4848221 -654.7439785 640.52060699 C-655.21793053 640.04617858 -655.69188256 639.57175016 -656.18019677 639.08294512 C-659.52326791 635.73770776 -662.87229126 632.3985015 -666.22371864 629.06163788 C-670.73205563 624.57159578 -675.2281657 620.06966416 -679.71500969 615.55814743 C-681.3667378 613.90139224 -683.02277098 612.24891668 -684.68331146 610.60099411 C-686.9434121 608.35671769 -689.1876639 606.09771799 -691.42845154 603.83418274 C-692.09428405 603.18018596 -692.76011655 602.52618918 -693.44612581 601.85237432 C-694.04218635 601.24389173 -694.6382469 600.63540915 -695.25236988 600.0084877 C-695.77215469 599.4884332 -696.2919395 598.9683787 -696.82747537 598.43256497 C-698.36402082 596.01985361 -698.32771004 594.51916378 -697.92459106 591.70985413 C-696.63856649 589.80168641 -696.63856649 589.80168641 -694.7922287 587.9594593 C-694.09351638 587.25017505 -693.39480407 586.54089079 -692.67491865 585.81011307 C-691.89440405 585.04348056 -691.11388946 584.27684805 -690.3097229 583.48698425 C-689.08087332 582.25066814 -689.08087332 582.25066814 -687.82719851 580.98937595 C-685.54846154 578.70187722 -683.25882809 576.42597239 -680.96417952 574.15445542 C-678.49281243 571.70259819 -676.03587685 569.23635469 -673.57714844 566.77183533 C-668.75595654 561.94381681 -663.92161409 557.12917429 -659.08288699 552.31873716 C-653.4462198 546.71389739 -647.8232751 541.09537506 -642.20103127 535.47607337 C-632.16408785 525.44519931 -622.11566008 515.42591044 -612.06033325 505.41346741 C-602.31039293 495.7050724 -592.56706264 485.99011459 -582.83181763 476.26698303 C-582.23296775 475.66888137 -581.63411786 475.0707797 -581.01712102 474.45455374 C-578.6097741 472.05018139 -576.20244581 469.64579039 -573.79514894 467.24136794 C-563.39147349 456.85045127 -552.98231883 446.46502428 -542.57245278 436.08031005 C-540.89001262 434.40184604 -539.20770041 432.72325388 -537.52541924 431.04463053 C-531.62834289 425.16061227 -525.72959876 419.27828036 -519.82630426 413.40049995 C-517.38571829 410.9704517 -514.94584357 408.53970238 -512.50806808 406.10683441 C-509.85945163 403.46446859 -507.20779961 400.82518678 -504.55532837 398.18669128 C-503.79265954 397.42452022 -503.02999072 396.66234915 -502.24421072 395.87708199 C-498.18295798 391.8444698 -494.02645136 387.99077938 -489.69296598 384.25256026 C-487.45675411 382.30171956 -485.34074689 380.25188744 -483.24209595 378.15434265 C-481.98871933 376.90519577 -481.98871933 376.90519577 -480.71002197 375.6308136 C-479.37860672 374.296362 -479.37860672 374.296362 -478.02029419 372.93495178 C-477.05381499 371.96983071 -476.08712387 371.00492182 -475.12023926 370.04020691 C-472.51929528 367.44378411 -469.92147851 364.84425416 -467.3243885 362.24397707 C-464.60062621 359.51766863 -461.87440872 356.793817 -459.14859009 354.06956482 C-454.58091467 349.50370237 -450.01533824 344.93574905 -445.45095825 340.36659241 C-440.16880593 335.07897629 -434.88303003 329.795003 -429.59540224 324.5128628 C-425.04991578 319.9719052 -420.50636933 315.42901338 -415.96445799 310.88447988 C-413.25376349 308.17222428 -410.54239273 305.460654 -407.82926941 302.75082779 C-405.28578301 300.21021756 -402.74473141 297.66719758 -400.20558548 295.1222496 C-398.82370426 293.73840445 -397.43934463 292.35703561 -396.05493164 290.97572327 C-394.83539291 289.7519548 -394.83539291 289.7519548 -393.59121704 288.50346375 C-392.52277431 287.43445548 -392.52277431 287.43445548 -391.43274689 286.34385109 C-389.81155041 284.95798443 -389.81155041 284.95798443 -389.92459106 283.70985413 C-619.60459106 283.70985413 -849.28459106 283.70985413 -1085.92459106 283.70985413 Z " fill="#DFDFDF" transform="translate(1224.9245910644531,177.29014587402344)"/>
<path d="M0 0 C3.98333278 2.10531505 6.78439941 5.03973246 9.94051647 8.22153473 C10.6471596 8.92208676 11.35380273 9.62263878 12.08185929 10.34441966 C14.45048608 12.69638229 16.80823892 15.05895017 19.16614819 17.42165375 C20.86083839 19.10900579 22.556151 20.79573292 24.25203991 22.48188019 C28.37956994 26.58947385 32.49991973 30.70416459 36.61660109 34.82262925 C39.96181378 38.16914959 43.30957146 41.51310298 46.65915012 44.85525322 C47.62395736 45.81796128 48.58876382 46.78067014 49.5535695 47.74337977 C50.03376855 48.2225353 50.51396761 48.70169083 51.00871816 49.19536623 C60.08781523 58.25556544 69.15692077 67.32571574 78.22316059 76.39877798 C86.52151114 84.70270791 94.83299778 92.99334761 103.15066645 101.27792338 C111.68963981 109.78318612 120.21932005 118.29766808 128.73914212 126.82211608 C133.52321319 131.60843395 138.31097466 136.39091884 143.10858631 141.16366768 C147.61681424 145.64971665 152.11293332 150.14755223 156.59987736 154.65488625 C158.25160262 156.31003682 159.90763577 157.96090084 161.56817913 159.60720444 C163.82826734 161.84923844 166.07251826 164.10600035 168.31331921 166.36728668 C168.97915171 167.02060134 169.64498422 167.673916 170.33099347 168.34702808 C174.68398039 172.78622853 174.68398039 172.78622853 175.31945038 176.32449627 C174.80945873 178.48488617 174.80945873 178.48488617 173.14573193 180.16872406 C170.61459774 181.594663 168.17646225 182.59565218 165.42908764 183.54347992 C163.79587315 184.11294594 163.79587315 184.11294594 162.12966442 184.69391632 C160.94376217 185.09931137 159.75785992 185.50470642 158.53602123 185.92238617 C156.62523413 186.58555001 154.71444751 187.24871526 152.80368042 187.91193676 C150.76072066 188.61950644 148.71657282 189.32353771 146.67203808 190.02654266 C142.39166646 191.49846967 138.11477702 192.98032692 133.83851147 194.46413422 C129.44856192 195.98699715 125.05848429 197.50947703 120.66729259 199.02875519 C107.0528433 203.73964976 93.45942653 208.50920681 79.87195873 213.29738617 C77.64337378 214.08200698 75.41477679 214.86659362 73.18616772 215.65114594 C57.8122409 221.06527978 42.44785541 226.50618305 27.0861311 231.95482635 C7.71694209 238.82389831 -11.6718558 245.63680497 -31.07164478 252.4189682 C-41.23716897 255.97505822 -51.39835763 259.53709837 -61.51476002 263.23097992 C-62.98861585 263.76635707 -64.46249174 264.30167901 -65.93639088 264.83693695 C-68.50660543 265.7709824 -71.0692109 266.72023587 -73.63023853 267.67971039 C-74.71748219 268.07561371 -75.80472584 268.47151703 -76.92491627 268.87941742 C-77.83467213 269.21819916 -78.74442799 269.5569809 -79.6817522 269.90602875 C-82.53104546 270.56345131 -84.3958212 270.25774004 -87.19054127 269.48488617 C-88.17117801 264.43741602 -88.13089855 261.04471555 -86.53844166 256.16555023 C-86.14890812 254.94719986 -85.75937458 253.72884949 -85.35803699 252.47357941 C-84.91832609 251.14914509 -84.47837231 249.82479139 -84.03819752 248.50051117 C-83.58637695 247.10485002 -83.13592256 245.70874596 -82.68674183 244.31223297 C-81.72639246 241.33558954 -80.75714157 238.36205827 -79.78062916 235.39067841 C-78.2338052 230.68327785 -76.70739067 225.96942118 -75.18468189 221.25417328 C-73.64216653 216.48030578 -72.09873326 211.70675473 -70.54835987 206.93543243 C-66.34514004 193.99869581 -62.24174706 181.03254216 -58.19054127 168.04738617 C-57.23869421 165.00392962 -56.28615481 161.9606903 -55.33359241 158.91745758 C-54.67775689 156.8220529 -54.02212939 154.72658311 -53.36670399 152.63105011 C-50.61443593 143.83273747 -47.85293362 135.0373449 -45.08897877 126.24269867 C-44.86613335 125.53349274 -44.64328793 124.8242868 -44.41368961 124.09358978 C-42.10540979 116.7475136 -39.79594114 109.40181682 -37.48140621 102.05770874 C-36.31091196 98.34352637 -35.14117005 94.62910737 -33.97179127 90.91457367 C-33.73786545 90.1715802 -33.50393963 89.42858673 -33.26292515 88.66307831 C-30.00272835 78.30321459 -26.77718592 67.93308365 -23.57686329 57.55457306 C-21.81151312 51.82992363 -20.03722345 46.10805646 -18.26092434 40.386796 C-16.80832884 35.70513027 -15.36796092 31.01992597 -13.93637943 26.33179474 C-13.0499319 23.4392802 -12.15195679 20.55044259 -11.25070667 17.66250992 C-10.83491388 16.32170922 -10.42398115 14.97939039 -10.01825428 13.63550949 C-9.46339197 11.79986755 -8.88969449 9.96995032 -8.31505299 8.14040375 C-7.9994643 7.11465744 -7.68387562 6.08891113 -7.35872364 5.0320816 C-5.7392264 1.50080423 -4.14072918 -0.97370769 0 0 Z " fill="#DFDFDF" transform="translate(514.190541267395,784.5151138305664)"/>
</svg>
