<?xml version="1.0" encoding="UTF-8"?>
<svg version="1.1" xmlns="http://www.w3.org/2000/svg" width="2000" height="2000">
<path d="M0 0 C1.27364878 -0.00320648 2.54729755 -0.00641296 3.85954174 -0.0097166 C7.39905042 -0.01833831 10.93845308 -0.01450946 14.47796339 -0.00866088 C18.3271083 -0.00449255 22.17623379 -0.0118914 26.025374 -0.01781338 C32.77294905 -0.02658254 39.52049375 -0.02788496 46.26807308 -0.02431011 C56.30191427 -0.01900821 66.33572601 -0.02509323 76.369564 -0.03339304 C95.33110979 -0.04864611 114.29264224 -0.05033679 133.25419288 -0.04787002 C147.89402557 -0.04603853 162.53385388 -0.04779392 177.17368603 -0.05209446 C179.27574469 -0.05269685 181.37780336 -0.05329805 183.47986202 -0.05389806 C186.64731596 -0.0548053 189.8147699 -0.05571396 192.98222384 -0.05663041 C222.43731986 -0.06506188 251.89241423 -0.06939427 281.34751129 -0.06522369 C282.45827549 -0.06506732 283.56903968 -0.06491094 284.7134634 -0.06474983 C290.34347243 -0.06394402 295.97348145 -0.06309825 301.60349046 -0.06223653 C303.28074806 -0.06197989 303.28074806 -0.06197989 304.99188965 -0.06171808 C307.25310473 -0.06137142 309.5143198 -0.06102289 311.77553487 -0.06067249 C346.96755176 -0.05531414 382.15954361 -0.06324815 417.35155582 -0.08170605 C456.87457429 -0.10241116 496.39757723 -0.11315166 535.92060143 -0.10913056 C540.13281127 -0.1087352 544.34502111 -0.10837366 548.55723095 -0.10803318 C549.59441207 -0.10794245 550.6315932 -0.10785172 551.70020405 -0.10775824 C567.37292412 -0.10659116 583.04562853 -0.1132489 598.71834469 -0.1238451 C616.53706145 -0.13587978 634.35574368 -0.13747603 652.17446094 -0.12505493 C662.15088059 -0.11841222 672.12721777 -0.12008985 682.10363088 -0.13364345 C688.76359742 -0.1418636 695.42350193 -0.13922221 702.08346339 -0.12766818 C705.88069204 -0.12138755 709.67775929 -0.11987301 713.47497886 -0.13153151 C717.56307982 -0.1439679 721.65079262 -0.13327359 725.7388916 -0.12025452 C727.51166118 -0.13121854 727.51166118 -0.13121854 729.32024428 -0.14240405 C738.85400205 -0.07910925 745.49081293 1.60671835 752.61986637 8.31697559 C753.60342106 9.19482716 754.58697575 10.07267872 755.60033512 10.97713184 C764.98702078 21.18045211 764.1202404 32.33079321 763.99999332 45.40144825 C763.99858159 47.55067887 763.99937728 49.6999119 764.00220585 51.84914112 C764.0036365 57.66262624 763.97430298 63.47559229 763.93933606 69.28895712 C763.90801435 75.37211199 763.90513722 81.45527963 763.89920902 87.53850269 C763.88368772 99.04847341 763.84268221 110.5582058 763.79246157 122.06807172 C763.73651497 135.17563845 763.70906819 148.28321673 763.6839844 161.39087319 C763.63176503 188.3455393 763.54385586 215.29999407 763.43236637 242.25447559 C764.42297251 242.25078842 765.41357864 242.24710125 766.43420315 242.24330235 C790.5553067 242.15444215 814.67638898 242.08874316 838.79762173 242.04722691 C850.46255027 242.02661551 862.12737058 241.99852198 873.79222965 241.95271778 C883.96118322 241.91280662 894.1300584 241.88703244 904.29908812 241.87812161 C909.68184308 241.87291415 915.06437379 241.86070413 920.44705677 241.83155537 C925.5179242 241.80431877 930.58847589 241.79604729 935.65940952 241.80204487 C937.51611773 241.80094832 939.37283696 241.79304376 941.2294817 241.77765369 C953.57304983 241.68039148 963.57800835 242.39927029 973.61205387 250.42244434 C980.49815569 257.35287729 983.63154611 266.08794162 983.70209175 275.69145849 C983.69798112 276.49644883 983.69387048 277.30143916 983.68963528 278.13082314 C983.69489439 279.44271322 983.69489439 279.44271322 983.70025975 280.78110614 C983.70956994 283.71425344 983.70465137 286.64720202 983.69979191 289.58035755 C983.70352835 291.70354584 983.70812984 293.82673276 983.71352255 295.9499175 C983.72576858 301.78662217 983.72549019 307.62326959 983.7231338 313.45998418 C983.72272605 319.75391709 983.73376082 326.04783154 983.74324894 332.34175587 C983.75986843 344.67334169 983.76538481 357.00490451 983.7664737 369.33650009 C983.76739287 379.35865766 983.77151002 389.38080903 983.77787495 399.40296459 C983.77967004 402.28809759 983.78144967 405.1732306 983.7832247 408.05836362 C983.78388785 409.13424865 983.78388785 409.13424865 983.78456439 410.23186873 C983.79687217 430.40599827 983.80476557 450.58012565 983.80387783 470.75425911 C983.80384667 471.51481785 983.80381552 472.27537658 983.80378341 473.05898256 C983.8036172 476.91379002 983.80341912 480.76859749 983.803214 484.62340496 C983.80315416 485.77176832 983.80315416 485.77176832 983.80309312 486.94333094 C983.80301224 488.49151103 983.80292865 490.03969111 983.80284234 491.58787119 C983.80161677 515.67622635 983.81663136 539.76452521 983.84398746 563.85286427 C983.87471081 590.91735269 983.89191983 617.98180412 983.89006102 645.04631108 C983.88991176 647.93238715 983.88981435 650.81846322 983.88975239 653.7045393 C983.88971742 654.77047345 983.88971742 654.77047345 983.88968176 655.85794162 C983.88962022 667.29162079 983.9023896 678.72525106 983.91961692 690.15891569 C983.93657333 701.65047144 983.93820411 713.14193055 983.92539828 724.63349668 C983.91885854 730.8584929 983.91878798 737.08331196 983.93610477 743.30829144 C983.95179556 749.00732987 983.94901245 754.70605009 983.93153651 760.40508058 C983.92845785 762.46627525 983.93213146 764.52749345 983.94325666 766.5886604 C984.01314532 780.45584778 983.36163124 791.61760794 973.43236637 802.25447559 C964.91543916 810.06021336 957.04790453 810.5504698 945.87031937 810.50895119 C944.59726978 810.51215767 943.3242202 810.51536414 942.01259336 810.51866779 C938.47475145 810.52728948 934.93701562 810.52346065 931.39917207 810.51761206 C927.55180439 810.51344371 923.70445613 810.52084261 919.85709316 810.52676457 C913.1125788 810.53553375 906.36809481 810.53683614 899.62357616 810.5332613 C889.59417919 810.52795936 879.56481166 810.53404448 869.53541789 810.54234423 C850.58163019 810.55759766 831.62785584 810.55928791 812.67406329 810.5568212 C798.03901513 810.55498963 783.40397136 810.5567453 768.76892376 810.56104565 C766.66744837 810.56164804 764.56597299 810.56224924 762.4644976 810.56284925 C759.29789604 810.56375649 756.13129448 810.56466515 752.96469292 810.5655816 C723.51674368 810.57401324 694.06879608 810.57834538 664.62084579 810.57417488 C662.95507516 810.57394032 662.95507516 810.57394032 661.25565259 810.57370101 C655.62693948 810.57289521 649.99822639 810.57204944 644.3695133 810.57118771 C643.25160396 810.57101662 642.13369462 810.57084554 640.98190924 810.57066926 C638.72122404 810.57032261 636.46053883 810.56997408 634.19985363 810.56962368 C599.02124445 810.56426611 563.84266033 810.57219704 528.66405582 810.59065723 C489.15347005 810.61136631 449.64289981 810.62210202 410.1323083 810.61808175 C405.9206243 810.61768639 401.70894029 810.61732485 397.49725628 810.61698437 C395.94168686 810.61684827 395.94168686 810.61684827 394.3546918 810.61670942 C378.68907073 810.61554271 363.02346532 810.62219738 347.35784817 810.63279629 C329.54431229 810.64483601 311.73081094 810.64642144 293.91727456 810.63400612 C283.94571899 810.62736766 273.97424595 810.62903129 264.00269695 810.64259463 C257.34341994 810.65082318 250.68420492 810.64816237 244.02493298 810.63661937 C240.22973857 810.6303471 236.4347055 810.62880286 232.63952025 810.6404827 C228.55019632 810.65295203 224.46125895 810.64220515 220.3719368 810.6292057 C219.19534444 810.63651505 218.01875208 810.6438244 216.80650541 810.65135524 C207.75168048 810.59148635 199.11498158 809.64829255 192.18236637 803.31697559 C191.41408512 802.64795216 190.64580387 801.97892872 189.85424137 801.28963184 C180.54658496 789.62503664 180.59233481 779.21907955 180.75121403 764.88045216 C180.75290878 762.73092668 180.75195196 760.58139774 180.748559 758.43187428 C180.74684483 752.62667659 180.78200159 746.82223006 180.82400274 741.01720619 C180.86163316 734.93941385 180.86504481 728.8616023 180.87215519 722.78371143 C180.89076785 711.28792288 180.93995663 699.79247865 181.00025213 688.29684138 C181.06742859 675.20375332 181.10033431 662.11064841 181.13042474 649.01743078 C181.19305866 622.09625518 181.29852418 595.17538472 181.43236637 568.25447559 C180.44176023 568.25816277 179.4511541 568.26184994 178.43052959 568.26564884 C154.30942604 568.35450903 130.18834376 568.42020803 106.06711102 568.46172428 C94.40218247 568.48233568 82.73736216 568.51042921 71.07250309 568.55623341 C60.90354952 568.59614457 50.73467434 568.62191874 40.56564462 568.63082957 C35.18288966 568.63603703 29.80035895 568.64824706 24.41767597 568.67739582 C19.34680854 568.70463242 14.27625685 568.7129039 9.20532322 568.70690632 C7.34861502 568.70800287 5.49189579 568.71590743 3.63525105 568.73129749 C-14.32189297 568.87279237 -14.32189297 568.87279237 -22.56763363 564.25447559 C-23.64013363 563.67697559 -24.71263363 563.09947559 -25.81763363 562.50447559 C-32.57718282 556.97393535 -37.81691304 549.03258064 -38.79363494 540.21395528 C-39.18103383 534.00500681 -39.10028528 527.78572242 -39.06883907 521.56783009 C-39.07273392 519.44205049 -39.07837583 517.3162735 -39.08560997 515.19050264 C-39.10035604 509.36049879 -39.0901882 503.53076526 -39.07587326 497.70077014 C-39.06476265 491.4089305 -39.07670638 485.11712876 -39.08571529 478.82529163 C-39.09884406 467.21598336 -39.0938672 455.60678535 -39.07964001 443.99748267 C-39.06658097 433.27209896 -39.06139366 422.5467463 -39.06395817 411.82135487 C-39.06411858 411.10952492 -39.064279 410.39769497 -39.06444428 409.66429442 C-39.06510788 406.77464209 -39.06581029 403.88498978 -39.06656962 400.99533748 C-39.07359145 373.89597991 -39.05810977 346.79667699 -39.03194616 319.69733333 C-39.00883163 295.62863572 -39.00344316 271.5599982 -39.01367855 247.491292 C-39.01628063 241.32774578 -39.01886566 235.16419956 -39.02127647 229.00065327 C-39.02157392 228.24181424 -39.02187137 227.48297522 -39.02217783 226.70114107 C-39.02979511 206.58096805 -39.0233784 186.46079993 -39.01258045 166.3406291 C-39.01143267 164.17530499 -39.01028949 162.00998088 -39.00915363 159.84465677 C-39.00839838 158.40827978 -39.00763274 156.9719028 -39.00685662 155.53552582 C-39.0012015 144.81768665 -39.00252608 134.09986304 -39.00708485 123.38202381 C-39.01219546 111.19362546 -39.00602846 99.00530193 -38.98619055 86.81691492 C-38.97631805 80.59800842 -38.97121308 74.37919654 -38.97908306 68.160285 C-38.98614052 62.46695423 -38.97933343 56.77381437 -38.96147943 51.08050877 C-38.9574354 49.02142763 -38.95843404 46.96232909 -38.9649983 44.90325445 C-39.04100499 18.82894127 -39.04100499 18.82894127 -28.56763363 8.25447559 C-19.51079851 0.78178654 -11.41048428 -0.04236324 0 0 Z M37.43236637 76.25447559 C37.43236637 213.53447559 37.43236637 350.81447559 37.43236637 492.25447559 C84.95236637 492.25447559 132.47236637 492.25447559 181.43236637 492.25447559 C181.45814762 476.11670216 181.48392887 459.97892872 181.51049137 443.35213184 C181.5356525 433.13922902 181.56181634 422.92634514 181.59252262 412.71345997 C181.60859121 407.34847052 181.62445758 401.98348059 181.6398859 396.61848927 C181.64280181 395.60990932 181.64280181 395.60990932 181.64577663 394.58095402 C181.6767722 383.73485226 181.69376483 372.88877165 181.70556059 362.04263396 C181.71798461 350.9062642 181.74581046 339.76999136 181.78697944 328.63368696 C181.80960921 322.38079644 181.82527612 316.12806385 181.82425022 309.87512875 C181.82350453 303.9875291 181.84141962 298.10027878 181.8735342 292.21276951 C181.8820403 290.05412673 181.88377833 287.89544481 181.87816906 285.73679256 C181.87151856 282.78366733 181.88947558 279.83165009 181.91338444 276.87863636 C181.90562402 276.02938857 181.8978636 275.18014077 181.88986802 274.3051582 C182.01544814 265.51068654 185.43686495 258.51676115 191.36596012 252.11385059 C198.83400923 245.39401812 205.58084405 243.1025621 215.42089558 243.11581039 C216.6434477 243.11154707 216.6434477 243.11154707 217.89069784 243.10719761 C220.63915555 243.09883356 223.38757121 243.09758106 226.13604069 243.09625721 C228.1193981 243.09169303 230.10275456 243.08669322 232.08610988 243.08129364 C237.5498258 243.06768679 243.01353548 243.06028681 248.47726393 243.05386698 C254.36409997 243.04587422 260.25092299 243.03217258 266.13774967 243.01915455 C276.3416055 242.99737584 286.54546263 242.97923645 296.74932957 242.96354961 C307.45263765 242.94709117 318.15593889 242.92863654 328.85923862 242.90741634 C329.52441012 242.90609874 330.18958162 242.90478113 330.87490982 242.90342359 C334.25289561 242.89672163 337.63088131 242.88998304 341.008867 242.88323034 C364.94332117 242.83545053 388.87778165 242.79227032 412.81224918 242.75179005 C436.0661601 242.71245029 459.3200658 242.67103022 482.57396793 242.62679005 C483.29058867 242.62542752 484.0072094 242.62406499 484.74554591 242.62266117 C491.94205947 242.60897595 499.13857295 242.5952484 506.33508637 242.58148983 C520.99558467 242.55346229 535.65608351 242.52571733 550.31658268 242.4981432 C550.9906682 242.496875 551.66475373 242.4956068 552.35926608 242.49430017 C597.38362436 242.40962544 642.40799453 242.33155867 687.43236637 242.25447559 C687.45569329 220.75842043 687.47334453 199.26236735 687.48417854 177.76630211 C687.48934194 167.78603728 687.49638547 157.8057803 687.50780582 147.82552052 C687.51775133 139.13001419 687.52421948 130.43451355 687.52645487 121.73900169 C687.5277622 117.13183828 687.53084949 112.52469113 687.53809643 107.91753292 C687.54485454 103.58628967 687.54698376 99.25506947 687.54547405 94.92382145 C687.54575048 93.32942104 687.54775684 91.73501991 687.55157185 90.14062405 C687.55650584 87.97330989 687.55536577 85.80608416 687.55262089 83.6387682 C687.55354268 82.42292325 687.55446447 81.2070783 687.5554142 79.95438957 C687.74015363 77.33753593 687.74015363 77.33753593 686.43236637 76.25447559 C685.00652927 76.1574437 683.57589578 76.13000179 682.14676088 76.1302771 C680.7479583 76.12690616 680.7479583 76.12690616 679.32089707 76.12346712 C678.2823039 76.12609413 677.24371072 76.12872114 676.17364502 76.13142776 C675.07673665 76.13027392 673.97982829 76.12912008 672.84968027 76.12793127 C669.1242928 76.12525594 665.39894739 76.12979425 661.67356205 76.13422108 C658.99570243 76.13378556 656.31784563 76.13295341 653.63998657 76.13163191 C647.79216012 76.12955232 641.9443438 76.13121189 636.09651852 76.13527012 C627.40092177 76.14128793 618.70533147 76.14160753 610.00973302 76.14072813 C595.38464754 76.13941203 580.75956656 76.14276398 566.13448238 76.14874554 C551.64677693 76.15465576 537.15907335 76.15851011 522.67136669 76.15959835 C521.32186121 76.15970146 521.32186121 76.15970146 519.94509299 76.15980665 C515.3764128 76.16014497 510.80773261 76.16044636 506.23905242 76.16073353 C473.85077103 76.16283582 441.46249209 76.16957841 409.07421207 76.17903614 C377.60285804 76.18821553 346.13150468 76.19528471 314.66014957 76.19954395 C312.68227941 76.19981459 310.70440924 76.2000853 308.72653908 76.20035607 C292.65638519 76.20254473 276.58623129 76.20458735 260.51607738 76.20659455 C186.15483805 76.21598781 111.79360512 76.23605668 37.43236637 76.25447559 Z M258.43236637 319.25447559 C258.43236637 376.34447559 258.43236637 433.43447559 258.43236637 492.25447559 C400.00236637 492.25447559 541.57236637 492.25447559 687.43236637 492.25447559 C687.43236637 435.16447559 687.43236637 378.07447559 687.43236637 319.25447559 C545.86236637 319.25447559 404.29236637 319.25447559 258.43236637 319.25447559 Z M763.43236637 319.25447559 C763.40658512 335.30845997 763.38080387 351.36244434 763.35424137 367.90291309 C763.32907882 378.06568576 763.30291373 388.22843941 763.27221012 398.39119434 C763.25614176 403.7302235 763.24027543 409.06925314 763.22484684 414.40828419 C763.2229029 415.07740814 763.22095896 415.74653208 763.21895611 416.43593252 C763.18796889 427.22640307 763.17097025 438.01685237 763.15917215 448.80735902 C763.14674379 459.88836585 763.1189086 470.96926985 763.07775331 482.05020869 C763.05513328 488.27127315 763.03945603 494.49217907 763.04048252 500.71328831 C763.04122879 506.57216443 763.02329056 512.43069002 762.99119854 518.28947544 C762.98269968 520.43641021 762.9809495 522.5833843 762.98656368 524.73032856 C762.99322514 527.66996704 762.97523121 530.6084972 762.9513483 533.54802418 C762.96298893 534.81169018 762.96298893 534.81169018 762.97486472 536.1008848 C762.84599393 545.10900464 759.67184405 552.91027587 753.49877262 559.49666309 C746.29186732 565.62730087 738.65946324 567.40555357 729.45945454 567.39314079 C728.64610816 567.39598301 727.83276179 567.39882523 726.99476856 567.40175357 C724.25205423 567.4101175 721.50938204 567.41137012 718.76665592 567.41269398 C716.7874233 567.41725817 714.80819165 567.42225798 712.82896113 567.42765754 C707.37664679 567.4412643 701.9243387 567.44866435 696.4720118 567.4550842 C690.5974458 567.46307701 684.72289285 567.47677863 678.84833622 567.48979664 C668.66576133 567.51157529 658.48318513 567.5297147 648.3005991 567.54540157 C637.61961993 567.56186004 626.93864705 567.58031469 616.25767612 567.60153484 C615.59389098 567.60285245 614.93010583 567.60417006 614.24620598 567.60552759 C610.87526024 567.61222956 607.50431458 567.61896815 604.13336894 567.62572085 C580.24882908 567.67350059 556.3642829 567.71668082 532.47972965 567.75716114 C509.27432133 567.79650093 486.06891824 567.83792101 462.86351871 567.88216114 C461.7908287 567.88420494 461.7908287 567.88420494 460.69646818 567.88629002 C453.51495802 567.89997524 446.33344794 567.91370279 439.15193793 567.92746136 C424.52200552 567.95548889 409.89207259 567.98323386 395.26213932 568.01080799 C394.58945929 568.01207619 393.91677925 568.01334439 393.22371497 568.01465102 C348.29327367 568.09932567 303.36282037 568.17677842 258.43236637 568.25447559 C258.43236637 623.03447559 258.43236637 677.81447559 258.43236637 734.25447559 C472.60236637 734.25447559 686.77236637 734.25447559 907.43236637 734.25447559 C907.43236637 597.30447559 907.43236637 460.35447559 907.43236637 319.25447559 C859.91236637 319.25447559 812.39236637 319.25447559 763.43236637 319.25447559 Z " fill="#DEDEDE" transform="translate(527.5676336288452,590.7455244064331)"/>
<path d="M0 0 C0.66 0.33 1.32 0.66 2 1 C-0.97 3.97 -3.94 6.94 -7 10 C-7.66 9.67 -8.32 9.34 -9 9 C-8.06725891 7.87105124 -7.12859878 6.74699124 -6.1875 5.625 C-5.66542969 4.99851562 -5.14335937 4.37203125 -4.60546875 3.7265625 C-3 2 -3 2 0 0 Z " fill="#A1A1A1" transform="translate(503,596)"/>
</svg>
