<?xml version="1.0" encoding="UTF-8"?>
<svg version="1.1" xmlns="http://www.w3.org/2000/svg" width="256" height="256">
<path d="M0 0 C0.71183813 -0.00297112 1.42367626 -0.00594224 2.15708524 -0.0090034 C4.5366457 -0.01765831 6.91615566 -0.01919593 9.29573059 -0.02069092 C11.00436001 -0.02532141 12.7129884 -0.03034638 14.4216156 -0.03573608 C19.06027239 -0.04884083 23.69891472 -0.05530142 28.33758712 -0.05974674 C31.23812475 -0.06268089 34.13865846 -0.06678638 37.03919411 -0.07125092 C46.12144839 -0.08492148 55.20369366 -0.09459 64.28595752 -0.09845281 C74.7566081 -0.10293102 85.22712798 -0.12046981 95.69773883 -0.1494534 C103.79984241 -0.17109921 111.90190931 -0.18115865 120.00404149 -0.18249393 C124.83893921 -0.18353998 129.67371399 -0.18940511 134.50858116 -0.20731354 C139.05994567 -0.22384413 143.61109549 -0.22592559 148.1624794 -0.21717453 C149.82728591 -0.21640679 151.4921042 -0.22071196 153.15688133 -0.23063278 C165.7005307 -0.30096299 176.9913315 0.47709938 186.82234192 9.14044189 C193.21633915 16.67921593 196.28440069 24.82300303 196.22348022 34.61450195 C196.23027689 35.42958103 196.23707356 36.24466012 196.24407619 37.08443856 C196.26295512 39.79562155 196.26061743 42.50634919 196.25813293 45.21759033 C196.26711633 47.16972429 196.27732591 49.12185292 196.28866577 51.07397461 C196.31511191 56.36342276 196.322197 61.65272521 196.32411313 66.94223309 C196.32624896 70.25103701 196.3326601 73.55980417 196.34060478 76.86859894 C196.3683413 88.42375531 196.38061253 99.97880802 196.37825012 111.53399658 C196.37644867 122.28592223 196.40809225 133.0373959 196.45548111 143.78920722 C196.49477746 153.03621018 196.51079887 162.28306584 196.50888389 171.53015161 C196.50812093 177.04593578 196.51656352 182.56131813 196.54841805 188.07701874 C196.57758004 193.26799991 196.57761908 198.45819842 196.55586815 203.64920807 C196.55274515 205.54700369 196.55973277 207.44484906 196.57794952 209.34255981 C196.68240734 220.98462492 196.24533189 230.99067118 188.01610661 240.1510582 C181.08085466 246.74882526 172.74849084 248.25977696 163.4548645 248.28088379 C162.35648067 248.28534047 162.35648067 248.28534047 161.23590726 248.28988719 C158.78724947 248.29854449 156.33864074 248.30007992 153.88996887 248.30157471 C152.13207902 248.30620502 150.37419017 248.31122997 148.61630249 248.31661987 C143.84335245 248.32972622 139.07041647 248.33618551 134.29745126 248.34063053 C131.31315882 248.3435644 128.32887021 248.34766983 125.3445797 248.3521347 C116.00069678 248.36580564 106.65682262 248.375474 97.31293041 248.3793366 C86.5394787 248.38381502 75.76615402 248.40135463 64.99274093 248.43033719 C56.6570937 248.4519805 48.32148214 248.46204231 39.98580712 248.46337771 C35.01118247 248.46442394 30.03667728 248.47029274 25.06208229 248.48819733 C20.37939546 248.5047236 15.69691732 248.50681144 11.01421165 248.49805832 C9.30102859 248.49729035 7.58783409 248.50159877 5.87467957 248.51151657 C-6.21977446 248.57739524 -17.45198964 248.41054266 -26.76750183 239.64434814 C-32.99924863 233.04692427 -34.6385009 225.42132291 -34.55860901 216.56390381 C-34.56328898 215.74993716 -34.56796895 214.93597051 -34.57279074 214.0973382 C-34.58466486 211.39604077 -34.57531352 208.69525784 -34.56584167 205.99395752 C-34.56991075 204.04666347 -34.57525451 202.09937174 -34.58177185 200.15208435 C-34.59541122 194.88146201 -34.59016073 189.61101647 -34.58063459 184.34039116 C-34.5730205 178.81528128 -34.58008847 173.29018618 -34.58479309 167.76507568 C-34.59024554 158.48798922 -34.58307241 149.21097449 -34.56877136 139.93389893 C-34.55244587 129.2200815 -34.55773473 118.50643537 -34.57425058 107.79262209 C-34.58787997 98.58132099 -34.58977799 89.37007134 -34.58193457 80.15876341 C-34.57726606 74.66278496 -34.5766106 69.16688693 -34.58654404 63.6709137 C-34.59523255 58.50308049 -34.5891573 53.33546738 -34.57186127 48.16765785 C-34.5679065 46.27506691 -34.56901311 44.38245733 -34.57564926 42.48987389 C-34.58389496 39.89866216 -34.57350715 37.30814775 -34.55860901 34.71697998 C-34.56530117 33.97503592 -34.57199334 33.23309186 -34.5788883 32.46866465 C-34.48131722 23.66889534 -31.62830184 15.65910859 -25.38859558 9.32403564 C-17.69766819 2.21215491 -10.43386365 0.02438283 0 0 Z " fill="#FD4E3A" transform="translate(47.17765808105469,3.85955810546875)"/>
<path d="M0 0 C0.33 0 0.66 0 1 0 C1.24721944 25.35554508 1.46582698 50.71119641 1.65021229 76.06727982 C1.73649216 87.84009975 1.83219491 99.61270327 1.94995117 111.38525391 C2.05254314 121.64414737 2.13758741 131.90300911 2.20140952 142.16221976 C2.23583172 147.59632429 2.27914184 153.030035 2.34345436 158.46387482 C2.4036787 163.57569811 2.44048431 168.68714893 2.45913696 173.7992878 C2.47015517 175.67792189 2.48981541 177.55652769 2.51865196 179.43497276 C2.55668575 181.99581563 2.56391262 184.55494549 2.56330872 187.11602783 C2.58176387 187.86311138 2.60021903 188.61019494 2.61923343 189.37991738 C2.58563978 192.9471277 2.25425829 194.69663873 -0.0623045 197.46058178 C-3.64630953 199.33868067 -6.61465094 199.56123117 -10.56643677 199.5146637 C-11.69673036 199.52508199 -11.69673036 199.52508199 -12.84985816 199.53571075 C-15.37042288 199.55398211 -17.89004654 199.54371667 -20.41064453 199.53344727 C-22.21930648 199.54050553 -24.02796252 199.54925015 -25.83660889 199.55955505 C-30.74554532 199.58206472 -35.65415959 199.57910631 -40.56312799 199.57023358 C-44.65893939 199.56512686 -48.75469008 199.57241338 -52.85049522 199.57970566 C-62.50894525 199.59670839 -72.16723729 199.5931335 -81.82568359 199.57641602 C-91.79891952 199.55947734 -101.77171833 199.5753524 -111.74490654 199.6076389 C-120.30297819 199.63429729 -128.86091344 199.64162147 -137.41902244 199.63312382 C-142.53264247 199.6281857 -147.64599917 199.63045845 -152.75958633 199.65091133 C-157.56470565 199.66921076 -162.3691933 199.6633805 -167.17427826 199.63871193 C-168.94038194 199.63368653 -170.7065333 199.63723838 -172.47259903 199.64986038 C-174.87831131 199.66569776 -177.28191935 199.6509318 -179.68753052 199.62818909 C-180.39131588 199.64002482 -181.09510124 199.65186054 -181.82021344 199.66405493 C-183.77122688 199.62641239 -183.77122688 199.62641239 -187 199 C-190.36671878 194.97649711 -190.41518379 191.13874382 -190.34057617 186.08862305 C-190.34123329 184.91709938 -190.34123329 184.91709938 -190.34190369 183.72190857 C-190.33982092 181.15158714 -190.31651454 178.58192562 -190.29296875 176.01171875 C-190.28737096 174.22524878 -190.28310173 172.4387742 -190.28010559 170.65229797 C-190.26867119 165.95864059 -190.23921612 161.26526331 -190.20599365 156.57171631 C-190.17526246 151.7789692 -190.16159374 146.98617668 -190.14648438 142.19335938 C-190.11434506 132.7954501 -190.0631657 123.39774837 -190 114 C-187.46891775 112.88303923 -184.93689459 111.76830038 -182.40429688 110.65478516 C-181.69537292 110.34166885 -180.98644897 110.02855255 -180.25604248 109.70594788 C-174.09378463 106.99994562 -167.84785145 104.61172978 -161.5 102.375 C-160.43338135 101.99601562 -159.3667627 101.61703125 -158.26782227 101.2265625 C-135.55849196 93.21372425 -135.55849196 93.21372425 -128.62890625 92.5 C-127.43136719 92.335 -126.23382813 92.17 -125 92 C-124.67 91.34 -124.34 90.68 -124 90 C-122.14453125 89.4375 -122.14453125 89.4375 -119.8125 89 C-117.220554 88.50545494 -114.81716235 87.93727383 -112.31713867 87.07958984 C-108.71765951 85.90810998 -105.09202263 85.00870511 -101.40625 84.1640625 C-100.67353882 83.9939566 -99.94082764 83.82385071 -99.18591309 83.64859009 C-89.96677392 81.51576626 -80.7333573 79.4451978 -71.5 77.375 C-69.72654536 76.97663881 -67.95310779 76.57820159 -66.1796875 76.1796875 C-62.92783461 75.44925977 -59.67594111 74.71901499 -56.42382812 73.98974609 C-55.70074463 73.82706238 -54.97766113 73.66437866 -54.23266602 73.49676514 C-52.65898009 73.14662217 -51.08378895 72.80321072 -49.50756836 72.46466064 C-48.70005127 72.29021423 -47.89253418 72.11576782 -47.06054688 71.93603516 C-46.32993042 71.78027008 -45.59931396 71.624505 -44.84655762 71.46401978 C-42.92238574 71.05108716 -42.92238574 71.05108716 -41 70 C-38.97089277 69.77647268 -36.94141052 69.55606307 -34.91064453 69.34814453 C-28.72076333 68.60776787 -22.58244272 67.48089864 -16.4375 66.4375 C-15.03324152 66.20094382 -13.62894491 65.96461392 -12.22460938 65.72851562 C-8.81596278 65.15495084 -5.40784185 64.5783294 -2 64 C-0.93198165 60.79594494 -0.88565201 58.5340449 -0.90234375 55.16748047 C-0.90564697 53.96968964 -0.9089502 52.7718988 -0.91235352 51.53781128 C-0.92480103 49.59710251 -0.92480103 49.59710251 -0.9375 47.6171875 C-0.94190489 46.27865779 -0.94572173 44.94012602 -0.94897461 43.60159302 C-0.96039885 39.35936555 -0.97965547 35.11719284 -1 30.875 C-1.02356219 25.95299809 -1.04395477 21.03102698 -1.05593872 16.10898209 C-1.06244439 14.13406904 -1.07501929 12.15917905 -1.08764648 10.18429565 C-1.09094971 8.99280914 -1.09425293 7.80132263 -1.09765625 6.57373047 C-1.10289307 5.51910614 -1.10812988 4.46448181 -1.11352539 3.37789917 C-1 1 -1 1 0 0 Z " fill="#F51B0F" transform="translate(224,34)"/>
<path d="M0 0 C0.71183813 -0.00297112 1.42367626 -0.00594224 2.15708524 -0.0090034 C4.5366457 -0.01765831 6.91615566 -0.01919593 9.29573059 -0.02069092 C11.00436001 -0.02532141 12.7129884 -0.03034638 14.4216156 -0.03573608 C19.06027239 -0.04884083 23.69891472 -0.05530142 28.33758712 -0.05974674 C31.23812475 -0.06268089 34.13865846 -0.06678638 37.03919411 -0.07125092 C46.12144839 -0.08492148 55.20369366 -0.09459 64.28595752 -0.09845281 C74.7566081 -0.10293102 85.22712798 -0.12046981 95.69773883 -0.1494534 C103.79984241 -0.17109921 111.90190931 -0.18115865 120.00404149 -0.18249393 C124.83893921 -0.18353998 129.67371399 -0.18940511 134.50858116 -0.20731354 C139.05994567 -0.22384413 143.61109549 -0.22592559 148.1624794 -0.21717453 C149.82728591 -0.21640679 151.4921042 -0.22071196 153.15688133 -0.23063278 C165.7005307 -0.30096299 176.9913315 0.47709938 186.82234192 9.14044189 C193.21633915 16.67921593 196.28440069 24.82300303 196.22348022 34.61450195 C196.23027689 35.42958103 196.23707356 36.24466012 196.24407619 37.08443856 C196.26295512 39.79562155 196.26061743 42.50634919 196.25813293 45.21759033 C196.26711633 47.16972429 196.27732591 49.12185292 196.28866577 51.07397461 C196.31511191 56.36342276 196.322197 61.65272521 196.32411313 66.94223309 C196.32624896 70.25103701 196.3326601 73.55980417 196.34060478 76.86859894 C196.3683413 88.42375531 196.38061253 99.97880802 196.37825012 111.53399658 C196.37644867 122.28592223 196.40809225 133.0373959 196.45548111 143.78920722 C196.49477746 153.03621018 196.51079887 162.28306584 196.50888389 171.53015161 C196.50812093 177.04593578 196.51656352 182.56131813 196.54841805 188.07701874 C196.57758004 193.26799991 196.57761908 198.45819842 196.55586815 203.64920807 C196.55274515 205.54700369 196.55973277 207.44484906 196.57794952 209.34255981 C196.68240734 220.98462492 196.24533189 230.99067118 188.01610661 240.1510582 C181.08085466 246.74882526 172.74849084 248.25977696 163.4548645 248.28088379 C162.35648067 248.28534047 162.35648067 248.28534047 161.23590726 248.28988719 C158.78724947 248.29854449 156.33864074 248.30007992 153.88996887 248.30157471 C152.13207902 248.30620502 150.37419017 248.31122997 148.61630249 248.31661987 C143.84335245 248.32972622 139.07041647 248.33618551 134.29745126 248.34063053 C131.31315882 248.3435644 128.32887021 248.34766983 125.3445797 248.3521347 C116.00069678 248.36580564 106.65682262 248.375474 97.31293041 248.3793366 C86.5394787 248.38381502 75.76615402 248.40135463 64.99274093 248.43033719 C56.6570937 248.4519805 48.32148214 248.46204231 39.98580712 248.46337771 C35.01118247 248.46442394 30.03667728 248.47029274 25.06208229 248.48819733 C20.37939546 248.5047236 15.69691732 248.50681144 11.01421165 248.49805832 C9.30102859 248.49729035 7.58783409 248.50159877 5.87467957 248.51151657 C-6.21977446 248.57739524 -17.45198964 248.41054266 -26.76750183 239.64434814 C-32.99924863 233.04692427 -34.6385009 225.42132291 -34.55860901 216.56390381 C-34.56328898 215.74993716 -34.56796895 214.93597051 -34.57279074 214.0973382 C-34.58466486 211.39604077 -34.57531352 208.69525784 -34.56584167 205.99395752 C-34.56991075 204.04666347 -34.57525451 202.09937174 -34.58177185 200.15208435 C-34.59541122 194.88146201 -34.59016073 189.61101647 -34.58063459 184.34039116 C-34.5730205 178.81528128 -34.58008847 173.29018618 -34.58479309 167.76507568 C-34.59024554 158.48798922 -34.58307241 149.21097449 -34.56877136 139.93389893 C-34.55244587 129.2200815 -34.55773473 118.50643537 -34.57425058 107.79262209 C-34.58787997 98.58132099 -34.58977799 89.37007134 -34.58193457 80.15876341 C-34.57726606 74.66278496 -34.5766106 69.16688693 -34.58654404 63.6709137 C-34.59523255 58.50308049 -34.5891573 53.33546738 -34.57186127 48.16765785 C-34.5679065 46.27506691 -34.56901311 44.38245733 -34.57564926 42.48987389 C-34.58389496 39.89866216 -34.57350715 37.30814775 -34.55860901 34.71697998 C-34.56530117 33.97503592 -34.57199334 33.23309186 -34.5788883 32.46866465 C-34.48131722 23.66889534 -31.62830184 15.65910859 -25.38859558 9.32403564 C-17.69766819 2.21215491 -10.43386365 0.02438283 0 0 Z M-21.35588074 15.17340088 C-25.59512369 21.48359083 -25.92048902 26.72842864 -25.55265808 34.20294189 C-25.52558777 35.25932861 -25.49851746 36.31571533 -25.47062683 37.40411377 C-25.40055518 39.98508616 -25.30239278 42.56163197 -25.17765808 45.14044189 C-24.84765808 45.14044189 -24.51765808 45.14044189 -24.17765808 45.14044189 C-24.04488464 44.43016846 -23.91211121 43.71989502 -23.77531433 42.98809814 C-23.59871277 42.06899658 -23.42211121 41.14989502 -23.24015808 40.20294189 C-23.06613464 39.28641846 -22.89211121 38.36989502 -22.71281433 37.42559814 C-22.17765808 35.14044189 -22.17765808 35.14044189 -21.17765808 34.14044189 C-20.944788 32.45860242 -20.76501642 30.7692003 -20.61515808 29.07794189 C-20.53136902 28.15884033 -20.44757996 27.23973877 -20.36125183 26.29278564 C-20.30066589 25.58251221 -20.24007996 24.87223877 -20.17765808 24.14044189 C-20.18042346 25.17173312 -20.18318884 26.20302435 -20.18603802 27.26556683 C-20.25259961 52.34463119 -20.30191774 77.42368411 -20.3330946 102.50281811 C-20.34857174 114.63083724 -20.36967748 126.75879807 -20.40397644 138.88677979 C-20.43385281 149.45597872 -20.45322692 160.02513544 -20.45992357 170.59437543 C-20.4638388 176.19210715 -20.47305782 181.78971807 -20.49484825 187.38741112 C-20.5151855 192.65439027 -20.52149744 197.92119866 -20.51698112 203.18821335 C-20.51780756 205.1228039 -20.52378958 207.05740007 -20.53527451 208.99195671 C-20.55017537 211.63099254 -20.5466205 214.26938156 -20.53842163 216.90843201 C-20.55152942 218.05970661 -20.55152942 218.05970661 -20.56490201 219.23423928 C-20.51682674 224.94967021 -19.17889034 228.13920963 -15.17765808 232.14044189 C-12.6825042 232.34565282 -10.29696723 232.42557218 -7.79994202 232.41891479 C-6.64581698 232.4276034 -6.64581698 232.4276034 -5.46837628 232.43646753 C-2.87647398 232.45354484 -0.28474891 232.45635062 2.3072052 232.45928955 C4.15969788 232.46858241 6.01218635 232.4787501 7.8646698 232.48973083 C12.90570395 232.51711741 17.94671004 232.5322058 22.98779917 232.54515886 C28.25159852 232.56075166 33.51534021 232.58755406 38.77909851 232.6131897 C48.75214668 232.6600459 58.72520561 232.69675683 68.69830787 232.72986257 C80.05004808 232.76803572 91.40173048 232.8174584 102.75342202 232.86784673 C126.10968585 232.9712683 149.46598678 233.06049535 172.82234192 233.14044189 C172.82234192 232.48044189 172.82234192 231.82044189 172.82234192 231.14044189 C173.56484192 230.95481689 174.30734192 230.76919189 175.07234192 230.57794189 C178.7798876 228.63990665 180.2691874 225.89973084 181.82234192 222.14044189 C182.19463816 219.31470406 182.36758351 216.88804757 182.33459473 214.07447815 C182.34478826 212.89980233 182.34478826 212.89980233 182.35518771 211.70139569 C182.37306183 209.09265255 182.36269962 206.48480976 182.35237122 203.8760376 C182.35947241 201.9997384 182.3683373 200.12344517 182.37882996 198.24716187 C182.4024099 193.16268742 182.40171198 188.07846984 182.3969152 182.99395394 C182.39632144 177.67198054 182.41901782 172.35010965 182.43948364 167.02818298 C182.47488378 156.9502498 182.49090973 146.8723887 182.49925882 136.79440039 C182.51222294 121.99382779 182.55048704 107.19331542 182.59335804 92.39280224 C182.59649673 91.3079601 182.59963541 90.22311796 182.60286921 89.10540181 C182.60914922 86.94273368 182.61549279 84.78006572 182.62190181 82.61739796 C182.63997863 76.27859569 182.65107659 69.93982895 182.65619886 63.60100329 C182.66002737 59.66316034 182.66763956 55.7253303 182.67600632 51.78749466 C182.67896937 49.95891836 182.68020169 48.13033832 182.67959404 46.30175972 C182.67892828 43.80962722 182.6842667 41.31757643 182.69104004 38.82545471 C182.68841448 37.73533733 182.68841448 37.73533733 182.68573588 36.62319738 C182.70071222 33.29208797 182.92577605 30.34547834 183.82234192 27.14044189 C183.4432691 24.95340805 183.4432691 24.95340805 182.82234192 23.14044189 C183.48234192 23.14044189 184.14234192 23.14044189 184.82234192 23.14044189 C185.15234192 24.46044189 185.48234192 25.78044189 185.82234192 27.14044189 C186.33025713 21.8073322 185.16860105 19.27923608 181.82234192 15.14044189 C176.30450664 9.78489589 172.13432231 7.83955382 164.49246216 7.86628723 C163.75218802 7.86105055 163.01191388 7.85581387 162.2492072 7.85041851 C159.76742733 7.83541101 157.28585351 7.83471319 154.80403137 7.83404541 C153.02495984 7.82642427 151.2458916 7.81799685 149.46682739 7.80882263 C144.63189707 7.78686257 139.79703001 7.77807637 134.96205544 7.77299619 C131.9400808 7.76935352 128.91812273 7.76311383 125.8961544 7.7559948 C115.3494888 7.73149227 104.80287242 7.71844727 94.25617981 7.71490479 C84.43250338 7.71127187 74.60913984 7.68139603 64.785559 7.6395002 C56.34718009 7.60477656 47.90890473 7.58935596 39.47045487 7.58865875 C34.43260889 7.58786646 29.39508138 7.57915011 24.35730934 7.55066109 C19.6154256 7.52444595 14.8741235 7.52229448 10.13220024 7.53831673 C8.39601496 7.54012865 6.65979598 7.53346374 4.92368317 7.51749802 C-5.42290145 7.42818377 -13.44077034 7.78614194 -21.35588074 15.17340088 Z " fill="#DA0E0A" transform="translate(47.17765808105469,3.85955810546875)"/>
<path d="M0 0 C1.74514729 0.00141204 3.49029755 0.00061545 5.23544312 -0.00221252 C9.95196503 -0.00364201 14.66784593 0.02567175 19.38421941 0.06065726 C24.32092711 0.09199897 29.25765091 0.09485766 34.19444275 0.1007843 C43.5334747 0.11629982 52.8722126 0.15729722 62.2111153 0.20753175 C72.8471139 0.26349662 83.48312683 0.29092967 94.11923611 0.31600893 C115.98972948 0.36821512 137.85995849 0.45611277 159.73022461 0.56762695 C159.40022461 1.22762695 159.07022461 1.88762695 158.73022461 2.56762695 C130.35022461 3.22762695 101.97022461 3.88762695 72.73022461 4.56762695 C80.97880176 5.25500838 89.1549684 5.84534548 97.41772461 6.13012695 C98.6463623 6.17258545 99.875 6.21504395 101.14086914 6.25878906 C121.99194961 6.90835096 142.8720959 6.65226318 163.73022461 6.56762695 C163.73022461 7.22762695 163.73022461 7.88762695 163.73022461 8.56762695 C164.49334961 8.81512695 165.25647461 9.06262695 166.04272461 9.31762695 C168.9666291 10.67758253 170.03026817 11.88348521 171.73022461 14.56762695 C170.74022461 14.23762695 169.75022461 13.90762695 168.73022461 13.56762695 C167.33637298 13.47738491 165.93860926 13.44135424 164.5418396 13.44064331 C163.26307701 13.43641357 163.26307701 13.43641357 161.95848083 13.43209839 C161.02641312 13.43412262 160.0943454 13.43614685 159.1340332 13.43823242 C158.15009079 13.4364801 157.16614838 13.43472778 156.15238953 13.43292236 C152.89446254 13.42851472 149.63658966 13.43143759 146.37866211 13.43481445 C144.12090037 13.43414121 141.86313869 13.43317101 139.6053772 13.43191528 C134.87257192 13.43043987 130.13978551 13.43258826 125.40698242 13.43725586 C119.32571097 13.44295957 113.24448358 13.43966908 107.16321373 13.4336834 C102.5016954 13.43007912 97.84018761 13.43121564 93.17866898 13.43381119 C90.93546163 13.43448049 88.69225334 13.43365192 86.44904709 13.43133163 C83.32188103 13.42880659 80.19478757 13.4326433 77.06762695 13.43823242 C75.66345268 13.43519608 75.66345268 13.43519608 74.23091125 13.43209839 C70.15808849 13.0302999 70.15808849 13.0302999 66.73022461 14.56762695 C64.29261439 14.67134966 61.88241961 14.71124532 59.4440918 14.70947266 C58.68144516 14.71294708 57.91879852 14.71642151 57.13304138 14.72000122 C55.47098271 14.72737184 53.80891411 14.73271023 52.14684296 14.73629189 C49.51572118 14.74343911 46.88478791 14.7590933 44.25372314 14.77763367 C36.77081931 14.83017899 29.2880159 14.87807078 21.80493164 14.89355469 C17.23241973 14.90363807 12.66037728 14.93297528 8.08805084 14.9748745 C6.3449992 14.98718851 4.60188125 14.99230502 2.85878754 14.99007607 C0.41666143 14.98772228 -2.0241201 15.00989495 -4.46606445 15.03759766 C-5.18522537 15.03099625 -5.90438629 15.02439484 -6.64533997 15.01759338 C-10.04819006 15.08090127 -12.22035069 15.54043989 -15.21728516 17.18896484 C-17.91392816 20.31414539 -17.90064844 22.05726107 -17.91333008 26.15625 C-17.92220749 26.80871704 -17.9310849 27.46118408 -17.94023132 28.13342285 C-17.96386792 30.28258516 -17.95273654 32.43010618 -17.94165039 34.5793457 C-17.95222927 36.07340774 -17.96514042 37.56745493 -17.98028564 39.06147766 C-18.01448667 42.9886583 -18.01986804 46.91534208 -18.01837158 50.84265137 C-18.02159888 56.38883387 -18.06420953 61.93487832 -18.10211182 67.48091125 C-18.12218028 70.43458066 -18.13146196 73.3879858 -18.13226318 76.34172058 C-18.13608191 77.68354296 -18.13992574 79.02536527 -18.14379883 80.3671875 C-18.14426208 81.54314987 -18.14472534 82.71911224 -18.14520264 83.93070984 C-18.26977539 86.56762695 -18.26977539 86.56762695 -19.26977539 87.56762695 C-19.37025772 89.22874654 -19.40053752 90.89415051 -19.40348816 92.55830383 C-19.40775314 93.63932373 -19.41201813 94.72034363 -19.41641235 95.8341217 C-19.41595917 97.03048752 -19.41550598 98.22685333 -19.41503906 99.45947266 C-19.41839767 100.71140411 -19.42175629 101.96333557 -19.42521667 103.25320435 C-19.43311353 106.69753719 -19.43639573 110.14180977 -19.43703246 113.58614755 C-19.43798017 116.45886283 -19.44165702 119.33157228 -19.44520456 122.20428532 C-19.45335788 128.98222185 -19.45578806 135.76014508 -19.45507812 142.53808594 C-19.45447768 149.53343797 -19.46502081 156.52871279 -19.48082179 163.52404529 C-19.4938943 169.52493126 -19.49926212 175.52579199 -19.49862272 181.52669209 C-19.49836756 185.1128216 -19.50122798 188.69888259 -19.51180077 192.28499794 C-19.52327335 196.28591819 -19.51873669 200.28666553 -19.51269531 204.28759766 C-19.52112457 206.07303734 -19.52112457 206.07303734 -19.52972412 207.89454651 C-19.52552963 208.98402588 -19.52133514 210.07350525 -19.51701355 211.19599915 C-19.5178307 212.6154557 -19.5178307 212.6154557 -19.51866436 214.06358814 C-19.2585221 216.68084479 -18.59942788 218.31999052 -17.26977539 220.56762695 C6.6517528 220.61431488 30.57327417 220.64960005 54.49483871 220.6712513 C65.60163647 220.68157083 76.70840594 220.69564411 87.81518555 220.71850586 C97.49405951 220.738419 107.172913 220.75133846 116.85180688 220.75580394 C121.97831523 220.75841484 127.10476498 220.76456566 132.23125458 220.77908707 C137.05416769 220.79263817 141.87699794 220.7968546 146.69992828 220.79384232 C148.47206573 220.79439359 150.24420589 220.79838572 152.0163269 220.8060379 C154.43227212 220.8159605 156.84790277 220.81360571 159.26385498 220.80813599 C159.9681381 220.81396167 160.67242122 220.81978735 161.39804626 220.82578957 C165.012961 220.80360627 167.65407277 220.5436324 170.73022461 218.56762695 C170.40022461 219.88762695 170.07022461 221.20762695 169.73022461 222.56762695 C168.41022461 222.89762695 167.09022461 223.22762695 165.73022461 223.56762695 C165.73022461 224.22762695 165.73022461 224.88762695 165.73022461 225.56762695 C141.28706096 225.53048767 116.84404434 225.47066734 92.40100479 225.38372421 C81.05208341 225.3438873 69.70323184 225.31151847 58.35424805 225.29663086 C48.46434354 225.28363843 38.57459234 225.25673556 28.68477416 225.21301389 C23.44646353 225.1903448 18.20834237 225.17471953 12.96997833 225.1757431 C8.04185172 225.1764865 3.11414479 225.15866496 -1.81387329 225.12645912 C-3.62468808 225.11792388 -5.43554976 225.11623463 -7.24637604 225.12182426 C-9.71526214 225.12843144 -12.18280003 225.11062406 -14.65155029 225.08660889 C-15.73132066 225.09824951 -15.73132066 225.09824951 -16.83290458 225.1101253 C-20.19691908 225.05202726 -21.97743627 224.791085 -24.68341446 222.72269058 C-27.7406132 218.56950093 -27.40851716 214.47111224 -27.39002991 209.53816223 C-27.39088433 208.71072138 -27.39173876 207.88328053 -27.39261907 207.03076571 C-27.39427075 204.24851604 -27.38875757 201.46632619 -27.38330078 198.68408203 C-27.38301882 196.69351706 -27.38317683 194.70295199 -27.38374329 192.71238708 C-27.3840309 187.29950516 -27.37814 181.88664527 -27.37116933 176.47376847 C-27.36492978 170.82029726 -27.36433151 165.16682557 -27.36314392 159.51335144 C-27.36003239 148.80365795 -27.35182138 138.09397463 -27.34179443 127.38428563 C-27.3306278 115.19339737 -27.32512145 103.00250864 -27.320099 90.81161654 C-27.30963863 65.73028103 -27.2920426 40.64895456 -27.26977539 15.56762695 C-27.31875977 16.30368164 -27.36774414 17.03973633 -27.41821289 17.7980957 C-27.49297852 18.77391602 -27.56774414 19.74973633 -27.64477539 20.75512695 C-27.71438477 21.71805664 -27.78399414 22.68098633 -27.85571289 23.6730957 C-28.27398784 26.59707434 -29.11590393 28.86324073 -30.26977539 31.56762695 C-30.64570605 33.56005945 -30.98957084 35.55949436 -31.26977539 37.56762695 C-31.59977539 37.56762695 -31.92977539 37.56762695 -32.26977539 37.56762695 C-32.4460908 33.92241897 -32.55128893 30.27832467 -32.64477539 26.63012695 C-32.69504883 25.60854492 -32.74532227 24.58696289 -32.79711914 23.53442383 C-32.91994343 17.12709027 -32.03148481 12.93467092 -28.44799805 7.60058594 C-19.92270094 -0.35616692 -11.02461306 -0.12516745 0 0 Z " fill="#FE9781" transform="translate(54.269775390625,11.432373046875)"/>
<path d="M0 0 C22.64441868 -0.09353114 45.28880541 -0.16402226 67.93337822 -0.20724869 C78.44816427 -0.22785488 88.96283015 -0.25593836 99.47753906 -0.30175781 C108.64447618 -0.34168502 117.81132624 -0.36744693 126.9783479 -0.37635398 C131.83014591 -0.38155875 136.6816949 -0.39375137 141.53341293 -0.42292023 C146.10525772 -0.45018233 150.67675222 -0.45842326 155.24867058 -0.45243073 C156.92154917 -0.45352615 158.59444015 -0.46141555 160.26724815 -0.4768219 C170.14593673 -0.56329803 179.50872855 -0.59774703 187.47265625 6.0703125 C187.99730469 6.74835937 188.52195313 7.42640625 189.0625 8.125 C189.88427734 9.14980469 189.88427734 9.14980469 190.72265625 10.1953125 C193.42386703 14.01170205 193.13714873 17.38443486 193.12025452 21.90921021 C193.12153615 23.14908984 193.12153615 23.14908984 193.12284368 24.41401756 C193.12449819 27.19937321 193.11897758 29.98466938 193.11352539 32.77001953 C193.11324349 34.760437 193.11340132 36.75085457 193.1139679 38.74127197 C193.11425575 44.1583452 193.10836103 49.57539644 193.10139394 54.99246454 C193.09515832 60.6486109 193.09455644 66.30475772 193.09336853 71.96090698 C193.09025583 82.67771696 193.08204326 93.39451678 193.07201904 104.11132228 C193.06085601 116.30944236 193.05534697 128.5075629 193.05032361 140.70568681 C193.0398606 165.80379684 193.02226234 190.90189785 193 216 C192.34 216 191.68 216 191 216 C191.12375 217.010625 191.2475 218.02125 191.375 219.0625 C190.88687146 224.18784969 188.82258658 226.67715525 185 230 C181.31977213 232.42830401 177.64401215 232.28575895 173.38418579 232.26742554 C172.61321009 232.27195665 171.84223439 232.27648776 171.04789579 232.28115618 C168.46237104 232.29382472 165.87705627 232.29217824 163.29150391 232.29052734 C161.43860096 232.29651105 159.58570051 232.30331623 157.73280334 232.31088257 C152.69766065 232.32856552 147.66258592 232.33323891 142.62741518 232.33451414 C138.42508264 232.33641249 134.22276595 232.34376927 130.02043951 232.35085833 C120.10639161 232.36714851 110.19238005 232.3720267 100.27832031 232.37060547 C90.04905367 232.36940376 79.81999793 232.39051003 69.59078467 232.4220928 C60.81020572 232.44823752 52.02969573 232.45897353 43.24907815 232.45769465 C38.00402629 232.4571845 32.75916183 232.46289707 27.51414871 232.48405075 C22.58109631 232.50340279 17.64841066 232.50357836 12.71534538 232.48901749 C10.90534238 232.48692454 9.09531661 232.49165915 7.28535271 232.5037384 C4.81306379 232.51916855 2.34204298 232.50989836 -0.13021851 232.49447632 C-0.84540221 232.50476344 -1.56058591 232.51505057 -2.29744184 232.52564943 C-7.3146477 232.45655186 -10.11425159 231.10643021 -14 228 C-19.44365156 222.25392335 -20.30000236 216.45074368 -20.24050903 208.7616272 C-20.24221788 207.94795728 -20.24392673 207.13428736 -20.24568737 206.29596078 C-20.24897321 203.57823882 -20.23799352 200.86076551 -20.22705078 198.14306641 C-20.22648647 196.19146734 -20.22680361 194.23986786 -20.22793579 192.28826904 C-20.22850953 186.99536747 -20.21675168 181.70255658 -20.20278788 176.40967607 C-20.19028415 170.87634268 -20.1891103 165.34300721 -20.18673706 159.80966187 C-20.18052125 149.33379851 -20.16410903 138.85797691 -20.14403808 128.38213193 C-20.12168226 116.45477695 -20.11068644 104.52741998 -20.10064721 92.60004926 C-20.07974292 68.06667636 -20.04456494 43.53334052 -20 19 C-19.67 19 -19.34 19 -19 19 C-18.67 23.62 -18.34 28.24 -18 33 C-16.02992524 28.07481309 -15.6239478 24.60243562 -15.34375 19.42578125 C-15 17 -15 17 -13 15 C-13.00276538 16.04675242 -13.00553076 17.09350485 -13.00837994 18.17197704 C-13.07494039 43.62657575 -13.12425912 69.08116319 -13.15543652 94.5358305 C-13.17091391 106.84545164 -13.19202014 119.15501534 -13.22631836 131.46459961 C-13.25619395 142.19201168 -13.27556865 152.91938216 -13.28226548 163.64683467 C-13.28618085 169.32840264 -13.29540071 175.00985159 -13.31719017 180.69138145 C-13.33752619 186.03715442 -13.34383961 191.38275915 -13.33932304 196.72856712 C-13.34014953 198.69218357 -13.34613228 200.65580554 -13.35761642 202.61938858 C-13.37251534 205.29783291 -13.3689631 207.97563981 -13.36076355 210.65409851 C-13.36950207 211.43328776 -13.3782406 212.212477 -13.38724393 213.01527804 C-13.35025782 217.47708175 -12.99328501 220.58709394 -10 224 C-6.0284871 225.43549029 -1.73663975 225.1496861 2.45254517 225.15148926 C3.56446277 225.15783787 3.56446277 225.15783787 4.69884336 225.16431475 C7.17764898 225.17730978 9.65642245 225.18335824 12.13525391 225.18945312 C13.9143544 225.19739783 15.69345296 225.20578597 17.47254944 225.21458435 C21.30083275 225.23262539 25.12911186 225.24764652 28.95741653 225.26036072 C35.00755804 225.28059037 41.05765161 225.30824028 47.10775757 225.33703613 C61.03976148 225.40221273 74.97180089 225.45768615 88.90384674 225.51302338 C101.67795849 225.56385132 114.45205279 225.61671208 127.22612131 225.67754889 C133.2440522 225.70592644 139.26197736 225.72951167 145.2799418 225.74947357 C149.01780515 225.76284073 152.75564161 225.78025377 156.49348259 225.79878426 C158.23055658 225.80655313 159.96763913 225.81261708 161.70472527 225.81687737 C164.07033691 225.82290717 166.43584347 225.83494712 168.80142212 225.84851074 C169.8395909 225.84895472 169.8395909 225.84895472 170.89873278 225.84940767 C173.88276394 225.87229372 176.14257095 226.04752365 179 227 C179 226.34 179 225.68 179 225 C179.5775 224.814375 180.155 224.62875 180.75 224.4375 C184.00236448 222.35960047 185.53131475 219.47807243 187 216 C187.37225681 213.18279754 187.54526537 210.76588137 187.51225281 207.96095276 C187.52244634 206.79051034 187.52244634 206.79051034 187.5328458 205.59642261 C187.55071983 202.99701433 187.54035757 200.39850968 187.5300293 197.79907227 C187.53713072 195.92926311 187.54599572 194.05945995 187.55648804 192.18966675 C187.58007172 187.12145191 187.57936911 182.05349475 187.57457328 176.98523831 C187.57397926 171.67581363 187.59668179 166.36649152 187.61714172 161.05711365 C187.65254785 150.99811209 187.66856783 140.93918274 187.6769169 130.88012594 C187.6898669 116.12568359 187.72820616 101.37130238 187.77101612 86.61691952 C187.77415481 85.53369193 187.77729349 84.45046435 187.78052729 83.33441168 C187.78680837 81.17404429 187.79315197 79.01367707 187.79955989 76.85331005 C187.81759406 70.53569106 187.82872385 64.21810746 187.83385694 57.90046513 C187.83769803 53.96679791 187.84531662 50.03314345 187.8536644 46.09948349 C187.85661606 44.27903757 187.85786217 42.45858794 187.85725212 40.63813972 C187.85658139 38.14740657 187.86195818 35.65675343 187.86869812 33.16603088 C187.86607256 32.09339055 187.86607256 32.09339055 187.86339396 30.99908072 C187.88451427 26.24547345 188.33804065 21.69706897 189 17 C189.66 17 190.32 17 191 17 C189.7377001 11.10926715 186.761472 8.33503946 182 5 C178.31021578 2.64046564 175.08163575 2.73978156 170.76141357 2.7215271 C169.66597854 2.7128385 169.66597854 2.7128385 168.54841352 2.70397437 C166.10091585 2.68696669 163.65360667 2.68409723 161.20605469 2.68115234 C159.45178769 2.67185469 157.69752513 2.66168626 155.94326782 2.65071106 C151.17920322 2.62337862 146.41516825 2.60825203 141.6510458 2.59528303 C136.67286717 2.5796667 131.69474916 2.55287171 126.71661377 2.5272522 C117.28903926 2.48043788 107.86145337 2.4437066 98.43382192 2.41057932 C87.70112688 2.37237668 76.96849268 2.32296166 66.2358489 2.27259517 C44.15727751 2.16923585 22.07866762 2.07998845 0 2 C0 1.34 0 0.68 0 0 Z " fill="#EE1F0E" transform="translate(41,10)"/>
<path d="M0 0 C0.99518567 2.98555702 1.11325764 4.88747177 1.08901978 8.00048828 C1.08342545 9.03419052 1.07783112 10.06789276 1.07206726 11.13291931 C1.06069229 12.26725906 1.04931732 13.40159882 1.03759766 14.5703125 C1.02959641 15.76608414 1.02159515 16.96185577 1.01335144 18.19386292 C0.99019708 21.48263724 0.96242686 24.77130964 0.93239641 28.06002426 C0.90161726 31.52672619 0.87604429 34.99346714 0.84970093 38.46020508 C0.80443851 44.30797652 0.75501624 50.15570183 0.703125 56.00341797 C0.64382284 62.69154653 0.59078491 69.37970093 0.54135668 76.06790924 C0.49327218 82.55464328 0.44060851 89.04133301 0.38599777 95.52801514 C0.36308419 98.25770183 0.34163162 100.98739353 0.32149124 103.71710205 C0.2162983 117.48810519 0.03445674 131.25445196 -0.39697266 145.01953125 C-0.42649206 146.14042648 -0.45601147 147.26132172 -0.4864254 148.41618347 C-0.67233091 153.66290729 -1.0264771 158.06947196 -3 163 C-3.22208792 165.91241935 -3.22208792 165.91241935 -3.09375 168.91796875 C-2.97467941 176.39708992 -3.22026012 183.83890901 -3.5 191.3125 C-3.54839047 192.65038292 -3.59656855 193.98827355 -3.64453125 195.32617188 C-3.76094608 198.55086275 -3.87946846 201.77546083 -4 205 C-6.48216306 201.27675541 -6.27345241 198.42951821 -6.24050903 194.12239075 C-6.24221788 193.31128411 -6.24392673 192.50017746 -6.24568737 191.66449183 C-6.24899046 188.93745316 -6.23796512 186.21065871 -6.22705078 183.48364258 C-6.22648684 181.53248602 -6.22680288 179.58132904 -6.22793579 177.63017273 C-6.22851099 172.32469749 -6.21672968 167.01931218 -6.20278788 161.71385789 C-6.19030831 156.17249902 -6.18911221 150.63113821 -6.18673706 145.08976746 C-6.18051412 134.59255471 -6.1640923 124.09538349 -6.14403808 113.59818906 C-6.12170438 101.6491386 -6.11069202 89.70008619 -6.10064721 77.75102007 C-6.07972678 53.16732367 -6.044535 28.58366416 -6 4 C-5.67 4 -5.34 4 -5 4 C-4.67 8.62 -4.34 13.24 -4 18 C-2.33984396 13.8496099 -1.71110366 11.57955277 -1.4375 7.3125 C-1.09828393 2.19656786 -1.09828393 2.19656786 0 0 Z " fill="#FD422E" transform="translate(27,25)"/>
<path d="M0 0 C0.66 0 1.32 0 2 0 C2.75957457 11.87186919 2.55507213 21.48710911 -5.7109375 30.9609375 C-12.78433896 37.5222375 -20.95315956 39.11906096 -30.36747742 39.14044189 C-31.09973331 39.14341302 -31.8319892 39.14638414 -32.58643466 39.1494453 C-35.03509245 39.15810259 -37.48370118 39.15963803 -39.93237305 39.16113281 C-41.6902629 39.16576313 -43.44815174 39.17078808 -45.20603943 39.17617798 C-49.97898947 39.18928432 -54.75192545 39.19574361 -59.52489066 39.20018864 C-62.5091831 39.20312251 -65.49347171 39.20722793 -68.47776222 39.21169281 C-77.82164513 39.22536374 -87.16551929 39.2350321 -96.50941151 39.2388947 C-107.28286322 39.24337312 -118.0561879 39.26091274 -128.82960099 39.2898953 C-137.16524822 39.31153861 -145.50085978 39.32160041 -153.8365348 39.32293582 C-158.81115945 39.32398204 -163.78566464 39.32985084 -168.76025963 39.34775543 C-173.44294646 39.36428171 -178.12542459 39.36636955 -182.80813026 39.35761642 C-184.52131333 39.35684846 -186.23450782 39.36115688 -187.94766235 39.37107468 C-196.67334381 39.41860359 -204.78072424 39.37112593 -213 36 C-209.84271664 34.98515892 -208.159779 35.18782466 -205 36 C-202.48758007 36.09345569 -200.00346022 36.13489134 -197.49134827 36.12698364 C-196.73191766 36.12854363 -195.97248705 36.13010362 -195.19004339 36.13171089 C-192.64368436 36.13570154 -190.09738488 36.1325387 -187.55102539 36.12939453 C-185.7260586 36.13074944 -183.90109209 36.13252988 -182.0761261 36.13470459 C-177.11750089 36.13926857 -172.15889647 36.13749351 -167.20027089 36.1343255 C-162.01359453 36.1317962 -156.82691996 36.13414108 -151.64024353 36.13571167 C-142.92853475 36.13753185 -134.21683445 36.13513118 -125.50512695 36.13037109 C-115.4315638 36.12493047 -105.35802088 36.12669029 -95.28445822 36.1321975 C-86.63893398 36.13673496 -77.99341584 36.13737602 -69.34789079 36.13475883 C-64.18286745 36.13319933 -59.01785362 36.13299334 -53.85283089 36.13629532 C-48.99622207 36.13918313 -44.13963936 36.13718152 -39.28303337 36.13140106 C-37.50002969 36.13007829 -35.71702381 36.13045941 -33.934021 36.13266373 C-31.50119609 36.13539419 -29.06845494 36.13197079 -26.63563538 36.12698364 C-25.92921168 36.12921436 -25.22278798 36.13144509 -24.49495751 36.13374341 C-20.87089272 36.11932375 -17.52490453 35.85747492 -14 35 C-14 34.34 -14 33.68 -14 33 C-13.21625 32.9175 -12.4325 32.835 -11.625 32.75 C-8.85250896 32.27193661 -8.85250896 32.27193661 -7.6875 29.9375 C-7.3471875 28.9784375 -7.3471875 28.9784375 -7 28 C-6.34 28 -5.68 28 -5 28 C-4.31653318 26.34015202 -3.65411685 24.67163195 -3 23 C-2.6596875 22.13375 -2.319375 21.2675 -1.96875 20.375 C-0.78559763 16.25304981 -0.54852654 12.39086085 -0.375 8.125 C-0.31699219 6.949375 -0.31699219 6.949375 -0.2578125 5.75 C-0.16433378 3.83368633 -0.08111505 1.91687681 0 0 Z " fill="#B30B06" transform="translate(241,213)"/>
<path d="M0 0 C1.29916931 3.89750794 1.04713145 7.53231283 0.94580078 11.58642578 C0.92804596 12.46307892 0.91029114 13.33973206 0.89199829 14.24295044 C0.83177884 17.14387984 0.76377212 20.04456671 0.6953125 22.9453125 C0.65111324 24.9564443 0.6072434 26.96758336 0.56369019 28.97872925 C0.47119517 33.1937502 0.37488486 37.40866225 0.27587891 41.62353516 C0.14895761 47.03877603 0.03120344 52.45417007 -0.08375359 57.86967659 C-0.17284132 62.02172107 -0.26660354 66.17364966 -0.36182022 70.32555771 C-0.40708901 72.32311729 -0.45091839 74.32071002 -0.49331284 76.31833267 C-0.55314431 79.10314364 -0.6192115 81.88773651 -0.68701172 84.67236328 C-0.70368896 85.50562134 -0.72036621 86.33887939 -0.73754883 87.1973877 C-0.88571681 92.88571681 -0.88571681 92.88571681 -2 94 C-2.23287008 95.68183948 -2.41264166 97.3712416 -2.5625 99.0625 C-2.64628906 99.98160156 -2.73007812 100.90070313 -2.81640625 101.84765625 C-2.87699219 102.55792969 -2.93757813 103.26820313 -3 104 C-3.66 104 -4.32 104 -5 104 C-5.78567676 101.22068333 -6.12403057 98.75935536 -6.12025452 95.87445068 C-6.12231651 94.65456451 -6.12231651 94.65456451 -6.12442017 93.41003418 C-6.11902725 92.08509949 -6.11902725 92.08509949 -6.11352539 90.73339844 C-6.11367142 89.79647156 -6.11381744 88.85954468 -6.1139679 87.89422607 C-6.11327157 84.79925212 -6.10549223 81.70433844 -6.09765625 78.609375 C-6.09579108 76.46274854 -6.09436764 74.31612166 -6.09336853 72.16949463 C-6.08955118 66.52078068 -6.07972754 60.87209246 -6.06866455 55.22338867 C-6.05843364 49.45882516 -6.0538673 43.69425748 -6.04882812 37.9296875 C-6.0381046 26.61978037 -6.02103753 15.30989232 -6 4 C-5.67 4 -5.34 4 -5 4 C-4.67 8.62 -4.34 13.24 -4 18 C-2.33984396 13.8496099 -1.71110366 11.57955277 -1.4375 7.3125 C-1.09828393 2.19656786 -1.09828393 2.19656786 0 0 Z " fill="#FD5C48" transform="translate(27,25)"/>
<path d="M0 0 C5.42954883 0.31938523 8.7305158 1.64540527 13 5 C13.495 5.99 13.495 5.99 14 7 C13.030625 6.814375 12.06125 6.62875 11.0625 6.4375 C10.051875 6.293125 9.04125 6.14875 8 6 C7.67 6.33 7.34 6.66 7 7 C7.94875 7.7425 8.8975 8.485 9.875 9.25 C12.32128929 11.30395987 14.02408746 12.87707986 15 16 C15.125 18.75 15.125 18.75 15 21 C10.44272158 19.27137715 9.09165143 16.18330285 7 12 C7.99 12 8.98 12 10 12 C9.01 11.38125 8.02 10.7625 7 10.125 C6.01 9.42375 5.02 8.7225 4 8 C4 7.34 4 6.68 4 6 C3.36707031 6.16226074 2.73414063 6.32452148 2.08203125 6.49169922 C-2.06605263 7.17581761 -6.11539202 7.14239761 -10.3125 7.1328125 C-11.68322159 7.13485939 -11.68322159 7.13485939 -13.08163452 7.13694763 C-16.05445989 7.13897342 -19.0271848 7.13265652 -22 7.125 C-23.01120911 7.12378143 -24.02241821 7.12256287 -25.06427002 7.12130737 C-46.72879438 7.09059918 -68.39589595 6.75370102 -90 5 C-86.22479796 2.48319864 -83.16076009 2.66020856 -78.78076172 2.60522461 C-77.52430344 2.57793526 -77.52430344 2.57793526 -76.24246216 2.5500946 C-73.47163658 2.49198489 -70.70075464 2.44732115 -67.9296875 2.40234375 C-66.00820963 2.36373764 -64.08675147 2.32413828 -62.16531372 2.28358459 C-57.10566375 2.17883161 -52.04587642 2.0848067 -46.98596191 1.99383545 C-38.87899891 1.84702896 -30.77230437 1.68738082 -22.66571426 1.52136421 C-19.82667685 1.46527816 -16.98757668 1.41579505 -14.14840698 1.3669281 C-12.41908337 1.33330258 -10.68976385 1.29946523 -8.96044922 1.26538086 C-8.16459412 1.25341675 -7.36873901 1.24145264 -6.54876709 1.22912598 C-2.9766333 1.47825815 -2.9766333 1.47825815 0 0 Z " fill="#FE6A53" transform="translate(214,12)"/>
<path d="M0 0 C1.35094757 0.0001133 1.35094757 0.0001133 2.72918701 0.00022888 C4.1746994 0.00797081 4.1746994 0.00797081 5.64941406 0.01586914 C6.64257629 0.01728409 7.63573853 0.01869904 8.65899658 0.02015686 C11.82770818 0.02574951 14.99634885 0.03830069 18.16503906 0.05102539 C20.31477762 0.05604134 22.4645173 0.06060408 24.61425781 0.06469727 C29.88120905 0.07571653 35.14811899 0.09244739 40.41503906 0.11352539 C40.91003906 1.10352539 40.91003906 1.10352539 41.41503906 2.11352539 C39.98804687 2.09612305 39.98804687 2.09612305 38.53222656 2.07836914 C34.54493112 2.04372247 30.5590481 2.06511969 26.57177734 2.09692383 C24.29153535 2.10891582 22.01121254 2.10794358 19.73095703 2.09887695 C16.39900298 2.09145336 13.07052193 2.11135428 9.73907471 2.15725708 C7.75532934 2.1757661 5.77135789 2.15941882 3.78759766 2.14257812 C2.54703613 2.16521729 1.30647461 2.18785645 0.02832031 2.21118164 C-1.63009888 2.21903687 -1.63009888 2.21903687 -3.32202148 2.22705078 C-8.12885635 3.53297053 -10.88278784 5.93187024 -13.58496094 10.11352539 C-14.60175594 14.44919692 -14.52903474 18.67973941 -14.47143555 23.1171875 C-14.48759918 25.06455811 -14.48759918 25.06455811 -14.50408936 27.05126953 C-14.53271651 30.59457321 -14.51863169 34.13654971 -14.4966476 37.67985225 C-14.4809748 41.38884784 -14.50489874 45.09758749 -14.52455139 48.80653381 C-14.55574632 55.8223569 -14.55153425 62.83769019 -14.53447682 69.85354382 C-14.51678315 77.84398048 -14.53875032 85.83415589 -14.5639838 93.82455432 C-14.61498344 110.25432236 -14.61638885 126.68370383 -14.58496094 143.11352539 C-14.91496094 143.11352539 -15.24496094 143.11352539 -15.58496094 143.11352539 C-16.42110002 135.34256209 -16.7425553 127.6654037 -16.76196289 119.85253906 C-16.76853409 118.68038849 -16.77510529 117.50823792 -16.78187561 116.30056763 C-16.80142747 112.46087566 -16.81322329 108.62122223 -16.82324219 104.78149414 C-16.82731771 103.4641308 -16.83139324 102.14676746 -16.83559227 100.78948402 C-16.85456734 94.54566592 -16.86882524 88.3018592 -16.87720424 82.05801791 C-16.88700815 74.87455598 -16.91344119 67.69139957 -16.95370513 60.50804538 C-16.98387374 54.93325108 -16.99867299 49.35854458 -17.00198525 43.78367025 C-17.00433081 40.46242014 -17.01521784 37.14157398 -17.03844643 33.82039452 C-17.0627267 30.12252463 -17.061894 26.42546382 -17.05493164 22.72753906 C-17.0677417 21.63495285 -17.08055176 20.54236664 -17.09375 19.41667175 C-17.05171374 13.29955746 -16.63460682 9.7874004 -12.58496094 5.11352539 C-11.92496094 4.35040039 -11.26496094 3.58727539 -10.58496094 2.80102539 C-7.33578959 0.05953707 -4.14250742 -0.01163626 0 0 Z " fill="#FDC7BA" transform="translate(43.5849609375,16.886474609375)"/>
<path d="M0 0 C0.66 0 1.32 0 2 0 C2 59.73 2 119.46 2 181 C1.34 181 0.68 181 0 181 C-1.11674659 171.70829213 -1.10029141 162.48333851 -1.02172852 153.14575195 C-1.01156603 151.4692766 -1.00187456 149.79279833 -0.99261475 148.11631775 C-0.96633074 143.59641161 -0.93351278 139.0765744 -0.89946485 134.55672097 C-0.86492496 129.82154482 -0.83647306 125.08633205 -0.80735779 120.35112 C-0.75139376 111.39829795 -0.69000503 102.44552176 -0.62663645 93.49274939 C-0.55471805 83.29440799 -0.48889413 73.09603005 -0.42356598 62.89764464 C-0.28912811 41.93171562 -0.14708924 20.96584383 0 0 Z " fill="#B30000" transform="translate(241,30)"/>
<path d="M0 0 C0.79091537 -0.00073013 1.58183075 -0.00146027 2.39671326 -0.00221252 C4.99451808 0.00125342 7.59049921 0.04006472 10.18798828 0.0793457 C11.99544292 0.08867743 13.80291025 0.09579184 15.61038208 0.1007843 C20.35521695 0.1198259 25.09927999 0.16890192 29.84381104 0.2243042 C34.69020142 0.27555814 39.53671718 0.29831144 44.38330078 0.32348633 C53.88363889 0.37702367 63.38340552 0.46230184 72.88330078 0.56762695 C72.55330078 1.22762695 72.22330078 1.88762695 71.88330078 2.56762695 C70.41537834 2.5730954 70.41537834 2.5730954 68.9178009 2.57867432 C59.6921376 2.61562671 50.466808 2.67340195 41.24139881 2.75152969 C36.49856501 2.7910273 31.75591751 2.82320454 27.01293945 2.83862305 C22.43506814 2.85377465 17.85770892 2.88819339 13.28006554 2.93593597 C11.53423198 2.95076526 9.78832531 2.95866886 8.04242897 2.9595108 C5.59535855 2.96187763 3.14970662 2.98893228 0.70288086 3.02172852 C-0.0178511 3.01669815 -0.73858307 3.01166779 -1.4811554 3.00648499 C-4.88478493 3.07699519 -7.06665006 3.54009639 -10.06420898 5.18896484 C-12.76204696 8.31553025 -12.75299612 10.07094341 -12.77612305 14.17211914 C-12.78660675 14.82619247 -12.79709045 15.48026581 -12.80789185 16.15415955 C-12.83660841 18.30809161 -12.83035554 20.46041304 -12.82373047 22.61450195 C-12.83684781 24.11096203 -12.85215216 25.6074044 -12.86955261 27.1038208 C-12.90941248 31.0362888 -12.91959358 34.96829376 -12.92358398 38.90093994 C-12.93291373 42.91628067 -12.97032615 46.93134913 -13.00537109 50.9465332 C-13.06995676 58.8202361 -13.10318862 66.69367155 -13.11669922 74.56762695 C-14.10669922 75.06262695 -14.10669922 75.06262695 -15.11669922 75.56762695 C-15.13985656 66.8837284 -15.15763165 58.19984046 -15.16851139 49.51591778 C-15.17373278 45.4837453 -15.18081696 41.45159393 -15.19213867 37.41943359 C-15.20299394 33.52910466 -15.20898167 29.63879605 -15.21157646 25.74845314 C-15.21342594 24.26328016 -15.21703743 22.7781083 -15.22242928 21.29294395 C-15.2296747 19.21480266 -15.23068868 17.13674562 -15.23022461 15.05859375 C-15.23244522 13.87500778 -15.23466583 12.69142181 -15.23695374 11.4719696 C-15.06676054 7.36152645 -14.4483272 5.91182035 -11.56149292 2.91560364 C-7.94845634 0.05524077 -4.48228184 -0.10950125 0 0 Z " fill="#FE7A6D" transform="translate(49.11669921875,23.432373046875)"/>
<path d="M0 0 C0.8494368 0.00916946 1.6988736 0.01833893 2.5740509 0.02778625 C5.36659625 0.06270706 8.15769064 0.12638664 10.94970703 0.19042969 C12.89166655 0.22034433 14.83365461 0.24845608 16.77566528 0.27484131 C21.87567165 0.3489641 26.97492234 0.44752038 32.07440186 0.5512085 C37.28260159 0.65276905 42.49114466 0.73116486 47.69970703 0.81152344 C57.91111288 0.97247525 68.12187024 1.15924739 78.33251953 1.36230469 C78.33251953 1.69230469 78.33251953 2.02230469 78.33251953 2.36230469 C76.89338196 2.37110405 76.89338196 2.37110405 75.4251709 2.38008118 C66.36235579 2.43741299 57.29977821 2.51022896 48.23720551 2.5980196 C43.57856492 2.64265598 38.92001043 2.68192682 34.26123047 2.70874023 C29.76121861 2.73484054 25.26153926 2.77529016 20.76173401 2.82549095 C19.04907889 2.84211429 17.33636631 2.85365671 15.62364197 2.85991859 C13.21570369 2.86960936 10.80860741 2.89772633 8.40087891 2.92993164 C7.70028351 2.92849655 6.99968811 2.92706146 6.27786255 2.92558289 C0.468628 3.03473453 -5.23807573 4.21429818 -9.69091797 8.15136719 C-10.13693359 8.75722656 -10.58294922 9.36308594 -11.04248047 9.98730469 C-13.54544657 13.30128774 -13.54544657 13.30128774 -15.66748047 14.36230469 C-16.06151907 16.78120618 -16.06151907 16.78120618 -16.16748047 19.61230469 C-16.38588522 23.65279258 -17.07379248 26.64987647 -18.66748047 30.36230469 C-19.04341113 32.35473718 -19.38727592 34.35417209 -19.66748047 36.36230469 C-19.99748047 36.36230469 -20.32748047 36.36230469 -20.66748047 36.36230469 C-20.84379587 32.71709671 -20.94899401 29.07300241 -21.04248047 25.42480469 C-21.09275391 24.40322266 -21.14302734 23.38164063 -21.19482422 22.32910156 C-21.32055731 15.77002537 -20.37058397 11.66331978 -16.55273438 6.29760742 C-11.30490828 0.91046452 -7.1987428 -0.21572198 0 0 Z " fill="#FE8373" transform="translate(42.66748046875,12.6376953125)"/>
<path d="M0 0 C0.33 0 0.66 0 1 0 C1.09802784 16.06600872 1.15215191 32.12783377 0.625 48.1875 C0.59414307 49.29520752 0.56328613 50.40291504 0.53149414 51.54418945 C0.4927417 52.57503662 0.45398926 53.60588379 0.4140625 54.66796875 C0.3826416 55.55766357 0.3512207 56.4473584 0.31884766 57.36401367 C0 60 0 60 -1.02001953 62.96337891 C-2.0569858 66.17657933 -2.18700107 68.55740632 -2.09375 71.91796875 C-1.97467941 79.39708992 -2.22026012 86.83890901 -2.5 94.3125 C-2.54839047 95.65038292 -2.59656855 96.98827355 -2.64453125 98.32617188 C-2.76094608 101.55086275 -2.87946846 104.77546083 -3 108 C-5.29790514 104.5531423 -5.24434461 103.29881048 -5.22705078 99.2434082 C-5.22689972 98.06241043 -5.22674866 96.88141266 -5.22659302 95.66462708 C-5.21110916 93.75202339 -5.21110916 93.75202339 -5.1953125 91.80078125 C-5.1924826 90.49545944 -5.18965271 89.19013763 -5.18673706 87.84526062 C-5.17910747 84.37804485 -5.15946493 80.91099712 -5.1373291 77.44384766 C-5.11685605 73.90464552 -5.10773223 70.36541618 -5.09765625 66.82617188 C-5.0762183 59.88404563 -5.04209056 52.94203089 -5 46 C-4.67 46 -4.34 46 -4 46 C-3.34 41.38 -2.68 36.76 -2 32 C-1.34 32 -0.68 32 0 32 C0 21.44 0 10.88 0 0 Z " fill="#FD3B24" transform="translate(26,122)"/>
<path d="M0 0 C0.66 0 1.32 0 2 0 C2.75957457 11.87186919 2.55507213 21.48710911 -5.7109375 30.9609375 C-11.95493058 36.75287679 -19.53495671 39.13579167 -27.97387695 39.11352539 C-28.93449539 39.11344986 -29.89511383 39.11337433 -30.88484192 39.11329651 C-31.9089769 39.10813522 -32.93311188 39.10297394 -33.98828125 39.09765625 C-35.04661667 39.0962413 -36.10495209 39.09482635 -37.19535828 39.09336853 C-40.56776789 39.08778159 -43.94011054 39.07523144 -47.3125 39.0625 C-49.60221258 39.05748331 -51.89192621 39.0529207 -54.18164062 39.04882812 C-59.78778317 39.03781643 -65.3938868 39.02109126 -71 39 C-71 38.34 -71 37.68 -71 37 C-56.58228276 36.29090102 -42.21081185 35.88297792 -27.77416992 36.03710938 C-26.6988501 36.04548828 -25.62353027 36.05386719 -24.515625 36.0625 C-23.56977539 36.07410156 -22.62392578 36.08570313 -21.64941406 36.09765625 C-18.99625238 35.99986186 -16.58340258 35.59463911 -14 35 C-14 34.34 -14 33.68 -14 33 C-13.21625 32.9175 -12.4325 32.835 -11.625 32.75 C-8.85250896 32.27193661 -8.85250896 32.27193661 -7.6875 29.9375 C-7.460625 29.298125 -7.23375 28.65875 -7 28 C-6.34 28 -5.68 28 -5 28 C-4.31653318 26.34015202 -3.65411685 24.67163195 -3 23 C-2.6596875 22.13375 -2.319375 21.2675 -1.96875 20.375 C-0.78559763 16.25304981 -0.54852654 12.39086085 -0.375 8.125 C-0.33632812 7.34125 -0.29765625 6.5575 -0.2578125 5.75 C-0.16433378 3.83368633 -0.08111505 1.91687681 0 0 Z " fill="#A90703" transform="translate(241,213)"/>
<path d="M0 0 C1.35094757 0.0001133 1.35094757 0.0001133 2.72918701 0.00022888 C4.1746994 0.00797081 4.1746994 0.00797081 5.64941406 0.01586914 C6.64257629 0.01728409 7.63573853 0.01869904 8.65899658 0.02015686 C11.82770818 0.02574951 14.99634885 0.03830069 18.16503906 0.05102539 C20.31477762 0.05604134 22.4645173 0.06060408 24.61425781 0.06469727 C29.88120905 0.07571653 35.14811899 0.09244739 40.41503906 0.11352539 C40.91003906 1.10352539 40.91003906 1.10352539 41.41503906 2.11352539 C39.98804687 2.09612305 39.98804687 2.09612305 38.53222656 2.07836914 C34.54493112 2.04372247 30.5590481 2.06511969 26.57177734 2.09692383 C24.29153535 2.10891582 22.01121254 2.10794358 19.73095703 2.09887695 C16.39900298 2.09145336 13.07052193 2.11135428 9.73907471 2.15725708 C7.75532934 2.1757661 5.77135789 2.15941882 3.78759766 2.14257812 C2.54703613 2.16521729 1.30647461 2.18785645 0.02832031 2.21118164 C-1.63009888 2.21903687 -1.63009888 2.21903687 -3.32202148 2.22705078 C-8.20310678 3.55314287 -11.02616885 5.72130559 -13.58496094 10.11352539 C-14.58233356 14.72223663 -14.53981264 19.22097927 -14.48730469 23.92211914 C-14.49670086 25.25735397 -14.50916551 26.59257039 -14.52455139 27.92774963 C-14.55665097 31.42155464 -14.54738292 34.91404129 -14.5291748 38.40789795 C-14.51798075 41.98114201 -14.54635486 45.55405499 -14.57128906 49.12719727 C-14.61433005 56.12281709 -14.61362452 63.11784156 -14.58496094 70.11352539 C-14.91496094 70.11352539 -15.24496094 70.11352539 -15.58496094 70.11352539 C-15.74770224 62.29856891 -15.8718053 54.48401487 -15.94764614 46.66778564 C-15.98406159 43.03759589 -16.03338799 39.40857171 -16.11303711 35.77905273 C-16.18952917 32.27113534 -16.23103899 28.76433322 -16.24910164 25.25564575 C-16.26818531 23.27682659 -16.32276379 21.29845162 -16.3780365 19.3203125 C-16.38119773 12.02189976 -15.70475173 7.74190154 -10.48280334 2.46459961 C-7.14055706 0.08525411 -4.01124037 -0.01126753 0 0 Z " fill="#FECABB" transform="translate(43.5849609375,16.886474609375)"/>
<path d="M0 0 C-5.78565626 3.06994006 -11.70251047 5.54218361 -17.80688477 7.89306641 C-20.79616473 9.05682309 -23.31672311 10.21114874 -26 12 C-26.4701525 14.38359275 -26.4701525 14.38359275 -26.41650391 17.1965332 C-26.43307037 18.28138504 -26.44963684 19.36623688 -26.46670532 20.48396301 C-26.46995819 21.66101303 -26.47321106 22.83806305 -26.4765625 24.05078125 C-26.49214203 25.25687546 -26.50772156 26.46296967 -26.52377319 27.70561218 C-26.57144796 31.57456775 -26.59909207 35.44334251 -26.625 39.3125 C-26.66151025 43.17081658 -26.70220158 47.02903126 -26.74765015 50.88725281 C-26.77482396 53.29117405 -26.79619804 55.6951693 -26.81118774 58.09919739 C-26.82658096 59.74065987 -26.82658096 59.74065987 -26.84228516 61.4152832 C-26.84878082 62.37521683 -26.85527649 63.33515045 -26.86196899 64.32417297 C-26.99866631 66.97414549 -27.41120636 69.41612304 -28 72 C-28.33 72 -28.66 72 -29 72 C-29 51.54 -29 31.08 -29 10 C-2.86666667 -1.43333333 -2.86666667 -1.43333333 0 0 Z " fill="#FD2815" transform="translate(63,138)"/>
<path d="M0 0 C1.70044504 5.10133511 0.69582276 10.51487506 0.33081055 15.82397461 C0.18829798 17.92573153 0.0613563 20.02804462 -0.06445312 22.13085938 C-0.15269922 23.47141682 -0.24186181 24.8119143 -0.33203125 26.15234375 C-0.41171143 27.36913818 -0.4913916 28.58593262 -0.57348633 29.83959961 C-0.97365305 32.80477318 -1.64598327 34.40852418 -3 37 C-3.36179503 39.41179904 -3.36179503 39.41179904 -3.4140625 41.984375 C-3.45273437 42.91894531 -3.49140625 43.85351562 -3.53125 44.81640625 C-3.5621875 45.78449219 -3.593125 46.75257812 -3.625 47.75 C-3.66367187 48.73355469 -3.70234375 49.71710938 -3.7421875 50.73046875 C-3.83628426 53.15346037 -3.92192328 55.57644796 -4 58 C-4.33 58 -4.66 58 -5 58 C-6.18276234 46.56040797 -6.1153032 35.17368965 -6.0625 23.6875 C-6.05747279 21.77148555 -6.05291206 19.85546982 -6.04882812 17.93945312 C-6.03792424 13.29293647 -6.02072757 8.64648279 -6 4 C-5.67 4 -5.34 4 -5 4 C-4.67 8.62 -4.34 13.24 -4 18 C-2.33984396 13.8496099 -1.71110366 11.57955277 -1.4375 7.3125 C-1.09828393 2.19656786 -1.09828393 2.19656786 0 0 Z " fill="#FC715E" transform="translate(27,25)"/>
<path d="M0 0 C0.309375 0.639375 0.61875 1.27875 0.9375 1.9375 C1.8345163 3.93610821 1.8345163 3.93610821 3 5 C3.10481744 7.86398251 3.14018359 10.69822424 3.125 13.5625 C3.12306641 14.43551758 3.12113281 15.30853516 3.11914062 16.20800781 C3.04997181 27.14820929 2.53186508 38.07413338 2 49 C1.67 49 1.34 49 1 49 C-0.11548332 43.63487263 -0.12858261 38.458154 -0.09765625 33.0078125 C-0.0962413 32.06187225 -0.09482635 31.11593201 -0.09336853 30.1413269 C-0.08779484 27.13585171 -0.0752472 24.13045247 -0.0625 21.125 C-0.0574816 19.08073025 -0.05291929 17.03645932 -0.04882812 14.9921875 C-0.03783403 9.99476264 -0.02058757 4.99739417 0 0 Z " fill="#FC5035" transform="translate(21,125)"/>
<path d="M0 0 C1.27371712 0.01397324 1.27371712 0.01397324 2.57316589 0.02822876 C5.37633377 0.06256902 8.17863531 0.11846813 10.98144531 0.17456055 C12.92627119 0.20259657 14.87111689 0.22928667 16.815979 0.25468445 C21.93230447 0.32511718 27.04815595 0.41383937 32.16412354 0.50634766 C37.38561982 0.59753513 42.60735721 0.67145839 47.82910156 0.74682617 C58.07290139 0.89722893 68.31628349 1.0669506 78.55957031 1.2487793 C78.55957031 1.5787793 78.55957031 1.9087793 78.55957031 2.2487793 C77.60014526 2.25908676 76.64072021 2.26939423 75.65222168 2.28001404 C66.58950923 2.37797247 57.526862 2.48072661 48.46425629 2.58811855 C43.80562083 2.64317083 39.14697893 2.69656144 34.48828125 2.74609375 C29.98839673 2.79399967 25.48858344 2.84634992 20.98878479 2.90172005 C19.2761056 2.92202539 17.56340698 2.94075704 15.85069275 2.95785332 C13.44303402 2.98216125 11.03550659 3.01217657 8.62792969 3.04345703 C7.92733429 3.04921249 7.22673889 3.05496796 6.50491333 3.06089783 C1.77751037 3.13024534 -2.76278662 3.63008415 -7.44042969 4.2487793 C-10.44042969 4.2487793 -10.44042969 4.2487793 -12.44042969 3.2487793 C-8.75918648 -0.46240977 -4.90416232 -0.12357514 0 0 Z " fill="#FE9380" transform="translate(42.4404296875,12.751220703125)"/>
<path d="M0 0 C5.42954883 0.31938523 8.7305158 1.64540527 13 5 C13.495 5.99 13.495 5.99 14 7 C9.125 5.125 9.125 5.125 8 4 C6.15968011 3.87662826 4.31470589 3.82208692 2.47045898 3.79467773 C1.28931015 3.77473251 0.10816132 3.75478729 -1.10877991 3.73423767 C-2.3941716 3.71752518 -3.67956329 3.70081268 -5.00390625 3.68359375 C-6.31205795 3.66281265 -7.62020966 3.64203156 -8.96800232 3.62062073 C-12.45155447 3.565337 -15.9351666 3.51595569 -19.41882324 3.46777344 C-22.9713273 3.41760426 -26.5237439 3.36189433 -30.07617188 3.30664062 C-37.05070546 3.19898209 -44.02531798 3.09755433 -51 3 C-51 2.67 -51 2.34 -51 2 C-50.3758168 1.98969254 -49.75163361 1.97938507 -49.10853577 1.96876526 C-42.63645448 1.86093467 -36.16451907 1.74631853 -29.69262695 1.62768555 C-27.27436361 1.58426122 -24.8560681 1.54259188 -22.43774414 1.50268555 C-18.97011604 1.44516397 -15.50265097 1.38141813 -12.03515625 1.31640625 C-10.94662857 1.29969376 -9.85810089 1.28298126 -8.73658752 1.26576233 C-7.73562546 1.24581711 -6.73466339 1.22587189 -5.70336914 1.20532227 C-4.37433311 1.18200584 -4.37433311 1.18200584 -3.01844788 1.15821838 C-1.00362459 1.22018675 -1.00362459 1.22018675 0 0 Z " fill="#FE735C" transform="translate(214,12)"/>
<path d="M0 0 C0.99 0.33 1.98 0.66 3 1 C2.5051561 1.34511124 2.01031219 1.69022247 1.50047302 2.04579163 C-1.75644346 4.71148499 -3.72418217 6.77357018 -4.66452026 10.95480347 C-4.90536229 14.58736876 -4.9430041 18.16819263 -4.90234375 21.80859375 C-4.91173992 23.14382858 -4.92420457 24.479045 -4.93959045 25.81422424 C-4.97169003 29.30802924 -4.96242198 32.8005159 -4.94421387 36.29437256 C-4.93301981 39.86761661 -4.96139392 43.4405296 -4.98632812 47.01367188 C-5.02936912 54.0092917 -5.02866358 61.00431617 -5 68 C-5.33 68 -5.66 68 -6 68 C-6.13938754 60.16769513 -6.24581533 52.33568398 -6.31087303 44.50244808 C-6.34210782 40.86454715 -6.38443143 37.22749841 -6.45263672 33.59008789 C-6.51811789 30.07572191 -6.55376505 26.56217233 -6.56926346 23.04724312 C-6.58564824 21.0623847 -6.63244237 19.07785212 -6.67977905 17.0934906 C-6.68352734 6.99682016 -6.68352734 6.99682016 -2.96337891 2.62329102 C-1.98546387 1.75760498 -1.00754883 0.89191895 0 0 Z " fill="#FEE9E3" transform="translate(34,19)"/>
<path d="M0 0 C0.33 0 0.66 0 1 0 C1.144375 0.78375 1.28875 1.5675 1.4375 2.375 C1.87798925 4.96421018 1.87798925 4.96421018 3 7 C3.0165904 9.55641318 2.97300981 12.08004522 2.87890625 14.6328125 C2.85529526 15.38464813 2.83168427 16.13648376 2.80735779 16.91110229 C2.7306938 19.31592566 2.64668156 21.72042918 2.5625 24.125 C2.50928203 25.75389052 2.45654161 27.38279672 2.40429688 29.01171875 C2.27507502 33.0080156 2.13926173 37.00404092 2 41 C-0.58995441 37.11506838 -0.25225542 33.89432764 -0.1953125 29.39453125 C-0.19106766 28.13572395 -0.19106766 28.13572395 -0.18673706 26.85148621 C-0.17554385 24.17167897 -0.15044101 21.49220619 -0.125 18.8125 C-0.11496908 16.99544754 -0.10584343 15.17838983 -0.09765625 13.36132812 C-0.07560734 8.90742325 -0.04108351 4.45376833 0 0 Z " fill="#F9371B" transform="translate(21,189)"/>
<path d="M0 0 C9.9 0 19.8 0 30 0 C30 0.66 30 1.32 30 2 C25.9247366 2.76776475 22.08994553 3.11902034 17.9453125 3.09765625 C16.83671875 3.09443359 15.728125 3.09121094 14.5859375 3.08789062 C13.44382812 3.07951172 12.30171875 3.07113281 11.125 3.0625 C9.9596875 3.05798828 8.794375 3.05347656 7.59375 3.04882812 C4.72911355 3.03708781 1.86458367 3.0206657 -1 3 C-0.67 2.01 -0.34 1.02 0 0 Z " fill="#E9211A" transform="translate(50,4)"/>
<path d="M0 0 C1.70079563 5.1023869 0.73541535 10.51253846 0.38574219 15.82397461 C0.25075872 17.92568669 0.1366995 20.02787952 0.0234375 22.13085938 C-0.06121426 23.47143597 -0.14711091 24.81193466 -0.234375 26.15234375 C-0.30881836 27.36913818 -0.38326172 28.58593262 -0.45996094 29.83959961 C-1.0191797 33.11224285 -1.77560256 34.59198132 -4 37 C-4.05410136 33.93726169 -4.09372225 30.87548548 -4.125 27.8125 C-4.15013672 26.51602539 -4.15013672 26.51602539 -4.17578125 25.19335938 C-4.21118128 20.57365559 -3.94928944 17.25434273 -2 13 C-1.74667769 11.11183473 -1.55940367 9.21367852 -1.4375 7.3125 C-1.09828393 2.19656786 -1.09828393 2.19656786 0 0 Z " fill="#FE6759" transform="translate(27,25)"/>
<path d="M0 0 C0.33 0 0.66 0 1 0 C1.02684679 2.64590014 1.04676357 5.29153096 1.0625 7.9375 C1.07087891 8.69224609 1.07925781 9.44699219 1.08789062 10.22460938 C1.09652441 12.14994313 1.05224333 14.07535581 1 16 C0.67 16.33 0.34 16.66 0 17 C-0.23287008 18.68183948 -0.41264166 20.3712416 -0.5625 22.0625 C-0.64628906 22.98160156 -0.73007812 23.90070313 -0.81640625 24.84765625 C-0.87699219 25.55792969 -0.93757813 26.26820313 -1 27 C-1.33 27 -1.66 27 -2 27 C-2.05811773 23.25006521 -2.09363593 19.50024648 -2.125 15.75 C-2.14175781 14.68652344 -2.15851562 13.62304688 -2.17578125 12.52734375 C-2.18222656 11.50253906 -2.18867188 10.47773437 -2.1953125 9.421875 C-2.20578613 8.47924805 -2.21625977 7.53662109 -2.22705078 6.56542969 C-1.99119213 3.90048059 -1.35661659 2.28136908 0 0 Z " fill="#FE513A" transform="translate(25,102)"/>
<path d="M0 0 C-0.33 0.99 -0.66 1.98 -1 3 C-2.4540625 2.9071875 -2.4540625 2.9071875 -3.9375 2.8125 C-8.63158572 2.79337949 -12.65306698 4.37411226 -17 6 C-17.99 6.33 -18.98 6.66 -20 7 C-20.66 6.34 -21.32 5.68 -22 5 C-14.29293112 1.38993506 -8.50797181 -0.14420291 0 0 Z " fill="#EC211A" transform="translate(48,4)"/>
<path d="M0 0 C0.66 0.66 1.32 1.32 2 2 C1.52949219 2.49628906 1.05898438 2.99257812 0.57421875 3.50390625 C-3.37606528 7.81405053 -6.04612353 11.48317233 -8 17 C-8.99 17 -9.98 17 -11 17 C-8.95846992 9.85464472 -5.36437126 5.06635064 0 0 Z " fill="#F21B16" transform="translate(25,10)"/>
<path d="M0 0 C0.66 0.33 1.32 0.66 2 1 C0.69063102 3.92090003 -0.75619462 5.75619462 -3 8 C-3.95168683 10.85506049 -4.1900946 12.90937282 -4.31640625 15.88671875 C-4.35830078 16.82451172 -4.40019531 17.76230469 -4.44335938 18.72851562 C-4.48267578 19.70498047 -4.52199219 20.68144531 -4.5625 21.6875 C-4.60568359 22.67556641 -4.64886719 23.66363281 -4.69335938 24.68164062 C-4.79941654 27.12095546 -4.90147714 29.56037113 -5 32 C-5.33 32 -5.66 32 -6 32 C-6.17631541 28.35479202 -6.28151354 24.71069772 -6.375 21.0625 C-6.42527344 20.04091797 -6.47554687 19.01933594 -6.52734375 17.96679688 C-6.67429101 10.30104811 -4.93150176 5.86276054 0 0 Z " fill="#FE8A77" transform="translate(28,17)"/>
<path d="M0 0 C2.75830453 0.94570441 4.85455565 1.9845286 7.1875 3.75 C8 6.4375 8 6.4375 8.1875 8.75 C6.85416667 8.08333333 5.52083333 7.41666667 4.1875 6.75 C3.5275 6.46125 2.8675 6.1725 2.1875 5.875 C-0.24135973 4.5087664 -1.9192513 2.77848075 -3.8125 0.75 C-1.8125 -0.25 -1.8125 -0.25 0 0 Z " fill="#FD543B" transform="translate(223.8125,17.25)"/>
<path d="M0 0 C3.7606782 0.2148959 4.97108473 0.97239906 7.75 3.625 C10.26943042 6.87893522 10.75371513 9.89525218 11 14 C6.44272158 12.27137715 5.09165143 9.18330285 3 5 C3.99 5 4.98 5 6 5 C5.01 4.360625 4.02 3.72125 3 3.0625 C2.01 2.381875 1.02 1.70125 0 1 C0 0.67 0 0.34 0 0 Z " fill="#FE775E" transform="translate(218,19)"/>
<path d="M0 0 C0.99 0.33 1.98 0.66 3 1 C2.88487847 2.72985242 2.75744323 4.45888751 2.625 6.1875 C2.52058594 7.63189453 2.52058594 7.63189453 2.4140625 9.10546875 C1.99784147 12.01508938 1.20125904 14.32890774 0 17 C-0.33 17 -0.66 17 -1 17 C-1.02691685 14.54159395 -1.04679802 12.08348118 -1.0625 9.625 C-1.07087891 8.92632812 -1.07925781 8.22765625 -1.08789062 7.5078125 C-1.11328125 2.2265625 -1.11328125 2.2265625 0 0 Z " fill="#FE7768" transform="translate(24,26)"/>
<path d="M0 0 C5.75 -0.125 5.75 -0.125 8 1 C10.71262116 1.2322646 13.40773126 1.41936235 16.125 1.5625 C17.25615234 1.62727539 17.25615234 1.62727539 18.41015625 1.69335938 C20.27321888 1.7994832 22.13658524 1.90025001 24 2 C24 2.33 24 2.66 24 3 C20.93726169 3.05410136 17.87548548 3.09372225 14.8125 3.125 C13.51602539 3.15013672 13.51602539 3.15013672 12.19335938 3.17578125 C7.67791897 3.21038233 4.09918517 3.15567916 0 1 C0 0.67 0 0.34 0 0 Z " fill="#BC0603" transform="translate(28,248)"/>
<path d="M0 0 C2.475 0.99 2.475 0.99 5 2 C5 3.98 5 5.96 5 8 C4.67 6.68 4.34 5.36 4 4 C3.34 4 2.68 4 2 4 C2.20625 4.763125 2.4125 5.52625 2.625 6.3125 C3 9 3 9 1 12 C0.63896464 10.18885568 0.28634496 8.37603177 -0.0625 6.5625 C-0.25972656 5.55316406 -0.45695313 4.54382813 -0.66015625 3.50390625 C-0.77230469 2.67761719 -0.88445312 1.85132812 -1 1 C-0.67 0.67 -0.34 0.34 0 0 Z " fill="#FC3F28" transform="translate(228,23)"/>
<path d="M0 0 C4.62 0 9.24 0 14 0 C14 0.66 14 1.32 14 2 C12.2300132 2.19532961 10.45895721 2.38098882 8.6875 2.5625 C7.70136719 2.66691406 6.71523437 2.77132813 5.69921875 2.87890625 C3 3 3 3 0 2 C0 1.34 0 0.68 0 0 Z " fill="#E5140F" transform="translate(110,4)"/>
<path d="M0 0 C4.5076467 0.53031138 7.41954788 2.25221116 11 5 C11 5.66 11 6.32 11 7 C10.34 7 9.68 7 9 7 C8.67 6.34 8.34 5.68 8 5 C6.11736119 4.09656316 6.11736119 4.09656316 3.9375 3.375 C3.20402344 3.11460938 2.47054687 2.85421875 1.71484375 2.5859375 C1.14894531 2.39257812 0.58304688 2.19921875 0 2 C0 1.34 0 0.68 0 0 Z " fill="#ED100E" transform="translate(220,6)"/>
<path d="M0 0 C3.63 0 7.26 0 11 0 C11 0.66 11 1.32 11 2 C8.00468461 2.99843846 6.82744268 3.00732761 3.8125 2.5625 C2.554375 2.376875 1.29625 2.19125 0 2 C0 1.34 0 0.68 0 0 Z " fill="#E51D16" transform="translate(141,4)"/>
<path d="M0 0 C0.66 0.99 1.32 1.98 2 3 C0.625 6.6875 0.625 6.6875 -1 10 C-1.99 10 -2.98 10 -4 10 C-2.8905928 6.51329166 -1.73662334 3.22515763 0 0 Z " fill="#EC251E" transform="translate(18,17)"/>
<path d="M0 0 C0.66 0.33 1.32 0.66 2 1 C0.69425831 3.91280837 -0.7074208 5.80294493 -3 8 C-3.66 8.99 -4.32 9.98 -5 11 C-4.54663921 6.12637153 -3.2910841 3.60957611 0 0 Z " fill="#FD9986" transform="translate(28,17)"/>
<path d="M0 0 C0.99 0.33 1.98 0.66 3 1 C-0.465 3.97 -0.465 3.97 -4 7 C-4.33 6.01 -4.66 5.02 -5 4 C-4.01 3.67 -3.02 3.34 -2 3 C-1.34 2.01 -0.68 1.02 0 0 Z " fill="#FEDDD2" transform="translate(38,24)"/>
</svg>
