<?xml version="1.0" encoding="UTF-8"?>
<svg version="1.1" xmlns="http://www.w3.org/2000/svg" width="2000" height="2000">
<path d="M0 0 C1.42584538 -0.00417845 2.85168649 -0.01010783 4.27751821 -0.01761746 C8.18999613 -0.03316089 12.10207801 -0.02389163 16.01454931 -0.01050565 C20.27315093 -0.00034627 24.5316925 -0.01340347 28.79028559 -0.02347898 C36.25218036 -0.03792188 43.71395936 -0.03748989 51.17585945 -0.02729034 C62.27192073 -0.01216452 73.36788429 -0.01989322 84.4639449 -0.03212357 C104.28110883 -0.05319325 124.09822121 -0.0513583 143.91539006 -0.03980792 C161.25761715 -0.02974956 178.59982534 -0.02711709 195.94205475 -0.0318985 C197.09197028 -0.03220404 198.24188581 -0.03250958 199.42664726 -0.03282438 C204.09441494 -0.03406971 208.7621826 -0.03534331 213.42995025 -0.03666343 C257.2258971 -0.04890212 301.02181109 -0.03780133 344.81775288 -0.01627585 C383.73613213 0.00270687 422.65445903 0.00100837 461.57283783 -0.01811981 C505.28818423 -0.03953381 549.0035016 -0.04803419 592.71885252 -0.03567076 C597.37816333 -0.03438787 602.03747415 -0.03313651 606.69678497 -0.0318985 C607.84404379 -0.03158219 608.9913026 -0.03126588 610.17332684 -0.03093999 C627.50554586 -0.02638822 644.83774391 -0.03171468 662.16996002 -0.04181671 C681.87554058 -0.05324472 701.58106146 -0.05041371 721.28663456 -0.02869374 C732.31801139 -0.0169361 743.34925904 -0.01619984 754.38063255 -0.03127843 C761.746258 -0.04023689 769.11177972 -0.03468584 776.47738978 -0.01725936 C780.67598693 -0.00773077 784.87432713 -0.0045184 789.07291633 -0.01888329 C792.89431483 -0.03182449 796.71522897 -0.02628718 800.53659231 -0.00616065 C802.55460137 -0.00024686 804.57263903 -0.01388668 806.59060472 -0.02837777 C816.08911271 0.05016265 824.67845145 1.54403523 831.69441986 8.44086456 C842.01837785 20.13482944 840.38577357 35.61183619 840.32062531 50.23947906 C840.32452126 52.6599955 840.33016406 55.08050964 840.3373962 57.5010184 C840.34905583 62.7497277 840.34837595 67.99828359 840.33661652 73.24698639 C840.31917784 81.05206899 840.32475394 88.85701946 840.33478343 96.66210905 C840.35194879 110.60406816 840.34645165 124.54594847 840.33142624 138.48790592 C840.31836344 150.68764444 840.31318063 162.88735566 840.3157444 175.08710098 C840.31598502 176.30196482 840.31598502 176.30196482 840.31623051 177.54137136 C840.31689412 180.82921175 840.31759653 184.11705213 840.31835585 187.40489251 C840.32537606 218.23162042 840.30990095 249.05830026 840.28373239 279.88501594 C840.26061386 307.26383604 840.25523118 334.64260331 840.26546478 362.02143097 C840.26806686 369.03386749 840.2706519 376.04630402 840.27306271 383.05874062 C840.27336015 383.92209576 840.2736576 384.78545091 840.27396406 385.67496834 C840.28158077 408.56457889 840.27516525 431.45418513 840.26436669 454.34379375 C840.2632189 456.80701324 840.26207572 459.27023274 840.26093986 461.73345223 C840.26018462 463.36742848 840.25941897 465.00140472 840.25864285 466.63538096 C840.2529876 478.82788237 840.25431237 491.0203701 840.25887108 503.21287155 C840.26398104 517.07660854 840.2581162 530.94029439 840.23797678 544.80401863 C840.22699896 552.56027784 840.22418937 560.31643651 840.23326531 568.07269877 C840.23910615 573.86550413 840.22924141 579.65819817 840.21326566 585.45098053 C840.20922051 587.79329925 840.21022214 590.13563327 840.21678453 592.4779463 C840.2249458 595.66362173 840.21460842 598.84873288 840.1997366 602.03437233 C840.20984307 603.39567222 840.20984307 603.39567222 840.22015372 604.78447312 C840.13038259 614.74050517 838.17523208 623.31486232 831.13973236 630.55805206 C824.21102563 636.36696781 816.84727648 638.62653394 807.92000991 638.63101506 C806.72876651 638.63403103 805.5375231 638.637047 804.31018141 638.64015436 C803.00258996 638.63838489 801.69499852 638.63661542 800.34778309 638.63479233 C798.93800319 638.63644221 797.52822375 638.6385286 796.11844507 638.64101243 C792.22737583 638.64658563 788.33632858 638.64590547 784.44525662 638.64423484 C780.2184355 638.64350472 775.99162063 638.64852438 771.76480216 638.65280986 C763.37378575 638.66039682 754.98277571 638.66258327 746.59175623 638.66313891 C736.54420374 638.66405186 726.49665716 638.67071732 716.4491072 638.67748574 C692.16346654 638.69355479 667.87782649 638.6994499 643.59218146 638.70423449 C632.1070135 638.70656938 620.62184604 638.71017189 609.13667847 638.71392986 C569.83343836 638.72676574 530.53019853 638.73748524 491.22695637 638.74093246 C488.75919065 638.7411541 486.29142494 638.74137588 483.82365922 638.74159782 C481.34988448 638.74181846 478.87610973 638.74203894 476.40233499 638.74225926 C471.43939388 638.74270182 466.47645277 638.74314893 461.51351166 638.74359894 C459.66772686 638.74376302 459.66772686 638.74376302 457.78465348 638.74393043 C417.87396537 638.74756204 377.96329541 638.76348585 338.05261425 638.7867893 C295.87145555 638.8113735 253.69030722 638.82510463 211.50914115 638.82630038 C206.88064587 638.82647184 202.25215059 638.82668727 197.62365532 638.82693481 C196.4839629 638.82699058 195.34427049 638.82704635 194.17004194 638.82710381 C175.81272821 638.82825544 157.45543307 638.83928692 139.09812562 638.85382187 C120.65434043 638.86817303 102.21057913 638.87143166 83.76678989 638.86338189 C72.80432913 638.85891922 61.8419454 638.86281172 50.87949472 638.8786204 C43.55964096 638.88835091 36.23984131 638.88721063 28.91998808 638.87718417 C24.74746806 638.87177823 20.57509624 638.87112669 16.40258835 638.88369289 C12.60483878 638.89503515 8.80735793 638.89250391 5.00961765 638.87902582 C3.00418338 638.87545096 0.99873923 638.88656342 -1.00666377 638.8983171 C-14.18299061 638.82171608 -22.50096139 635.88611137 -31.99308014 626.81586456 C-36.91223591 619.36685726 -37.6257017 610.76330993 -37.56089687 602.03437233 C-37.56555679 601.03618782 -37.57021671 600.03800331 -37.57501784 599.00957078 C-37.58692538 595.67998357 -37.57758861 592.35080763 -37.56826019 589.02121735 C-37.57243495 586.60385321 -37.57791324 584.18649104 -37.58458 581.76913249 C-37.59601923 576.52108633 -37.59817055 571.27312169 -37.59202957 566.02507019 C-37.58292196 558.22080527 -37.5909838 550.41662276 -37.60232081 542.61236414 C-37.62197278 528.67170369 -37.62433795 514.73108045 -37.61912561 500.79040945 C-37.61456603 488.58935446 -37.61517062 476.38831419 -37.62096596 464.18725967 C-37.62172283 462.54976685 -37.62247881 460.91227402 -37.6232339 459.27478119 C-37.62437911 456.80713766 -37.62552899 454.33949414 -37.62669315 451.87185062 C-37.637396 428.93414615 -37.6421256 405.99644658 -37.63422298 383.05874062 C-37.63392581 382.19433852 -37.63362864 381.32993642 -37.63332246 380.43934032 C-37.6308736 373.4200713 -37.62826197 366.40080234 -37.62563833 359.38153339 C-37.61553623 332.00301241 -37.62389146 304.62455277 -37.64713287 277.24604034 C-37.67321215 246.47483609 -37.68605164 215.70366875 -37.67894512 184.93245304 C-37.67822908 181.65066903 -37.67755469 178.36888501 -37.67690468 175.08710098 C-37.67673487 174.2790628 -37.67656506 173.47102463 -37.67639011 172.63850044 C-37.67408837 160.44780236 -37.6820581 148.2571386 -37.69519615 136.06644821 C-37.71011313 122.200518 -37.71094286 108.33466814 -37.69312524 94.46873964 C-37.68356892 86.71287704 -37.68498336 78.95720191 -37.70235993 71.20135186 C-37.71410084 65.4052069 -37.70485557 59.60924493 -37.68753756 53.81312095 C-37.68376948 51.47205039 -37.68672269 49.13095713 -37.69714921 46.78990676 C-37.81473683 18.36237633 -37.81473683 18.36237633 -29.05558014 8.44086456 C-20.90998626 0.43359209 -10.83718637 -0.07782224 0 0 Z M104.81941986 139.50336456 C104.72177069 141.40077933 104.69570656 143.30188799 104.69637203 145.2018137 C104.69438116 146.44777002 104.69239029 147.69372635 104.69033909 148.97743893 C104.69319171 150.37719936 104.69613711 151.7769596 104.69916534 153.17671967 C104.69872835 154.6465634 104.69785223 156.11640706 104.69657135 157.58625031 C104.69431627 161.65267523 104.69835821 165.7190741 104.70334713 169.78549571 C104.70769449 174.22763782 104.7062538 178.66977861 104.70552921 183.11192226 C104.70499618 191.74622754 104.70962679 200.38052246 104.71603054 209.01482507 C104.72321254 218.99599129 104.7240243 228.97715124 104.72481537 238.95832062 C104.73007207 265.32750358 104.74403309 291.69668423 104.75691986 318.06586456 C104.77754486 376.95023956 104.79816986 435.83461456 104.81941986 496.50336456 C301.16941986 496.50336456 497.51941986 496.50336456 699.81941986 496.50336456 C699.84004486 437.61898956 699.86066986 378.73461456 699.88191986 318.06586456 C699.89557587 290.12265533 699.89557587 290.12265533 699.90950775 261.61493683 C699.9128511 244.99218759 699.9128511 244.99218759 699.91486359 228.36943817 C699.91579949 220.93531227 699.9194818 213.5011938 699.92499542 206.06707001 C699.9313366 197.50455745 699.9342615 188.94205208 699.93286481 180.37953716 C699.93225935 175.99440267 699.93325506 171.60928426 699.93863499 167.22415268 C699.94346111 163.26661128 699.94376973 159.30909748 699.94032097 155.35155487 C699.93989343 153.91352277 699.94119142 152.47548901 699.94430244 151.03746021 C699.94826666 149.09224865 699.94557588 147.14702681 699.94246769 145.2018137 C699.94284741 144.11771215 699.94322713 143.03361061 699.94361836 141.91665751 C700.09209133 139.55275951 700.09209133 139.55275951 698.81941986 138.50336456 C695.68513994 138.40327763 692.57282655 138.36978565 689.43806458 138.37752342 C688.43600473 138.37606998 687.43394489 138.37461654 686.4015196 138.37311906 C682.99877206 138.36943086 679.59606854 138.37295843 676.19332123 138.37638092 C673.74716401 138.37523021 671.30100697 138.37364303 668.85485029 138.37165368 C663.51324668 138.36833323 658.1716564 138.36815928 652.83005333 138.37070084 C644.88714767 138.3744699 636.94425059 138.37255659 629.00134499 138.36949253 C614.81862685 138.36421543 600.63591321 138.36468769 586.45319463 138.36757144 C574.04197963 138.37008274 561.63076629 138.37074569 549.21955109 138.3695488 C548.39766131 138.36947241 547.57577153 138.36939603 546.72897601 138.36931733 C543.39301881 138.36900601 540.05706161 138.36868761 536.72110441 138.36835756 C505.39975014 138.3652956 474.07839873 138.36807672 442.7570449 138.37345446 C414.90364882 138.37820039 387.05025731 138.37777578 359.19686127 138.37299347 C327.93436694 138.36764383 296.67187515 138.36551272 265.40938044 138.36860573 C262.07934984 138.36892647 258.74931924 138.36923931 255.41928864 138.3695488 C254.59929432 138.36962787 253.77930001 138.36970695 252.93445739 138.36978843 C240.52822653 138.37092796 228.12199751 138.36959179 215.71576691 138.36706924 C201.6154166 138.36421661 187.5150715 138.36491062 173.41472185 138.37034999 C165.5142558 138.37329679 157.61380102 138.37346288 149.71333525 138.36970381 C143.83046539 138.36721241 137.94760562 138.3698941 132.0647369 138.37467839 C129.6724366 138.37580376 127.2801348 138.37520878 124.88783544 138.3728026 C121.6587931 138.36980173 118.42981407 138.37283985 115.20077515 138.37752342 C113.77807917 138.37401167 113.77807917 138.37401167 112.32664186 138.37042898 C108.25041583 137.96691559 108.25041583 137.96691559 104.81941986 139.50336456 Z " fill="#DEDEDE" transform="translate(601.1805801391602,681.4966354370117)"/>
</svg>
