<?xml version="1.0" encoding="UTF-8"?>
<svg version="1.1" xmlns="http://www.w3.org/2000/svg" width="256" height="256">
<path d="M0 0 C0.96852905 -0.0038269 1.93705811 -0.00765381 2.93493652 -0.01159668 C4.97209723 -0.01430512 7.00929336 -0.00701917 9.04638672 0.00976562 C12.14760577 0.03119028 15.24650843 0.00992716 18.34765625 -0.015625 C20.33594256 -0.01298153 22.32422745 -0.00785617 24.3125 0 C25.23043335 -0.00809692 26.1483667 -0.01619385 27.09411621 -0.02453613 C34.0507026 0.07576381 39.28395953 1.73836851 44.6796875 6.20703125 C45.12570313 6.74714844 45.57171875 7.28726562 46.03125 7.84375 C46.72347656 8.64232422 46.72347656 8.64232422 47.4296875 9.45703125 C50.77921955 15.1213673 50.94826528 21.03525537 50.92367554 27.43000793 C50.92820665 28.30281346 50.93273776 29.17561898 50.93740618 30.07487315 C50.95002389 32.98722576 50.94843151 35.89939073 50.94677734 38.81176758 C50.95276422 40.90492492 50.95957013 42.99808006 50.96713257 45.0912323 C50.98478322 50.76900593 50.98948755 56.44671926 50.99076414 62.12451768 C50.99218679 65.67400313 50.99645854 69.22347329 51.00175858 72.77295494 C51.02025553 85.16220446 51.02842957 97.55141096 51.02685547 109.94067383 C51.02565406 121.47923933 51.04675729 133.01761778 51.0783428 144.55613595 C51.10451523 154.47143456 51.11522236 164.38667211 51.11394465 174.30200499 C51.11343532 180.22006318 51.11910283 186.13795508 51.14030075 192.05597878 C51.15969935 197.62352951 51.15979629 203.1907556 51.14526749 208.75831795 C51.14318035 210.79723842 51.14787457 212.8361793 51.1599884 214.87506485 C51.27673668 235.89259255 51.27673668 235.89259255 46.65625 242.53125 C37.83464036 250.86485094 26.30886266 250.87090521 14.78125 250.71875 C13.7305835 250.7094043 12.67991699 250.70005859 11.59741211 250.69042969 C8.6164033 250.65445557 5.63670325 250.59835115 2.65625 250.53125 C1.92390137 250.51723145 1.19155273 250.50321289 0.43701172 250.48876953 C-7.39809051 250.29444457 -14.82003937 249.47699269 -20.93359375 244.14453125 C-26.20352597 238.32469306 -26.63880764 232.0960853 -26.60444641 224.6633606 C-26.60827196 223.78183126 -26.61209751 222.90030193 -26.61603898 221.99205959 C-26.62634072 219.0442873 -26.62238218 216.09671082 -26.6184082 213.14892578 C-26.62275625 211.03296733 -26.62793971 208.91701045 -26.63389587 206.80105591 C-26.64728743 201.05723784 -26.64786433 195.31348558 -26.64533257 189.56965494 C-26.64426293 184.77341904 -26.6491461 179.97719645 -26.653938 175.1809634 C-26.66503382 163.86493552 -26.66547021 152.54894084 -26.65942383 141.23291016 C-26.65338367 129.56200414 -26.66569601 117.89121867 -26.6869939 106.22033322 C-26.70461172 96.19723242 -26.71061095 86.17416998 -26.70735615 76.15105426 C-26.70554338 70.16600891 -26.70817898 64.18104954 -26.72207069 58.19601822 C-26.73464719 52.56696955 -26.73270647 46.93810874 -26.71965981 41.30906296 C-26.71729407 39.24511908 -26.72002859 37.181162 -26.72828293 35.11723328 C-26.73875222 32.29564024 -26.73064809 29.4746773 -26.7179718 26.65310669 C-26.72903323 25.43353262 -26.72903323 25.43353262 -26.74031812 24.18932068 C-26.67788727 17.56517037 -25.37683295 12.08712571 -21.15625 6.78125 C-14.37255191 1.35429153 -8.60801454 -0.07592974 0 0 Z " fill="#FA8F17" transform="translate(56.34375,3.46875)"/>
<path d="M0 0 C0.89498199 -0.01283524 1.78996399 -0.02567047 2.71206665 -0.03889465 C4.16822891 -0.04997505 4.16822891 -0.04997505 5.65380859 -0.0612793 C6.65302338 -0.06935104 7.65223816 -0.07742279 8.68173218 -0.08573914 C10.80180116 -0.09958898 12.92189253 -0.11030709 15.04199219 -0.11816406 C18.26850427 -0.13531865 21.49397622 -0.17919024 24.72021484 -0.22338867 C26.78140523 -0.23352075 28.84260433 -0.24203523 30.90380859 -0.2487793 C31.86243805 -0.26628738 32.8210675 -0.28379547 33.80874634 -0.30183411 C40.56132786 -0.28021769 46.12241299 0.8826962 51.20108032 5.5891571 C56.39458328 11.45215567 56.97167665 16.61577049 56.9379425 24.08995056 C56.94368083 25.43758093 56.94368083 25.43758093 56.94953507 26.81243616 C56.95985487 29.82325913 56.95587484 32.83389102 56.9519043 35.84472656 C56.95625132 38.00319088 56.96143443 40.16165366 56.96739197 42.32011414 C56.98079388 48.18368764 56.98135933 54.04719674 56.97882867 59.91078258 C56.97775982 64.80408453 56.98264008 69.6973734 56.98743409 74.59067255 C56.99853328 86.13337496 56.99896428 97.67604483 56.99291992 109.21875 C56.98687799 121.1310898 56.99919583 133.04331154 57.02048999 144.9556312 C57.03809547 155.17995264 57.04410903 165.40423647 57.04085225 175.62857252 C57.03903766 181.73652929 57.04169318 187.84440184 57.05556679 193.95234489 C57.0681234 199.69546073 57.06622147 205.43839226 57.0531559 211.1815052 C57.0507859 213.28982734 57.05353991 215.39816236 57.06177902 217.50646973 C57.07221214 220.38355135 57.06417329 223.26001063 57.0514679 226.1370697 C57.05884218 226.97219068 57.06621647 227.80731166 57.07381421 228.66773933 C57.02067531 234.38390537 55.96588088 238.58358529 52.06396484 243.00512695 C51.50322266 243.4743457 50.94248047 243.94356445 50.36474609 244.42700195 C49.81173828 244.9065332 49.25873047 245.38606445 48.68896484 245.88012695 C36.74244853 253.58157048 10.32553044 251.86598513 -3.32275391 249.17700195 C-9.6854149 247.26620282 -13.65856289 244.72880652 -17.32275391 239.17700195 C-19.44799925 234.13219134 -19.60829887 229.68413771 -19.58345032 224.30911255 C-19.58727586 223.42758322 -19.59110141 222.54605388 -19.59504288 221.63781154 C-19.60534463 218.69003925 -19.60138608 215.74246277 -19.59741211 212.79467773 C-19.60176015 210.67871928 -19.60694361 208.5627624 -19.61289978 206.44680786 C-19.62629134 200.7029898 -19.62686824 194.95923753 -19.62433648 189.21540689 C-19.62326683 184.41917099 -19.62815001 179.6229484 -19.6329419 174.82671535 C-19.64403773 163.51068748 -19.64447412 152.19469279 -19.63842773 140.87866211 C-19.63238757 129.20775609 -19.64469992 117.53697062 -19.6659978 105.86608517 C-19.68361562 95.84298437 -19.68961485 85.81992193 -19.68636006 75.79680622 C-19.68454729 69.81176087 -19.68718288 63.8268015 -19.7010746 57.84177017 C-19.7136511 52.21272151 -19.71171037 46.5838607 -19.69866371 40.95481491 C-19.69629797 38.89087104 -19.6990325 36.82691395 -19.70728683 34.76298523 C-19.71775613 31.94139219 -19.70965199 29.12042926 -19.69697571 26.29885864 C-19.70803714 25.07928457 -19.70803714 25.07928457 -19.71932203 23.83507264 C-19.65622844 17.14060361 -18.37920182 11.61226922 -13.94775391 6.36450195 C-9.56241879 2.71005603 -5.74320636 0.07169198 0 0 Z " fill="#FA8F17" transform="translate(167.32275390625,3.822998046875)"/>
<path d="M0 0 C1.29209381 -0.01925285 1.29209381 -0.01925285 2.61029053 -0.03889465 C3.54359192 -0.04628159 4.47689331 -0.05366852 5.43847656 -0.0612793 C6.3980426 -0.06935104 7.35760864 -0.07742279 8.34625244 -0.08573914 C10.38055613 -0.09958545 12.41488312 -0.11030515 14.44921875 -0.11816406 C17.55286053 -0.13535272 20.65543048 -0.17923118 23.75878906 -0.22338867 C25.73534373 -0.23351771 27.71190745 -0.24203315 29.68847656 -0.2487793 C30.61368103 -0.26628738 31.5388855 -0.28379547 32.49212646 -0.30183411 C38.10571656 -0.28304366 41.41918277 0.35181661 45.82910156 4.17700195 C48.30215086 7.88657591 48.11096864 10.72170557 48.08789062 15.01318359 C48.09139526 15.81020187 48.0948999 16.60722015 48.09851074 17.4283905 C48.10731852 20.0647348 48.10148286 22.70081114 48.09472656 25.3371582 C48.09607335 27.16654004 48.098014 28.99592152 48.1005249 30.82530212 C48.10347476 34.65944832 48.09918246 38.49350135 48.08984375 42.32763672 C48.07844124 47.24975263 48.0850146 52.17165064 48.09698868 57.09375858 C48.10420414 60.87090202 48.10192094 64.6479935 48.09673309 68.42513847 C48.09539614 70.24048323 48.09704589 72.05583265 48.1016922 73.87117195 C48.10675319 76.40431404 48.09905375 78.93709943 48.08789062 81.47021484 C48.09193909 82.22507172 48.09598755 82.97992859 48.10015869 83.75765991 C48.05763191 88.94847161 48.05763191 88.94847161 45.82910156 91.17700195 C45.51799666 93.33539894 45.51799666 93.33539894 45.55735779 95.86360168 C45.54763947 96.85199539 45.53792114 97.8403891 45.52790833 98.85873413 C45.52731918 99.9470755 45.52673004 101.03541687 45.52612305 102.15673828 C45.51346405 103.87151115 45.51346405 103.87151115 45.50054932 105.6209259 C45.47466549 109.41696567 45.46260486 113.21292751 45.45019531 117.0090332 C45.43402916 119.6397921 45.41685012 122.27054496 45.3986969 124.90129089 C45.35701356 131.13199242 45.32461888 137.36270196 45.29622275 143.59347695 C45.24230208 155.40339692 45.17403033 167.21321752 45.09828377 179.02301598 C45.07543607 182.90562029 45.05917096 186.78821334 45.04356384 190.67085266 C45.0301551 193.05026369 45.01654012 195.42967356 45.00268555 197.80908203 C45.00007217 198.89135071 44.9974588 199.97361938 44.99476624 201.08868408 C44.98441849 202.58396385 44.98441849 202.58396385 44.97386169 204.10945129 C44.96807932 205.40390026 44.96807932 205.40390026 44.96218014 206.7244997 C44.82299843 209.28947654 44.39203605 211.67361812 43.82910156 214.17700195 C43.49910156 214.17700195 43.16910156 214.17700195 42.82910156 214.17700195 C42.33410156 217.14700195 42.33410156 217.14700195 41.82910156 220.17700195 C41.49910156 220.17700195 41.16910156 220.17700195 40.82910156 220.17700195 C40.82910156 181.23700195 40.82910156 142.29700195 40.82910156 102.17700195 C19.25829436 109.22931953 19.25829436 109.22931953 10.82910156 115.17700195 C7.19910156 116.49700195 3.56910156 117.81700195 -0.17089844 119.17700195 C-0.17089844 153.16700195 -0.17089844 187.15700195 -0.17089844 222.17700195 C17.15410156 222.67200195 17.15410156 222.67200195 34.82910156 223.17700195 C34.82910156 223.83700195 34.82910156 224.49700195 34.82910156 225.17700195 C35.48910156 225.17700195 36.14910156 225.17700195 36.82910156 225.17700195 C36.82910156 225.83700195 36.82910156 226.49700195 36.82910156 227.17700195 C38.47910156 226.84700195 40.12910156 226.51700195 41.82910156 226.17700195 C40.23542925 228.08263125 39.33780782 229.08051599 36.8560791 229.55122375 C36.10789917 229.55059433 35.35971924 229.5499649 34.58886719 229.54931641 C33.73788452 229.5555452 32.88690186 229.56177399 32.01013184 229.56819153 C31.09445435 229.55898178 30.17877686 229.54977203 29.23535156 229.5402832 C27.82074646 229.54103096 27.82074646 229.54103096 26.37756348 229.54179382 C24.38368625 229.53945335 22.38980607 229.5297264 20.39599609 229.51318359 C17.3408776 229.48959288 14.28663172 229.49262266 11.23144531 229.49926758 C9.29524218 229.49369077 7.35904274 229.48658088 5.42285156 229.4777832 C4.04933533 229.47915031 4.04933533 229.47915031 2.64807129 229.48054504 C1.79708862 229.47101303 0.94610596 229.46148102 0.06933594 229.45166016 C-0.67884399 229.44705276 -1.42702393 229.44244537 -2.19787598 229.43769836 C-4.17089844 229.17700195 -4.17089844 229.17700195 -7.17089844 227.17700195 C-6.51089844 228.49700195 -5.85089844 229.81700195 -5.17089844 231.17700195 C-7.39275765 230.28825827 -8.86271467 229.60055301 -10.28657627 227.64367485 C-11.60529625 223.96531989 -11.45624992 220.3197945 -11.4450531 216.4602356 C-11.45028978 215.57083688 -11.45552646 214.68143816 -11.46092182 213.76508796 C-11.47594794 210.77881223 -11.47662755 207.79270745 -11.47729492 204.80639648 C-11.4849146 202.66778269 -11.49334176 200.52917165 -11.5025177 198.39056396 C-11.52448731 192.57652854 -11.53326482 186.76254571 -11.53834414 180.94847345 C-11.54198452 177.31745814 -11.54822289 173.68645667 -11.55534554 170.05544662 C-11.57984769 157.39202009 -11.59289378 144.72863457 -11.59643555 132.06518555 C-11.60007236 120.25447834 -11.62997638 108.44403077 -11.67184013 96.63340294 C-11.70650772 86.49827147 -11.72198337 76.36322619 -11.72268158 66.22803581 C-11.72347554 60.17252615 -11.73226902 54.11728091 -11.76067924 48.06183243 C-11.78679944 42.36706722 -11.78909867 36.67278681 -11.77302361 30.9779892 C-11.77120436 28.88739594 -11.77794248 26.79677519 -11.79384232 24.70624161 C-11.81422204 21.852829 -11.80379869 19.00112556 -11.78562927 16.1477356 C-11.79882924 15.31971439 -11.81202921 14.49169319 -11.82562917 13.63858044 C-11.76554906 9.51000184 -11.39471974 6.94613849 -8.75747776 3.6788311 C-5.5802974 0.60575217 -4.25975509 0.0552404 0 0 Z " fill="#FECB52" transform="translate(168.1708984375,11.822998046875)"/>
<path d="M0 0 C0.88134109 -0.0159874 1.76268219 -0.03197479 2.67073059 -0.04844666 C3.62074448 -0.05380936 4.57075836 -0.05917206 5.54956055 -0.06469727 C6.52990768 -0.07372574 7.51025482 -0.08275421 8.52030945 -0.09205627 C10.59570254 -0.10656865 12.67114149 -0.11544796 14.74658203 -0.11914062 C17.9141203 -0.13102041 21.0797001 -0.18018282 24.24682617 -0.23071289 C26.2643948 -0.24017912 28.28197538 -0.2474132 30.29956055 -0.25219727 C31.24350174 -0.27172958 32.18744293 -0.2912619 33.1599884 -0.31138611 C37.60928433 -0.28102948 40.66659043 -0.14498828 44.20654297 2.71630859 C47.17810602 5.90036197 47.74919781 7.21572463 47.74403381 11.41921997 C47.74540848 12.28021301 47.74678314 13.14120605 47.74819946 14.02828979 C47.74280655 15.44816696 47.74280655 15.44816696 47.73730469 16.89672852 C47.73745071 17.89188477 47.73759674 18.88704102 47.73774719 19.91235352 C47.73704861 23.21299392 47.72925873 26.5135784 47.72143555 29.81420898 C47.71957117 32.09821543 47.71814736 34.38222227 47.71714783 36.66622925 C47.71332417 42.68651426 47.70349516 48.70677527 47.69244385 54.72705078 C47.68222648 60.86677729 47.67764951 67.00650768 47.67260742 73.14624023 C47.66187277 85.19963622 47.64479815 97.25301436 47.6237793 109.30639648 C47.2937793 109.30639648 46.9637793 109.30639648 46.6237793 109.30639648 C46.2937793 96.10639648 45.9637793 82.90639648 45.6237793 69.30639648 C45.2937793 90.75639648 44.9637793 112.20639648 44.6237793 134.30639648 C44.2937793 134.30639648 43.9637793 134.30639648 43.6237793 134.30639648 C43.2937793 131.00639648 42.9637793 127.70639648 42.6237793 124.30639648 C42.2937793 124.30639648 41.9637793 124.30639648 41.6237793 124.30639648 C41.59872314 123.64518799 41.57366699 122.98397949 41.54785156 122.30273438 C41.43224827 119.32457343 41.30936176 116.34675729 41.1862793 113.36889648 C41.14696289 112.32797852 41.10764648 111.28706055 41.06713867 110.21459961 C41.00429687 108.73056641 41.00429687 108.73056641 40.94018555 107.21655273 C40.88519897 105.84188843 40.88519897 105.84188843 40.82910156 104.43945312 C40.85374066 102.32432368 40.85374066 102.32432368 39.6237793 101.30639648 C39.2937793 101.96639648 38.9637793 102.62639648 38.6237793 103.30639648 C36.40112305 104.01733398 36.40112305 104.01733398 33.5612793 104.68139648 C28.47281506 105.98967088 24.21225224 107.79929271 19.6237793 110.30639648 C17.63275906 111.31168568 15.63434869 112.3011637 13.63549805 113.29077148 C12.25253243 113.98896772 10.8804801 114.70907434 9.51831055 115.44702148 C8.83124023 115.81311523 8.14416992 116.17920898 7.4362793 116.55639648 C6.51782227 117.05913086 6.51782227 117.05913086 5.58081055 117.57202148 C3.6237793 118.30639648 3.6237793 118.30639648 -1.3762207 118.30639648 C-1.0462207 152.62639648 -0.7162207 186.94639648 -0.3762207 222.30639648 C0.6137793 222.63639648 1.6037793 222.96639648 2.6237793 223.30639648 C3.3112793 225.36889648 3.3112793 225.36889648 3.6237793 227.30639648 C2.19110626 227.58271917 0.75214594 227.82659319 -0.6887207 228.05639648 C-1.88948242 228.26522461 -1.88948242 228.26522461 -3.11450195 228.47827148 C-5.3762207 228.30639648 -5.3762207 228.30639648 -6.9855957 226.85327148 C-9.03976593 223.0911395 -8.85550657 219.60963959 -8.88793945 215.38452148 C-8.90589066 214.52453552 -8.92384186 213.66454956 -8.94233704 212.77850342 C-8.99642109 210.03785064 -9.03032933 207.29737183 -9.0637207 204.55639648 C-9.0968955 202.69569521 -9.13138531 200.83501687 -9.16723633 198.97436523 C-9.25214639 194.41850121 -9.31896655 189.86268861 -9.3762207 185.30639648 C-9.7062207 185.30639648 -10.0362207 185.30639648 -10.3762207 185.30639648 C-11.14757267 149.66672757 -11.61442 114.03346127 -11.66548347 78.3853054 C-11.67641974 70.84430063 -11.70165853 63.30362826 -11.7449649 55.76273721 C-11.77868883 49.67522583 -11.79059477 43.58784558 -11.7946682 37.50024605 C-11.79951849 34.95133856 -11.81108761 32.40243411 -11.82970619 29.85359001 C-11.85392714 26.34011644 -11.85317215 22.82749541 -11.84619141 19.31396484 C-11.85900146 18.28115387 -11.87181152 17.2483429 -11.88500977 16.18423462 C-11.84182042 10.2424898 -11.36708938 6.81301514 -7.3762207 2.30639648 C-4.26937472 0.23516583 -3.5335708 0.04853282 0 0 Z " fill="#FECC52" transform="translate(50.376220703125,11.693603515625)"/>
<path d="M0 0 C0.96852905 -0.0038269 1.93705811 -0.00765381 2.93493652 -0.01159668 C4.97209723 -0.01430512 7.00929336 -0.00701917 9.04638672 0.00976562 C12.14760577 0.03119028 15.24650843 0.00992716 18.34765625 -0.015625 C20.33594256 -0.01298153 22.32422745 -0.00785617 24.3125 0 C25.23043335 -0.00809692 26.1483667 -0.01619385 27.09411621 -0.02453613 C34.0507026 0.07576381 39.28395953 1.73836851 44.6796875 6.20703125 C45.12570313 6.74714844 45.57171875 7.28726562 46.03125 7.84375 C46.72347656 8.64232422 46.72347656 8.64232422 47.4296875 9.45703125 C50.77921955 15.1213673 50.94826528 21.03525537 50.92367554 27.43000793 C50.92820665 28.30281346 50.93273776 29.17561898 50.93740618 30.07487315 C50.95002389 32.98722576 50.94843151 35.89939073 50.94677734 38.81176758 C50.95276422 40.90492492 50.95957013 42.99808006 50.96713257 45.0912323 C50.98478322 50.76900593 50.98948755 56.44671926 50.99076414 62.12451768 C50.99218679 65.67400313 50.99645854 69.22347329 51.00175858 72.77295494 C51.02025553 85.16220446 51.02842957 97.55141096 51.02685547 109.94067383 C51.02565406 121.47923933 51.04675729 133.01761778 51.0783428 144.55613595 C51.10451523 154.47143456 51.11522236 164.38667211 51.11394465 174.30200499 C51.11343532 180.22006318 51.11910283 186.13795508 51.14030075 192.05597878 C51.15969935 197.62352951 51.15979629 203.1907556 51.14526749 208.75831795 C51.14318035 210.79723842 51.14787457 212.8361793 51.1599884 214.87506485 C51.27673668 235.89259255 51.27673668 235.89259255 46.65625 242.53125 C37.83464036 250.86485094 26.30886266 250.87090521 14.78125 250.71875 C13.7305835 250.7094043 12.67991699 250.70005859 11.59741211 250.69042969 C8.6164033 250.65445557 5.63670325 250.59835115 2.65625 250.53125 C1.92390137 250.51723145 1.19155273 250.50321289 0.43701172 250.48876953 C-7.39809051 250.29444457 -14.82003937 249.47699269 -20.93359375 244.14453125 C-26.20352597 238.32469306 -26.63880764 232.0960853 -26.60444641 224.6633606 C-26.60827196 223.78183126 -26.61209751 222.90030193 -26.61603898 221.99205959 C-26.62634072 219.0442873 -26.62238218 216.09671082 -26.6184082 213.14892578 C-26.62275625 211.03296733 -26.62793971 208.91701045 -26.63389587 206.80105591 C-26.64728743 201.05723784 -26.64786433 195.31348558 -26.64533257 189.56965494 C-26.64426293 184.77341904 -26.6491461 179.97719645 -26.653938 175.1809634 C-26.66503382 163.86493552 -26.66547021 152.54894084 -26.65942383 141.23291016 C-26.65338367 129.56200414 -26.66569601 117.89121867 -26.6869939 106.22033322 C-26.70461172 96.19723242 -26.71061095 86.17416998 -26.70735615 76.15105426 C-26.70554338 70.16600891 -26.70817898 64.18104954 -26.72207069 58.19601822 C-26.73464719 52.56696955 -26.73270647 46.93810874 -26.71965981 41.30906296 C-26.71729407 39.24511908 -26.72002859 37.181162 -26.72828293 35.11723328 C-26.73875222 32.29564024 -26.73064809 29.4746773 -26.7179718 26.65310669 C-26.72903323 25.43353262 -26.72903323 25.43353262 -26.74031812 24.18932068 C-26.67788727 17.56517037 -25.37683295 12.08712571 -21.15625 6.78125 C-14.37255191 1.35429153 -8.60801454 -0.07592974 0 0 Z M-15.34375 12.53125 C-17.16110509 15.55199916 -17.59330539 17.76644843 -17.59098816 21.27375793 C-17.59518265 22.22629959 -17.59937714 23.17884125 -17.60369873 24.1602478 C-17.59807922 25.20024933 -17.59245972 26.24025085 -17.58666992 27.31176758 C-17.58856827 28.41394119 -17.59046661 29.51611481 -17.59242249 30.65168762 C-17.59614704 34.32645638 -17.58536865 38.00102969 -17.57421875 41.67578125 C-17.57302353 44.2735746 -17.57257451 46.87136838 -17.5728302 49.46916199 C-17.57189069 54.95806249 -17.56320744 60.44690815 -17.54956055 65.93579102 C-17.53589419 71.44979951 -17.5285268 76.9637575 -17.52905273 82.4777832 C-17.53229109 119.50596951 -17.1641852 156.51129961 -16.34375 193.53125 C-16.01375 193.53125 -15.68375 193.53125 -15.34375 193.53125 C-15.3344043 194.6864917 -15.32505859 195.8417334 -15.31542969 197.03198242 C-15.2754839 201.32810682 -15.20971254 205.62351856 -15.13623047 209.91918945 C-15.10804741 211.77651803 -15.0868196 213.63396595 -15.07275391 215.49145508 C-15.05128716 218.16549661 -15.00461931 220.83810735 -14.953125 223.51171875 C-14.95189636 224.33898972 -14.95066772 225.16626068 -14.94940186 226.01860046 C-14.85607387 229.71237241 -14.51158174 232.1748271 -12.9206543 235.5534668 C-8.98043718 238.57759744 -5.34660522 238.24823645 -0.50390625 238.1953125 C0.45520157 238.20009613 1.41430939 238.20487976 2.40248108 238.20980835 C4.42906333 238.21320784 6.45570037 238.20400196 8.48217773 238.18310547 C11.57986217 238.15636986 14.67391352 238.18283642 17.77148438 238.21484375 C19.74219548 238.21153909 21.71290433 238.20513168 23.68359375 238.1953125 C24.60768539 238.20543365 25.53177704 238.21555481 26.48387146 238.22598267 C32.04549957 238.12823638 32.04549957 238.12823638 36.59204102 234.98974609 C37.61382446 233.77279053 37.61382446 233.77279053 38.65625 232.53125 C39.64625 232.53125 40.63625 232.53125 41.65625 232.53125 C41.77300191 204.34163997 41.86119841 176.15206613 41.91531086 147.96226311 C41.94110296 134.87352292 41.97627302 121.78493288 42.03344727 108.69628906 C42.08325106 97.28950245 42.11553368 85.88282456 42.12669247 74.47593224 C42.13321627 68.43486647 42.14857052 62.39411177 42.18490028 56.3531456 C42.21881161 50.66831751 42.2293126 44.98392895 42.22178841 39.29900932 C42.22316511 37.21163101 42.23312625 35.12423816 42.25227737 33.03694725 C42.27713914 30.18773582 42.27118008 27.3401858 42.25752258 24.49093628 C42.27936889 23.25064818 42.27936889 23.25064818 42.30165654 21.98530376 C42.24814619 17.85807542 41.88009678 15.30006452 39.24367046 12.03376961 C36.02805662 8.92366949 34.69227636 8.40870867 30.37768555 8.35424805 C29.49304123 8.34141281 28.60839691 8.32857758 27.69694519 8.31535339 C26.73863297 8.30796646 25.78032074 8.30057953 24.79296875 8.29296875 C23.80883499 8.284897 22.82470123 8.27682526 21.81074524 8.26850891 C19.72516647 8.25466335 17.639565 8.24394332 15.55395508 8.23608398 C12.36691245 8.21887507 9.18090809 8.17499333 5.99414062 8.13085938 C3.96875764 8.12073221 1.94336582 8.11221618 -0.08203125 8.10546875 C-1.03427078 8.08796066 -1.98651031 8.07045258 -2.96760559 8.05241394 C-8.34063284 8.06999491 -11.56501225 8.29580819 -15.34375 12.53125 Z " fill="#DD600D" transform="translate(56.34375,3.46875)"/>
<path d="M0 0 C0.89498199 -0.01283524 1.78996399 -0.02567047 2.71206665 -0.03889465 C4.16822891 -0.04997505 4.16822891 -0.04997505 5.65380859 -0.0612793 C6.65302338 -0.06935104 7.65223816 -0.07742279 8.68173218 -0.08573914 C10.80180116 -0.09958898 12.92189253 -0.11030709 15.04199219 -0.11816406 C18.26850427 -0.13531865 21.49397622 -0.17919024 24.72021484 -0.22338867 C26.78140523 -0.23352075 28.84260433 -0.24203523 30.90380859 -0.2487793 C31.86243805 -0.26628738 32.8210675 -0.28379547 33.80874634 -0.30183411 C40.56132786 -0.28021769 46.12241299 0.8826962 51.20108032 5.5891571 C56.39458328 11.45215567 56.97167665 16.61577049 56.9379425 24.08995056 C56.94368083 25.43758093 56.94368083 25.43758093 56.94953507 26.81243616 C56.95985487 29.82325913 56.95587484 32.83389102 56.9519043 35.84472656 C56.95625132 38.00319088 56.96143443 40.16165366 56.96739197 42.32011414 C56.98079388 48.18368764 56.98135933 54.04719674 56.97882867 59.91078258 C56.97775982 64.80408453 56.98264008 69.6973734 56.98743409 74.59067255 C56.99853328 86.13337496 56.99896428 97.67604483 56.99291992 109.21875 C56.98687799 121.1310898 56.99919583 133.04331154 57.02048999 144.9556312 C57.03809547 155.17995264 57.04410903 165.40423647 57.04085225 175.62857252 C57.03903766 181.73652929 57.04169318 187.84440184 57.05556679 193.95234489 C57.0681234 199.69546073 57.06622147 205.43839226 57.0531559 211.1815052 C57.0507859 213.28982734 57.05353991 215.39816236 57.06177902 217.50646973 C57.07221214 220.38355135 57.06417329 223.26001063 57.0514679 226.1370697 C57.05884218 226.97219068 57.06621647 227.80731166 57.07381421 228.66773933 C57.02067531 234.38390537 55.96588088 238.58358529 52.06396484 243.00512695 C51.50322266 243.4743457 50.94248047 243.94356445 50.36474609 244.42700195 C49.81173828 244.9065332 49.25873047 245.38606445 48.68896484 245.88012695 C36.74244853 253.58157048 10.32553044 251.86598513 -3.32275391 249.17700195 C-9.6854149 247.26620282 -13.65856289 244.72880652 -17.32275391 239.17700195 C-19.44799925 234.13219134 -19.60829887 229.68413771 -19.58345032 224.30911255 C-19.58727586 223.42758322 -19.59110141 222.54605388 -19.59504288 221.63781154 C-19.60534463 218.69003925 -19.60138608 215.74246277 -19.59741211 212.79467773 C-19.60176015 210.67871928 -19.60694361 208.5627624 -19.61289978 206.44680786 C-19.62629134 200.7029898 -19.62686824 194.95923753 -19.62433648 189.21540689 C-19.62326683 184.41917099 -19.62815001 179.6229484 -19.6329419 174.82671535 C-19.64403773 163.51068748 -19.64447412 152.19469279 -19.63842773 140.87866211 C-19.63238757 129.20775609 -19.64469992 117.53697062 -19.6659978 105.86608517 C-19.68361562 95.84298437 -19.68961485 85.81992193 -19.68636006 75.79680622 C-19.68454729 69.81176087 -19.68718288 63.8268015 -19.7010746 57.84177017 C-19.7136511 52.21272151 -19.71171037 46.5838607 -19.69866371 40.95481491 C-19.69629797 38.89087104 -19.6990325 36.82691395 -19.70728683 34.76298523 C-19.71775613 31.94139219 -19.70965199 29.12042926 -19.69697571 26.29885864 C-19.70803714 25.07928457 -19.70803714 25.07928457 -19.71932203 23.83507264 C-19.65622844 17.14060361 -18.37920182 11.61226922 -13.94775391 6.36450195 C-9.56241879 2.71005603 -5.74320636 0.07169198 0 0 Z M-9.32275391 13.17700195 C-10.95831283 16.4481198 -10.4669087 20.06489605 -10.4631958 23.6599884 C-10.46616692 24.54838384 -10.46913805 25.43677927 -10.4721992 26.35209578 C-10.48091246 29.34688183 -10.48239666 32.34162804 -10.48388672 35.33642578 C-10.48851304 37.47636501 -10.49353744 39.61630341 -10.49893188 41.75624084 C-10.51207586 47.58271828 -10.51850473 53.40918419 -10.52294254 59.23567414 C-10.52587005 62.87303146 -10.52997424 66.5103856 -10.53444672 70.14774132 C-10.54812691 81.52004699 -10.55779101 92.89234542 -10.56164861 104.26465875 C-10.5661308 117.4074019 -10.58368403 130.55004112 -10.6126492 143.69275266 C-10.63424198 153.84140927 -10.6443516 163.99003658 -10.64568973 174.13871592 C-10.64673948 180.20477486 -10.65268343 186.27073618 -10.67050934 192.33677101 C-10.68694845 198.04207797 -10.68916576 203.74721348 -10.68037033 209.45253563 C-10.67959772 211.54837883 -10.68397198 213.6442311 -10.69382858 215.74005127 C-10.70648244 218.59792837 -10.70070698 221.45519225 -10.69024658 224.31306458 C-10.69830299 225.14536286 -10.70635939 225.97766114 -10.71465993 226.83518058 C-10.67572221 231.37370125 -10.40836167 234.56961811 -7.32275391 238.17700195 C-6.33275391 238.17700195 -5.34275391 238.17700195 -4.32275391 238.17700195 C-4.65275391 237.18700195 -4.98275391 236.19700195 -5.32275391 235.17700195 C-4.66275391 235.83700195 -4.00275391 236.49700195 -3.32275391 237.17700195 C-1.42663865 237.5061308 -1.42663865 237.5061308 0.75976562 237.49584961 C1.61223877 237.51591064 2.46471191 237.53597168 3.34301758 237.55664062 C4.68795288 237.57368042 4.68795288 237.57368042 6.06005859 237.59106445 C7.29550415 237.61753052 7.29550415 237.61753052 8.5559082 237.64453125 C11.63782084 237.70768172 14.72006325 237.75381073 17.80224609 237.80200195 C28.13537109 237.98762695 28.13537109 237.98762695 38.67724609 238.17700195 C24.81724609 238.50700195 10.95724609 238.83700195 -3.32275391 239.17700195 C-3.32275391 239.50700195 -3.32275391 239.83700195 -3.32275391 240.17700195 C3.13658649 240.3038949 9.59560494 240.39139164 16.0559082 240.45166016 C18.25297049 240.47678704 20.44994934 240.51089441 22.64672852 240.55419922 C25.80685014 240.61492957 28.96586567 240.64323028 32.12646484 240.6652832 C33.10685226 240.69108963 34.08723969 240.71689606 35.09733582 240.7434845 C39.81803119 240.7454211 41.94521756 240.74560086 45.77416992 237.77148438 C49.00127708 233.37193752 48.8255828 229.99875813 48.82441711 224.6940155 C48.8280938 223.80562007 48.83177049 222.91722463 48.83555859 222.00190812 C48.84662461 219.00712571 48.85044419 216.01237795 48.85424805 213.01757812 C48.86051044 210.87763864 48.86715703 208.73770025 48.87416077 206.59776306 C48.89159008 200.7712891 48.90212754 194.94482335 48.9103663 189.11832976 C48.91551178 185.48097258 48.92158768 181.84361796 48.92787743 178.20626259 C48.94693388 166.83395891 48.96116471 155.46166174 48.9694894 144.08934516 C48.97926803 130.94657138 49.00560212 117.80396575 49.04599029 104.66125125 C49.07611125 94.51259534 49.0909544 84.36398774 49.09427041 74.21528798 C49.09662527 68.14919384 49.10564244 62.08327923 49.13073158 56.01723289 C49.15394729 50.31189014 49.1582717 44.60684596 49.1479702 38.90146828 C49.14747316 36.80561965 49.15384276 34.70975665 49.16752625 32.61395264 C49.18514457 29.75592031 49.17818861 26.89897124 49.16499329 24.04093933 C49.17596253 23.20864105 49.18693178 22.37634277 49.19823343 21.51882333 C49.15379241 17.54077142 48.97219513 15.63684118 46.77020741 12.20384026 C43.42403194 8.96338065 40.90541219 7.9358268 36.27929688 7.87060547 C35.41805206 7.85461807 34.55680725 7.83863068 33.66946411 7.82215881 C32.74648529 7.81679611 31.82350647 7.81143341 30.87255859 7.8059082 C29.91582245 7.79687973 28.9590863 7.78785126 27.97335815 7.77854919 C25.95102056 7.76405403 23.92863616 7.75516178 21.90625 7.75146484 C18.81999313 7.73957035 15.73573729 7.6903791 12.64990234 7.63989258 C10.68246416 7.63042767 8.71501373 7.62319296 6.74755859 7.6184082 C5.82862823 7.59887589 4.90969788 7.57934357 3.96292114 7.55921936 C-2.22983495 7.60260352 -5.05061482 8.62922717 -9.32275391 13.17700195 Z " fill="#E1620E" transform="translate(167.32275390625,3.822998046875)"/>
<path d="M0 0 C1.29209381 -0.01925285 1.29209381 -0.01925285 2.61029053 -0.03889465 C3.54359192 -0.04628159 4.47689331 -0.05366852 5.43847656 -0.0612793 C6.3980426 -0.06935104 7.35760864 -0.07742279 8.34625244 -0.08573914 C10.38055613 -0.09958545 12.41488312 -0.11030515 14.44921875 -0.11816406 C17.55286053 -0.13535272 20.65543048 -0.17923118 23.75878906 -0.22338867 C25.73534373 -0.23351771 27.71190745 -0.24203315 29.68847656 -0.2487793 C30.61368103 -0.26628738 31.5388855 -0.28379547 32.49212646 -0.30183411 C38.10571656 -0.28304366 41.41918277 0.35181661 45.82910156 4.17700195 C48.30215086 7.88657591 48.11096864 10.72170557 48.08789062 15.01318359 C48.09139526 15.81020187 48.0948999 16.60722015 48.09851074 17.4283905 C48.10731852 20.0647348 48.10148286 22.70081114 48.09472656 25.3371582 C48.09607335 27.16654004 48.098014 28.99592152 48.1005249 30.82530212 C48.10347476 34.65944832 48.09918246 38.49350135 48.08984375 42.32763672 C48.07844124 47.24975263 48.0850146 52.17165064 48.09698868 57.09375858 C48.10420414 60.87090202 48.10192094 64.6479935 48.09673309 68.42513847 C48.09539614 70.24048323 48.09704589 72.05583265 48.1016922 73.87117195 C48.10675319 76.40431404 48.09905375 78.93709943 48.08789062 81.47021484 C48.09193909 82.22507172 48.09598755 82.97992859 48.10015869 83.75765991 C48.05763191 88.94847161 48.05763191 88.94847161 45.82910156 91.17700195 C45.51799666 93.33539894 45.51799666 93.33539894 45.55735779 95.86360168 C45.54763947 96.85199539 45.53792114 97.8403891 45.52790833 98.85873413 C45.52731918 99.9470755 45.52673004 101.03541687 45.52612305 102.15673828 C45.51346405 103.87151115 45.51346405 103.87151115 45.50054932 105.6209259 C45.47466549 109.41696567 45.46260486 113.21292751 45.45019531 117.0090332 C45.43402916 119.6397921 45.41685012 122.27054496 45.3986969 124.90129089 C45.35701356 131.13199242 45.32461888 137.36270196 45.29622275 143.59347695 C45.24230208 155.40339692 45.17403033 167.21321752 45.09828377 179.02301598 C45.07543607 182.90562029 45.05917096 186.78821334 45.04356384 190.67085266 C45.0301551 193.05026369 45.01654012 195.42967356 45.00268555 197.80908203 C45.00007217 198.89135071 44.9974588 199.97361938 44.99476624 201.08868408 C44.98441849 202.58396385 44.98441849 202.58396385 44.97386169 204.10945129 C44.96807932 205.40390026 44.96807932 205.40390026 44.96218014 206.7244997 C44.82299843 209.28947654 44.39203605 211.67361812 43.82910156 214.17700195 C43.49910156 214.17700195 43.16910156 214.17700195 42.82910156 214.17700195 C42.33410156 217.14700195 42.33410156 217.14700195 41.82910156 220.17700195 C41.49910156 220.17700195 41.16910156 220.17700195 40.82910156 220.17700195 C40.80543735 202.27476107 40.78796174 184.3725244 40.77728939 166.47027111 C40.77219597 158.15253859 40.76526431 149.83481604 40.75366211 141.51708984 C40.70469257 105.7257078 40.65625225 69.95432584 41.82910156 34.17700195 C42.15910156 34.17700195 42.48910156 34.17700195 42.82910156 34.17700195 C42.88693197 29.71872269 42.92264011 25.26053916 42.95410156 20.80200195 C42.97085938 19.53098633 42.98761719 18.2599707 43.00488281 16.95043945 C43.01132813 15.7387207 43.01777344 14.52700195 43.02441406 13.27856445 C43.0348877 12.15788574 43.04536133 11.03720703 43.05615234 9.88256836 C43.10965479 7.02722352 43.10965479 7.02722352 40.82910156 5.17700195 C38.82394035 4.87184932 38.82394035 4.87184932 36.50292969 4.91821289 C35.60860229 4.91190857 34.7142749 4.90560425 33.79284668 4.89910889 C32.82512329 4.90315735 31.8573999 4.90720581 30.86035156 4.91137695 C29.86910278 4.9094635 28.877854 4.90755005 27.85656738 4.90557861 C25.75837958 4.9042161 23.66018338 4.90791713 21.56201172 4.91625977 C18.3422561 4.92695824 15.12305848 4.91636659 11.90332031 4.90356445 C9.86816283 4.90488604 7.83300569 4.9074484 5.79785156 4.91137695 C4.34626648 4.90530426 4.34626648 4.90530426 2.86535645 4.89910889 C1.97102905 4.90541321 1.07670166 4.91171753 0.15527344 4.91821289 C-1.02814636 4.92059967 -1.02814636 4.92059967 -2.23547363 4.92303467 C-4.40824876 5.00828673 -4.40824876 5.00828673 -6.17089844 7.17700195 C-6.38104979 10.06294585 -6.46477384 12.85451585 -6.46282959 15.74264526 C-6.47003312 16.63991337 -6.47723666 17.53718148 -6.48465848 18.46163952 C-6.50645085 21.48641083 -6.51391866 24.5110507 -6.52148438 27.53588867 C-6.53404896 29.6971587 -6.54746098 31.85842394 -6.56166077 34.01968384 C-6.59762892 39.9039238 -6.62092765 45.78815229 -6.64147854 51.67246389 C-6.66449902 57.82058149 -6.69718209 63.96864899 -6.72833252 70.11672974 C-6.77903182 80.44522963 -6.82129606 90.77373959 -6.85888672 101.10229492 C-6.90250866 113.05270309 -6.96056747 125.00297682 -7.02613425 136.95328319 C-7.08197297 147.20040718 -7.12996415 157.44754605 -7.17138314 167.69473851 C-7.19615536 173.82055954 -7.22368554 179.94633514 -7.25829315 186.07210922 C-7.29040236 191.83234452 -7.31267966 197.59253501 -7.32729912 203.35284042 C-7.33429267 205.47007683 -7.3447412 207.58730498 -7.35885048 209.70450592 C-7.37751587 212.58886131 -7.38381504 215.47298341 -7.38690186 218.35739136 C-7.39943044 219.62188089 -7.39943044 219.62188089 -7.41221213 220.91191566 C-7.40482357 226.34477051 -7.40482357 226.34477051 -5.17089844 231.17700195 C-7.39275765 230.28825827 -8.86271467 229.60055301 -10.28657627 227.64367485 C-11.60529625 223.96531989 -11.45624992 220.3197945 -11.4450531 216.4602356 C-11.45028978 215.57083688 -11.45552646 214.68143816 -11.46092182 213.76508796 C-11.47594794 210.77881223 -11.47662755 207.79270745 -11.47729492 204.80639648 C-11.4849146 202.66778269 -11.49334176 200.52917165 -11.5025177 198.39056396 C-11.52448731 192.57652854 -11.53326482 186.76254571 -11.53834414 180.94847345 C-11.54198452 177.31745814 -11.54822289 173.68645667 -11.55534554 170.05544662 C-11.57984769 157.39202009 -11.59289378 144.72863457 -11.59643555 132.06518555 C-11.60007236 120.25447834 -11.62997638 108.44403077 -11.67184013 96.63340294 C-11.70650772 86.49827147 -11.72198337 76.36322619 -11.72268158 66.22803581 C-11.72347554 60.17252615 -11.73226902 54.11728091 -11.76067924 48.06183243 C-11.78679944 42.36706722 -11.78909867 36.67278681 -11.77302361 30.9779892 C-11.77120436 28.88739594 -11.77794248 26.79677519 -11.79384232 24.70624161 C-11.81422204 21.852829 -11.80379869 19.00112556 -11.78562927 16.1477356 C-11.79882924 15.31971439 -11.81202921 14.49169319 -11.82562917 13.63858044 C-11.76554906 9.51000184 -11.39471974 6.94613849 -8.75747776 3.6788311 C-5.5802974 0.60575217 -4.25975509 0.0552404 0 0 Z " fill="#FED764" transform="translate(168.1708984375,11.822998046875)"/>
<path d="M0 0 C0.89102417 -0.00938095 1.78204834 -0.0187619 2.70007324 -0.02842712 C4.13921082 -0.01157616 4.13921082 -0.01157616 5.60742188 0.00561523 C6.59488403 0.00416 7.58234619 0.00270477 8.59973145 0.00120544 C10.68777415 0.00286567 12.77582893 0.01444064 14.86376953 0.03515625 C18.06400409 0.06409894 21.26258168 0.05577002 24.46289062 0.04272461 C26.49024245 0.04896221 28.51758902 0.05735332 30.54492188 0.06811523 C31.50434692 0.0651796 32.46377197 0.06224396 33.45227051 0.05921936 C34.34329468 0.07190353 35.23431885 0.08458771 36.15234375 0.09765625 C36.93605347 0.10305923 37.71976318 0.10846222 38.52722168 0.11402893 C41.11559786 0.6037733 42.02656629 1.39643382 43.57617188 3.50170898 C43.57617188 4.49170898 43.57617188 5.48170898 43.57617188 6.50170898 C42.27881104 6.52676514 40.9814502 6.55182129 39.64477539 6.57763672 C34.84958331 6.6715265 30.05454237 6.77179148 25.25952148 6.87402344 C23.1807813 6.91744232 21.10200384 6.9591121 19.02319336 6.99902344 C16.04204042 7.0565582 13.06107638 7.12030017 10.08007812 7.18530273 C8.67696129 7.21037148 8.67696129 7.21037148 7.24549866 7.23594666 C6.38468185 7.25589188 5.52386505 7.2758371 4.63696289 7.29638672 C3.49445824 7.31970314 3.49445824 7.31970314 2.32887268 7.3434906 C0.54882181 7.31550227 0.54882181 7.31550227 -0.42382812 8.50170898 C-0.52167933 11.20763143 -0.55376493 13.88802075 -0.54408264 16.59437561 C-0.54493707 17.45277603 -0.54579149 18.31117645 -0.54667181 19.19558901 C-0.54832925 22.09460609 -0.54280094 24.9935663 -0.53735352 27.89257812 C-0.53707167 29.96166482 -0.53722932 32.03075162 -0.53779602 34.09983826 C-0.53808412 39.73597161 -0.53218545 45.37208389 -0.52522206 51.00821233 C-0.51899052 56.8912516 -0.51838488 62.77429131 -0.51719666 68.65733337 C-0.51408275 79.80625126 -0.50586857 90.9551594 -0.49584717 102.10407299 C-0.48468786 114.79309167 -0.47917604 127.4821108 -0.47415173 140.17113316 C-0.463686 166.28133052 -0.44608542 192.39151921 -0.42382812 218.50170898 C0.56617188 218.83170898 1.55617188 219.16170898 2.57617188 219.50170898 C3.26367188 221.56420898 3.26367188 221.56420898 3.57617188 223.50170898 C2.11981817 223.72345831 0.66094231 223.92869596 -0.79882812 224.12670898 C-1.6109375 224.24272461 -2.42304687 224.35874023 -3.25976562 224.47827148 C-3.97390625 224.48600586 -4.68804687 224.49374023 -5.42382812 224.50170898 C-8.02501199 221.90052512 -7.66881611 220.09999842 -7.69597703 216.55645573 C-7.69219771 215.71678316 -7.68841838 214.8771106 -7.68452454 214.01199341 C-7.68835008 213.12289241 -7.69217563 212.23379141 -7.6961171 211.31774795 C-7.70648544 208.3205782 -7.7024477 205.32359865 -7.69848633 202.32641602 C-7.70283072 200.18485333 -7.70801294 198.0432922 -7.713974 195.9017334 C-7.72740545 190.07117328 -7.72793802 184.24067781 -7.7254107 178.41010523 C-7.72434367 173.54907451 -7.72921751 168.68805701 -7.73401612 163.82702911 C-7.7451259 152.36164548 -7.74554062 140.89629461 -7.73950195 129.4309082 C-7.73346131 117.58959557 -7.74577217 105.74840174 -7.76707202 93.90710938 C-7.78466706 83.75336736 -7.79069265 73.59966323 -7.78743428 63.44590652 C-7.78561775 57.37597482 -7.78829429 51.30612782 -7.80214882 45.23620987 C-7.81468825 39.52843293 -7.81281993 33.82084159 -7.79973793 28.11306763 C-7.79736401 26.01519586 -7.80013581 23.91731118 -7.80836105 21.81945419 C-7.8187615 18.9612155 -7.81078187 16.10360731 -7.79804993 13.24539185 C-7.80542421 12.41018072 -7.8127985 11.5749696 -7.82039624 10.71444905 C-7.7889084 7.36704903 -7.6700379 4.94551507 -6.02849865 1.98655415 C-3.93877674 0.05287778 -2.82414962 0.0005988 0 0 Z " fill="#FEDE94" transform="translate(50.423828125,15.498291015625)"/>
<path d="M0 0 C0.89102417 -0.00945648 1.78204834 -0.01891296 2.70007324 -0.02865601 C3.65949829 -0.02258331 4.61892334 -0.01651062 5.60742188 -0.01025391 C6.59488403 -0.01312408 7.58234619 -0.01599426 8.59973145 -0.01895142 C10.68774997 -0.02099316 12.77578758 -0.01545565 14.86376953 -0.00292969 C18.06391071 0.01312209 21.26278884 -0.002775 24.46289062 -0.02197266 C26.49023717 -0.01999024 28.51758293 -0.01614661 30.54492188 -0.01025391 C31.98405945 -0.01936295 31.98405945 -0.01936295 33.45227051 -0.02865601 C34.78880676 -0.01447128 34.78880676 -0.01447128 36.15234375 0 C37.32790833 0.00358017 37.32790833 0.00358017 38.52722168 0.00723267 C41.15258695 0.49535353 42.02921213 1.22831081 43.57617188 3.38818359 C43.93693542 5.34342957 43.93693542 5.34342957 43.91674805 7.58422852 C43.91640816 8.845196 43.91640816 8.845196 43.9160614 10.13163757 C43.90057755 11.03485245 43.88509369 11.93806732 43.86914062 12.86865234 C43.86489578 13.79664139 43.86065094 14.72463043 43.85627747 15.68074036 C43.8394785 18.64601602 43.80182403 21.61061319 43.76367188 24.57568359 C43.74862661 26.58543941 43.73493793 28.59520587 43.72265625 30.60498047 C43.68957096 35.53297646 43.63778021 40.46046497 43.57617188 45.38818359 C43.24617188 45.38818359 42.91617188 45.38818359 42.57617188 45.38818359 C42.24617188 54.62818359 41.91617188 63.86818359 41.57617188 73.38818359 C41.24617188 73.38818359 40.91617188 73.38818359 40.57617188 73.38818359 C40.56586441 72.57607925 40.55555695 71.76397491 40.54493713 70.92726135 C40.44713208 63.28981871 40.3446424 55.65246038 40.23683262 48.01515293 C40.18156773 44.08833746 40.12814218 40.16151459 40.07885742 36.23461914 C40.03126626 32.44797517 39.97892563 28.66142443 39.92323112 24.87489128 C39.9027837 23.42716722 39.88407463 21.97941756 39.86709785 20.53164864 C39.84310679 18.510542 39.81247112 16.48951749 39.78149414 14.46850586 C39.76594986 13.31600845 39.75040558 12.16351105 39.73439026 10.97608948 C39.86734555 8.4584777 39.86734555 8.4584777 38.57617188 7.38818359 C35.7762359 7.28715105 33.00148544 7.24848272 30.20117188 7.25537109 C29.36150879 7.25441437 28.5218457 7.25345764 27.65673828 7.25247192 C25.87792893 7.25179012 24.0991171 7.25364443 22.3203125 7.2578125 C19.58783411 7.26316077 16.85552011 7.25786754 14.12304688 7.25146484 C12.39908818 7.25212563 10.67512958 7.25340679 8.95117188 7.25537109 C8.1282666 7.25334686 7.30536133 7.25132263 6.45751953 7.24923706 C2.71237321 6.90242899 2.71237321 6.90242899 -0.42382812 8.38818359 C-0.53888536 10.98925085 -0.58870345 13.56474639 -0.59741211 16.16699219 C-0.60414161 16.99226473 -0.61087111 17.81753727 -0.61780453 18.66781807 C-0.63201593 20.48731563 -0.64392132 22.30683223 -0.65388107 24.12635803 C-0.67022206 27.09108369 -0.69258143 30.05571174 -0.71646118 33.02038574 C-0.7506863 37.33289299 -0.78252442 41.64540812 -0.81253052 45.95794678 C-0.89393735 57.50774393 -0.99546838 69.05735774 -1.10351562 80.60693359 C-1.11469736 81.80668697 -1.1258791 83.00644035 -1.13739967 84.2425499 C-1.41036711 112.91926545 -1.92809758 141.59080174 -2.48632812 170.26318359 C-2.50945446 171.4554229 -2.5325808 172.6476622 -2.55640793 173.87602997 C-2.83795917 188.38023628 -3.12651782 202.88429184 -3.42382812 217.38818359 C-4.41382813 217.71818359 -5.40382812 218.04818359 -6.42382812 218.38818359 C-5.27209457 220.85618406 -4.37599247 222.43601925 -2.42382812 224.38818359 C-6.29882813 223.51318359 -6.29882813 223.51318359 -7.42382812 222.38818359 C-7.52840161 219.57558236 -7.56714747 216.78731344 -7.56427002 213.97402954 C-7.56724114 213.08099385 -7.57021226 212.18795815 -7.57327342 211.26786077 C-7.58200047 208.25148123 -7.58347203 205.23514119 -7.58496094 202.21875 C-7.58958626 200.06586115 -7.59461053 197.91297312 -7.6000061 195.76008606 C-7.61315922 189.89442874 -7.61958066 184.02878289 -7.62401676 178.16311312 C-7.62694267 174.50282797 -7.63104653 170.84254598 -7.63552094 167.18226242 C-7.64920323 155.74268152 -7.65886643 144.30310783 -7.66272283 132.86351931 C-7.66720622 119.63471564 -7.68476413 106.40601516 -7.71372342 93.17724288 C-7.73530195 82.96749171 -7.74542505 72.75776966 -7.74676394 62.54799592 C-7.74781468 56.44286222 -7.75377936 50.33782541 -7.77158356 44.23271561 C-7.78799827 38.49213506 -7.79025199 32.75172495 -7.78144455 27.01112938 C-7.78067063 24.89993396 -7.78506317 22.78872962 -7.7949028 20.67755699 C-7.80751573 17.80360008 -7.8018039 14.93025655 -7.7913208 12.05630493 C-7.79937721 11.2136079 -7.80743361 10.37091087 -7.81573415 9.50267756 C-7.76689651 3.80936362 -7.76689651 3.80936362 -6.02864146 1.67533338 C-3.92397888 -0.01272337 -2.6791167 0.00815922 0 0 Z " fill="#FEE49D" transform="translate(168.423828125,15.61181640625)"/>
<path d="M0 0 C0.33 0 0.66 0 1 0 C1.1799088 13.6040121 1.34499604 27.20818153 1.5 40.8125 C1.51187725 41.85427399 1.5237545 42.89604797 1.53599167 43.96939087 C1.97046232 82.48018749 2.08818162 120.98720708 2.0625 159.5 C2.06121597 161.43945684 2.06121597 161.43945684 2.05990601 163.41809464 C2.04861604 179.2787441 2.02869153 195.13937274 2 211 C1.01 211 0.02 211 -1 211 C-1.67828857 211.8149292 -2.35657715 212.6298584 -3.05541992 213.46948242 C-7.29271338 217.11093393 -10.70314644 216.63734201 -16.11328125 216.48828125 C-17.08283249 216.48120651 -18.05238373 216.47413177 -19.05131531 216.46684265 C-22.13917137 216.43891874 -25.22519475 216.37618303 -28.3125 216.3125 C-30.40947897 216.28741458 -32.50648644 216.26460184 -34.60351562 216.24414062 C-39.73638009 216.18909838 -44.86787964 216.10283859 -50 216 C-47.64046906 213.64046906 -46.22104383 213.50858587 -43 213 C-43 212.01 -43 211.02 -43 210 C-30.46 209.67 -17.92 209.34 -5 209 C-5 169.4 -5 129.8 -5 89 C-4.67 89 -4.34 89 -4 89 C-3.67 90.98 -3.34 92.96 -3 95 C-2.67 95 -2.34 95 -2 95 C-1.34 63.65 -0.68 32.3 0 0 Z " fill="#FEA723" transform="translate(96,25)"/>
<path d="M0 0 C0.66 0.33 1.32 0.66 2 1 C0.99088542 2.72526042 -0.01822917 4.45052083 -1.02734375 6.17578125 C-3.35704539 10.54514135 -3.1454648 14.73285558 -3.14044189 19.54508972 C-3.14341302 20.42813933 -3.14638414 21.31118894 -3.1494453 22.22099763 C-3.15814465 25.19185623 -3.1596416 28.16267458 -3.16113281 31.13354492 C-3.16576016 33.25891201 -3.17078471 35.38427827 -3.17617798 37.50964355 C-3.1893132 43.29287616 -3.19574929 49.07609714 -3.20018864 54.85934234 C-3.20311795 58.4717695 -3.20722251 62.08419347 -3.21169281 65.69661903 C-3.22537156 76.99684611 -3.235036 88.29706592 -3.2388947 99.59730071 C-3.24337457 112.64548329 -3.26091767 125.69356108 -3.2898953 138.7417118 C-3.31150991 148.82419398 -3.32159889 158.90664667 -3.32293582 168.98915178 C-3.32398413 175.01225549 -3.32989743 181.03526074 -3.34775543 187.05834007 C-3.3642319 192.72591424 -3.36639358 198.39331588 -3.35761642 204.06090546 C-3.35684579 206.13936385 -3.36119222 208.21783151 -3.37107468 210.29626656 C-3.38379093 213.13771348 -3.37791893 215.97854912 -3.36749268 218.81999207 C-3.37554908 219.63897875 -3.38360548 220.45796544 -3.39190602 221.30176991 C-3.33622593 227.80758218 -2.33835344 233.66164656 2.4375 238.4375 C6.35674025 240.82728064 9.59127336 241.12477408 14.13574219 241.11352539 C15.66687653 241.11341209 15.66687653 241.11341209 17.22894287 241.11329651 C18.87131927 241.10555458 18.87131927 241.10555458 20.546875 241.09765625 C21.6732135 241.0962413 22.799552 241.09482635 23.96002197 241.09336853 C27.55670835 241.08777199 31.15333244 241.0752201 34.75 241.0625 C37.18880118 241.05748455 39.62760334 241.05292172 42.06640625 241.04882812 C48.04429208 241.0378037 54.02214159 241.02106898 60 241 C54.14752725 246.85247275 40.62261394 245.18153019 32.875 245.1875 C31.37428955 245.1887085 31.37428955 245.1887085 29.84326172 245.18994141 C6.78324499 245.01968698 6.78324499 245.01968698 -0.59765625 238.61328125 C-5.85128756 232.77761499 -6.29508248 226.57021051 -6.26069641 219.1321106 C-6.26452196 218.25058126 -6.26834751 217.36905193 -6.27228898 216.46080959 C-6.28259072 213.5130373 -6.27863218 210.56546082 -6.2746582 207.61767578 C-6.27900625 205.50171733 -6.28418971 203.38576045 -6.29014587 201.26980591 C-6.30353743 195.52598784 -6.30411433 189.78223558 -6.30158257 184.03840494 C-6.30051293 179.24216904 -6.3053961 174.44594645 -6.310188 169.6497134 C-6.32128382 158.33368552 -6.32172021 147.01769084 -6.31567383 135.70166016 C-6.30963367 124.03075414 -6.32194601 112.35996867 -6.3432439 100.68908322 C-6.36086172 90.66598242 -6.36686095 80.64291998 -6.36360615 70.61980426 C-6.36179338 64.63475891 -6.36442898 58.64979954 -6.37832069 52.66476822 C-6.39089719 47.03571955 -6.38895647 41.40685874 -6.37590981 35.77781296 C-6.37354407 33.71386908 -6.37627859 31.649912 -6.38453293 29.58598328 C-6.39500222 26.76439024 -6.38689809 23.9434273 -6.3742218 21.12185669 C-6.38528323 19.90228262 -6.38528323 19.90228262 -6.39656812 18.65807068 C-6.33060403 11.65903013 -4.7338637 5.41012994 0 0 Z " fill="#D15E10" transform="translate(154,9)"/>
<path d="M0 0 C0.33 0 0.66 0 1 0 C1.00586624 1.2815094 1.01173248 2.5630188 1.01777649 3.88336182 C1.07494348 15.94947931 1.14767357 28.01541553 1.23571491 40.08134842 C1.28047773 46.28485063 1.31972091 52.48828626 1.34643555 58.69189453 C1.37240938 64.67664884 1.41276998 70.66114774 1.46318626 76.64574432 C1.47989505 78.93109719 1.49138426 81.21649427 1.49761391 83.50189972 C1.50721125 86.69848016 1.53521875 89.89440124 1.56762695 93.09082031 C1.56619186 94.03956528 1.56475677 94.98831024 1.5632782 95.96580505 C1.63250219 100.94581699 1.63250219 100.94581699 3.258255 105.58598328 C5.42070198 107.34154233 6.53029169 107.51085247 9.30029297 107.53344727 C10.164841 107.5492836 11.02938904 107.56511993 11.9201355 107.58143616 C12.85141266 107.57647629 13.78268982 107.57151642 14.7421875 107.56640625 C15.70271027 107.57260483 16.66323303 107.57880341 17.65286255 107.58518982 C19.68539414 107.59229542 21.71798385 107.5891011 23.75048828 107.57641602 C26.85688946 107.56258066 29.9602611 107.5965733 33.06640625 107.63476562 C35.0416674 107.63571711 37.01693232 107.63385643 38.9921875 107.62890625 C39.9194162 107.64216446 40.8466449 107.65542267 41.80197144 107.66908264 C46.0344122 107.6081703 48.41857292 107.35730516 52.08129883 105.10644531 C54.84164652 100.63734441 54.72821288 96.83061768 54.70703125 91.66796875 C54.72215256 90.67622147 54.73727386 89.68447418 54.75285339 88.66267395 C54.79574202 85.50405155 54.80456975 82.34638461 54.8125 79.1875 C54.83564332 77.04229229 54.86100831 74.89710731 54.88867188 72.75195312 C54.95153526 67.50129303 54.98646044 62.25100648 55 57 C55.33 57 55.66 57 56 57 C56.27026413 63.72510229 56.50001185 70.45072308 56.7019043 77.17822266 C56.77530025 79.46564887 56.85789904 81.75279936 56.94995117 84.03955078 C57.0808271 87.33075843 57.17834695 90.62154527 57.26953125 93.9140625 C57.31721146 94.93303619 57.36489166 95.95200989 57.41401672 97.00186157 C57.5828037 104.94989048 57.5828037 104.94989048 54.6706543 108.63037109 C51.3752811 111.5543031 49.13825607 112.12287353 44.88330078 112.14526367 C44.05879425 112.15164352 43.23428772 112.15802338 42.38479614 112.16459656 C41.49726654 112.16570938 40.60973694 112.1668222 39.6953125 112.16796875 C38.77918182 112.17129715 37.86305115 112.17462555 36.91915894 112.17805481 C34.98077903 112.18311777 33.04239041 112.18546333 31.10400391 112.18530273 C28.14340789 112.18748642 25.18318619 112.20564109 22.22265625 112.22460938 C20.33854294 112.22754401 18.45442786 112.22952834 16.5703125 112.23046875 C15.68683136 112.23765427 14.80335022 112.24483978 13.89309692 112.25224304 C5.51296342 112.22121003 5.51296342 112.22121003 2 110 C-2.32114135 104.87599781 -2.56015873 100.99020545 -2.45410156 94.59814453 C-2.45468567 93.67067917 -2.45526978 92.74321381 -2.45587158 91.78764343 C-2.45309476 88.7356465 -2.4220214 85.68463788 -2.390625 82.6328125 C-2.38316119 80.51146986 -2.37746892 78.39012032 -2.37347412 76.26876831 C-2.3582289 70.69552449 -2.31895629 65.12270011 -2.2746582 59.54962158 C-2.23368174 53.8586596 -2.21545801 48.1676296 -2.1953125 42.4765625 C-2.15246127 31.31752443 -2.0842231 20.15879714 -2 9 C-1.67 9 -1.34 9 -1 9 C-0.67 6.03 -0.34 3.06 0 0 Z " fill="#F67E0A" transform="translate(41,133)"/>
<path d="M0 0 C0.99 0.33 1.98 0.66 3 1 C3.17786885 16.20821569 3.34341443 31.41655032 3.5 46.625 C3.51187725 47.77794933 3.5237545 48.93089867 3.53599167 50.11878586 C3.93563415 89.26716281 4.09004641 128.41215946 4.0625 167.5625 C4.06164398 168.78797798 4.06078796 170.01345596 4.05990601 171.27606964 C4.04870196 186.18406195 4.02891441 201.09203178 4 216 C3.67 216 3.34 216 3 216 C2.67 203.13 2.34 190.26 2 177 C1.67 177 1.34 177 1 177 C0.14286593 139.22903406 -0.13570086 101.48076362 -0.07202661 63.70191801 C-0.06048691 56.72387221 -0.0552628 49.74582492 -0.05032361 42.76777184 C-0.04010398 28.51183807 -0.02273307 14.25591931 0 0 Z " fill="#FDA82C" transform="translate(39,20)"/>
<path d="M0 0 C0.99 0.33 1.98 0.66 3 1 C3.02316131 14.34317501 3.04093447 27.68634524 3.05181217 41.02953625 C3.05703268 47.22518308 3.0641153 53.42081616 3.07543945 59.61645508 C3.0862978 65.59459379 3.09228311 71.57271927 3.09487724 77.55086708 C3.09672616 79.83263673 3.10033657 82.11440564 3.10573006 84.39616966 C3.11297953 87.58989405 3.11398928 90.78356364 3.11352539 93.97729492 C3.11712067 94.92244461 3.12071594 95.8675943 3.12442017 96.84138489 C3.11783983 101.02286151 3.07214691 104.92466018 2 109 C1.67 109 1.34 109 1 109 C0.67 110.98 0.34 112.96 0 115 C-0.33 115 -0.66 115 -1 115 C-1.023337 102.95895679 -1.04102262 90.91791911 -1.05181217 78.87685776 C-1.05699482 73.28361961 -1.06400683 67.69039711 -1.07543945 62.09716797 C-1.08643465 56.68305562 -1.09231145 51.26895818 -1.09487724 45.85483551 C-1.09670192 43.80595923 -1.10026367 41.75708361 -1.10573006 39.70821381 C-1.13967375 26.43825842 -0.7976652 13.24674814 0 0 Z " fill="#FEA225" transform="translate(210,117)"/>
<path d="M0 0 C0.33 0 0.66 0 1 0 C1.33 14.19 1.66 28.38 2 43 C2.33 43 2.66 43 3 43 C3 87.22 3 131.44 3 177 C2.34 177 1.68 177 1 177 C0.13154239 139.43727466 -0.13468286 101.89902769 -0.07202661 64.3285625 C-0.06049713 57.28282383 -0.05526514 50.2370837 -0.05032361 43.19133782 C-0.04009723 28.7942155 -0.02271943 14.39710802 0 0 Z " fill="#FE9E15" transform="translate(213,58)"/>
<path d="M0 0 C0.99 0.495 0.99 0.495 2 1 C2.09303144 10.21485876 2.16393197 19.42955372 2.20724869 28.64478111 C2.22804759 32.92465277 2.2562227 37.20420109 2.30175781 41.48388672 C2.34549267 45.62066411 2.36919487 49.75713218 2.37950897 53.89412308 C2.38685112 55.46566252 2.40118766 57.03718667 2.42292023 58.60859299 C2.65133376 75.82237661 2.65133376 75.82237661 -2 83 C-10.77630996 91.35617769 -22.38108357 91.33921045 -33.875 91.1875 C-34.9256665 91.1781543 -35.97633301 91.16880859 -37.05883789 91.15917969 C-40.0398467 91.12320557 -43.01954675 91.06710115 -46 91 C-46.73234863 90.98598145 -47.46469727 90.97196289 -48.21923828 90.95751953 C-56.05434051 90.76319457 -63.47628937 89.94574269 -69.58984375 84.61328125 C-74.51650523 79.17253335 -75.25209919 73.51239866 -75.1953125 66.4140625 C-75.19106766 65.36138687 -75.19106766 65.36138687 -75.18673706 64.28744507 C-75.17562512 62.06644972 -75.15053834 59.84587155 -75.125 57.625 C-75.11495854 56.11068295 -75.10583473 54.59635951 -75.09765625 53.08203125 C-75.07571554 49.38788742 -75.04124875 45.69398449 -75 42 C-74.34 42 -73.68 42 -73 42 C-72.9906543 42.95777344 -72.98130859 43.91554687 -72.97167969 44.90234375 C-72.93151663 48.48857496 -72.86568875 52.07397179 -72.79248047 55.65966797 C-72.76442213 57.20545657 -72.74313294 58.75138461 -72.72900391 60.29736328 C-72.87311477 72.33236865 -72.87311477 72.33236865 -68 83 C-62.01637535 87.4012399 -57.06133811 87.57636046 -49.7734375 87.49609375 C-48.7075943 87.49754898 -47.6417511 87.49900421 -46.54360962 87.50050354 C-44.29955297 87.49884934 -42.0554844 87.48734209 -39.81152344 87.46655273 C-36.37906755 87.43753439 -32.94815152 87.4459675 -29.515625 87.45898438 C-27.33072167 87.45274831 -25.14582321 87.44435841 -22.9609375 87.43359375 C-21.93688812 87.43652939 -20.91283875 87.43946503 -19.85775757 87.44248962 C-14.69094798 87.37408294 -11.26150889 87.23555036 -7 84 C-6.34 84 -5.68 84 -5 84 C-4.71125 83.4225 -4.4225 82.845 -4.125 82.25 C-3 80 -3 80 -1.94961548 78.3237915 C-0.63159811 75.0984886 -0.69179601 72.00001911 -0.68115234 68.56933594 C-0.67110672 67.82748047 -0.6610611 67.085625 -0.65071106 66.32128906 C-0.61988551 63.87565873 -0.60284585 61.43013784 -0.5859375 58.984375 C-0.56722533 57.28614358 -0.54765188 55.58792146 -0.5272522 53.88970947 C-0.47593013 49.42473835 -0.43630483 44.95973708 -0.39910889 40.49462891 C-0.35906971 35.93644758 -0.30797697 31.37839165 -0.2578125 26.8203125 C-0.16105233 17.88029643 -0.07664782 8.94020954 0 0 Z " fill="#B03A06" transform="translate(105,163)"/>
<path d="M0 0 C0.33 0 0.66 0 1 0 C2.18852099 10.18232655 2.10463003 20.31973319 2.04459953 30.55491638 C2.02703209 33.64863561 2.01685641 36.74230204 2.00868225 39.83605957 C1.98436847 48.62285329 1.94844627 57.40957455 1.90405273 66.19628906 C1.87730267 71.59173623 1.86024373 76.98714363 1.84918404 82.38264465 C1.84297671 84.43359361 1.83297448 86.48453472 1.81910515 88.53544617 C1.79992945 91.39282352 1.79299959 94.24998894 1.78881836 97.10742188 C1.78005676 97.95315765 1.77129517 98.79889343 1.76226807 99.67025757 C1.75806468 105.13753388 1.75806468 105.13753388 4 110 C1.75254972 109.10101989 0.30021532 108.42230808 -1.11862183 106.42645264 C-2.3809621 102.95120334 -2.26148907 99.57497375 -2.22705078 95.92675781 C-2.22734283 95.11662735 -2.22763489 94.30649689 -2.22793579 93.47181702 C-2.22654443 90.79881006 -2.21099238 88.12608316 -2.1953125 85.453125 C-2.19158168 83.59796297 -2.18873503 81.74279898 -2.18673706 79.88763428 C-2.17910604 75.00826565 -2.15946207 70.12901635 -2.1373291 65.24969482 C-2.11685927 60.26934422 -2.10773291 55.28897431 -2.09765625 50.30859375 C-2.07621571 40.53901011 -2.04208612 30.76951498 -2 21 C-1.34 21 -0.68 21 0 21 C0 14.07 0 7.14 0 0 Z " fill="#FEA01F" transform="translate(159,133)"/>
<path d="M0 0 C0.33 0 0.66 0 1 0 C1 41.58 1 83.16 1 126 C0.67 126 0.34 126 0 126 C-0.33 128.97 -0.66 131.94 -1 135 C-1.66 135 -2.32 135 -3 135 C-3.02312821 127.32463373 -3.04091753 119.64927104 -3.05181217 111.97387791 C-3.05703995 108.41022578 -3.06413569 104.84659743 -3.07543945 101.28295898 C-3.08834176 97.18993903 -3.09322906 93.0969442 -3.09765625 89.00390625 C-3.10281754 87.71851456 -3.10797882 86.43312286 -3.11329651 85.10877991 C-3.11337204 83.92763107 -3.11344757 82.74648224 -3.11352539 81.52954102 C-3.115746 80.48363297 -3.11796661 79.43772491 -3.12025452 78.36012268 C-3 76 -3 76 -2 75 C-1.8810693 72.70533699 -1.8325308 70.40701281 -1.81054688 68.109375 C-1.80225357 67.38907104 -1.79396027 66.66876709 -1.78541565 65.92663574 C-1.76797938 64.35789216 -1.75282243 62.78912201 -1.73963928 61.22033691 C-1.71867852 58.7415472 -1.69165126 56.26289121 -1.66296387 53.78417969 C-1.60316728 48.52283732 -1.55105054 43.26143355 -1.5 38 C-1.44086873 31.90574028 -1.3786513 25.81154661 -1.30812073 19.71740723 C-1.28144964 17.26833187 -1.26069338 14.81925023 -1.2401123 12.37011719 C-1.22351605 10.87694987 -1.20664481 9.38378558 -1.18945312 7.890625 C-1.17692505 6.58125977 -1.16439697 5.27189453 -1.15148926 3.92285156 C-1 1 -1 1 0 0 Z " fill="#FEC544" transform="translate(160,19)"/>
<path d="M0 0 C0.33 0 0.66 0 1 0 C1.070057 26.49465275 1.12297198 52.98929163 1.15543652 79.48401833 C1.17091049 91.78576375 1.19201022 104.08745165 1.22631836 116.38916016 C1.25620439 127.11035588 1.27557114 137.83150995 1.28226548 148.55274618 C1.28617907 154.2304337 1.29538772 159.90800204 1.31719017 165.5856514 C1.33754264 170.92896517 1.34383626 176.27211059 1.33932304 181.61545944 C1.34014879 183.5770433 1.34612176 185.53863275 1.35761642 187.50018311 C1.37254106 190.17827709 1.36895368 192.85573531 1.36076355 195.53384399 C1.36950207 196.3101204 1.3782406 197.0863968 1.38724393 197.88619673 C1.33396545 204.33118314 -0.31988243 208.20266493 -4.6875 212.875 C-5.450625 213.57625 -6.21375 214.2775 -7 215 C-7.66 214.67 -8.32 214.34 -9 214 C-8.0311084 213.14043701 -7.0622168 212.28087402 -6.06396484 211.39526367 C-1.42359172 205.91796641 -2.03704994 199.52050112 -1.9765625 192.67578125 C-1.942487 191.18681647 -1.90610209 189.69790308 -1.86763 188.20904541 C-1.77018424 184.10807695 -1.71167745 180.00734333 -1.66068649 175.90556717 C-1.61275869 172.42301657 -1.54247254 168.94104637 -1.4730444 165.45886898 C-0.70529222 126.32319797 -0.85584702 87.16761838 -0.98486328 48.02661133 C-0.99187836 45.55344668 -0.99881259 43.08028181 -1.00566101 40.6071167 C-1.01845802 35.98788472 -1.03821431 31.368758 -1.06233215 26.74957275 C-1.06905583 24.66581293 -1.07555373 22.58205236 -1.08178711 20.49829102 C-1.08851755 19.57664311 -1.09524799 18.65499521 -1.10218239 17.70541859 C-1.11258092 11.74621992 -0.70246606 5.91722012 0 0 Z " fill="#A42E03" transform="translate(223,35)"/>
<path d="M0 0 C0.33 0 0.66 0 1 0 C1.33 8.25 1.66 16.5 2 25 C13.55 25.33 25.1 25.66 37 26 C37 26.66 37 27.32 37 28 C37.66 28 38.32 28 39 28 C39 28.66 39 29.32 39 30 C40.65 29.67 42.3 29.34 44 29 C42.39838816 30.92232696 41.51103746 31.90750413 39.00679016 32.36076355 C37.87094734 32.3507708 37.87094734 32.3507708 36.7121582 32.34057617 C35.85149246 32.34034958 34.99082672 32.34012299 34.1040802 32.33988953 C32.71644722 32.31666374 32.71644722 32.31666374 31.30078125 32.29296875 C30.35059616 32.28872391 29.40041107 32.28447906 28.4214325 32.28010559 C25.38483412 32.26330484 22.34889798 32.22564992 19.3125 32.1875 C17.25456687 32.17245497 15.19662335 32.15876625 13.13867188 32.14648438 C8.09219252 32.11339671 3.04620856 32.06160462 -2 32 C-3.4606285 29.35261084 -4 28.10551666 -4 25 C-2.68 24.67 -1.36 24.34 0 24 C0 16.08 0 8.16 0 0 Z " fill="#FEA72A" transform="translate(166,209)"/>
<path d="M0 0 C0.33 0 0.66 0 1 0 C1.00238835 0.65230339 1.00477671 1.30460678 1.00723743 1.97667694 C1.06644443 17.86886102 1.1420308 33.76087079 1.23571491 49.65288544 C1.28062785 57.33823778 1.32005281 65.02354424 1.34643555 72.70898438 C1.36945219 79.40976797 1.40289095 86.11040584 1.44870156 92.81107378 C1.47258459 96.35709811 1.49134547 99.90297857 1.49761391 103.44908142 C1.50481745 107.41348029 1.53529524 111.37751952 1.56762695 115.34179688 C1.56619186 116.5099292 1.56475677 117.67806152 1.5632782 118.8815918 C1.64874883 126.29838349 1.92119408 132.92119408 7.4375 138.4375 C11.35674025 140.82728064 14.59127336 141.12477408 19.13574219 141.11352539 C20.66687653 141.11341209 20.66687653 141.11341209 22.22894287 141.11329651 C23.87131927 141.10555458 23.87131927 141.10555458 25.546875 141.09765625 C26.6732135 141.0962413 27.799552 141.09482635 28.96002197 141.09336853 C32.55670835 141.08777199 36.15333244 141.0752201 39.75 141.0625 C42.18880118 141.05748455 44.62760334 141.05292172 47.06640625 141.04882812 C53.04429208 141.0378037 59.02214159 141.02106898 65 141 C59.14752725 146.85247275 45.62261394 145.18153019 37.875 145.1875 C36.37428955 145.1887085 36.37428955 145.1887085 34.84326172 145.18994141 C11.78324499 145.01968698 11.78324499 145.01968698 4.40234375 138.61328125 C-1.76037451 131.76781286 -1.25708584 124.22547948 -1.13525391 115.56884766 C-1.12579239 114.31951447 -1.11633087 113.07018127 -1.10658264 111.7829895 C-1.07874031 108.37007244 -1.04183695 104.95748177 -1.00085878 101.54471254 C-0.96013367 97.97334475 -0.93105515 94.4018823 -0.90072632 90.83041382 C-0.84158162 84.07315026 -0.77200557 77.31603625 -0.69865549 70.55891359 C-0.61563221 62.86370958 -0.54427767 55.16841111 -0.47388959 47.47308278 C-0.32888438 31.64858126 -0.1692699 15.8242617 0 0 Z " fill="#A93004" transform="translate(149,109)"/>
<path d="M0 0 C1.17556458 -0.00024925 1.17556458 -0.00024925 2.37487793 -0.00050354 C3.2659021 -0.00988449 4.15692627 -0.01926544 5.07495117 -0.02893066 C6.51408875 -0.0120797 6.51408875 -0.0120797 7.9822998 0.00511169 C8.96976196 0.00365646 9.95722412 0.00220123 10.97460938 0.0007019 C13.06265208 0.00236213 15.15070686 0.0139371 17.23864746 0.03465271 C20.43888202 0.0635954 23.63745961 0.05526648 26.83776855 0.04222107 C28.86512038 0.04845867 30.89246695 0.05684978 32.9197998 0.06761169 C33.87922485 0.06467606 34.8386499 0.06174042 35.82714844 0.05871582 C36.71817261 0.07139999 37.60919678 0.08408417 38.52722168 0.09715271 C39.3109314 0.10255569 40.09464111 0.10795868 40.90209961 0.11352539 C43.49047578 0.60326976 44.40144422 1.39593028 45.9510498 3.50120544 C45.9510498 4.49120544 45.9510498 5.48120544 45.9510498 6.50120544 C44.02071899 6.50736877 44.02071899 6.50736877 42.0513916 6.51365662 C37.2819398 6.53540968 32.5133175 6.58965947 27.7442627 6.65379333 C25.67923933 6.67700679 23.61409701 6.69137687 21.5489502 6.69676208 C18.58196595 6.70602723 15.61686136 6.74696364 12.65026855 6.79417419 C11.7251799 6.79024155 10.80009125 6.7863089 9.8469696 6.78225708 C7.44048542 6.83718061 5.28611948 6.91573683 2.9510498 7.50120544 C0.75535983 9.86362632 0.75535983 9.86362632 -0.0489502 12.50120544 C-1.0489502 9.50120544 -1.0489502 9.50120544 -0.20397949 7.33811951 C3.28656371 4.36283378 6.99787256 5.00923883 11.43151855 5.11058044 C12.82350212 5.11907013 12.82350212 5.11907013 14.24360657 5.12773132 C17.20911126 5.15013168 20.17341001 5.20033471 23.1385498 5.25120544 C25.14829799 5.27126572 27.1580651 5.28951731 29.16784668 5.30589294 C34.09604609 5.35000849 39.02334346 5.41906121 43.9510498 5.50120544 C42.38491794 3.64823954 41.47079048 2.60741685 39.05395508 2.11352539 C38.34130493 2.10812241 37.62865479 2.10271942 36.89440918 2.09715271 C36.08346802 2.08446854 35.27252686 2.07178436 34.43701172 2.05871582 C33.56508179 2.06165146 32.69315186 2.0645871 31.7947998 2.06761169 C30.44678284 2.05974892 30.44678284 2.05974892 29.0715332 2.05172729 C27.17184482 2.04530497 25.27211668 2.04664682 23.37243652 2.05516052 C20.46172521 2.06367422 17.55297357 2.03490698 14.64245605 2.00315857 C12.79740456 2.0015466 10.95234958 2.002124 9.1072998 2.00511169 C8.23536987 1.99387772 7.36343994 1.98264374 6.46508789 1.97106934 C5.65414673 1.98045029 4.84320557 1.98983124 4.00769043 1.99949646 C3.29504028 1.99966263 2.58239014 1.9998288 1.84814453 2 C-0.15520335 2.38911998 -0.15520335 2.38911998 -1.77546692 3.91323853 C-3.77365938 7.97395615 -3.48808094 11.94283862 -3.48132324 16.41038513 C-3.49151489 17.41558701 -3.50170654 18.42078888 -3.51220703 19.45645142 C-3.54239923 22.77871733 -3.55161266 26.10069521 -3.56066895 29.42308044 C-3.57751098 31.72665876 -3.59566057 34.03022786 -3.61506653 36.33378601 C-3.66262409 42.396745 -3.69239636 48.45966662 -3.71850586 54.52275085 C-3.74828224 60.70965455 -3.79482262 66.89642942 -3.83996582 73.08323669 C-3.92606452 85.22249231 -3.9933807 97.36177439 -4.0489502 109.50120544 C-4.3789502 109.50120544 -4.7089502 109.50120544 -5.0489502 109.50120544 C-5.11840104 95.88002131 -5.17173655 82.25887917 -5.20438671 68.63755417 C-5.2200556 62.31290695 -5.24131643 55.9883807 -5.27526855 49.6638031 C-5.30781802 43.56246498 -5.32579399 37.46124336 -5.33358192 31.35982513 C-5.33913334 29.02976395 -5.34997363 26.69970928 -5.36614037 24.36969757 C-5.38785561 21.11098351 -5.39091955 17.85275343 -5.38952637 14.59397888 C-5.40031219 13.62653244 -5.41109802 12.659086 -5.42221069 11.662323 C-5.4180867 10.77333817 -5.41396271 9.88435333 -5.40971375 8.96842957 C-5.41247912 8.19781063 -5.4152445 7.4271917 -5.41809368 6.63322067 C-4.83690419 3.27651823 -3.39097136 0.82948493 0 0 Z " fill="#FEF5C5" transform="translate(48.0489501953125,15.498794555664063)"/>
<path d="M0 0 C0.0462719 10.65691222 0.08184295 21.31380068 0.10362434 31.97079277 C0.11407654 36.91887832 0.12826183 41.86689532 0.15087891 46.81494141 C0.17255623 51.58707481 0.1845578 56.35914213 0.18975449 61.13132095 C0.19345946 62.9550493 0.200694 64.77877389 0.21146011 66.60247421 C0.22590721 69.15026512 0.22798081 71.69778042 0.22705078 74.24560547 C0.23424133 75.00517548 0.24143188 75.76474548 0.24884033 76.54733276 C0.22810432 81.77189568 0.22810432 81.77189568 -2 84 C-2.72005548 56.32765526 -3.15834966 28.68195603 -3 1 C-1 0 -1 0 0 0 Z " fill="#FEC93D" transform="translate(216,19)"/>
<path d="M0 0 C0.99 0.33 1.98 0.66 3 1 C3.21446412 62.46074923 3.21446412 62.46074923 2 93 C1.67 93 1.34 93 1 93 C-0.22726324 74.40011298 -0.11971174 55.81104323 -0.06866455 37.18157959 C-0.05827264 32.97717806 -0.0538336 28.77277016 -0.04882812 24.56835938 C-0.03823388 16.37888924 -0.02126003 8.18944938 0 0 Z " fill="#FDC13F" transform="translate(39,20)"/>
<path d="M0 0 C0.86066574 0.00022659 1.72133148 0.00045319 2.608078 0.00068665 C3.99571098 0.02391243 3.99571098 0.02391243 5.41137695 0.04760742 C6.83665459 0.05397469 6.83665459 0.05397469 8.29072571 0.06047058 C11.32732408 0.07727133 14.36326022 0.11492625 17.3996582 0.15307617 C19.45759133 0.1681212 21.51553485 0.18180992 23.57348633 0.1940918 C28.61996568 0.22717947 33.66594964 0.27897155 38.7121582 0.34057617 C38.7121582 0.67057617 38.7121582 1.00057617 38.7121582 1.34057617 C37.48585693 1.35515869 36.25955566 1.36974121 34.99609375 1.38476562 C30.45038554 1.442697 25.90517539 1.51992998 21.35986328 1.60302734 C19.39184649 1.63630103 17.42373371 1.66432532 15.45556641 1.68701172 C12.62792008 1.72051295 9.80115538 1.7728258 6.97387695 1.82885742 C6.09253586 1.83524734 5.21119476 1.84163727 4.30314636 1.84822083 C3.48252213 1.86801498 2.66189789 1.88780914 1.81640625 1.90820312 C0.73385811 1.92485771 0.73385811 1.92485771 -0.37055969 1.94184875 C-2.91069828 2.47010847 -3.6896428 3.31056285 -5.2878418 5.34057617 C-5.74606279 7.66041465 -5.74606279 7.66041465 -5.68656921 10.29496765 C-5.69910736 11.31720428 -5.71164551 12.33944092 -5.7245636 13.39265442 C-5.72312851 14.51330795 -5.72169342 15.63396149 -5.72021484 16.78857422 C-5.73040649 17.96919434 -5.74059814 19.14981445 -5.75109863 20.36621094 C-5.77613521 23.6035971 -5.78795831 26.8407108 -5.7939527 30.07817817 C-5.80332629 33.46151696 -5.82952878 36.84472402 -5.85395813 40.22798157 C-5.89765496 46.63460406 -5.92618227 53.04120104 -5.94928151 59.4479273 C-5.97631621 66.74176684 -6.02022871 74.03547408 -6.06557024 81.32921922 C-6.15846202 96.33293359 -6.2301219 111.33668219 -6.2878418 126.34057617 C-6.6178418 126.34057617 -6.9478418 126.34057617 -7.2878418 126.34057617 C-7.35788229 110.355202 -7.41080556 94.36987749 -7.44327831 78.38438702 C-7.45875586 70.96226056 -7.4798622 63.54022937 -7.51416016 56.11816406 C-7.5440355 49.65007379 -7.56341035 43.18205249 -7.57010728 36.71389514 C-7.57402275 33.28813153 -7.58324273 29.86256529 -7.60503197 26.43686485 C-7.62914282 22.61526122 -7.62981299 18.79385176 -7.62841797 14.97216797 C-7.6392038 13.83281296 -7.64998962 12.69345795 -7.66110229 11.51957703 C-7.6569783 10.48051208 -7.65285431 9.44144714 -7.64860535 8.37089539 C-7.65137073 7.46661647 -7.6541361 6.56233755 -7.65698528 5.63065624 C-6.92158786 1.0684222 -4.30449282 -0.03786944 0 0 Z " fill="#FEF4C3" transform="translate(168.287841796875,15.659423828125)"/>
<path d="M0 0 C0.33 0 0.66 0 1 0 C1 17.82 1 35.64 1 54 C0.67 54 0.34 54 0 54 C-0.33 59.61 -0.66 65.22 -1 71 C-1.33 71 -1.66 71 -2 71 C-2.0154612 69.74759018 -2.0154612 69.74759018 -2.03123474 68.46987915 C-2.12909975 60.61201027 -2.23159839 52.75421858 -2.33933926 44.89647865 C-2.3945691 40.85646949 -2.44798919 36.81645309 -2.49731445 32.77636719 C-2.54495713 28.87949595 -2.59729989 24.98271391 -2.65294075 21.08594894 C-2.67336475 19.59718412 -2.69207776 18.10839484 -2.70907402 16.61958694 C-2.73311711 14.53878157 -2.76317159 12.45814525 -2.79467773 10.37744141 C-2.81022202 9.19163483 -2.8257663 8.00582825 -2.84178162 6.78408813 C-2.81329649 4.04361935 -2.81329649 4.04361935 -4 2 C-2.68 2 -1.36 2 0 2 C0 1.34 0 0.68 0 0 Z " fill="#FEE38C" transform="translate(94,20)"/>
<path d="M0 0 C0.33 0 0.66 0 1 0 C1.98810044 4.11241022 2.12092213 7.95346357 2.11352539 12.17700195 C2.11367142 12.87998917 2.11381744 13.58297638 2.1139679 14.30726624 C2.11327441 16.61763659 2.10550857 18.92792508 2.09765625 21.23828125 C2.09579006 22.84539241 2.09436711 24.45250415 2.09336853 26.05961609 C2.08955915 30.27968937 2.07974239 34.49972797 2.06866455 38.7197876 C2.05841643 43.02998384 2.05386363 47.3401857 2.04882812 51.65039062 C2.03811867 60.10027629 2.02106127 68.55013383 2 77 C1.67 77 1.34 77 1 77 C0.67 73.7 0.34 70.4 0 67 C-0.33 67 -0.66 67 -1 67 C-1.02520211 60.99414354 -1.04309036 54.98831956 -1.05493164 48.98242188 C-1.05988129 46.95018984 -1.06664269 44.91796121 -1.07543945 42.88574219 C-1.135785 28.5589999 -0.77973329 14.30595219 0 0 Z " fill="#FED169" transform="translate(93,69)"/>
<path d="M0 0 C0.88149216 -0.01606293 1.76298431 -0.03212585 2.67118835 -0.04867554 C6.72170367 -0.0930637 10.77205206 -0.13422004 14.82275391 -0.15722656 C16.95763063 -0.17375966 19.0924526 -0.20101449 21.22705078 -0.23925781 C24.30375925 -0.29411811 27.37916659 -0.3159181 30.45629883 -0.33056641 C31.40651413 -0.35323578 32.35672943 -0.37590515 33.33573914 -0.39926147 C37.89846843 -0.38476841 40.90308908 -0.25242788 44.50048828 2.72558594 C45.27610107 3.53979004 46.05171387 4.35399414 46.85083008 5.19287109 C46.52083008 6.18287109 46.19083008 7.17287109 45.85083008 8.19287109 C45.23747803 7.37866699 44.62412598 6.56446289 43.9921875 5.72558594 C40.78979418 2.54862011 37.83086757 2.6146243 33.47468567 2.60073853 C32.52244614 2.6234079 31.5702066 2.64607727 30.58911133 2.66943359 C29.60210739 2.67413666 28.61510345 2.67883972 27.59819031 2.6836853 C24.45252121 2.70499922 21.30854766 2.76161634 18.16333008 2.81787109 C16.03509071 2.83438037 13.90683339 2.84872788 11.77856445 2.86083984 C7.89528988 2.89479016 4.01219127 2.92949813 0.12939453 3 C-0.65050339 3.01286041 -1.43040131 3.02572083 -2.2339325 3.03897095 C-4.2342235 3.07950815 -4.2342235 3.07950815 -6.14916992 4.19287109 C-8.71077489 8.78748685 -8.49536775 13.53256886 -8.56323242 18.64990234 C-8.58259857 19.55286545 -8.60196472 20.45582855 -8.62191772 21.38615417 C-8.68151075 24.25913157 -8.72801761 27.13214946 -8.77416992 30.00537109 C-8.81236837 31.95786215 -8.85142119 33.91033669 -8.89135742 35.86279297 C-8.98719562 40.63935093 -9.07130144 45.41598776 -9.14916992 50.19287109 C-9.47916992 50.19287109 -9.80916992 50.19287109 -10.14916992 50.19287109 C-10.27289894 44.01822196 -10.36357136 37.84429653 -10.42382812 31.66870117 C-10.44895043 29.56863839 -10.4830545 27.46866286 -10.52636719 25.36889648 C-10.58711864 22.34776269 -10.61540255 19.32778614 -10.63745117 16.30615234 C-10.6632576 15.36951248 -10.68906403 14.43287262 -10.71565247 13.46784973 C-10.71765335 8.80262145 -10.69458881 6.87123212 -7.68115234 3.12329102 C-6.84559814 2.48625244 -6.01004395 1.84921387 -5.14916992 1.19287109 C-3.60615652 -0.35014231 -2.14929078 0.03547771 0 0 Z " fill="#FEE166" transform="translate(50.149169921875,11.80712890625)"/>
<path d="M0 0 C0.33 0 0.66 0 1 0 C1 17.82 1 35.64 1 54 C1.66 54 2.32 54 3 54 C1.82382551 58.41065434 0.95032202 60.64128959 -3 63 C-5.22735596 63.36076355 -5.22735596 63.36076355 -7.67675781 63.34057617 C-9.05773651 63.34023628 -9.05773651 63.34023628 -10.46661377 63.33988953 C-11.45216248 63.32440567 -12.43771118 63.30892181 -13.453125 63.29296875 C-14.46848328 63.28872391 -15.48384155 63.28447906 -16.52996826 63.28010559 C-19.77024954 63.26332424 -23.00990697 63.22567241 -26.25 63.1875 C-28.44790768 63.17245249 -30.64582512 63.1587642 -32.84375 63.14648438 C-38.22937922 63.11342255 -43.61464503 63.06322836 -49 63 C-49 62.67 -49 62.34 -49 62 C-47.75387939 61.99589111 -46.50775879 61.99178223 -45.22387695 61.98754883 C-40.59227362 61.96574633 -35.96151846 61.91144485 -31.33032227 61.84741211 C-29.32747539 61.82424189 -27.32450683 61.80983868 -25.3215332 61.80444336 C-22.43884546 61.79514667 -19.55806881 61.75414094 -16.67578125 61.70703125 C-15.33644279 61.71293022 -15.33644279 61.71293022 -13.970047 61.71894836 C-9.42574558 61.61274396 -7.59353366 61.48417219 -3.95776367 58.51831055 C-3.31170166 57.68726807 -2.66563965 56.85622559 -2 56 C-1.67 55.67 -1.34 55.34 -1 55 C-0.87692689 53.28225833 -0.82213442 51.55957261 -0.79467773 49.83764648 C-0.77473251 48.73658066 -0.75478729 47.63551483 -0.73423767 46.50108337 C-0.71752518 45.3031868 -0.70081268 44.10529022 -0.68359375 42.87109375 C-0.66281265 41.65172623 -0.64203156 40.4323587 -0.62062073 39.17604065 C-0.55499572 35.26325355 -0.49618028 31.35039683 -0.4375 27.4375 C-0.39432709 24.79231038 -0.35071322 22.14712791 -0.30664062 19.50195312 C-0.1993012 13.00137664 -0.09755933 6.50073021 0 0 Z " fill="#FD8F0D" transform="translate(213,181)"/>
<path d="M0 0 C0.99 0.33 1.98 0.66 3 1 C3.20638953 40.05842411 3.20638953 40.05842411 2 56 C1.67 56 1.34 56 1 56 C0.67 52.04 0.34 48.08 0 44 C-0.33 44 -0.66 44 -1 44 C-1.12375296 29.29434109 -0.90933848 14.6793211 0 0 Z " fill="#FEB53F" transform="translate(210,117)"/>
<path d="M0 0 C0.33 0 0.66 0 1 0 C2.36043997 24.31786443 2.09901591 48.65427171 2 73 C1.67 73 1.34 73 1 73 C0.67 67.06 0.34 61.12 0 55 C-0.33 55 -0.66 55 -1 55 C-1.02510127 49.73877289 -1.04304552 44.47758219 -1.05493164 39.21630859 C-1.05989742 37.43407584 -1.06667228 35.65184701 -1.07543945 33.86962891 C-1.1297334 22.53177559 -0.88101234 11.3071528 0 0 Z " fill="#FEB73F" transform="translate(93,120)"/>
<path d="M0 0 C0.33 0 0.66 0 1 0 C1.02551328 7.20417518 1.04293502 14.40833856 1.05493164 21.61254883 C1.05993694 24.05949336 1.06674318 26.50643494 1.07543945 28.95336914 C1.08767252 32.4858473 1.0932665 36.01828565 1.09765625 39.55078125 C1.10281754 40.63144363 1.10797882 41.71210602 1.11329651 42.82551575 C1.11378875 49.60490736 0.73712865 56.26063504 0 63 C-0.33 63 -0.66 63 -1 63 C-1.33 65.64 -1.66 68.28 -2 71 C-2.33 71 -2.66 71 -3 71 C-3.02501716 66.23519254 -3.04300757 61.47042466 -3.05493164 56.70556641 C-3.05991102 55.08999972 -3.06669694 53.47443742 -3.07543945 51.85888672 C-3.12466635 42.51735827 -3.01553142 33.30121449 -2 24 C-1.67 24 -1.34 24 -1 24 C-0.67 16.08 -0.34 8.16 0 0 Z " fill="#FFCA5B" transform="translate(212,66)"/>
<path d="M0 0 C1.97783637 0.0251159 3.95570349 0.04792325 5.93359375 0.06835938 C10.74816282 0.1230897 15.56123854 0.20917993 20.375 0.3125 C20.375 0.6425 20.375 0.9725 20.375 1.3125 C19.40264404 1.3626123 18.43028809 1.41272461 17.4284668 1.46435547 C13.76953662 1.65482213 10.1111651 1.85466446 6.45288086 2.05712891 C4.87912195 2.14296153 3.30522803 2.22635886 1.73120117 2.30712891 C-15.57971692 2.30392636 -15.57971692 2.30392636 -30.3203125 9.71484375 C-31.99623802 11.76709986 -32.94820114 13.7557043 -33.625 16.3125 C-34.88794529 13.4421698 -34.5460149 11.97833226 -33.8125 8.875 C-31.80857261 4.84235881 -29.13081737 3.22268928 -25.13110352 1.32250977 C-17.04338689 -1.00733382 -8.33978062 -0.18438527 0 0 Z " fill="#D25510" transform="translate(67.625,3.6875)"/>
<path d="M0 0 C2.45663329 2.86850449 3.37535779 4.57912336 3.328125 8.359375 C3.32361328 9.21708496 3.31910156 10.07479492 3.31445312 10.95849609 C3.29318359 11.87969238 3.27191406 12.80088867 3.25 13.75 C3.23904297 14.70342285 3.22808594 15.6568457 3.21679688 16.63916016 C3.05069818 27.76596743 2.5502618 38.8864679 2 50 C0.52050781 48.98632812 0.52050781 48.98632812 -1 47 C-1.27464727 44.3257633 -1.37284871 41.89006142 -1.328125 39.21875 C-1.32625183 38.45002563 -1.32437866 37.68130127 -1.32244873 36.88928223 C-1.31572428 35.25850096 -1.30180191 33.62773593 -1.28125 31.99707031 C-1.25046244 29.53695161 -1.24031056 27.07747869 -1.234375 24.6171875 C-1.19289726 16.3668875 -0.98085997 8.20272661 0 0 Z " fill="#FEAC34" transform="translate(210,150)"/>
<path d="M0 0 C1.29198051 -0.01913956 1.29198051 -0.01913956 2.61006165 -0.03866577 C4.0022718 -0.04200424 4.0022718 -0.04200424 5.42260742 -0.04541016 C6.38075851 -0.05206696 7.33890961 -0.05872375 8.32609558 -0.06558228 C10.35442179 -0.07571045 12.38278134 -0.08039924 14.41113281 -0.08007812 C17.50601601 -0.08444155 20.5994619 -0.12073258 23.6940918 -0.15869141 C25.66609214 -0.16456156 27.63809924 -0.16852962 29.61010742 -0.17041016 C30.53217484 -0.18478119 31.45424225 -0.19915222 32.4042511 -0.21395874 C38.61692693 -0.17005747 42.21886519 0.79381637 46.71557617 5.29052734 C46.756384 7.29011098 46.75811973 9.29097988 46.71557617 11.29052734 C46.46807617 10.71302734 46.22057617 10.13552734 45.96557617 9.54052734 C44.40008583 6.72264473 43.33347849 5.24298521 40.71557617 3.29052734 C37.45022252 2.69330524 34.22237092 2.7541281 30.91088867 2.79443359 C29.47578445 2.79225075 29.47578445 2.79225075 28.01168823 2.7900238 C25.98928786 2.79168251 23.96687484 2.80324054 21.94458008 2.82397461 C18.85858099 2.85285882 15.77430777 2.8445966 12.68823242 2.83154297 C10.7207762 2.83778285 8.75332538 2.84617574 6.78588867 2.85693359 C5.86695831 2.85399796 4.94802795 2.85106232 4.00125122 2.84803772 C-1.1901141 2.9239391 -4.74959554 3.47295587 -9.28442383 6.29052734 C-7.2841644 1.67454405 -5.02437834 0.05060645 0 0 Z " fill="#FEE66B" transform="translate(168.284423828125,11.70947265625)"/>
<path d="M0 0 C0.33 0 0.66 0 1 0 C1.33 17.49 1.66 34.98 2 53 C2.33 53 2.66 53 3 53 C3.12807946 65.70832863 2.79541627 78.31595119 2 91 C1.67 91 1.34 91 1 91 C-0.07019448 72.29271091 -0.12350825 53.62786806 -0.06866455 34.89849854 C-0.05824106 30.94861401 -0.05382716 26.99872258 -0.04882812 23.04882812 C-0.03825863 15.36586724 -0.02130379 7.68293944 0 0 Z " fill="#FCA629" transform="translate(91,114)"/>
<path d="M0 0 C2.75507852 2.75507852 2.43214144 4.64869062 2.6875 8.5 C2.77386719 9.6653125 2.86023438 10.830625 2.94921875 12.03125 C2.98642744 14.93925238 2.8703395 17.43410486 2.52294922 20.28466797 C1.79152435 27.31330467 1.76788476 34.35515924 1.68359375 41.4140625 C1.66297597 42.87951173 1.64197842 44.34495566 1.62062073 45.81039429 C1.56589733 49.63413146 1.51627263 53.45791777 1.46777344 57.28173828 C1.41719098 61.19698364 1.36169837 65.11215922 1.30664062 69.02734375 C1.1996691 76.68483645 1.09809342 84.34238788 1 92 C0.67 92 0.34 92 0 92 C0 61.64 0 31.28 0 0 Z " fill="#ED7411" transform="translate(221,19)"/>
<path d="M0 0 C0.33 0 0.66 0 1 0 C1.01458252 0.74685059 1.02916504 1.49370117 1.04418945 2.26318359 C1.11847946 5.63432252 1.21520199 9.00445005 1.3125 12.375 C1.33505859 13.550625 1.35761719 14.72625 1.38085938 15.9375 C1.41630859 17.05898437 1.45175781 18.18046875 1.48828125 19.3359375 C1.51446533 20.37282715 1.54064941 21.4097168 1.56762695 22.47802734 C1.71031006 23.31027832 1.85299316 24.1425293 2 25 C2.99 25.66 3.98 26.32 5 27 C4.34 27 3.68 27 3 27 C3 27.66 3 28.32 3 29 C9.93 29.33 16.86 29.66 24 30 C24.33 30.66 24.66 31.32 25 32 C16.09 32 7.18 32 -2 32 C-4 28 -4 28 -4 25 C-2.68 24.67 -1.36 24.34 0 24 C0 16.08 0 8.16 0 0 Z " fill="#FEB345" transform="translate(166,209)"/>
<path d="M0 0 C6.17464913 -0.12372902 12.34857456 -0.21440144 18.52416992 -0.2746582 C20.6242327 -0.29978051 22.72420823 -0.33388458 24.82397461 -0.37719727 C27.8451084 -0.43794871 30.86508496 -0.46623263 33.88671875 -0.48828125 C34.82335861 -0.51408768 35.75999847 -0.5398941 36.72502136 -0.56648254 C44.00789634 -0.56960611 44.00789634 -0.56960611 47.13208008 2.53051758 C47.74849365 3.34544678 48.36490723 4.16037598 49 5 C48.34 5.66 47.68 6.32 47 7 C46.59722336 6.35125916 46.19444672 5.70251831 45.77946472 5.03411865 C44.20280794 2.8419888 44.20280794 2.8419888 41.93086243 2.48101807 C40.74172493 2.4676944 40.74172493 2.4676944 39.52856445 2.45410156 C38.62785721 2.43438293 37.72714996 2.41466431 36.79914856 2.39434814 C35.83031235 2.39311951 34.86147614 2.39189087 33.86328125 2.390625 C32.37141548 2.36582062 32.37141548 2.36582062 30.84941101 2.34051514 C27.67037871 2.2919005 24.4918252 2.27063406 21.3125 2.25 C19.15817886 2.22185163 17.00388016 2.19192581 14.84960938 2.16015625 C9.56649357 2.08613839 4.28351316 2.0345749 -1 2 C-0.67 1.34 -0.34 0.68 0 0 Z " fill="#FED75C" transform="translate(165,14)"/>
<path d="M0 0 C0.33 0 0.66 0 1 0 C1.33 14.19 1.66 28.38 2 43 C2.33 43 2.66 43 3 43 C3.0578304 47.45827926 3.09353855 51.9164628 3.125 56.375 C3.14175781 57.64601562 3.15851563 58.91703125 3.17578125 60.2265625 C3.18222656 61.43828125 3.18867188 62.65 3.1953125 63.8984375 C3.20578613 65.01911621 3.21625977 66.13979492 3.22705078 67.29443359 C3 70 3 70 1 72 C-0.37472688 48.01592576 -0.09726855 24.01335922 0 0 Z " fill="#FEB527" transform="translate(213,58)"/>
<path d="M0 0 C0.56732849 0.48608231 1.13465698 0.97216461 1.71917725 1.47297668 C4.26616709 3.17820033 5.47325506 3.38898355 8.49316406 3.43237305 C9.37377502 3.45216721 10.25438599 3.47196136 11.16168213 3.49235535 C12.10348328 3.49874527 13.04528442 3.50513519 14.015625 3.51171875 C14.98659119 3.52966995 15.95755737 3.54762115 16.95794678 3.56611633 C20.05525385 3.62024273 23.1524066 3.65412283 26.25 3.6875 C28.35158398 3.72067098 30.4531476 3.75516043 32.5546875 3.79101562 C37.70301371 3.87597073 42.85129395 3.94277108 48 4 C45.59766142 6.40233858 45.01647698 6.26257468 41.73388672 6.31884766 C40.41274368 6.34865219 40.41274368 6.34865219 39.06491089 6.37905884 C37.63672531 6.39638565 37.63672531 6.39638565 36.1796875 6.4140625 C34.71899338 6.44311172 34.71899338 6.44311172 33.22879028 6.4727478 C30.11094997 6.53264558 26.99307294 6.57896971 23.875 6.625 C21.76430659 6.66317039 19.65362892 6.70222156 17.54296875 6.7421875 C12.36211856 6.83835527 7.18117403 6.92337264 2 7 C1.34 4.69 0.68 2.38 0 0 Z " fill="#EF6604" transform="translate(160,237)"/>
<path d="M0 0 C0.33 0 0.66 0 1 0 C1.90289857 11.68931188 2.11465457 23.27975496 2 35 C1.67 35 1.34 35 1 35 C0.67 44.24 0.34 53.48 0 63 C-0.33 63 -0.66 63 -1 63 C-1.02568839 56.5994555 -1.04300627 50.19892463 -1.05493164 43.79833984 C-1.05991149 41.6280874 -1.06669779 39.45783821 -1.07543945 37.28759766 C-1.12436672 24.81402392 -1.02073091 12.43749687 0 0 Z " fill="#FFE288" transform="translate(210,26)"/>
<path d="M0 0 C0.33 0 0.66 0 1 0 C3.43579968 29.012114 3.43579968 29.012114 -2 37 C-5.87702699 40.48576738 -9.86194289 42.96071118 -15 44 C-15 43.34 -15 42.68 -15 42 C-13.71086513 41.32845067 -12.41859796 40.66291141 -11.125 40 C-10.40570313 39.62875 -9.68640625 39.2575 -8.9453125 38.875 C-7 38 -7 38 -5 38 C-4.71125 37.4225 -4.4225 36.845 -4.125 36.25 C-3 34 -3 34 -1.95556641 32.29394531 C-0.65242836 29.16561495 -0.67195185 26.43010604 -0.5859375 23.046875 C-0.56657135 22.38665344 -0.5472052 21.72643188 -0.5272522 21.04620361 C-0.46770651 18.94759847 -0.42117278 16.84893772 -0.375 14.75 C-0.33679706 13.3228934 -0.29774398 11.89580928 -0.2578125 10.46875 C-0.1620267 6.97937309 -0.07790358 3.48982714 0 0 Z " fill="#972303" transform="translate(105,209)"/>
<path d="M0 0 C1.10677083 1.52994792 2.21354167 3.05989583 3.3203125 4.58984375 C2.5571875 4.28046875 1.7940625 3.97109375 1.0078125 3.65234375 C-3.80053233 1.75137021 -7.94850291 1.38118249 -13.06640625 1.2734375 C-13.88341507 1.2526564 -14.70042389 1.23187531 -15.54219055 1.21046448 C-18.15043784 1.14511296 -20.75878525 1.08615102 -23.3671875 1.02734375 C-25.13607804 0.98414483 -26.90495847 0.9405301 -28.67382812 0.89648438 C-33.00901213 0.78944632 -37.34429679 0.68813831 -41.6796875 0.58984375 C-41.6796875 0.25984375 -41.6796875 -0.07015625 -41.6796875 -0.41015625 C-36.94795127 -0.72206754 -32.215752 -1.02491909 -27.48291016 -1.31958008 C-25.87468042 -1.42096355 -24.2666016 -1.52477239 -22.65869141 -1.63110352 C-20.34052889 -1.78397306 -18.02195436 -1.92796173 -15.703125 -2.0703125 C-14.99038422 -2.11922134 -14.27764343 -2.16813019 -13.54330444 -2.21852112 C-3.35803182 -2.81918486 -3.35803182 -2.81918486 0 0 Z " fill="#F07F1B" transform="translate(95.6796875,6.41015625)"/>
<path d="M0 0 C0.66 0.99 1.32 1.98 2 3 C-0.97041946 5.57211104 -2.75533679 6.37289558 -6.67675781 6.34057617 C-8.05773651 6.34023628 -8.05773651 6.34023628 -9.46661377 6.33988953 C-10.45216248 6.32440567 -11.43771118 6.30892181 -12.453125 6.29296875 C-13.46848328 6.28872391 -14.48384155 6.28447906 -15.52996826 6.28010559 C-18.77024954 6.26332424 -22.00990697 6.22567241 -25.25 6.1875 C-27.44790768 6.17245249 -29.64582512 6.1587642 -31.84375 6.14648438 C-37.22937922 6.11342255 -42.61464503 6.06322836 -48 6 C-48 5.67 -48 5.34 -48 5 C-46.74340576 4.98541748 -45.48681152 4.97083496 -44.19213867 4.95581055 C-39.53462108 4.89788396 -34.87758984 4.82065089 -30.22045898 4.73754883 C-28.20393765 4.7042729 -26.18732258 4.67624932 -24.1706543 4.65356445 C-21.273519 4.62006744 -18.37724482 4.56775456 -15.48046875 4.51171875 C-14.57725388 4.50532883 -13.674039 4.4989389 -12.74345398 4.49235535 C-11.90280899 4.47256119 -11.062164 4.45276703 -10.19604492 4.43237305 C-9.08684944 4.41571846 -9.08684944 4.41571846 -7.95524597 4.39872742 C-5.47765091 3.89347892 -4.69251428 2.82341437 -3 1 C-2.01 0.67 -1.02 0.34 0 0 Z " fill="#F57907" transform="translate(212,238)"/>
<path d="M0 0 C0.86066574 0.00022659 1.72133148 0.00045319 2.608078 0.00068665 C3.99571098 0.02391243 3.99571098 0.02391243 5.41137695 0.04760742 C6.83665459 0.05397469 6.83665459 0.05397469 8.29072571 0.06047058 C11.32732408 0.07727133 14.36326022 0.11492625 17.3996582 0.15307617 C19.45759133 0.1681212 21.51553485 0.18180992 23.57348633 0.1940918 C28.61996568 0.22717947 33.66594964 0.27897155 38.7121582 0.34057617 C38.7121582 0.67057617 38.7121582 1.00057617 38.7121582 1.34057617 C37.48585693 1.35515869 36.25955566 1.36974121 34.99609375 1.38476562 C30.45038554 1.442697 25.90517539 1.51992998 21.35986328 1.60302734 C19.39184649 1.63630103 17.42373371 1.66432532 15.45556641 1.68701172 C12.62792008 1.72051295 9.80115538 1.7728258 6.97387695 1.82885742 C6.09253586 1.83524734 5.21119476 1.84163727 4.30314636 1.84822083 C3.48252213 1.86801498 2.66189789 1.88780914 1.81640625 1.90820312 C0.73385811 1.92485771 0.73385811 1.92485771 -0.37055969 1.94184875 C-2.8679993 2.46122858 -3.75924316 3.32393198 -5.2878418 5.34057617 C-5.87002511 8.76296458 -5.87002511 8.76296458 -5.9753418 12.52807617 C-6.04108398 13.80038086 -6.10682617 15.07268555 -6.17456055 16.38354492 C-6.21194336 17.35936523 -6.24932617 18.33518555 -6.2878418 19.34057617 C-6.6178418 19.34057617 -6.9478418 19.34057617 -7.2878418 19.34057617 C-7.3687731 16.73578734 -7.42829614 14.13350964 -7.4753418 11.52807617 C-7.51304687 10.42109375 -7.51304687 10.42109375 -7.55151367 9.29174805 C-7.62599958 3.80461923 -7.62599958 3.80461923 -6.03752136 1.62480164 C-3.85388549 0.022062 -2.69076029 -0.02367238 0 0 Z " fill="#FEF9D4" transform="translate(168.287841796875,15.659423828125)"/>
<path d="M0 0 C0.33 0 0.66 0 1 0 C2.04518445 9.68662016 2.10371911 19.27345227 2 29 C1.67 29 1.34 29 1 29 C0.67 33.95 0.34 38.9 0 44 C-0.33 44 -0.66 44 -1 44 C-1.12375296 29.29434109 -0.90933848 14.6793211 0 0 Z " fill="#FEBD4C" transform="translate(210,117)"/>
<path d="M0 0 C0.33 0 0.66 0 1 0 C1.21902614 6.76216637 1.41393065 13.52471898 1.59204102 20.28808594 C1.65548728 22.58902735 1.72446418 24.88982315 1.79907227 27.19042969 C1.90532921 30.4965181 1.99171483 33.80261916 2.07421875 37.109375 C2.11157639 38.13867126 2.14893402 39.16796753 2.18742371 40.22845459 C2.20767105 41.18914856 2.2279184 42.14984253 2.2487793 43.13964844 C2.27320602 43.98348083 2.29763275 44.82731323 2.32279968 45.69671631 C1.92742467 48.51784925 0.85320493 49.88241072 -1 52 C-1.66 51.67 -2.32 51.34 -3 51 C-2.67854004 50.2251123 -2.35708008 49.45022461 -2.02587891 48.65185547 C-0.69297114 43.90705911 -0.64538118 39.47635983 -0.5859375 34.5703125 C-0.56657135 33.57998016 -0.5472052 32.58964783 -0.5272522 31.56930542 C-0.46770447 28.4212899 -0.4211703 25.27323732 -0.375 22.125 C-0.3367974 19.98435948 -0.29774435 17.84373396 -0.2578125 15.703125 C-0.16202348 10.4688836 -0.07690405 5.2345511 0 0 Z " fill="#FA8909" transform="translate(96,190)"/>
<path d="M0 0 C13.6878342 -0.18359241 27.32799033 0.38508665 41 1 C41 1.33 41 1.66 41 2 C27.8 2.33 14.6 2.66 1 3 C0.67 2.01 0.34 1.02 0 0 Z " fill="#F78512" transform="translate(50,233)"/>
<path d="M0 0 C0.33 0 0.66 0 1 0 C1 5.94 1 11.88 1 18 C1.66 18 2.32 18 3 18 C2.01 20.475 2.01 20.475 1 23 C-0.32 22.34 -1.64 21.68 -3 21 C-2.34 20.34 -1.68 19.68 -1 19 C-0.63105418 16.96939341 -0.63105418 16.96939341 -0.5859375 14.6484375 C-0.54726562 13.79765625 -0.50859375 12.946875 -0.46875 12.0703125 C-0.4378125 11.18085938 -0.406875 10.29140625 -0.375 9.375 C-0.33632812 8.4778125 -0.29765625 7.580625 -0.2578125 6.65625 C-0.16340643 4.4377073 -0.07783252 2.21917597 0 0 Z " fill="#F9850A" transform="translate(213,217)"/>
<path d="M0 0 C0.33 0 0.66 0 1 0 C1.04898438 1.25296875 1.09796875 2.5059375 1.1484375 3.796875 C1.22348583 5.44793821 1.29903277 7.09897881 1.375 8.75 C1.4059375 9.575 1.436875 10.4 1.46875 11.25 C1.50742188 12.04921875 1.54609375 12.8484375 1.5859375 13.671875 C1.6173584 14.4050293 1.6487793 15.13818359 1.68115234 15.89355469 C2.03772523 18.24922918 2.83662883 19.93450591 4 22 C0.125 20.25 0.125 20.25 -1 18 C-1.02172852 16.12060547 -1.02172852 16.12060547 -0.87890625 13.8671875 C-0.83056641 13.06152344 -0.78222656 12.25585938 -0.73242188 11.42578125 C-0.67634766 10.58402344 -0.62027344 9.74226562 -0.5625 8.875 C-0.51029297 8.02550781 -0.45808594 7.17601562 -0.40429688 6.30078125 C-0.27448622 4.20020876 -0.1378826 2.10005809 0 0 Z " fill="#FB7B05" transform="translate(159,221)"/>
<path d="M0 0 C0.8971875 0.309375 0.8971875 0.309375 1.8125 0.625 C1.090625 0.99625 0.36875 1.3675 -0.375 1.75 C-3.76704762 4.01136508 -5.69248266 6.41712057 -8.1875 9.625 C-8.5175 8.635 -8.8475 7.645 -9.1875 6.625 C-4.17439956 -0.71561135 -4.17439956 -0.71561135 0 0 Z " fill="#F78A1E" transform="translate(161.1875,7.375)"/>
<path d="M0 0 C0.99 0.33 1.98 0.66 3 1 C1.76302083 2.46484375 0.52604167 3.9296875 -0.7109375 5.39453125 C-1.89201099 6.8655046 -2.95358529 8.43037794 -4 10 C-3.5205537 5.78087253 -2.83374881 3.20336822 0 0 Z " fill="#F7871C" transform="translate(37,10)"/>
</svg>
